<svg width="164" height="32" viewBox="0 0 164 32" fill="none" xmlns="http://www.w3.org/2000/svg">
<path d="M43.3369 8.01488e-05C39.5202 0.00536332 35.8341 1.40863 32.9586 3.95103C30.0831 6.49343 28.2122 10.0034 27.691 13.8335H19.1589L17.1404 18.1665H27.1129C26.7067 20.3425 25.6975 22.3565 24.2032 23.9731C22.7089 25.5896 20.7913 26.7419 18.6744 27.2952C16.5575 27.8486 14.3289 27.7801 12.249 27.0978C10.1691 26.4155 8.32399 25.1477 6.92914 23.4424C5.53429 21.7371 4.64741 19.6648 4.37218 17.4678C4.09696 15.2708 4.44477 13.0398 5.37492 11.0356C6.30507 9.03142 7.77915 7.33684 9.62486 6.14993C11.4706 4.96302 13.6117 4.33281 15.7979 4.33299C18.2248 4.32452 20.5911 5.10089 22.5524 6.5491L24.4021 2.5784C21.844 0.886537 18.853 -0.00975921 15.7979 8.01488e-05C12.7652 -0.000563118 9.79638 0.883266 7.24622 2.54597C4.69606 4.20868 2.6724 6.57996 1.41694 9.3765C0.161485 12.173 -0.272651 15.2766 0.166411 18.3164C0.605474 21.3562 1.89916 24.2036 3.89292 26.5186C5.88667 28.8335 8.49618 30.5181 11.4097 31.371C14.3232 32.2239 17.4175 32.209 20.3229 31.3282C23.2283 30.4475 25.822 28.738 27.794 26.404C29.766 24.07 31.0331 21.2103 31.4437 18.1665H39.9758L41.9943 13.8336H32.0219C32.428 11.6575 33.4372 9.6435 34.9315 8.02697C36.4258 6.41044 38.3435 5.25817 40.4603 4.70484C42.5772 4.15151 44.8058 4.21998 46.8856 4.90225C48.9655 5.58453 50.8107 6.85241 52.2056 8.55771C53.6004 10.263 54.4873 12.3353 54.7625 14.5323C55.0377 16.7293 54.6899 18.9602 53.7598 20.9644C52.8296 22.9686 51.3555 24.6632 49.5098 25.8501C47.6641 27.037 45.5231 27.6672 43.3369 27.667C40.9099 27.6755 38.5436 26.8991 36.5824 25.4509L34.7326 29.4216C37.2907 31.1135 40.2818 32.0098 43.3368 31.9999C47.5246 31.998 51.5402 30.3115 54.5008 27.3111C57.4613 24.3108 59.1244 20.2422 59.1244 16C59.1244 11.7578 57.4613 7.68922 54.5008 4.68886C51.5402 1.68849 47.5246 0.00196215 43.3368 8.01488e-05H43.3369Z" fill="white"/>
<path d="M79.107 7.6347H68.175V24.388H71.3613V10.6165H79.107V7.6347Z" fill="white"/>
<path d="M93.4868 7.6347L85.107 19.08V7.6347H81.9204V24.388H84.7309L85.107 23.8756L93.1331 12.9423V24.388H96.3197V7.6347H93.4868Z" fill="white"/>
<path d="M112.563 19.2938C111.875 20.2895 110.894 21.0388 109.76 21.4337C108.625 21.8287 107.397 21.849 106.25 21.4918C105.104 21.1346 104.099 20.4182 103.38 19.4457C102.661 18.4733 102.265 17.2948 102.249 16.0799C102.233 14.865 102.598 13.6763 103.291 12.6848C103.984 11.6933 104.97 10.95 106.107 10.562C107.243 10.174 108.472 10.1612 109.616 10.5254C110.761 10.8896 111.761 11.6121 112.474 12.589L114.711 10.6682C113.866 9.62119 112.802 8.77869 111.594 8.20228C110.387 7.62587 109.068 7.33014 107.733 7.33672C102.841 7.33672 98.8755 11.2169 98.8755 16.0033C98.8755 20.7897 102.841 24.6699 107.733 24.6699C109.091 24.6769 110.434 24.3708 111.658 23.7745C112.882 23.1783 113.956 22.3077 114.799 21.2286L112.563 19.2938Z" fill="white"/>
<path d="M128.309 7.6347H117.377V24.388H120.564V10.6165H128.309V7.6347Z" fill="white"/>
<path d="M142.689 7.6347L134.309 19.08V7.6347H131.123V24.388H133.933L134.309 23.8756L142.336 12.9423V24.388H145.522V7.6347H142.689Z" fill="white"/>
<path d="M161.763 19.2938C161.076 20.2895 160.095 21.0388 158.961 21.4337C157.826 21.8287 156.598 21.849 155.451 21.4918C154.305 21.1346 153.3 20.4182 152.581 19.4457C151.862 18.4733 151.466 17.2948 151.45 16.0799C151.434 14.865 151.799 13.6763 152.492 12.6848C153.185 11.6933 154.171 10.95 155.308 10.562C156.444 10.174 157.673 10.1612 158.817 10.5254C159.961 10.8896 160.962 11.6121 161.675 12.589L163.912 10.6682C163.067 9.62119 162.002 8.77869 160.795 8.20228C159.588 7.62587 158.269 7.33014 156.934 7.33672C152.042 7.33672 148.076 11.2169 148.076 16.0033C148.076 20.7897 152.042 24.6699 156.934 24.6699C158.292 24.6769 159.634 24.3708 160.859 23.7745C162.083 23.1783 163.157 22.3077 164 21.2286L161.763 19.2938Z" fill="white"/>
</svg>
