<svg width="2638" height="67" viewBox="0 0 2638 67" fill="none" xmlns="http://www.w3.org/2000/svg">
<mask id="path-1-outside-1_299_2054" maskUnits="userSpaceOnUse" x="0.359375" y="0.453125" width="1055" height="66" fill="black">
<rect fill="white" x="0.359375" y="0.453125" width="1055" height="66"/>
<path d="M2.35938 53H16.0703V14.3672H38.9609V53H52.7109V3.42969H2.35938V53Z"/>
<path d="M63.2969 53H77.0078V39.0938H92.5547C99.3255 39.0938 104.312 37.4531 107.516 34.1719C110.745 30.8646 112.359 26.5026 112.359 21.0859C112.359 15.6172 110.719 11.3073 107.438 8.15625C104.182 5.00521 99.2995 3.42969 92.7891 3.42969H63.2969V53ZM77.0078 29.7578V13.4297H89.3516C92.7891 13.4297 95.1979 14.1458 96.5781 15.5781C97.9583 16.9844 98.6484 18.9115 98.6484 21.3594C98.6484 23.8854 97.9583 25.9167 96.5781 27.4531C95.1979 28.9896 92.7891 29.7578 89.3516 29.7578H77.0078Z"/>
<path d="M119.078 53H162.867V42.6484H132.125V32.6484H158.805V23.1953H132.125V14.1719H162.281V3.42969H119.078V53Z"/>
<path d="M192.633 44.4062C188.258 44.4062 184.977 43.7682 182.789 42.4922C180.602 41.1901 179.469 38.9766 179.391 35.8516L179.352 34.6797H166.227L166.266 36.0078C166.422 42.2057 168.792 46.737 173.375 49.6016C177.958 52.4401 184.391 53.8594 192.672 53.8594C200.432 53.8594 206.604 52.3099 211.188 49.2109C215.797 46.0859 218.102 42.375 218.102 38.0781C218.102 34.6667 217.151 32.0234 215.25 30.1484C213.375 28.2474 210.875 27.0234 207.75 26.4766V26.3594C210.536 25.5521 212.685 24.2891 214.195 22.5703C215.706 20.8516 216.474 18.638 216.5 15.9297C216.5 11.9974 214.495 8.79427 210.484 6.32031C206.5 3.82031 200.562 2.57031 192.672 2.57031C184.573 2.57031 178.297 4.05469 173.844 7.02344C169.417 9.96615 167.099 14.1849 166.891 19.6797L166.852 20.9688H179.781L179.859 19.7578C179.964 17.1536 181.044 15.2266 183.102 13.9766C185.185 12.7005 188.31 12.0625 192.477 12.0625C196.174 12.0625 198.831 12.5182 200.445 13.4297C202.06 14.3411 202.867 15.6172 202.867 17.2578C202.841 19.3932 202.164 20.8646 200.836 21.6719C199.534 22.4792 197.346 22.8828 194.273 22.8828H184.742V32.4922H194.508C198.076 32.4922 200.589 32.9089 202.047 33.7422C203.505 34.5495 204.234 35.8906 204.234 37.7656C204.234 39.7448 203.284 41.3464 201.383 42.5703C199.508 43.7943 196.591 44.4062 192.633 44.4062Z"/>
<path d="M224.859 53H268.648V42.6484H237.906V32.6484H264.586V23.1953H237.906V14.1719H268.062V3.42969H224.859V53Z"/>
<path d="M276.031 53H289.742V33.0781H313.062V53H326.773V3.42969H313.062V21.6719H289.742V3.42969H276.031V53Z"/>
<path d="M332.711 14.2891H351.695V53H365.602V14.2891H384.547V3.42969H332.711V14.2891Z"/>
<path d="M384.195 53H398.102L412.594 19.25C412.932 18.4167 413.206 17.7396 413.414 17.2188C413.648 16.6719 413.883 16.1771 414.117 15.7344H414.234C414.469 16.1771 414.69 16.6719 414.898 17.2188C415.133 17.7396 415.419 18.4167 415.758 19.25L430.484 53H444.898L421.93 3.39062H407.359L384.195 53ZM395.797 43.4297H432.984L429.586 34.3281H399.195L395.797 43.4297Z"/>
<path d="M493.766 64.1328H506.5V42.0625H499.664V3.42969H485.953V42.0625H463.023V3.42969H449.312V53H493.766V64.1328Z"/>
<path d="M563.961 53V3.42969H548.414L528.492 30.1875C527.841 31.1771 527.372 31.9714 527.086 32.5703C526.826 33.1432 526.578 33.8333 526.344 34.6406H526.109C526.135 33.8854 526.148 33.1302 526.148 32.375C526.174 31.6198 526.188 30.7474 526.188 29.7578V3.42969H512.594V53H528.141L548.102 25.8516C548.779 24.9401 549.247 24.1458 549.508 23.4688C549.794 22.7656 550.042 22.0885 550.25 21.4375H550.484C550.484 22.1146 550.458 22.8177 550.406 23.5469C550.354 24.276 550.328 25.1615 550.328 26.2031L550.367 53H563.961Z"/>
<path d="M621.266 53H607.555V38.0391H591.617L589.977 37.375C584.456 37.0365 580.237 35.3568 577.32 32.3359C574.404 29.2891 572.945 25.2917 572.945 20.3438C572.945 15.2135 574.651 11.112 578.062 8.03906C581.5 4.96615 586.253 3.42969 592.32 3.42969H621.266V53ZM607.555 29.0547V13.1562H595.133C592.164 13.1823 590.029 13.9245 588.727 15.3828C587.451 16.8151 586.812 18.7292 586.812 21.125C586.812 23.5208 587.451 25.4479 588.727 26.9062C590.029 28.3385 592.164 29.0547 595.133 29.0547H607.555ZM585.172 53H570.562L584.625 33H598.883L585.172 53Z"/>
<path d="M654.156 53H667.867V14.3672H690.758V53H704.508V3.42969H654.156V53Z"/>
<path d="M715.094 53H728.805V39.0938H744.352C751.122 39.0938 756.109 37.4531 759.312 34.1719C762.542 30.8646 764.156 26.5026 764.156 21.0859C764.156 15.6172 762.516 11.3073 759.234 8.15625C755.979 5.00521 751.096 3.42969 744.586 3.42969H715.094V53ZM728.805 29.7578V13.4297H741.148C744.586 13.4297 746.995 14.1458 748.375 15.5781C749.755 16.9844 750.445 18.9115 750.445 21.3594C750.445 23.8854 749.755 25.9167 748.375 27.4531C746.995 28.9896 744.586 29.7578 741.148 29.7578H728.805Z"/>
<path d="M767.867 28.7422C767.867 37.4141 770.706 43.7943 776.383 47.8828C782.086 51.9453 789.234 53.9766 797.828 53.9766C806.422 53.9766 813.57 51.9453 819.273 47.8828C824.977 43.7943 827.828 37.4141 827.828 28.7422V27.3359C827.828 18.8464 824.977 12.5833 819.273 8.54688C813.57 4.48438 806.422 2.45312 797.828 2.45312C789.234 2.45312 782.086 4.48438 776.383 8.54688C770.706 12.5833 767.867 18.8464 767.867 27.3359V28.7422ZM782.164 30.8516V25.3828C782.164 20.7474 783.596 17.375 786.461 15.2656C789.326 13.1302 793.128 12.0755 797.867 12.1016C802.581 12.1536 806.37 13.2214 809.234 15.3047C812.099 17.388 813.531 20.7474 813.531 25.3828V30.8906C813.531 35.6562 812.086 39.1328 809.195 41.3203C806.331 43.5078 802.555 44.5885 797.867 44.5625C793.154 44.5365 789.352 43.4427 786.461 41.2812C783.596 39.1198 782.164 35.6432 782.164 30.8516Z"/>
<path d="M835.484 53H879.273V42.6484H848.531V32.6484H875.211V23.1953H848.531V14.1719H878.688V3.42969H835.484V53Z"/>
<path d="M923.844 53H940.992L914.195 24.0156L903.219 30.6953L923.844 53ZM893.531 22.6094V33.625H910.562L938.961 3.42969H922.906L905.367 22.6094H893.531ZM886.656 53H900.367V3.42969H886.656V53Z"/>
<path d="M939.664 14.2891H958.648V53H972.555V14.2891H991.5V3.42969H939.664V14.2891Z"/>
<path d="M991.148 53H1005.05L1019.55 19.25C1019.89 18.4167 1020.16 17.7396 1020.37 17.2188C1020.6 16.6719 1020.84 16.1771 1021.07 15.7344H1021.19C1021.42 16.1771 1021.64 16.6719 1021.85 17.2188C1022.09 17.7396 1022.37 18.4167 1022.71 19.25L1037.44 53H1051.85L1028.88 3.39062H1014.31L991.148 53ZM1002.75 43.4297H1039.94L1036.54 34.3281H1006.15L1002.75 43.4297Z"/>
</mask>
<path d="M2.35938 53H16.0703V14.3672H38.9609V53H52.7109V3.42969H2.35938V53Z" stroke="url(#paint0_linear_299_2054)" stroke-width="4" mask="url(#path-1-outside-1_299_2054)"/>
<path d="M63.2969 53H77.0078V39.0938H92.5547C99.3255 39.0938 104.312 37.4531 107.516 34.1719C110.745 30.8646 112.359 26.5026 112.359 21.0859C112.359 15.6172 110.719 11.3073 107.438 8.15625C104.182 5.00521 99.2995 3.42969 92.7891 3.42969H63.2969V53ZM77.0078 29.7578V13.4297H89.3516C92.7891 13.4297 95.1979 14.1458 96.5781 15.5781C97.9583 16.9844 98.6484 18.9115 98.6484 21.3594C98.6484 23.8854 97.9583 25.9167 96.5781 27.4531C95.1979 28.9896 92.7891 29.7578 89.3516 29.7578H77.0078Z" stroke="url(#paint1_linear_299_2054)" stroke-width="4" mask="url(#path-1-outside-1_299_2054)"/>
<path d="M119.078 53H162.867V42.6484H132.125V32.6484H158.805V23.1953H132.125V14.1719H162.281V3.42969H119.078V53Z" stroke="url(#paint2_linear_299_2054)" stroke-width="4" mask="url(#path-1-outside-1_299_2054)"/>
<path d="M192.633 44.4062C188.258 44.4062 184.977 43.7682 182.789 42.4922C180.602 41.1901 179.469 38.9766 179.391 35.8516L179.352 34.6797H166.227L166.266 36.0078C166.422 42.2057 168.792 46.737 173.375 49.6016C177.958 52.4401 184.391 53.8594 192.672 53.8594C200.432 53.8594 206.604 52.3099 211.188 49.2109C215.797 46.0859 218.102 42.375 218.102 38.0781C218.102 34.6667 217.151 32.0234 215.25 30.1484C213.375 28.2474 210.875 27.0234 207.75 26.4766V26.3594C210.536 25.5521 212.685 24.2891 214.195 22.5703C215.706 20.8516 216.474 18.638 216.5 15.9297C216.5 11.9974 214.495 8.79427 210.484 6.32031C206.5 3.82031 200.562 2.57031 192.672 2.57031C184.573 2.57031 178.297 4.05469 173.844 7.02344C169.417 9.96615 167.099 14.1849 166.891 19.6797L166.852 20.9688H179.781L179.859 19.7578C179.964 17.1536 181.044 15.2266 183.102 13.9766C185.185 12.7005 188.31 12.0625 192.477 12.0625C196.174 12.0625 198.831 12.5182 200.445 13.4297C202.06 14.3411 202.867 15.6172 202.867 17.2578C202.841 19.3932 202.164 20.8646 200.836 21.6719C199.534 22.4792 197.346 22.8828 194.273 22.8828H184.742V32.4922H194.508C198.076 32.4922 200.589 32.9089 202.047 33.7422C203.505 34.5495 204.234 35.8906 204.234 37.7656C204.234 39.7448 203.284 41.3464 201.383 42.5703C199.508 43.7943 196.591 44.4062 192.633 44.4062Z" stroke="url(#paint3_linear_299_2054)" stroke-width="4" mask="url(#path-1-outside-1_299_2054)"/>
<path d="M224.859 53H268.648V42.6484H237.906V32.6484H264.586V23.1953H237.906V14.1719H268.062V3.42969H224.859V53Z" stroke="url(#paint4_linear_299_2054)" stroke-width="4" mask="url(#path-1-outside-1_299_2054)"/>
<path d="M276.031 53H289.742V33.0781H313.062V53H326.773V3.42969H313.062V21.6719H289.742V3.42969H276.031V53Z" stroke="url(#paint5_linear_299_2054)" stroke-width="4" mask="url(#path-1-outside-1_299_2054)"/>
<path d="M332.711 14.2891H351.695V53H365.602V14.2891H384.547V3.42969H332.711V14.2891Z" stroke="url(#paint6_linear_299_2054)" stroke-width="4" mask="url(#path-1-outside-1_299_2054)"/>
<path d="M384.195 53H398.102L412.594 19.25C412.932 18.4167 413.206 17.7396 413.414 17.2188C413.648 16.6719 413.883 16.1771 414.117 15.7344H414.234C414.469 16.1771 414.69 16.6719 414.898 17.2188C415.133 17.7396 415.419 18.4167 415.758 19.25L430.484 53H444.898L421.93 3.39062H407.359L384.195 53ZM395.797 43.4297H432.984L429.586 34.3281H399.195L395.797 43.4297Z" stroke="url(#paint7_linear_299_2054)" stroke-width="4" mask="url(#path-1-outside-1_299_2054)"/>
<path d="M493.766 64.1328H506.5V42.0625H499.664V3.42969H485.953V42.0625H463.023V3.42969H449.312V53H493.766V64.1328Z" stroke="url(#paint8_linear_299_2054)" stroke-width="4" mask="url(#path-1-outside-1_299_2054)"/>
<path d="M563.961 53V3.42969H548.414L528.492 30.1875C527.841 31.1771 527.372 31.9714 527.086 32.5703C526.826 33.1432 526.578 33.8333 526.344 34.6406H526.109C526.135 33.8854 526.148 33.1302 526.148 32.375C526.174 31.6198 526.188 30.7474 526.188 29.7578V3.42969H512.594V53H528.141L548.102 25.8516C548.779 24.9401 549.247 24.1458 549.508 23.4688C549.794 22.7656 550.042 22.0885 550.25 21.4375H550.484C550.484 22.1146 550.458 22.8177 550.406 23.5469C550.354 24.276 550.328 25.1615 550.328 26.2031L550.367 53H563.961Z" stroke="url(#paint9_linear_299_2054)" stroke-width="4" mask="url(#path-1-outside-1_299_2054)"/>
<path d="M621.266 53H607.555V38.0391H591.617L589.977 37.375C584.456 37.0365 580.237 35.3568 577.32 32.3359C574.404 29.2891 572.945 25.2917 572.945 20.3438C572.945 15.2135 574.651 11.112 578.062 8.03906C581.5 4.96615 586.253 3.42969 592.32 3.42969H621.266V53ZM607.555 29.0547V13.1562H595.133C592.164 13.1823 590.029 13.9245 588.727 15.3828C587.451 16.8151 586.812 18.7292 586.812 21.125C586.812 23.5208 587.451 25.4479 588.727 26.9062C590.029 28.3385 592.164 29.0547 595.133 29.0547H607.555ZM585.172 53H570.562L584.625 33H598.883L585.172 53Z" stroke="url(#paint10_linear_299_2054)" stroke-width="4" mask="url(#path-1-outside-1_299_2054)"/>
<path d="M654.156 53H667.867V14.3672H690.758V53H704.508V3.42969H654.156V53Z" stroke="url(#paint11_linear_299_2054)" stroke-width="4" mask="url(#path-1-outside-1_299_2054)"/>
<path d="M715.094 53H728.805V39.0938H744.352C751.122 39.0938 756.109 37.4531 759.312 34.1719C762.542 30.8646 764.156 26.5026 764.156 21.0859C764.156 15.6172 762.516 11.3073 759.234 8.15625C755.979 5.00521 751.096 3.42969 744.586 3.42969H715.094V53ZM728.805 29.7578V13.4297H741.148C744.586 13.4297 746.995 14.1458 748.375 15.5781C749.755 16.9844 750.445 18.9115 750.445 21.3594C750.445 23.8854 749.755 25.9167 748.375 27.4531C746.995 28.9896 744.586 29.7578 741.148 29.7578H728.805Z" stroke="url(#paint12_linear_299_2054)" stroke-width="4" mask="url(#path-1-outside-1_299_2054)"/>
<path d="M767.867 28.7422C767.867 37.4141 770.706 43.7943 776.383 47.8828C782.086 51.9453 789.234 53.9766 797.828 53.9766C806.422 53.9766 813.57 51.9453 819.273 47.8828C824.977 43.7943 827.828 37.4141 827.828 28.7422V27.3359C827.828 18.8464 824.977 12.5833 819.273 8.54688C813.57 4.48438 806.422 2.45312 797.828 2.45312C789.234 2.45312 782.086 4.48438 776.383 8.54688C770.706 12.5833 767.867 18.8464 767.867 27.3359V28.7422ZM782.164 30.8516V25.3828C782.164 20.7474 783.596 17.375 786.461 15.2656C789.326 13.1302 793.128 12.0755 797.867 12.1016C802.581 12.1536 806.37 13.2214 809.234 15.3047C812.099 17.388 813.531 20.7474 813.531 25.3828V30.8906C813.531 35.6562 812.086 39.1328 809.195 41.3203C806.331 43.5078 802.555 44.5885 797.867 44.5625C793.154 44.5365 789.352 43.4427 786.461 41.2812C783.596 39.1198 782.164 35.6432 782.164 30.8516Z" stroke="url(#paint13_linear_299_2054)" stroke-width="4" mask="url(#path-1-outside-1_299_2054)"/>
<path d="M835.484 53H879.273V42.6484H848.531V32.6484H875.211V23.1953H848.531V14.1719H878.688V3.42969H835.484V53Z" stroke="url(#paint14_linear_299_2054)" stroke-width="4" mask="url(#path-1-outside-1_299_2054)"/>
<path d="M923.844 53H940.992L914.195 24.0156L903.219 30.6953L923.844 53ZM893.531 22.6094V33.625H910.562L938.961 3.42969H922.906L905.367 22.6094H893.531ZM886.656 53H900.367V3.42969H886.656V53Z" stroke="url(#paint15_linear_299_2054)" stroke-width="4" mask="url(#path-1-outside-1_299_2054)"/>
<path d="M939.664 14.2891H958.648V53H972.555V14.2891H991.5V3.42969H939.664V14.2891Z" stroke="url(#paint16_linear_299_2054)" stroke-width="4" mask="url(#path-1-outside-1_299_2054)"/>
<path d="M991.148 53H1005.05L1019.55 19.25C1019.89 18.4167 1020.16 17.7396 1020.37 17.2188C1020.6 16.6719 1020.84 16.1771 1021.07 15.7344H1021.19C1021.42 16.1771 1021.64 16.6719 1021.85 17.2188C1022.09 17.7396 1022.37 18.4167 1022.71 19.25L1037.44 53H1051.85L1028.88 3.39062H1014.31L991.148 53ZM1002.75 43.4297H1039.94L1036.54 34.3281H1006.15L1002.75 43.4297Z" stroke="url(#paint17_linear_299_2054)" stroke-width="4" mask="url(#path-1-outside-1_299_2054)"/>
<circle cx="1097" cy="26" r="6" fill="#28AAB9"/>
<path d="M1147.69 54V53V3.42969V2.42969H1148.69H1177.16C1183.06 2.42969 1187.62 3.5338 1190.63 5.92577C1193.69 8.32536 1195.2 11.6907 1195.2 15.8906C1195.2 18.9382 1194.39 21.5516 1192.71 23.6598L1147.69 54ZM1147.69 54H1148.69M1147.69 54H1148.69M1148.69 54H1178.02M1148.69 54H1178.02M1178.02 54C1183.86 54 1188.62 52.7616 1192.2 50.1784M1178.02 54L1192.2 50.1784M1192.2 50.1784C1195.84 47.5526 1197.66 43.8009 1197.66 39.0547M1192.2 50.1784L1197.66 39.0547M1197.66 39.0547C1197.66 35.3016 1196.61 32.2563 1194.39 30.0663M1197.66 39.0547L1194.39 30.0663M1194.39 30.0663C1192.91 28.5679 1191.15 27.4643 1189.12 26.7476C1190.5 25.9703 1191.7 24.9408 1192.71 23.6611L1194.39 30.0663ZM1174.7 42.8984H1163.01V32.5547H1174.7C1177.21 32.5547 1178.96 33.0797 1180.1 33.9791L1180.1 33.9791L1180.11 33.9863C1181.21 34.8375 1181.79 36.0487 1181.79 37.7656C1181.79 39.5424 1181.2 40.7549 1180.12 41.5731C1178.98 42.4088 1177.22 42.8984 1174.7 42.8984ZM1255.37 54H1256.37V53V3.42969V2.42969H1255.37H1239.82H1239.32L1239.02 2.8325L1219.1 29.5903L1219.08 29.6136L1219.06 29.6379C1218.9 29.8926 1218.74 30.1367 1218.59 30.3699C1218.59 30.1709 1218.59 29.9668 1218.59 29.7578V3.42969V2.42969H1217.59H1204H1203V3.42969V53V54H1204H1219.55H1220.05L1220.35 53.5924L1240.31 26.4479C1240.31 26.4473 1240.31 26.4467 1240.31 26.4461C1240.46 26.2451 1240.6 26.0473 1240.74 25.8528C1240.73 25.9677 1240.73 26.0845 1240.73 26.2031V26.2046L1240.77 53.0015L1240.77 54H1241.77H1255.37ZM1309.33 64.1328V65.1328H1310.33H1323.06H1324.06V64.1328V42.0625V41.0625H1323.06H1317.23V3.42969V2.42969H1316.23H1271.85H1270.91L1270.85 3.36683L1269.56 23.8356L1269.56 23.8438C1269.28 29.0455 1268.71 33.1174 1267.88 36.09L1267.88 36.0976C1267.44 37.7173 1266.86 39.3722 1266.13 41.0625H1261.11H1260.11V42.0625V64.1328V65.1328H1261.11H1273.84H1274.84V64.1328V54H1309.33V64.1328ZM1284.65 15.3672H1301.52V41.0625H1281.1C1281.44 40.0153 1281.74 38.941 1282 37.8398L1282 37.8379C1282.72 34.7756 1283.34 30.4116 1283.86 24.7719L1283.86 24.7627L1284.65 15.3672ZM1328.16 53V54H1329.16H1372.95H1373.95V53V42.6484V41.6484H1372.95H1343.2V33.6484H1368.88H1369.88V32.6484V23.1953V22.1953H1368.88H1343.2V15.1719H1372.36H1373.36V14.1719V3.42969V2.42969H1372.36H1329.16H1328.16V3.42969V53ZM1385.25 48.6943L1385.26 48.6973C1391.16 52.9056 1398.53 54.9766 1407.28 54.9766C1416.04 54.9766 1423.4 52.9056 1429.31 48.6973L1429.31 48.6955C1435.34 44.3745 1438.28 37.6511 1438.28 28.7422V27.3359C1438.28 18.6014 1435.33 11.9968 1429.31 7.73151C1423.4 3.52379 1416.03 1.45312 1407.28 1.45312C1398.53 1.45312 1391.16 3.52408 1385.26 7.73239C1379.26 11.9984 1376.32 18.603 1376.32 27.3359V28.7422C1376.32 37.6493 1379.25 44.3725 1385.25 48.6943ZM1396.51 16.0709L1396.51 16.0674C1399.15 14.0989 1402.72 13.0767 1407.31 13.1015C1411.88 13.1525 1415.45 14.1872 1418.1 16.1134C1420.63 17.9528 1421.98 20.9589 1421.98 25.3828V30.8906C1421.98 35.4503 1420.61 38.5809 1418.04 40.5229L1418.04 40.5255C1415.4 42.5432 1411.86 43.5877 1407.33 43.5625C1402.76 43.5373 1399.19 42.48 1396.52 40.4821C1393.98 38.569 1392.62 35.4427 1392.62 30.8516V25.3828C1392.62 20.9596 1393.97 17.9368 1396.51 16.0709ZM1163.01 23.2891V13.9609H1173.96C1176.41 13.9609 1177.98 14.3989 1178.86 15.0803C1179.7 15.7311 1180.19 16.7428 1180.19 18.3125C1180.19 20.001 1179.69 21.1765 1178.8 21.9866C1177.92 22.7828 1176.39 23.2891 1173.96 23.2891H1163.01Z" stroke="url(#paint18_linear_299_2054)" stroke-width="2"/>
<circle cx="1486" cy="26" r="6" fill="#28AAB9"/>
<mask id="path-5-outside-2_299_2054" maskUnits="userSpaceOnUse" x="1535.36" y="0.453125" width="1055" height="66" fill="black">
<rect fill="white" x="1535.36" y="0.453125" width="1055" height="66"/>
<path d="M1537.36 53H1551.07V14.3672H1573.96V53H1587.71V3.42969H1537.36V53Z"/>
<path d="M1598.3 53H1612.01V39.0938H1627.55C1634.33 39.0938 1639.31 37.4531 1642.52 34.1719C1645.74 30.8646 1647.36 26.5026 1647.36 21.0859C1647.36 15.6172 1645.72 11.3073 1642.44 8.15625C1639.18 5.00521 1634.3 3.42969 1627.79 3.42969H1598.3V53ZM1612.01 29.7578V13.4297H1624.35C1627.79 13.4297 1630.2 14.1458 1631.58 15.5781C1632.96 16.9844 1633.65 18.9115 1633.65 21.3594C1633.65 23.8854 1632.96 25.9167 1631.58 27.4531C1630.2 28.9896 1627.79 29.7578 1624.35 29.7578H1612.01Z"/>
<path d="M1654.08 53H1697.87V42.6484H1667.12V32.6484H1693.8V23.1953H1667.12V14.1719H1697.28V3.42969H1654.08V53Z"/>
<path d="M1727.63 44.4062C1723.26 44.4062 1719.98 43.7682 1717.79 42.4922C1715.6 41.1901 1714.47 38.9766 1714.39 35.8516L1714.35 34.6797H1701.23L1701.27 36.0078C1701.42 42.2057 1703.79 46.737 1708.38 49.6016C1712.96 52.4401 1719.39 53.8594 1727.67 53.8594C1735.43 53.8594 1741.6 52.3099 1746.19 49.2109C1750.8 46.0859 1753.1 42.375 1753.1 38.0781C1753.1 34.6667 1752.15 32.0234 1750.25 30.1484C1748.38 28.2474 1745.88 27.0234 1742.75 26.4766V26.3594C1745.54 25.5521 1747.68 24.2891 1749.2 22.5703C1750.71 20.8516 1751.47 18.638 1751.5 15.9297C1751.5 11.9974 1749.49 8.79427 1745.48 6.32031C1741.5 3.82031 1735.56 2.57031 1727.67 2.57031C1719.57 2.57031 1713.3 4.05469 1708.84 7.02344C1704.42 9.96615 1702.1 14.1849 1701.89 19.6797L1701.85 20.9688H1714.78L1714.86 19.7578C1714.96 17.1536 1716.04 15.2266 1718.1 13.9766C1720.18 12.7005 1723.31 12.0625 1727.48 12.0625C1731.17 12.0625 1733.83 12.5182 1735.45 13.4297C1737.06 14.3411 1737.87 15.6172 1737.87 17.2578C1737.84 19.3932 1737.16 20.8646 1735.84 21.6719C1734.53 22.4792 1732.35 22.8828 1729.27 22.8828H1719.74V32.4922H1729.51C1733.08 32.4922 1735.59 32.9089 1737.05 33.7422C1738.51 34.5495 1739.23 35.8906 1739.23 37.7656C1739.23 39.7448 1738.28 41.3464 1736.38 42.5703C1734.51 43.7943 1731.59 44.4062 1727.63 44.4062Z"/>
<path d="M1759.86 53H1803.65V42.6484H1772.91V32.6484H1799.59V23.1953H1772.91V14.1719H1803.06V3.42969H1759.86V53Z"/>
<path d="M1811.03 53H1824.74V33.0781H1848.06V53H1861.77V3.42969H1848.06V21.6719H1824.74V3.42969H1811.03V53Z"/>
<path d="M1867.71 14.2891H1886.7V53H1900.6V14.2891H1919.55V3.42969H1867.71V14.2891Z"/>
<path d="M1919.2 53H1933.1L1947.59 19.25C1947.93 18.4167 1948.21 17.7396 1948.41 17.2188C1948.65 16.6719 1948.88 16.1771 1949.12 15.7344H1949.23C1949.47 16.1771 1949.69 16.6719 1949.9 17.2188C1950.13 17.7396 1950.42 18.4167 1950.76 19.25L1965.48 53H1979.9L1956.93 3.39062H1942.36L1919.2 53ZM1930.8 43.4297H1967.98L1964.59 34.3281H1934.2L1930.8 43.4297Z"/>
<path d="M2028.77 64.1328H2041.5V42.0625H2034.66V3.42969H2020.95V42.0625H1998.02V3.42969H1984.31V53H2028.77V64.1328Z"/>
<path d="M2098.96 53V3.42969H2083.41L2063.49 30.1875C2062.84 31.1771 2062.37 31.9714 2062.09 32.5703C2061.83 33.1432 2061.58 33.8333 2061.34 34.6406H2061.11C2061.14 33.8854 2061.15 33.1302 2061.15 32.375C2061.17 31.6198 2061.19 30.7474 2061.19 29.7578V3.42969H2047.59V53H2063.14L2083.1 25.8516C2083.78 24.9401 2084.25 24.1458 2084.51 23.4688C2084.79 22.7656 2085.04 22.0885 2085.25 21.4375H2085.48C2085.48 22.1146 2085.46 22.8177 2085.41 23.5469C2085.35 24.276 2085.33 25.1615 2085.33 26.2031L2085.37 53H2098.96Z"/>
<path d="M2156.27 53H2142.55V38.0391H2126.62L2124.98 37.375C2119.46 37.0365 2115.24 35.3568 2112.32 32.3359C2109.4 29.2891 2107.95 25.2917 2107.95 20.3438C2107.95 15.2135 2109.65 11.112 2113.06 8.03906C2116.5 4.96615 2121.25 3.42969 2127.32 3.42969H2156.27V53ZM2142.55 29.0547V13.1562H2130.13C2127.16 13.1823 2125.03 13.9245 2123.73 15.3828C2122.45 16.8151 2121.81 18.7292 2121.81 21.125C2121.81 23.5208 2122.45 25.4479 2123.73 26.9062C2125.03 28.3385 2127.16 29.0547 2130.13 29.0547H2142.55ZM2120.17 53H2105.56L2119.62 33H2133.88L2120.17 53Z"/>
<path d="M2189.16 53H2202.87V14.3672H2225.76V53H2239.51V3.42969H2189.16V53Z"/>
<path d="M2250.09 53H2263.8V39.0938H2279.35C2286.12 39.0938 2291.11 37.4531 2294.31 34.1719C2297.54 30.8646 2299.16 26.5026 2299.16 21.0859C2299.16 15.6172 2297.52 11.3073 2294.23 8.15625C2290.98 5.00521 2286.1 3.42969 2279.59 3.42969H2250.09V53ZM2263.8 29.7578V13.4297H2276.15C2279.59 13.4297 2281.99 14.1458 2283.38 15.5781C2284.76 16.9844 2285.45 18.9115 2285.45 21.3594C2285.45 23.8854 2284.76 25.9167 2283.38 27.4531C2281.99 28.9896 2279.59 29.7578 2276.15 29.7578H2263.8Z"/>
<path d="M2302.87 28.7422C2302.87 37.4141 2305.71 43.7943 2311.38 47.8828C2317.09 51.9453 2324.23 53.9766 2332.83 53.9766C2341.42 53.9766 2348.57 51.9453 2354.27 47.8828C2359.98 43.7943 2362.83 37.4141 2362.83 28.7422V27.3359C2362.83 18.8464 2359.98 12.5833 2354.27 8.54688C2348.57 4.48438 2341.42 2.45312 2332.83 2.45312C2324.23 2.45312 2317.09 4.48438 2311.38 8.54688C2305.71 12.5833 2302.87 18.8464 2302.87 27.3359V28.7422ZM2317.16 30.8516V25.3828C2317.16 20.7474 2318.6 17.375 2321.46 15.2656C2324.33 13.1302 2328.13 12.0755 2332.87 12.1016C2337.58 12.1536 2341.37 13.2214 2344.23 15.3047C2347.1 17.388 2348.53 20.7474 2348.53 25.3828V30.8906C2348.53 35.6562 2347.09 39.1328 2344.2 41.3203C2341.33 43.5078 2337.55 44.5885 2332.87 44.5625C2328.15 44.5365 2324.35 43.4427 2321.46 41.2812C2318.6 39.1198 2317.16 35.6432 2317.16 30.8516Z"/>
<path d="M2370.48 53H2414.27V42.6484H2383.53V32.6484H2410.21V23.1953H2383.53V14.1719H2413.69V3.42969H2370.48V53Z"/>
<path d="M2458.84 53H2475.99L2449.2 24.0156L2438.22 30.6953L2458.84 53ZM2428.53 22.6094V33.625H2445.56L2473.96 3.42969H2457.91L2440.37 22.6094H2428.53ZM2421.66 53H2435.37V3.42969H2421.66V53Z"/>
<path d="M2474.66 14.2891H2493.65V53H2507.55V14.2891H2526.5V3.42969H2474.66V14.2891Z"/>
<path d="M2526.15 53H2540.05L2554.55 19.25C2554.89 18.4167 2555.16 17.7396 2555.37 17.2188C2555.6 16.6719 2555.84 16.1771 2556.07 15.7344H2556.19C2556.42 16.1771 2556.64 16.6719 2556.85 17.2188C2557.09 17.7396 2557.37 18.4167 2557.71 19.25L2572.44 53H2586.85L2563.88 3.39062H2549.31L2526.15 53ZM2537.75 43.4297H2574.94L2571.54 34.3281H2541.15L2537.75 43.4297Z"/>
</mask>
<path d="M1537.36 53H1551.07V14.3672H1573.96V53H1587.71V3.42969H1537.36V53Z" stroke="url(#paint19_linear_299_2054)" stroke-width="4" mask="url(#path-5-outside-2_299_2054)"/>
<path d="M1598.3 53H1612.01V39.0938H1627.55C1634.33 39.0938 1639.31 37.4531 1642.52 34.1719C1645.74 30.8646 1647.36 26.5026 1647.36 21.0859C1647.36 15.6172 1645.72 11.3073 1642.44 8.15625C1639.18 5.00521 1634.3 3.42969 1627.79 3.42969H1598.3V53ZM1612.01 29.7578V13.4297H1624.35C1627.79 13.4297 1630.2 14.1458 1631.58 15.5781C1632.96 16.9844 1633.65 18.9115 1633.65 21.3594C1633.65 23.8854 1632.96 25.9167 1631.58 27.4531C1630.2 28.9896 1627.79 29.7578 1624.35 29.7578H1612.01Z" stroke="url(#paint20_linear_299_2054)" stroke-width="4" mask="url(#path-5-outside-2_299_2054)"/>
<path d="M1654.08 53H1697.87V42.6484H1667.12V32.6484H1693.8V23.1953H1667.12V14.1719H1697.28V3.42969H1654.08V53Z" stroke="url(#paint21_linear_299_2054)" stroke-width="4" mask="url(#path-5-outside-2_299_2054)"/>
<path d="M1727.63 44.4062C1723.26 44.4062 1719.98 43.7682 1717.79 42.4922C1715.6 41.1901 1714.47 38.9766 1714.39 35.8516L1714.35 34.6797H1701.23L1701.27 36.0078C1701.42 42.2057 1703.79 46.737 1708.38 49.6016C1712.96 52.4401 1719.39 53.8594 1727.67 53.8594C1735.43 53.8594 1741.6 52.3099 1746.19 49.2109C1750.8 46.0859 1753.1 42.375 1753.1 38.0781C1753.1 34.6667 1752.15 32.0234 1750.25 30.1484C1748.38 28.2474 1745.88 27.0234 1742.75 26.4766V26.3594C1745.54 25.5521 1747.68 24.2891 1749.2 22.5703C1750.71 20.8516 1751.47 18.638 1751.5 15.9297C1751.5 11.9974 1749.49 8.79427 1745.48 6.32031C1741.5 3.82031 1735.56 2.57031 1727.67 2.57031C1719.57 2.57031 1713.3 4.05469 1708.84 7.02344C1704.42 9.96615 1702.1 14.1849 1701.89 19.6797L1701.85 20.9688H1714.78L1714.86 19.7578C1714.96 17.1536 1716.04 15.2266 1718.1 13.9766C1720.18 12.7005 1723.31 12.0625 1727.48 12.0625C1731.17 12.0625 1733.83 12.5182 1735.45 13.4297C1737.06 14.3411 1737.87 15.6172 1737.87 17.2578C1737.84 19.3932 1737.16 20.8646 1735.84 21.6719C1734.53 22.4792 1732.35 22.8828 1729.27 22.8828H1719.74V32.4922H1729.51C1733.08 32.4922 1735.59 32.9089 1737.05 33.7422C1738.51 34.5495 1739.23 35.8906 1739.23 37.7656C1739.23 39.7448 1738.28 41.3464 1736.38 42.5703C1734.51 43.7943 1731.59 44.4062 1727.63 44.4062Z" stroke="url(#paint22_linear_299_2054)" stroke-width="4" mask="url(#path-5-outside-2_299_2054)"/>
<path d="M1759.86 53H1803.65V42.6484H1772.91V32.6484H1799.59V23.1953H1772.91V14.1719H1803.06V3.42969H1759.86V53Z" stroke="url(#paint23_linear_299_2054)" stroke-width="4" mask="url(#path-5-outside-2_299_2054)"/>
<path d="M1811.03 53H1824.74V33.0781H1848.06V53H1861.77V3.42969H1848.06V21.6719H1824.74V3.42969H1811.03V53Z" stroke="url(#paint24_linear_299_2054)" stroke-width="4" mask="url(#path-5-outside-2_299_2054)"/>
<path d="M1867.71 14.2891H1886.7V53H1900.6V14.2891H1919.55V3.42969H1867.71V14.2891Z" stroke="url(#paint25_linear_299_2054)" stroke-width="4" mask="url(#path-5-outside-2_299_2054)"/>
<path d="M1919.2 53H1933.1L1947.59 19.25C1947.93 18.4167 1948.21 17.7396 1948.41 17.2188C1948.65 16.6719 1948.88 16.1771 1949.12 15.7344H1949.23C1949.47 16.1771 1949.69 16.6719 1949.9 17.2188C1950.13 17.7396 1950.42 18.4167 1950.76 19.25L1965.48 53H1979.9L1956.93 3.39062H1942.36L1919.2 53ZM1930.8 43.4297H1967.98L1964.59 34.3281H1934.2L1930.8 43.4297Z" stroke="url(#paint26_linear_299_2054)" stroke-width="4" mask="url(#path-5-outside-2_299_2054)"/>
<path d="M2028.77 64.1328H2041.5V42.0625H2034.66V3.42969H2020.95V42.0625H1998.02V3.42969H1984.31V53H2028.77V64.1328Z" stroke="url(#paint27_linear_299_2054)" stroke-width="4" mask="url(#path-5-outside-2_299_2054)"/>
<path d="M2098.96 53V3.42969H2083.41L2063.49 30.1875C2062.84 31.1771 2062.37 31.9714 2062.09 32.5703C2061.83 33.1432 2061.58 33.8333 2061.34 34.6406H2061.11C2061.14 33.8854 2061.15 33.1302 2061.15 32.375C2061.17 31.6198 2061.19 30.7474 2061.19 29.7578V3.42969H2047.59V53H2063.14L2083.1 25.8516C2083.78 24.9401 2084.25 24.1458 2084.51 23.4688C2084.79 22.7656 2085.04 22.0885 2085.25 21.4375H2085.48C2085.48 22.1146 2085.46 22.8177 2085.41 23.5469C2085.35 24.276 2085.33 25.1615 2085.33 26.2031L2085.37 53H2098.96Z" stroke="url(#paint28_linear_299_2054)" stroke-width="4" mask="url(#path-5-outside-2_299_2054)"/>
<path d="M2156.27 53H2142.55V38.0391H2126.62L2124.98 37.375C2119.46 37.0365 2115.24 35.3568 2112.32 32.3359C2109.4 29.2891 2107.95 25.2917 2107.95 20.3438C2107.95 15.2135 2109.65 11.112 2113.06 8.03906C2116.5 4.96615 2121.25 3.42969 2127.32 3.42969H2156.27V53ZM2142.55 29.0547V13.1562H2130.13C2127.16 13.1823 2125.03 13.9245 2123.73 15.3828C2122.45 16.8151 2121.81 18.7292 2121.81 21.125C2121.81 23.5208 2122.45 25.4479 2123.73 26.9062C2125.03 28.3385 2127.16 29.0547 2130.13 29.0547H2142.55ZM2120.17 53H2105.56L2119.62 33H2133.88L2120.17 53Z" stroke="url(#paint29_linear_299_2054)" stroke-width="4" mask="url(#path-5-outside-2_299_2054)"/>
<path d="M2189.16 53H2202.87V14.3672H2225.76V53H2239.51V3.42969H2189.16V53Z" stroke="url(#paint30_linear_299_2054)" stroke-width="4" mask="url(#path-5-outside-2_299_2054)"/>
<path d="M2250.09 53H2263.8V39.0938H2279.35C2286.12 39.0938 2291.11 37.4531 2294.31 34.1719C2297.54 30.8646 2299.16 26.5026 2299.16 21.0859C2299.16 15.6172 2297.52 11.3073 2294.23 8.15625C2290.98 5.00521 2286.1 3.42969 2279.59 3.42969H2250.09V53ZM2263.8 29.7578V13.4297H2276.15C2279.59 13.4297 2281.99 14.1458 2283.38 15.5781C2284.76 16.9844 2285.45 18.9115 2285.45 21.3594C2285.45 23.8854 2284.76 25.9167 2283.38 27.4531C2281.99 28.9896 2279.59 29.7578 2276.15 29.7578H2263.8Z" stroke="url(#paint31_linear_299_2054)" stroke-width="4" mask="url(#path-5-outside-2_299_2054)"/>
<path d="M2302.87 28.7422C2302.87 37.4141 2305.71 43.7943 2311.38 47.8828C2317.09 51.9453 2324.23 53.9766 2332.83 53.9766C2341.42 53.9766 2348.57 51.9453 2354.27 47.8828C2359.98 43.7943 2362.83 37.4141 2362.83 28.7422V27.3359C2362.83 18.8464 2359.98 12.5833 2354.27 8.54688C2348.57 4.48438 2341.42 2.45312 2332.83 2.45312C2324.23 2.45312 2317.09 4.48438 2311.38 8.54688C2305.71 12.5833 2302.87 18.8464 2302.87 27.3359V28.7422ZM2317.16 30.8516V25.3828C2317.16 20.7474 2318.6 17.375 2321.46 15.2656C2324.33 13.1302 2328.13 12.0755 2332.87 12.1016C2337.58 12.1536 2341.37 13.2214 2344.23 15.3047C2347.1 17.388 2348.53 20.7474 2348.53 25.3828V30.8906C2348.53 35.6562 2347.09 39.1328 2344.2 41.3203C2341.33 43.5078 2337.55 44.5885 2332.87 44.5625C2328.15 44.5365 2324.35 43.4427 2321.46 41.2812C2318.6 39.1198 2317.16 35.6432 2317.16 30.8516Z" stroke="url(#paint32_linear_299_2054)" stroke-width="4" mask="url(#path-5-outside-2_299_2054)"/>
<path d="M2370.48 53H2414.27V42.6484H2383.53V32.6484H2410.21V23.1953H2383.53V14.1719H2413.69V3.42969H2370.48V53Z" stroke="url(#paint33_linear_299_2054)" stroke-width="4" mask="url(#path-5-outside-2_299_2054)"/>
<path d="M2458.84 53H2475.99L2449.2 24.0156L2438.22 30.6953L2458.84 53ZM2428.53 22.6094V33.625H2445.56L2473.96 3.42969H2457.91L2440.37 22.6094H2428.53ZM2421.66 53H2435.37V3.42969H2421.66V53Z" stroke="url(#paint34_linear_299_2054)" stroke-width="4" mask="url(#path-5-outside-2_299_2054)"/>
<path d="M2474.66 14.2891H2493.65V53H2507.55V14.2891H2526.5V3.42969H2474.66V14.2891Z" stroke="url(#paint35_linear_299_2054)" stroke-width="4" mask="url(#path-5-outside-2_299_2054)"/>
<path d="M2526.15 53H2540.05L2554.55 19.25C2554.89 18.4167 2555.16 17.7396 2555.37 17.2188C2555.6 16.6719 2555.84 16.1771 2556.07 15.7344H2556.19C2556.42 16.1771 2556.64 16.6719 2556.85 17.2188C2557.09 17.7396 2557.37 18.4167 2557.71 19.25L2572.44 53H2586.85L2563.88 3.39062H2549.31L2526.15 53ZM2537.75 43.4297H2574.94L2571.54 34.3281H2541.15L2537.75 43.4297Z" stroke="url(#paint36_linear_299_2054)" stroke-width="4" mask="url(#path-5-outside-2_299_2054)"/>
<circle cx="2632" cy="26" r="6" fill="#28AAB9"/>
<defs>
<linearGradient id="paint0_linear_299_2054" x1="994.319" y1="54.1098" x2="24.7188" y2="-114.762" gradientUnits="userSpaceOnUse">
<stop stop-color="#28AAB9"/>
<stop offset="1" stop-color="#30BCCC"/>
</linearGradient>
<linearGradient id="paint1_linear_299_2054" x1="994.319" y1="54.1098" x2="24.7188" y2="-114.762" gradientUnits="userSpaceOnUse">
<stop stop-color="#28AAB9"/>
<stop offset="1" stop-color="#30BCCC"/>
</linearGradient>
<linearGradient id="paint2_linear_299_2054" x1="994.319" y1="54.1098" x2="24.7188" y2="-114.762" gradientUnits="userSpaceOnUse">
<stop stop-color="#28AAB9"/>
<stop offset="1" stop-color="#30BCCC"/>
</linearGradient>
<linearGradient id="paint3_linear_299_2054" x1="994.319" y1="54.1098" x2="24.7188" y2="-114.762" gradientUnits="userSpaceOnUse">
<stop stop-color="#28AAB9"/>
<stop offset="1" stop-color="#30BCCC"/>
</linearGradient>
<linearGradient id="paint4_linear_299_2054" x1="994.319" y1="54.1098" x2="24.7188" y2="-114.762" gradientUnits="userSpaceOnUse">
<stop stop-color="#28AAB9"/>
<stop offset="1" stop-color="#30BCCC"/>
</linearGradient>
<linearGradient id="paint5_linear_299_2054" x1="994.319" y1="54.1098" x2="24.7188" y2="-114.762" gradientUnits="userSpaceOnUse">
<stop stop-color="#28AAB9"/>
<stop offset="1" stop-color="#30BCCC"/>
</linearGradient>
<linearGradient id="paint6_linear_299_2054" x1="994.319" y1="54.1098" x2="24.7188" y2="-114.762" gradientUnits="userSpaceOnUse">
<stop stop-color="#28AAB9"/>
<stop offset="1" stop-color="#30BCCC"/>
</linearGradient>
<linearGradient id="paint7_linear_299_2054" x1="994.319" y1="54.1098" x2="24.7188" y2="-114.762" gradientUnits="userSpaceOnUse">
<stop stop-color="#28AAB9"/>
<stop offset="1" stop-color="#30BCCC"/>
</linearGradient>
<linearGradient id="paint8_linear_299_2054" x1="994.319" y1="54.1098" x2="24.7188" y2="-114.762" gradientUnits="userSpaceOnUse">
<stop stop-color="#28AAB9"/>
<stop offset="1" stop-color="#30BCCC"/>
</linearGradient>
<linearGradient id="paint9_linear_299_2054" x1="994.319" y1="54.1098" x2="24.7188" y2="-114.762" gradientUnits="userSpaceOnUse">
<stop stop-color="#28AAB9"/>
<stop offset="1" stop-color="#30BCCC"/>
</linearGradient>
<linearGradient id="paint10_linear_299_2054" x1="994.319" y1="54.1098" x2="24.7188" y2="-114.762" gradientUnits="userSpaceOnUse">
<stop stop-color="#28AAB9"/>
<stop offset="1" stop-color="#30BCCC"/>
</linearGradient>
<linearGradient id="paint11_linear_299_2054" x1="994.319" y1="54.1098" x2="24.7188" y2="-114.762" gradientUnits="userSpaceOnUse">
<stop stop-color="#28AAB9"/>
<stop offset="1" stop-color="#30BCCC"/>
</linearGradient>
<linearGradient id="paint12_linear_299_2054" x1="994.319" y1="54.1098" x2="24.7188" y2="-114.762" gradientUnits="userSpaceOnUse">
<stop stop-color="#28AAB9"/>
<stop offset="1" stop-color="#30BCCC"/>
</linearGradient>
<linearGradient id="paint13_linear_299_2054" x1="994.319" y1="54.1098" x2="24.7188" y2="-114.762" gradientUnits="userSpaceOnUse">
<stop stop-color="#28AAB9"/>
<stop offset="1" stop-color="#30BCCC"/>
</linearGradient>
<linearGradient id="paint14_linear_299_2054" x1="994.319" y1="54.1098" x2="24.7188" y2="-114.762" gradientUnits="userSpaceOnUse">
<stop stop-color="#28AAB9"/>
<stop offset="1" stop-color="#30BCCC"/>
</linearGradient>
<linearGradient id="paint15_linear_299_2054" x1="994.319" y1="54.1098" x2="24.7188" y2="-114.762" gradientUnits="userSpaceOnUse">
<stop stop-color="#28AAB9"/>
<stop offset="1" stop-color="#30BCCC"/>
</linearGradient>
<linearGradient id="paint16_linear_299_2054" x1="994.319" y1="54.1098" x2="24.7188" y2="-114.762" gradientUnits="userSpaceOnUse">
<stop stop-color="#28AAB9"/>
<stop offset="1" stop-color="#30BCCC"/>
</linearGradient>
<linearGradient id="paint17_linear_299_2054" x1="994.319" y1="54.1098" x2="24.7188" y2="-114.762" gradientUnits="userSpaceOnUse">
<stop stop-color="#28AAB9"/>
<stop offset="1" stop-color="#30BCCC"/>
</linearGradient>
<linearGradient id="paint18_linear_299_2054" x1="1421.46" y1="54.1098" x2="1147.38" y2="40.9831" gradientUnits="userSpaceOnUse">
<stop stop-color="#28AAB9"/>
<stop offset="1" stop-color="#30BCCC"/>
</linearGradient>
<linearGradient id="paint19_linear_299_2054" x1="2529.32" y1="54.1098" x2="1559.72" y2="-114.762" gradientUnits="userSpaceOnUse">
<stop stop-color="#28AAB9"/>
<stop offset="1" stop-color="#30BCCC"/>
</linearGradient>
<linearGradient id="paint20_linear_299_2054" x1="2529.32" y1="54.1098" x2="1559.72" y2="-114.762" gradientUnits="userSpaceOnUse">
<stop stop-color="#28AAB9"/>
<stop offset="1" stop-color="#30BCCC"/>
</linearGradient>
<linearGradient id="paint21_linear_299_2054" x1="2529.32" y1="54.1098" x2="1559.72" y2="-114.762" gradientUnits="userSpaceOnUse">
<stop stop-color="#28AAB9"/>
<stop offset="1" stop-color="#30BCCC"/>
</linearGradient>
<linearGradient id="paint22_linear_299_2054" x1="2529.32" y1="54.1098" x2="1559.72" y2="-114.762" gradientUnits="userSpaceOnUse">
<stop stop-color="#28AAB9"/>
<stop offset="1" stop-color="#30BCCC"/>
</linearGradient>
<linearGradient id="paint23_linear_299_2054" x1="2529.32" y1="54.1098" x2="1559.72" y2="-114.762" gradientUnits="userSpaceOnUse">
<stop stop-color="#28AAB9"/>
<stop offset="1" stop-color="#30BCCC"/>
</linearGradient>
<linearGradient id="paint24_linear_299_2054" x1="2529.32" y1="54.1098" x2="1559.72" y2="-114.762" gradientUnits="userSpaceOnUse">
<stop stop-color="#28AAB9"/>
<stop offset="1" stop-color="#30BCCC"/>
</linearGradient>
<linearGradient id="paint25_linear_299_2054" x1="2529.32" y1="54.1098" x2="1559.72" y2="-114.762" gradientUnits="userSpaceOnUse">
<stop stop-color="#28AAB9"/>
<stop offset="1" stop-color="#30BCCC"/>
</linearGradient>
<linearGradient id="paint26_linear_299_2054" x1="2529.32" y1="54.1098" x2="1559.72" y2="-114.762" gradientUnits="userSpaceOnUse">
<stop stop-color="#28AAB9"/>
<stop offset="1" stop-color="#30BCCC"/>
</linearGradient>
<linearGradient id="paint27_linear_299_2054" x1="2529.32" y1="54.1098" x2="1559.72" y2="-114.762" gradientUnits="userSpaceOnUse">
<stop stop-color="#28AAB9"/>
<stop offset="1" stop-color="#30BCCC"/>
</linearGradient>
<linearGradient id="paint28_linear_299_2054" x1="2529.32" y1="54.1098" x2="1559.72" y2="-114.762" gradientUnits="userSpaceOnUse">
<stop stop-color="#28AAB9"/>
<stop offset="1" stop-color="#30BCCC"/>
</linearGradient>
<linearGradient id="paint29_linear_299_2054" x1="2529.32" y1="54.1098" x2="1559.72" y2="-114.762" gradientUnits="userSpaceOnUse">
<stop stop-color="#28AAB9"/>
<stop offset="1" stop-color="#30BCCC"/>
</linearGradient>
<linearGradient id="paint30_linear_299_2054" x1="2529.32" y1="54.1098" x2="1559.72" y2="-114.762" gradientUnits="userSpaceOnUse">
<stop stop-color="#28AAB9"/>
<stop offset="1" stop-color="#30BCCC"/>
</linearGradient>
<linearGradient id="paint31_linear_299_2054" x1="2529.32" y1="54.1098" x2="1559.72" y2="-114.762" gradientUnits="userSpaceOnUse">
<stop stop-color="#28AAB9"/>
<stop offset="1" stop-color="#30BCCC"/>
</linearGradient>
<linearGradient id="paint32_linear_299_2054" x1="2529.32" y1="54.1098" x2="1559.72" y2="-114.762" gradientUnits="userSpaceOnUse">
<stop stop-color="#28AAB9"/>
<stop offset="1" stop-color="#30BCCC"/>
</linearGradient>
<linearGradient id="paint33_linear_299_2054" x1="2529.32" y1="54.1098" x2="1559.72" y2="-114.762" gradientUnits="userSpaceOnUse">
<stop stop-color="#28AAB9"/>
<stop offset="1" stop-color="#30BCCC"/>
</linearGradient>
<linearGradient id="paint34_linear_299_2054" x1="2529.32" y1="54.1098" x2="1559.72" y2="-114.762" gradientUnits="userSpaceOnUse">
<stop stop-color="#28AAB9"/>
<stop offset="1" stop-color="#30BCCC"/>
</linearGradient>
<linearGradient id="paint35_linear_299_2054" x1="2529.32" y1="54.1098" x2="1559.72" y2="-114.762" gradientUnits="userSpaceOnUse">
<stop stop-color="#28AAB9"/>
<stop offset="1" stop-color="#30BCCC"/>
</linearGradient>
<linearGradient id="paint36_linear_299_2054" x1="2529.32" y1="54.1098" x2="1559.72" y2="-114.762" gradientUnits="userSpaceOnUse">
<stop stop-color="#28AAB9"/>
<stop offset="1" stop-color="#30BCCC"/>
</linearGradient>
</defs>
</svg>
