<svg width="2046" height="66" viewBox="0 0 2046 66" fill="none" xmlns="http://www.w3.org/2000/svg">
  <path fill-rule="evenodd" clip-rule="evenodd" d="M0 54.5703V1H30.4766C36.4635 1 41.288 2.11458 44.5669 4.71107C47.8913 7.32273 49.5078 10.9934 49.5078 15.4609C49.5078 18.6921 48.6484 21.5366 46.8092 23.8522C46.1274 24.7131 45.3664 25.4696 44.5295 26.1205C45.9709 26.8377 47.2701 27.7722 48.4144 28.9296C50.8676 31.3563 51.9688 34.6863 51.9688 38.625C51.9688 43.6643 50.0244 47.7301 46.0993 50.5599C42.2923 53.3044 37.3042 54.5703 31.3359 54.5703H0ZM47 30.3438C45.733 29.0599 44.2359 28.0828 42.5086 27.4126C41.584 27.0539 40.5935 26.783 39.5371 26.6001C39.5247 26.598 39.5124 26.5959 39.5 26.5938V26.4766C39.507 26.4744 39.5141 26.4723 39.5211 26.4702C40.5337 26.1646 41.4659 25.7494 42.3177 25.2245C43.4294 24.5395 44.4043 23.6678 45.2422 22.6094C46.7526 20.7083 47.5078 18.3255 47.5078 15.4609C47.5078 11.5286 46.1146 8.46875 43.3281 6.28125C40.5677 4.09375 36.2839 3 30.4766 3H2V52.5703H31.3359C37.0391 52.5703 41.5703 51.3594 44.9297 48.9375C48.2891 46.5156 49.9688 43.0781 49.9688 38.625C49.9688 35.0573 48.9792 32.2969 47 30.3438ZM34.0312 32.7656C32.651 31.6719 30.6458 31.125 28.0156 31.125H15.3203V43.4688H28.0156C30.6458 43.4688 32.651 42.9609 34.0312 41.9453C35.4115 40.9036 36.1016 39.3672 36.1016 37.3359C36.1016 35.3568 35.4115 33.8333 34.0312 32.7656ZM32.836 40.3417C33.6185 39.7469 34.1016 38.8575 34.1016 37.3359C34.1016 35.8813 33.6279 34.9822 32.8075 34.3475L32.7983 34.3404L32.7891 34.3331C31.8994 33.6281 30.4082 33.125 28.0156 33.125H17.3203V41.4688H28.0156C30.4248 41.4688 31.9378 40.9979 32.836 40.3417ZM17.3203 14.5312V21.8594H27.2734C29.5976 21.8594 30.8302 21.3676 31.4359 20.817C32.0723 20.2384 32.5 19.3588 32.5 17.8828C32.5 16.5403 32.0968 15.858 31.5584 15.4419C30.9405 14.9645 29.6518 14.5312 27.2734 14.5312H17.3203ZM55.3125 54.5703V1H73.0234V19.2422H92.3438V1H110.055V54.5703H92.3438V34.6484H73.0234V54.5703H55.3125ZM71.0234 3V21.2422H94.3438V3H108.055V52.5703H94.3438V32.6484H71.0234V52.5703H57.3125V3H71.0234ZM116.719 54.5703V1H163.922V15.7422H133.766V20.7656H160.445V34.2188H133.766V40.2188H162.969V39.6328H169.325C169.917 38.1931 170.399 36.7843 170.773 35.4062L170.775 35.3986L170.777 35.391C171.58 32.5186 172.142 28.5285 172.425 23.3595L172.425 23.3512L173.833 1H222.086V39.6328H228.922V65.7031H212.188V54.5703H179.703V65.7031H162.969V54.5703H116.719ZM214.188 63.7031H226.922V41.6328H220.086V3H175.711L174.422 23.4688C174.135 28.7031 173.562 32.8568 172.703 35.9297C172.373 37.1477 171.965 38.3821 171.479 39.6328C171.222 40.2949 170.943 40.9616 170.642 41.6328H164.969V63.7031H177.703V52.5703H214.188V63.7031ZM206.375 41.6328V13.9375H187.586L186.727 24.25C186.206 29.875 185.594 34.1849 184.891 37.1797C184.693 38.0138 184.472 38.8316 184.227 39.6328C184.02 40.3113 183.795 40.9779 183.554 41.6328H206.375ZM204.375 39.6328V15.9375H189.426L188.719 24.4252L188.718 24.4344C188.194 30.0889 187.573 34.507 186.838 37.6368L186.837 37.6406C186.677 38.3142 186.503 38.9782 186.314 39.6328H204.375ZM162.508 42.2188V52.5703H118.719V3H161.922V13.7422H131.766V22.7656H158.445V32.2188H131.766V42.2188H162.508ZM231.016 54.5703V1H262.508C269.307 1 274.777 2.64388 278.542 6.28402C282.293 9.88706 284.078 14.7615 284.078 20.6562C284.078 26.4987 282.322 31.3948 278.666 35.1393C274.938 38.9573 269.327 40.6641 262.273 40.6641H248.727V54.5703H231.016ZM277.156 7.72656C273.901 4.57552 269.018 3 262.508 3H233.016V52.5703H246.727V38.6641H262.273C269.044 38.6641 274.031 37.0234 277.234 33.7422C280.464 30.4349 282.078 26.0729 282.078 20.6562C282.078 15.1875 280.438 10.8776 277.156 7.72656ZM266.297 15.1484C264.917 13.7161 262.508 13 259.07 13H246.727V29.3281H259.07C262.508 29.3281 264.917 28.5599 266.297 27.0234C267.677 25.487 268.367 23.4557 268.367 20.9297C268.367 18.4818 267.677 16.5547 266.297 15.1484ZM248.727 27.3281H259.07C262.303 27.3281 263.997 26.5909 264.809 25.6869C265.79 24.5951 266.367 23.0775 266.367 20.9297C266.367 18.8717 265.798 17.4958 264.87 16.5494L264.863 16.5428L264.857 16.5362C264.05 15.6991 262.335 15 259.07 15H248.727V27.3281ZM337.438 54.5703H319.727V39.6094H310.654L300.397 54.5703H280.883L293.806 36.1917C292.412 35.4018 291.158 34.4391 290.053 33.2954L290.047 33.2893C286.713 29.8064 285.117 25.2818 285.117 19.9141C285.117 14.2912 287.011 9.62238 290.896 6.12335L290.901 6.11829C294.809 2.62542 300.091 1 306.492 1H337.438V54.5703ZM294.962 34.5465C295.544 34.8667 296.156 35.1556 296.798 35.4133L284.734 52.5703H299.344L309.6 37.6094H321.727V52.5703H335.438V3H306.492C300.424 3 295.672 4.53646 292.234 7.60938C288.823 10.6823 287.117 14.7839 287.117 19.9141C287.117 24.862 288.576 28.8594 291.492 31.9062C292.495 32.9449 293.652 33.825 294.962 34.5465ZM321.727 12.7266V28.625H309.305C306.336 28.625 304.201 27.9089 302.898 26.4766C301.622 25.0182 300.984 23.0911 300.984 20.6953C300.984 18.2995 301.622 16.3854 302.898 14.9531C304.201 13.4948 306.336 12.7526 309.305 12.7266H321.727ZM304.39 16.2852C303.517 17.2663 302.984 18.6644 302.984 20.6953C302.984 22.7157 303.512 24.1323 304.39 25.1445C305.154 25.9743 306.615 26.625 309.305 26.625H319.727V14.7266H309.314C306.622 14.7516 305.158 15.4252 304.39 16.2852ZM344.141 54.5703V1H391.344V15.7422H361.188V20.7656H387.867V34.2188H361.188V40.2188H391.93V54.5703H344.141ZM389.93 42.2188V52.5703H346.141V3H389.344V13.7422H359.188V22.7656H385.867V32.2188H359.188V42.2188H389.93ZM395.312 54.5703V1H415.902L433.015 31.2963L450.089 1H470.836V54.5703H453.398V28.8166L439.237 54.5703H426.407L412.21 28.9188L412.245 54.5703H395.312ZM410.203 23.7422C410.203 23.2208 410.183 22.6896 410.144 22.1484C410.143 22.1388 410.143 22.1291 410.142 22.1195C410.142 22.1161 410.141 22.1127 410.141 22.1092C410.136 22.0417 410.131 21.9741 410.125 21.9062C410.076 21.2941 410.039 20.7395 410.013 20.2425C410.011 20.2109 410.009 20.1795 410.008 20.1484H410.281C410.461 20.6631 410.654 21.2286 410.86 21.845C410.86 21.8458 410.86 21.8466 410.861 21.8474C410.863 21.854 410.865 21.8606 410.867 21.8672C411.076 22.4661 411.323 23.0781 411.609 23.7031L427.586 52.5703H438.055L453.992 23.5859C454.253 23.013 454.487 22.4401 454.695 21.8672C454.703 21.8453 454.711 21.8233 454.719 21.8013C454.72 21.8004 454.72 21.7994 454.72 21.7984C454.92 21.2474 455.12 20.6844 455.32 20.1094H455.594C455.592 20.1405 455.591 20.1717 455.589 20.203C455.563 20.7461 455.526 21.3008 455.477 21.8672C455.469 21.9477 455.462 22.0284 455.456 22.1094C455.455 22.1206 455.454 22.1317 455.454 22.1429C455.417 22.6278 455.398 23.1218 455.398 23.625V52.5703H468.836V3H451.258L434.461 32.8047C434.337 33.0738 434.221 33.3265 434.113 33.5626C434.078 33.6387 434.044 33.7131 434.011 33.7857C433.889 34.0551 433.779 34.301 433.68 34.5234C433.478 34.9775 433.288 35.4683 433.111 35.9957C433.105 36.0127 433.099 36.0298 433.094 36.0469H432.977C432.971 36.0319 432.965 36.017 432.959 36.0021C432.757 35.4723 432.554 34.9794 432.352 34.5234C432.253 34.301 432.142 34.0551 432.02 33.7857C431.987 33.7131 431.953 33.6387 431.918 33.5626C431.81 33.3265 431.695 33.0738 431.57 32.8047L414.734 3H397.312V52.5703H410.242L410.203 23.7422ZM15.3203 23.8594H27.2734C29.7995 23.8594 31.6354 23.3385 32.7812 22.2969C33.9271 21.2552 34.5 19.7839 34.5 17.8828C34.5 16.0859 33.9271 14.7448 32.7812 13.8594C31.6354 12.974 29.7995 12.5312 27.2734 12.5312H15.3203V23.8594Z" fill="url(#paint0_linear_517_4020)" />
  <circle cx="516.836" cy="27" r="6" fill="#28AAB9" />
  <path fill-rule="evenodd" clip-rule="evenodd" d="M562.836 54.5469V0.976562H580.547V19.2188H599.867V0.976562H617.578V52.9061L641.844 0.9375H658.965L683.786 54.5469H664.933L660.757 44.9766H639.287L635.177 54.5469H599.867V34.625H580.547V54.5469H562.836ZM637.969 42.9766H662.066L666.242 52.5469H680.656L657.688 2.9375H643.117L619.953 52.5469H633.859L637.969 42.9766ZM651.516 18.7969C651.33 18.3398 651.16 17.9297 651.006 17.5666C651.003 17.5604 651 17.5543 650.998 17.5481C650.989 17.527 650.98 17.506 650.971 17.4852C650.857 17.2191 650.752 16.9792 650.656 16.7656C650.461 16.2538 650.255 15.7876 650.037 15.3671C650.022 15.3383 650.007 15.3096 649.992 15.2812H649.875C649.86 15.3097 649.845 15.3383 649.83 15.3672C649.611 15.7877 649.391 16.2539 649.172 16.7656C649.092 16.9652 649.003 17.1878 648.904 17.4333C648.884 17.4817 648.864 17.531 648.844 17.5811C648.842 17.5866 648.84 17.592 648.837 17.5975C648.694 17.9529 648.532 18.3527 648.352 18.7969L641.877 33.875H658.095L651.516 18.7969ZM655.04 31.875L649.936 20.1768L644.912 31.875H655.04ZM578.547 2.97656V21.2188H601.867V2.97656H615.578V52.5469H601.867V32.625H578.547V52.5469H564.836V2.97656H578.547ZM688.906 49.0269L688.897 49.0204C682.908 44.4561 680.062 37.4826 680.062 28.5234V26.9609C680.062 17.8688 682.977 10.8583 689.131 6.3965C695.081 2.07445 702.702 0 711.828 0C720.57 0 727.519 1.50428 732.397 4.79317C735.546 6.8998 737.857 9.72211 739.359 13.1892V0.976562H795.195V15.8359H776.25V54.5469H758.344V15.8359H740.314C740.68 17.0797 740.959 18.3915 741.152 19.7688L741.165 19.8575L741.392 24.3906H724.011L723.822 19.8544C723.37 18.0475 722.357 16.5939 720.691 15.442L720.679 15.4339L720.668 15.4257C719.089 14.3007 716.364 13.5703 712.141 13.5703C707.555 13.5703 704.265 14.6781 702.005 16.6364L702.004 16.6373C699.811 18.535 698.633 21.2081 698.633 24.9297V30.5156C698.633 34.7408 699.885 37.4979 702.057 39.223C704.384 41.0719 707.684 42.1094 712.18 42.1094C716.643 42.1094 719.499 41.4088 721.107 40.3372C722.682 39.2799 723.628 37.7376 723.894 35.485L724.035 31.3281H741.348L741.209 36.1295L741.205 36.1775C740.718 42.476 737.949 47.4058 732.891 50.7394C727.936 54.0222 720.834 55.5234 711.867 55.5234C702.469 55.5234 694.747 53.4288 688.906 49.0269ZM725.891 35.6328C725.578 38.4453 724.354 40.5677 722.219 42C720.109 43.4062 716.763 44.1094 712.18 44.1094C707.388 44.1094 703.599 43.0026 700.812 40.7891C698.026 38.5755 696.633 35.151 696.633 30.5156V24.9297C696.633 20.737 697.987 17.4688 700.695 15.125C703.43 12.7552 707.245 11.5703 712.141 11.5703C716.516 11.5703 719.745 12.3125 721.828 13.7969C723.938 15.2552 725.266 17.1823 725.812 19.5781L725.93 22.3906H739.289L739.172 20.0469C738.312 13.9271 735.682 9.39583 731.281 6.45312C726.88 3.48438 720.396 2 711.828 2C703 2 695.826 4.00521 690.305 8.01562C684.81 12 682.062 18.3151 682.062 26.9609V28.5234C682.062 37.0391 684.745 43.3411 690.109 47.4297C695.5 51.4922 702.753 53.5234 711.867 53.5234C720.669 53.5234 727.31 52.0391 731.789 49.0703C736.294 46.1016 738.768 41.7526 739.211 36.0234L739.289 33.3281H725.969L725.891 35.6328ZM741.359 13.8359V2.97656H793.195V13.8359H774.25V52.5469H760.344V13.8359H741.359ZM797.133 54.5469V0.976562H828.625C835.424 0.976562 840.894 2.62044 844.659 6.26058C848.411 9.86362 850.195 14.7381 850.195 20.6328C850.195 26.4752 848.439 31.3713 844.783 35.1158C841.056 38.9339 835.444 40.6406 828.391 40.6406H814.844V54.5469H797.133ZM843.273 7.70312C840.018 4.55208 835.135 2.97656 828.625 2.97656H799.133V52.5469H812.844V38.6406H828.391C835.161 38.6406 840.148 37 843.352 33.7188C846.581 30.4115 848.195 26.0495 848.195 20.6328C848.195 15.1641 846.555 10.8542 843.273 7.70312ZM832.414 15.125C831.034 13.6927 828.625 12.9766 825.188 12.9766H812.844V29.3047H825.188C828.625 29.3047 831.034 28.5365 832.414 27C833.794 25.4635 834.484 23.4323 834.484 20.9062C834.484 18.4583 833.794 16.5312 832.414 15.125ZM814.844 27.3047H825.188C828.42 27.3047 830.114 26.5674 830.926 25.6635C831.907 24.5716 832.484 23.0541 832.484 20.9062C832.484 18.8483 831.916 17.4724 830.987 16.5259L830.98 16.5194L830.974 16.5128C830.167 15.6756 828.452 14.9766 825.188 14.9766H814.844V27.3047ZM845.484 54.5469L870.516 0.9375H887.637L911.742 53.0007V0.976562H929.336V26.7946L948.558 0.976562H967.109V54.5469H949.519L949.48 28.4612L930.301 54.5469H893.605L889.429 44.9766H867.959L863.849 54.5469H845.484ZM866.641 42.9766H890.738L894.914 52.5469H909.328L886.359 2.9375H871.789L848.625 52.5469H862.531L866.641 42.9766ZM880.188 18.7969C880.002 18.3398 879.832 17.9297 879.677 17.5666C879.675 17.5604 879.672 17.5543 879.67 17.5481C879.661 17.527 879.652 17.506 879.643 17.4852C879.529 17.2191 879.424 16.9792 879.328 16.7656C879.133 16.2538 878.927 15.7876 878.709 15.3671C878.694 15.3383 878.679 15.3096 878.664 15.2812H878.547C878.532 15.3097 878.517 15.3383 878.502 15.3672C878.282 15.7877 878.063 16.2539 877.844 16.7656C877.764 16.9652 877.674 17.1878 877.576 17.4333C877.556 17.4817 877.536 17.5309 877.516 17.5811C877.514 17.5866 877.511 17.592 877.509 17.5975C877.366 17.9529 877.204 18.3527 877.023 18.7969L870.549 33.875H886.767L880.188 18.7969ZM883.712 31.875L878.607 20.1768L873.584 31.875H883.712ZM951.477 25.7051C951.477 25.72 951.477 25.735 951.477 25.75L951.516 52.5469H965.109V2.97656H949.562L929.641 29.7344C929.533 29.8983 929.43 30.0569 929.332 30.2101C928.901 30.8845 928.568 31.4551 928.331 31.9219C928.325 31.9336 928.319 31.9453 928.313 31.9569C928.285 32.0118 928.259 32.0652 928.234 32.1172C927.974 32.6901 927.727 33.3802 927.492 34.1875H927.258C927.259 34.165 927.259 34.1426 927.26 34.1201C927.282 33.4759 927.294 32.8317 927.296 32.1875C927.297 32.099 927.297 32.0104 927.297 31.9219C927.299 31.8472 927.302 31.7714 927.304 31.6944C927.304 31.6871 927.305 31.6799 927.305 31.6726C927.323 31.063 927.333 30.382 927.335 29.6294C927.336 29.5226 927.336 29.4144 927.336 29.3047V2.97656H913.742V52.5469H929.289L949.25 25.3984C949.33 25.2912 949.406 25.1857 949.48 25.0817C950.03 24.3077 950.421 23.6235 950.651 23.0292C950.653 23.0247 950.655 23.0201 950.656 23.0156C950.943 22.3125 951.19 21.6354 951.398 20.9844H951.633C951.633 21.0093 951.633 21.0344 951.633 21.0594C951.631 21.6793 951.607 22.321 951.562 22.9844C951.56 23.0208 951.557 23.0572 951.555 23.0938C951.549 23.1786 951.543 23.2655 951.538 23.3546C951.537 23.3611 951.537 23.3677 951.536 23.3742C951.497 24.0354 951.477 24.8124 951.477 25.7051ZM973.773 54.5469V0.976562H1004.25C1010.24 0.976562 1015.06 2.09115 1018.34 4.68763C1021.66 7.2993 1023.28 10.97 1023.28 15.4375C1023.28 18.6693 1022.42 21.5143 1020.58 23.8301C1019.9 24.6905 1019.14 25.4465 1018.3 26.0971C1019.74 26.8143 1021.04 27.7488 1022.19 28.9064C1024.64 31.3331 1025.74 34.6629 1025.74 38.6016C1025.74 43.6409 1023.8 47.7067 1019.87 50.5364C1016.07 53.281 1011.08 54.5469 1005.11 54.5469H973.773ZM1020.77 30.3203C1019.51 29.0364 1018.01 28.0594 1016.28 27.3892C1015.36 27.0304 1014.37 26.7596 1013.31 26.5767C1013.3 26.5746 1013.29 26.5724 1013.27 26.5703V26.4531C1013.28 26.451 1013.29 26.4489 1013.29 26.4468C1014.31 26.1411 1015.24 25.7259 1016.09 25.2011C1017.2 24.5161 1018.18 23.6444 1019.02 22.5859C1020.53 20.6849 1021.28 18.3021 1021.28 15.4375C1021.28 11.5052 1019.89 8.44531 1017.1 6.25781C1014.34 4.07031 1010.06 2.97656 1004.25 2.97656H975.773V52.5469H1005.11C1010.81 52.5469 1015.34 51.3359 1018.7 48.9141C1022.06 46.4922 1023.74 43.0547 1023.74 38.6016C1023.74 35.0339 1022.75 32.2734 1020.77 30.3203ZM1007.8 32.7422C1006.42 31.6484 1004.42 31.1016 1001.79 31.1016H989.094V43.4453H1001.79C1004.42 43.4453 1006.42 42.9375 1007.8 41.9219C1009.18 40.8802 1009.88 39.3438 1009.88 37.3125C1009.88 35.3333 1009.18 33.8099 1007.8 32.7422ZM1006.61 40.3179C1007.39 39.7231 1007.88 38.8338 1007.88 37.3125C1007.88 35.8579 1007.4 34.9588 1006.58 34.3241L1006.57 34.3169L1006.56 34.3097C1005.67 33.6047 1004.18 33.1016 1001.79 33.1016H991.094V41.4453H1001.79C1004.2 41.4453 1005.71 40.9743 1006.61 40.3179ZM991.094 14.5078V21.8359H1001.05C1003.37 21.8359 1004.6 21.3442 1005.21 20.7936C1005.85 20.215 1006.27 19.3353 1006.27 17.8594C1006.27 16.5169 1005.87 15.8346 1005.33 15.4185C1004.71 14.9411 1003.43 14.5078 1001.05 14.5078H991.094ZM1021.66 54.5469L1046.69 0.9375H1063.81L1087.91 53.0006V0.976562H1135.12V15.7188H1104.96V20.7422H1131.64V34.1953H1104.96V40.1953H1135.7V54.5469H1069.78L1065.6 44.9766H1044.13L1040.02 54.5469H1021.66ZM1042.81 42.9766H1066.91L1071.09 52.5469H1085.5L1062.53 2.9375H1047.96L1024.8 52.5469H1038.7L1042.81 42.9766ZM1056.36 18.7969C1056.17 18.3398 1056 17.9297 1055.85 17.5666C1055.85 17.5604 1055.84 17.5543 1055.84 17.5481C1055.83 17.527 1055.82 17.506 1055.81 17.4852C1055.7 17.2191 1055.6 16.9792 1055.5 16.7656C1055.31 16.2538 1055.1 15.7876 1054.88 15.3671C1054.87 15.3383 1054.85 15.3096 1054.84 15.2812H1054.72C1054.7 15.3097 1054.69 15.3383 1054.67 15.3672C1054.45 15.7877 1054.23 16.2539 1054.02 16.7656C1053.94 16.9652 1053.85 17.1878 1053.75 17.4333C1053.73 17.4817 1053.71 17.5309 1053.69 17.5811C1053.69 17.5866 1053.68 17.592 1053.68 17.5975C1053.54 17.9529 1053.38 18.3527 1053.2 18.7969L1046.72 33.875H1062.94L1056.36 18.7969ZM1059.88 31.875L1054.78 20.1768L1049.76 31.875H1059.88ZM1133.7 42.1953V52.5469H1089.91V2.97656H1133.12V13.7188H1102.96V22.7422H1129.64V32.1953H1102.96V42.1953H1133.7ZM1139.09 54.5469V0.976562H1159.68L1176.79 31.2728L1193.86 0.976562H1214.61V54.5469H1197.17V28.7931L1183.01 54.5469H1170.18L1155.98 28.8954L1156.02 54.5469H1139.09ZM1153.98 23.7188C1153.98 23.1974 1153.96 22.6661 1153.92 22.125C1153.92 22.1154 1153.92 22.1057 1153.92 22.0961C1153.91 22.0926 1153.91 22.0892 1153.91 22.0858C1153.91 22.0183 1153.9 21.9506 1153.9 21.8828C1153.85 21.2707 1153.81 20.7161 1153.79 20.219C1153.78 20.1874 1153.78 20.1561 1153.78 20.125H1154.05C1154.23 20.6397 1154.43 21.2052 1154.63 21.8216C1154.63 21.8224 1154.63 21.8232 1154.63 21.824C1154.64 21.8306 1154.64 21.8372 1154.64 21.8438C1154.85 22.4427 1155.1 23.0547 1155.38 23.6797L1155.4 23.7168L1155.4 23.7188L1171.36 52.5469H1181.83L1197.77 23.5625C1198.03 22.9896 1198.26 22.4167 1198.47 21.8438C1198.48 21.8218 1198.48 21.7999 1198.49 21.7779C1198.49 21.7769 1198.49 21.776 1198.49 21.775C1198.69 21.224 1198.89 20.661 1199.09 20.0859H1199.37C1199.37 20.1171 1199.36 20.1483 1199.36 20.1795C1199.34 20.7226 1199.3 21.2774 1199.25 21.8438C1199.24 21.9242 1199.24 22.005 1199.23 22.0859C1199.23 22.0971 1199.23 22.1083 1199.23 22.1195C1199.19 22.6043 1199.17 23.0983 1199.17 23.6016V52.5469H1212.61V2.97656H1195.03L1178.23 32.7812C1178.11 33.0504 1177.99 33.303 1177.89 33.5392C1177.85 33.6153 1177.82 33.6896 1177.78 33.7623C1177.66 34.0316 1177.55 34.2775 1177.45 34.5C1177.25 34.9541 1177.06 35.4449 1176.88 35.9723C1176.88 35.9893 1176.87 36.0063 1176.87 36.0234H1176.75C1176.74 36.0085 1176.74 35.9936 1176.73 35.9787C1176.53 35.4488 1176.33 34.9559 1176.12 34.5C1176.03 34.2775 1175.92 34.0316 1175.79 33.7623C1175.76 33.6896 1175.73 33.6153 1175.69 33.5392C1175.58 33.303 1175.47 33.0504 1175.34 32.7812L1158.51 2.97656H1141.09V52.5469H1154.02L1153.98 23.7188ZM989.094 23.8359H1001.05C1003.57 23.8359 1005.41 23.3151 1006.55 22.2734C1007.7 21.2318 1008.27 19.7604 1008.27 17.8594C1008.27 16.0625 1007.7 14.7214 1006.55 13.8359C1005.41 12.9505 1003.57 12.5078 1001.05 12.5078H989.094V23.8359Z" fill="url(#paint1_linear_517_4020)" />
  <circle cx="1260.61" cy="27" r="6" fill="#28AAB9" />
  <path fill-rule="evenodd" clip-rule="evenodd" d="M1315.96 49.0587L1315.96 49.0526C1309.63 44.4976 1306.61 37.4315 1306.61 28.2891V26.8828C1306.61 17.9058 1309.64 10.9594 1315.97 6.46376C1322.08 2.11034 1329.66 0 1338.57 0C1347.48 0 1355.06 2.11013 1361.17 6.46311C1367.52 10.9573 1370.57 17.9034 1370.57 26.8828V28.2891C1370.57 37.435 1367.53 44.5015 1361.18 49.0551L1361.18 49.0587C1355.06 53.4128 1347.48 55.5234 1338.57 55.5234C1329.66 55.5234 1322.08 53.4128 1315.96 49.0587ZM1360.02 8.09375C1354.31 4.03125 1347.16 2 1338.57 2C1329.98 2 1322.83 4.03125 1317.12 8.09375C1311.45 12.1302 1308.61 18.3932 1308.61 26.8828V28.2891C1308.61 36.9609 1311.45 43.3411 1317.12 47.4297C1322.83 51.4922 1329.98 53.5234 1338.57 53.5234C1347.16 53.5234 1354.31 51.4922 1360.02 47.4297C1365.72 43.3411 1368.57 36.9609 1368.57 28.2891V26.8828C1368.57 18.3932 1365.72 12.1302 1360.02 8.09375ZM1328.39 16.423C1326.19 18.0456 1324.91 20.7186 1324.91 24.9297V30.3984C1324.91 34.7883 1326.2 37.5643 1328.4 39.2292C1330.86 41.0641 1334.21 42.085 1338.62 42.1094C1343 42.1337 1346.3 41.1254 1348.72 39.2777L1348.73 39.2724C1350.97 37.5759 1352.27 34.7912 1352.27 30.4375V24.9297C1352.27 20.7173 1350.99 18.0644 1348.8 16.469C1346.37 14.6998 1343.02 13.6981 1338.59 13.6484C1334.15 13.6248 1330.82 14.6144 1328.4 16.416L1328.39 16.423ZM1338.61 11.6484C1343.32 11.7005 1347.11 12.7682 1349.98 14.8516C1352.84 16.9349 1354.27 20.2943 1354.27 24.9297V30.4375C1354.27 35.2031 1352.83 38.6797 1349.94 40.8672C1347.07 43.0547 1343.3 44.1354 1338.61 44.1094C1333.9 44.0833 1330.09 42.9896 1327.2 40.8281C1324.34 38.6667 1322.91 35.1901 1322.91 30.3984V24.9297C1322.91 20.2943 1324.34 16.9219 1327.2 14.8125C1330.07 12.6771 1333.87 11.6224 1338.61 11.6484ZM1374.23 54.5469V0.976562H1422.17V15.5625H1391.94V17.6172H1404.7C1411.67 17.6172 1417.21 19.1002 1420.87 22.4849C1424.47 25.8144 1426.2 30.288 1426.2 35.6719C1426.2 41.3493 1424.43 46.0468 1420.72 49.5152C1417 52.9956 1411.51 54.5469 1404.66 54.5469H1374.23ZM1419.35 48.0547C1416.15 51.0495 1411.25 52.5469 1404.66 52.5469H1376.23V2.97656H1420.17V13.5625H1389.94V19.6172H1404.7C1411.45 19.6172 1416.38 21.0625 1419.51 23.9531C1422.63 26.8438 1424.2 30.75 1424.2 35.6719C1424.2 40.9062 1422.58 45.0339 1419.35 48.0547ZM1408.65 30.3984C1407.37 28.9661 1405.08 28.25 1401.77 28.25H1389.94V43.4062H1401.77C1405.08 43.4062 1407.37 42.7292 1408.65 41.375C1409.92 40.0208 1410.56 38.1719 1410.56 35.8281C1410.56 33.6146 1409.92 31.8047 1408.65 30.3984ZM1391.94 41.4062H1401.77C1404.93 41.4062 1406.5 40.7383 1407.19 40.0034C1408.03 39.11 1408.56 37.8002 1408.56 35.8281C1408.56 34.0239 1408.05 32.7206 1407.17 31.7424L1407.16 31.7357L1407.16 31.7289C1406.46 30.9466 1404.9 30.25 1401.77 30.25H1391.94V41.4062ZM1434.98 49.0269L1434.98 49.0204C1428.99 44.4561 1426.14 37.4826 1426.14 28.5234V26.9609C1426.14 17.8688 1429.06 10.8583 1435.21 6.3965C1441.16 2.07445 1448.78 0 1457.91 0C1466.65 0 1473.6 1.50428 1478.47 4.79317C1483.43 8.10653 1486.31 13.1903 1487.23 19.7688L1487.24 19.8575L1487.47 24.3906H1470.09L1469.9 19.8544C1469.45 18.0475 1468.44 16.5939 1466.77 15.442L1466.76 15.4339L1466.75 15.4257C1465.17 14.3007 1462.44 13.5703 1458.22 13.5703C1453.63 13.5703 1450.34 14.6781 1448.08 16.6364L1448.08 16.6373C1445.89 18.535 1444.71 21.2081 1444.71 24.9297V30.5156C1444.71 34.7408 1445.96 37.4979 1448.13 39.223C1450.46 41.0719 1453.76 42.1094 1458.26 42.1094C1462.72 42.1094 1465.58 41.4088 1467.19 40.3372C1468.76 39.2799 1469.71 37.7376 1469.97 35.485L1470.11 31.3281H1487.43L1487.29 36.1295L1487.28 36.1775C1487.24 36.7734 1487.17 37.3571 1487.08 37.9282L1488 38.2178C1488.39 38.3421 1488.77 38.4333 1489.12 38.4947C1489.49 38.5334 1489.92 38.5547 1490.41 38.5547C1492.39 38.5547 1493.29 37.9204 1493.77 37.0466L1493.78 37.0376C1494.52 35.7167 1495.15 33.2251 1495.48 29.2772L1497.2 0.976562H1563.31L1576.84 22.4234C1576.95 22.575 1577.05 22.7245 1577.14 22.8715C1577.23 22.7336 1577.32 22.591 1577.41 22.4437L1590.17 0.976562H1620.72L1636.7 20.1953H1637.12V0.976562H1654.71V20.1953H1655.17L1671.15 0.976562H1708.46V26.7946L1727.68 0.976562H1746.23V54.5469H1728.64L1728.61 28.4612L1709.43 54.5469H1671.84L1655.04 35.2109H1654.71V54.5469H1637.12V35.2109H1636.81L1619.95 54.5469H1598.21L1621.14 27.7854L1604.87 6.9468L1585.3 38.6084C1581.91 44.0304 1578.76 48.1927 1575.87 51.0098C1572.66 54.1475 1568.14 55.5625 1562.63 55.5625C1560.93 55.5625 1559.47 55.4693 1558.3 55.2576C1557.2 55.0615 1556.23 54.8082 1555.42 54.4712L1554.19 53.9583V38.2277L1556.76 38.9887C1557.35 39.1651 1557.99 39.3006 1558.67 39.392C1559.38 39.4823 1560.21 39.5312 1561.19 39.5312C1562.94 39.5312 1564.25 39.2188 1565.21 38.709L1565.22 38.7052L1565.23 38.7016C1565.67 38.4705 1566.23 38.0048 1566.89 37.2241L1544.32 2.06623V54.5469H1526.61V15.9141H1512.7L1511.62 30.8935L1511.62 30.8952C1511.11 37.8488 1509.75 43.6125 1507.41 48.0797C1504.83 53.0526 1499.95 55.3281 1493.49 55.3281C1491.87 55.3281 1490.51 55.2625 1489.46 55.1127L1489.45 55.1115C1488.49 54.9702 1487.61 54.7814 1486.81 54.5366L1485.4 54.1021V43.5049C1484 46.4091 1481.86 48.8348 1478.97 50.7394C1474.01 54.0222 1466.91 55.5234 1457.95 55.5234C1448.55 55.5234 1440.82 53.4288 1434.98 49.0269ZM1505.64 47.1562C1507.8 43.0156 1509.13 37.5469 1509.62 30.75L1510.84 13.9141H1528.61V52.5469H1542.32V2.97656H1499.08L1497.48 29.4219C1497.14 33.4323 1496.49 36.2969 1495.52 38.0156C1494.59 39.7083 1492.88 40.5547 1490.41 40.5547C1490.05 40.5547 1489.71 40.5446 1489.4 40.5245C1489.21 40.5123 1489.02 40.4963 1488.84 40.4766C1488.38 40.3984 1487.89 40.2812 1487.4 40.125V52.625C1488.08 52.8333 1488.86 53.0026 1489.74 53.1328C1490.65 53.263 1491.9 53.3281 1493.49 53.3281C1499.46 53.3281 1503.51 51.2708 1505.64 47.1562ZM1569.33 37.3261C1569.17 37.5523 1569.01 37.7677 1568.85 37.9721C1568.57 38.3411 1568.29 38.6748 1568.01 38.9731C1567.37 39.6637 1566.75 40.1648 1566.15 40.4766C1564.82 41.1797 1563.17 41.5312 1561.19 41.5312C1560.15 41.5312 1559.22 41.4792 1558.41 41.375C1558.34 41.3649 1558.26 41.3543 1558.19 41.3432C1557.49 41.24 1556.82 41.0943 1556.19 40.9062V52.625C1556.81 52.8854 1557.63 53.1068 1558.65 53.2891C1559.66 53.4714 1560.99 53.5625 1562.63 53.5625C1567.82 53.5625 1571.76 52.2344 1574.47 49.5781C1577.2 46.9219 1580.25 42.9115 1583.61 37.5469L1604.68 3.45142L1623.72 27.8445L1602.55 52.5469H1619.04L1635.9 33.2109H1639.12V52.5469H1652.71V33.2109H1655.96L1672.75 52.5469H1689.51L1667.97 27.7258L1687.48 2.97656H1672.09L1656.11 22.1953H1652.71V2.97656H1639.12V22.1953H1635.76L1619.78 2.97656H1591.3L1579.12 23.4844C1578.76 24.0601 1578.47 24.5363 1578.26 24.9132C1578.17 25.0818 1578.09 25.2306 1578.02 25.3594C1577.85 25.7338 1577.61 26.3117 1577.32 27.093C1577.31 27.1268 1577.29 27.1608 1577.28 27.1953H1577.09C1577.07 27.1658 1577.06 27.1366 1577.05 27.1077C1576.7 26.319 1576.44 25.7362 1576.27 25.3594C1576.21 25.2294 1576.14 25.075 1576.04 24.896C1575.84 24.5371 1575.55 24.0795 1575.17 23.5234L1562.2 2.97656H1547.28L1569.33 37.3261ZM1670.57 27.6645L1690.87 51.0618V1.90544L1670.57 27.6645ZM1730.6 25.7051C1730.6 25.72 1730.6 25.735 1730.6 25.75L1730.64 52.5469H1744.23V2.97656H1728.69L1708.77 29.7344C1708.66 29.8983 1708.55 30.0569 1708.46 30.2101C1708.03 30.8845 1707.69 31.4551 1707.46 31.9219C1707.45 31.9336 1707.44 31.9453 1707.44 31.9569C1707.41 32.0118 1707.38 32.0652 1707.36 32.1172C1707.1 32.6901 1706.85 33.3802 1706.62 34.1875H1706.38C1706.38 34.165 1706.38 34.1426 1706.39 34.1201C1706.41 33.4759 1706.42 32.8317 1706.42 32.1875C1706.42 32.099 1706.42 32.0104 1706.42 31.9219C1706.42 31.8472 1706.43 31.7714 1706.43 31.6944C1706.43 31.6871 1706.43 31.6799 1706.43 31.6726C1706.45 31.063 1706.46 30.382 1706.46 29.6294C1706.46 29.5226 1706.46 29.4144 1706.46 29.3047V2.97656H1692.87V52.5469H1708.41L1728.38 25.3984C1728.45 25.2912 1728.53 25.1857 1728.61 25.0817C1729.16 24.3077 1729.55 23.6235 1729.78 23.0292C1729.78 23.0247 1729.78 23.0201 1729.78 23.0156C1730.07 22.3125 1730.32 21.6354 1730.52 20.9844H1730.76C1730.76 21.0093 1730.76 21.0344 1730.76 21.0594C1730.76 21.6793 1730.73 22.321 1730.69 22.9844C1730.68 23.0208 1730.68 23.0572 1730.68 23.0938C1730.67 23.1786 1730.67 23.2655 1730.66 23.3546C1730.66 23.3611 1730.66 23.3677 1730.66 23.3742C1730.62 24.0354 1730.6 24.8124 1730.6 25.7051ZM1471.97 35.6328C1471.66 38.4453 1470.43 40.5677 1468.3 42C1466.19 43.4062 1462.84 44.1094 1458.26 44.1094C1453.47 44.1094 1449.68 43.0026 1446.89 40.7891C1444.1 38.5755 1442.71 35.151 1442.71 30.5156V24.9297C1442.71 20.737 1444.07 17.4688 1446.77 15.125C1449.51 12.7552 1453.32 11.5703 1458.22 11.5703C1462.59 11.5703 1465.82 12.3125 1467.91 13.7969C1470.02 15.2552 1471.34 17.1823 1471.89 19.5781L1472.01 22.3906H1485.37L1485.25 20.0469C1484.39 13.9271 1481.76 9.39583 1477.36 6.45312C1472.96 3.48438 1466.47 2 1457.91 2C1449.08 2 1441.9 4.00521 1436.38 8.01562C1430.89 12 1428.14 18.3151 1428.14 26.9609V28.5234C1428.14 37.0391 1430.82 43.3411 1436.19 47.4297C1441.58 51.4922 1448.83 53.5234 1457.95 53.5234C1466.75 53.5234 1473.39 52.0391 1477.87 49.0703C1482.37 46.1016 1484.85 41.7526 1485.29 36.0234L1485.37 33.3281H1472.05L1471.97 35.6328ZM1752.9 54.5469V0.976562H1783.38C1789.36 0.976562 1794.19 2.09115 1797.47 4.68763C1800.79 7.2993 1802.41 10.97 1802.41 15.4375C1802.41 18.6693 1801.55 21.5143 1799.71 23.8301C1799.03 24.6905 1798.26 25.4465 1797.43 26.0971C1798.87 26.8143 1800.17 27.7488 1801.31 28.9064C1803.77 31.3331 1804.87 34.6629 1804.87 38.6016C1804.87 43.6409 1802.92 47.7067 1799 50.5364C1795.19 53.281 1790.2 54.5469 1784.23 54.5469H1752.9ZM1799.9 30.3203C1798.63 29.0364 1797.13 28.0594 1795.41 27.3892C1794.48 27.0304 1793.49 26.7596 1792.44 26.5767C1792.42 26.5746 1792.41 26.5724 1792.4 26.5703V26.4531C1792.41 26.451 1792.41 26.4489 1792.42 26.4468C1793.43 26.1411 1794.36 25.7259 1795.22 25.2011C1796.33 24.5161 1797.3 23.6444 1798.14 22.5859C1799.65 20.6849 1800.41 18.3021 1800.41 15.4375C1800.41 11.5052 1799.01 8.44531 1796.23 6.25781C1793.47 4.07031 1789.18 2.97656 1783.38 2.97656H1754.9V52.5469H1784.23C1789.94 52.5469 1794.47 51.3359 1797.83 48.9141C1801.19 46.4922 1802.87 43.0547 1802.87 38.6016C1802.87 35.0339 1801.88 32.2734 1799.9 30.3203ZM1786.93 32.7422C1785.55 31.6484 1783.54 31.1016 1780.91 31.1016H1768.22V43.4453H1780.91C1783.54 43.4453 1785.55 42.9375 1786.93 41.9219C1788.31 40.8802 1789 39.3438 1789 37.3125C1789 35.3333 1788.31 33.8099 1786.93 32.7422ZM1785.73 40.3179C1786.52 39.7231 1787 38.8338 1787 37.3125C1787 35.8579 1786.53 34.9588 1785.71 34.3241L1785.7 34.3169L1785.69 34.3097C1784.8 33.6047 1783.31 33.1016 1780.91 33.1016H1770.22V41.4453H1780.91C1783.32 41.4453 1784.84 40.9743 1785.73 40.3179ZM1770.22 14.5078V21.8359H1780.17C1782.5 21.8359 1783.73 21.3442 1784.33 20.7936C1784.97 20.215 1785.4 19.3353 1785.4 17.8594C1785.4 16.5169 1785 15.8346 1784.46 15.4185C1783.84 14.9411 1782.55 14.5078 1780.17 14.5078H1770.22ZM1800.78 54.5469L1825.81 0.9375H1842.93L1867.04 53.0006V0.976562H1914.24V15.7188H1884.09V20.7422H1910.77V34.1953H1884.09V40.1953H1914.83V54.5469H1848.9L1844.73 44.9766H1823.26L1819.15 54.5469H1800.78ZM1821.94 42.9766H1846.03L1850.21 52.5469H1864.62L1841.66 2.9375H1827.09L1803.92 52.5469H1817.83L1821.94 42.9766ZM1835.48 18.7969C1835.3 18.3398 1835.13 17.9297 1834.97 17.5666C1834.97 17.5604 1834.97 17.5542 1834.97 17.5481C1834.96 17.527 1834.95 17.506 1834.94 17.4852C1834.83 17.2191 1834.72 16.9792 1834.62 16.7656C1834.43 16.2538 1834.22 15.7876 1834.01 15.3671C1833.99 15.3383 1833.98 15.3096 1833.96 15.2812H1833.84C1833.83 15.3097 1833.81 15.3383 1833.8 15.3672C1833.58 15.7877 1833.36 16.2539 1833.14 16.7656C1833.06 16.9652 1832.97 17.1878 1832.87 17.4333C1832.85 17.4817 1832.83 17.5309 1832.81 17.5811C1832.81 17.5866 1832.81 17.592 1832.81 17.5975C1832.66 17.9529 1832.5 18.3527 1832.32 18.7969L1825.85 33.875H1842.06L1835.48 18.7969ZM1839.01 31.875L1833.9 20.1768L1828.88 31.875H1839.01ZM1912.83 42.1953V52.5469H1869.04V2.97656H1912.24V13.7188H1882.09V22.7422H1908.77V32.1953H1882.09V42.1953H1912.83ZM1918.21 54.5469V0.976562H1938.8L1955.91 31.2728L1972.99 0.976562H1993.73V54.5469H1976.3V28.7931L1962.14 54.5469H1949.31L1935.11 28.8954L1935.14 54.5469H1918.21ZM1933.1 23.7188C1933.1 23.1974 1933.08 22.6661 1933.04 22.125C1933.04 22.1154 1933.04 22.1057 1933.04 22.0961C1933.04 22.0926 1933.04 22.0892 1933.04 22.0858C1933.03 22.0183 1933.03 21.9506 1933.02 21.8828C1932.97 21.2707 1932.94 20.7161 1932.91 20.219C1932.91 20.1874 1932.91 20.1561 1932.91 20.125H1933.18C1933.36 20.6397 1933.55 21.2052 1933.76 21.8216C1933.76 21.8224 1933.76 21.8232 1933.76 21.824C1933.76 21.8306 1933.76 21.8372 1933.77 21.8438C1933.97 22.4427 1934.22 23.0547 1934.51 23.6797L1934.53 23.7168L1934.53 23.7188L1950.48 52.5469H1960.95L1976.89 23.5625C1977.15 22.9896 1977.39 22.4167 1977.59 21.8438C1977.6 21.8218 1977.61 21.7999 1977.62 21.7779C1977.62 21.7769 1977.62 21.776 1977.62 21.775C1977.82 21.224 1978.02 20.661 1978.22 20.0859H1978.49C1978.49 20.1171 1978.49 20.1483 1978.49 20.1795C1978.46 20.7226 1978.42 21.2774 1978.38 21.8438C1978.37 21.9242 1978.36 22.005 1978.35 22.0859C1978.35 22.0971 1978.35 22.1083 1978.35 22.1195C1978.32 22.6043 1978.3 23.0983 1978.3 23.6016V52.5469H1991.73V2.97656H1974.16L1957.36 32.7812C1957.24 33.0504 1957.12 33.303 1957.01 33.5392C1956.98 33.6153 1956.94 33.6896 1956.91 33.7623C1956.79 34.0316 1956.68 34.2775 1956.58 34.5C1956.38 34.9541 1956.19 35.4449 1956.01 35.9723C1956 35.9893 1956 36.0063 1955.99 36.0234H1955.88C1955.87 36.0085 1955.86 35.9936 1955.86 35.9787C1955.66 35.4488 1955.45 34.9559 1955.25 34.5C1955.15 34.2775 1955.04 34.0316 1954.92 33.7623C1954.89 33.6896 1954.85 33.6153 1954.82 33.5392C1954.71 33.303 1954.59 33.0504 1954.47 32.7812L1937.63 2.97656H1920.21V52.5469H1933.14L1933.1 23.7188ZM1768.22 23.8359H1780.17C1782.7 23.8359 1784.53 23.3151 1785.68 22.2734C1786.83 21.2318 1787.4 19.7604 1787.4 17.8594C1787.4 16.0625 1786.83 14.7214 1785.68 13.8359C1784.53 12.9505 1782.7 12.5078 1780.17 12.5078H1768.22V23.8359Z" fill="url(#paint2_linear_517_4020)" />
  <circle cx="2039.73" cy="27" r="6" fill="#28AAB9" />
  <defs>
    <linearGradient id="paint0_linear_517_4020" x1="448.234" y1="52.5702" x2="-5.07897" y2="24.8457" gradientUnits="userSpaceOnUse">
      <stop stop-color="#28AAB9" />
      <stop offset="1" stop-color="#30BCCC" />
    </linearGradient>
    <linearGradient id="paint1_linear_517_4020" x1="1182.12" y1="52.5467" x2="559.242" y2="0.0268503" gradientUnits="userSpaceOnUse">
      <stop stop-color="#28AAB9" />
      <stop offset="1" stop-color="#30BCCC" />
    </linearGradient>
    <linearGradient id="paint2_linear_517_4020" x1="1959.32" y1="52.5469" x2="1306.65" y2="-5.15681" gradientUnits="userSpaceOnUse">
      <stop stop-color="#28AAB9" />
      <stop offset="1" stop-color="#30BCCC" />
    </linearGradient>
  </defs>
</svg>
