<svg width="85" height="22" viewBox="0 0 85 22" fill="none" xmlns="http://www.w3.org/2000/svg">
<g clip-path="url(#clip0_463_502)">
<path fill-rule="evenodd" clip-rule="evenodd" d="M45.6993 5.08673C45.9038 5.2981 47.7438 10.3336 47.9362 10.9553C48.1278 11.6214 48.3984 12.2603 48.7419 12.8576C49.3793 13.0068 49.4394 12.3478 49.6318 11.8256C50.6781 9.00325 52.2655 4.8878 53.0593 2.11515C53.6125 0.772344 53.6606 0.411776 52.6624 0.411776C51.6642 0.411776 51.7725 1.08318 51.3756 1.95352C51.0269 3.60716 49.6799 7.10094 49.1869 8.70485C49.1869 8.91622 49.1869 8.91622 48.9343 8.91622C48.1045 6.52901 47.1425 3.60716 46.2044 1.24481C45.9519 0.784777 45.5069 0.68531 45.2063 1.71728C44.7012 3.35849 44.0037 5.31053 43.4625 6.90201C43.4625 6.90201 42.8131 8.91622 42.765 9.01568C42.4211 8.44397 42.1692 7.8183 42.0194 7.16311C41.2737 5.2608 40.6243 3.20929 39.987 1.30698C39.8306 0.946411 39.8306 0.735044 39.4819 0.523676C39.1323 0.389747 38.7543 0.355393 38.3875 0.424209C37.4014 0.585843 38.0387 1.40645 38.2432 2.01568C39.4458 5.36027 40.7807 9.37625 42.1156 12.5592C42.1468 12.6381 42.1976 12.707 42.2629 12.7591C42.3281 12.8112 42.4055 12.8447 42.4872 12.856C42.5689 12.8673 42.652 12.8562 42.7282 12.8238C42.8044 12.7913 42.871 12.7386 42.9213 12.6711C43.1137 12.2857 45.555 5.08673 45.6993 5.08673Z" fill="#221F20"/>
<path fill-rule="evenodd" clip-rule="evenodd" d="M0.193291 0.622969C0.143579 0.830092 0.160465 1.04832 0.241395 1.24464C0.445838 2.11498 -0.155464 12.0368 0.00087436 12.4347C0.487658 12.661 1.03343 12.7135 1.55223 12.5839C1.79275 12.3228 1.69655 12.0741 1.69655 11.6638C1.69655 9.91071 1.84086 8.21977 1.84086 6.41693C1.90099 5.74553 1.94909 5.28549 1.94909 4.87519C1.94909 4.46489 1.94909 4.51462 2.0453 4.41515C2.14151 4.31569 3.71692 7.1505 3.87326 7.46134C4.17391 8.07057 4.76318 9.00308 5.16004 9.72421C5.76134 10.8557 6.062 10.0848 6.20631 9.82368C6.55506 9.36364 9.24889 4.47732 9.44131 4.37785C9.6217 4.57679 9.6217 9.46311 9.6217 9.82368C9.6217 12.4969 9.32105 12.758 10.9566 12.6461C11.4617 12.6461 11.5098 12.2358 11.4617 11.7757C11.4617 10.9054 11.4617 9.92315 11.4617 9.05281C11.3294 6.83967 11.2332 4.31569 11.2332 2.11498C11.2332 1.85387 11.3294 0.871637 11.3294 0.722436C11.1822 0.55091 10.9827 0.436469 10.7641 0.398035C10.5454 0.359602 10.3206 0.399477 10.1268 0.511068C9.77804 0.722436 9.68183 1.18247 9.42928 1.49331C8.4191 3.34588 7.06016 5.44713 6.1101 7.20023C5.76134 7.8219 5.76134 7.61054 5.46069 7.20023C4.81129 6.218 3.96947 4.52705 3.38019 3.54482L2.17759 1.49331C2.01042 1.13679 1.79589 0.806183 1.54021 0.511068C1.20348 0.2624 0.542046 0.461335 0.193291 0.622969Z" fill="#221F20"/>
<path fill-rule="evenodd" clip-rule="evenodd" d="M63.6528 6.37987C64.0784 6.0208 64.5833 5.77614 65.1226 5.66768C65.6618 5.55921 66.2186 5.59031 66.7434 5.7582C68.3309 6.47934 68.5353 8.90385 67.8378 10.085C67.5408 10.5453 67.1128 10.899 66.6131 11.0972C66.1133 11.2954 65.5664 11.3284 65.0478 11.1916C64.5454 11.0891 64.0698 10.8772 63.6528 10.5699V6.37987ZM63.6528 4.62676C63.5778 3.27263 63.5778 1.91517 63.6528 0.561041C63.6528 0.00153886 63.4603 -0.0979283 62.9552 0.101006C61.7526 0.623208 61.7526 0.411841 61.921 1.54328C62.0172 2.11522 61.921 8.74221 61.921 9.67472C61.921 11.5149 61.6685 11.9376 64.2541 12.7085C64.9903 12.8681 65.7501 12.8722 66.4879 12.7205C67.2257 12.5688 67.9262 12.2644 68.5474 11.8257C71.0849 9.67472 70.3873 3.60722 65.7573 4.06726C65.3537 4.08984 64.952 4.13968 64.5547 4.21646C64.3984 4.26619 63.8091 4.62676 63.7369 4.62676H63.6528Z" fill="#221F20"/>
<path fill-rule="evenodd" clip-rule="evenodd" d="M28.585 12.547C28.7731 11.8986 28.8264 11.2165 28.7414 10.5453C28.6921 9.84162 28.6921 9.13523 28.7414 8.43159C28.8857 8.43159 29.042 8.69269 29.3427 9.00352C29.6433 9.31436 32.1207 11.9875 32.5176 12.2859C32.656 12.4192 32.8229 12.5167 33.0047 12.5708C33.1865 12.6248 33.3781 12.6337 33.5638 12.5968C33.9126 12.5968 34.4658 12.5968 34.6582 12.3481C34.6582 11.9875 33.9607 11.4156 33.66 11.1048C33.3594 10.7939 32.9745 10.3961 32.6258 9.97333C31.8609 9.27734 31.1455 8.52524 30.4852 7.72288C30.4852 7.61098 33.2151 5.2362 33.7202 4.7886C33.9126 4.57723 34.117 4.5275 34.0689 4.21666C33.4499 4.01925 32.7878 4.01925 32.1688 4.21666C31.9283 4.32857 30.2807 5.87031 29.8357 6.28061C29.6914 6.42981 28.8376 7.36231 28.7414 7.31258C28.5971 6.84011 28.7414 0.412047 28.6452 0.0514782C28.549 -0.30909 26.8533 0.262846 26.9014 0.884515C26.9957 1.32131 27.0441 1.76735 27.0457 2.21489V11.1048C27.0457 11.4156 26.9495 12.3481 27.1539 12.4973C27.6218 12.6209 28.1102 12.6379 28.585 12.547V12.547Z" fill="#221F20"/>
<path fill-rule="evenodd" clip-rule="evenodd" d="M15.6319 8.33174C16.1851 8.18254 18.0372 8.64258 18.1213 9.15234C18.1694 9.70244 18.1694 10.2559 18.1213 10.806C17.7726 11.266 15.3794 12.1861 14.5857 10.5449C14.4787 10.3117 14.4232 10.0569 14.4232 9.79888C14.4232 9.54084 14.4787 9.28602 14.5857 9.05288C14.7012 8.86331 14.854 8.70109 15.0343 8.57682C15.2146 8.45255 15.4183 8.36904 15.6319 8.33174ZM18.1694 7.71007C17.7021 7.39001 17.1795 7.16625 16.6301 7.0511C15.9455 6.97273 15.2528 7.02328 14.5857 7.2003C14.0239 7.36664 13.5286 7.71494 13.1726 8.19399C12.8166 8.67304 12.6187 9.25755 12.6079 9.86157C12.5971 10.4656 12.7741 11.0573 13.1128 11.5495C13.4515 12.0418 13.934 12.4088 14.4895 12.5964C15.4407 12.9318 16.4726 12.9318 17.4238 12.5964C17.6283 12.4969 18.0251 12.2358 18.1694 12.1861C18.3137 12.1364 18.3739 12.5467 18.5663 12.6461C18.7587 12.7456 19.6607 12.6461 19.9132 12.3975C20.1658 12.1488 20.2139 12.1861 20.0575 11.8255C19.8248 11.3498 19.7408 10.811 19.817 10.2838V6.57863C19.8799 6.05401 19.756 5.52365 19.4682 5.08662C18.5182 3.13458 12.7938 3.90545 13.2508 5.55909C13.7078 7.21273 14.4534 4.98716 16.9789 5.29799C18.3378 5.44719 18.1935 6.79 18.1935 7.71007H18.1694Z" fill="#221F20"/>
<path fill-rule="evenodd" clip-rule="evenodd" d="M77.0375 7.4621H72.9125C72.9678 6.95158 73.1931 6.47685 73.5499 6.11929C73.9393 5.76621 74.4286 5.55254 74.9449 5.51005C75.2139 5.48709 75.4845 5.52039 75.7407 5.60797C75.997 5.69556 76.2335 5.83563 76.4362 6.01982C76.6402 6.19338 76.8012 6.4148 76.9058 6.66565C77.0104 6.91651 77.0555 7.18956 77.0375 7.4621V7.4621ZM72.8043 8.79247C73.1049 8.64327 77.6147 8.79247 78.4325 8.79247C79.2502 8.79247 78.8774 6.01982 77.3862 4.88838C76.777 4.41881 76.0517 4.13694 75.2942 4.07533C74.5366 4.01372 73.7776 4.17488 73.1049 4.5402C72.4321 4.90551 71.873 5.4601 71.4922 6.13992C71.1113 6.81974 70.9241 7.59707 70.9523 8.38217C70.9237 9.1447 71.0953 9.901 71.4489 10.5708C71.8025 11.2407 72.3249 11.7991 72.9606 12.1868C74.2955 13.1193 77.8793 13.0696 78.3242 11.6273C78.8774 9.77471 77.5786 10.8067 77.1216 11.0056C76.7373 11.1685 76.3323 11.2732 75.919 11.3164C73.2613 11.6273 72.6119 9.20277 72.8043 8.79247Z" fill="#221F20"/>
<path fill-rule="evenodd" clip-rule="evenodd" d="M54.7551 7.46105C54.7973 6.93001 55.0308 6.4347 55.4094 6.07319C55.788 5.71169 56.2841 5.51034 56.7995 5.50901C57.8337 5.39711 59.0363 6.32962 58.8319 7.46105H54.7551ZM54.5506 8.70439C54.8032 8.70439 59.4813 8.70439 60.1307 8.70439C60.7801 8.70439 60.6719 8.29409 60.6238 7.78432C60.5886 7.09396 60.3807 6.42488 60.0202 5.8426C59.6598 5.26033 59.1592 4.78484 58.5676 4.46271C57.9759 4.14057 57.3135 3.98285 56.6452 4.00498C55.9769 4.0271 55.3256 4.22833 54.7551 4.58894C54.1136 4.98075 53.589 5.5478 53.2389 6.22777C52.8889 6.90775 52.7269 7.67434 52.7708 8.44329C52.7197 9.20237 52.8851 9.96025 53.2463 10.6232C53.6075 11.2862 54.1488 11.8251 54.8032 12.1733C56.4989 13.255 59.8301 12.795 60.1307 11.5641C60.1307 11.2035 60.3712 10.3207 59.8301 10.5321C59.1764 10.9142 58.4648 11.179 57.7255 11.3154C57.3314 11.3698 56.9308 11.3429 56.5469 11.2362C56.1629 11.1295 55.8032 10.9451 55.4887 10.6937C55.0557 10.3332 54.3582 9.25146 54.5506 8.70439Z" fill="#221F20"/>
<path fill-rule="evenodd" clip-rule="evenodd" d="M81.561 12.5957C81.8617 12.2849 81.8135 12.1357 81.8135 11.6756V10.4323C81.8135 8.7911 81.5129 6.06818 83.3529 5.65788C83.7497 5.55841 83.8459 5.90655 84.351 5.80708C84.6489 5.5308 84.8726 5.17958 85.0004 4.78754C85.0004 4.00424 83.7978 3.85504 82.7035 4.36481C82.3547 4.52644 82.0661 5.08594 81.8135 5.13568C81.8135 4.67564 81.9098 4.47671 81.6091 4.06641C81.2236 4.10462 80.8505 4.22756 80.5147 4.42697C80.0217 4.67564 79.9255 4.67564 80.0217 5.29731C80.1179 5.91898 80.0217 10.1836 80.0217 11.2032C80.0698 12.7573 80.0698 12.7076 81.561 12.5957Z" fill="#221F20"/>
<path fill-rule="evenodd" clip-rule="evenodd" d="M22.9226 12.5469V12.4475C23.0622 11.1847 23.0984 9.91194 23.0309 8.64285C23.0309 7.66061 23.2714 6.06913 24.3176 5.7583C25.1595 5.44746 25.2076 6.26807 25.7608 5.7583C27.0475 4.36576 25.3158 3.80626 24.2695 4.26629C23.2233 4.72633 23.3676 5.0869 23.0669 5.18636C23.0428 4.98405 23.0428 4.77944 23.0669 4.57713C23.0669 4.31603 22.9587 4.31603 22.8625 4.16682C22.4769 4.16358 22.098 4.2712 21.7681 4.47766C21.2751 4.67659 21.1187 4.72633 21.2751 5.348C21.3808 6.30121 21.413 7.26162 21.3713 8.22011V11.0549C21.4795 12.5967 21.2751 12.7086 22.9226 12.5469Z" fill="#221F20"/>
<path fill-rule="evenodd" clip-rule="evenodd" d="M45.3495 14.2011C43.3642 14.4543 41.4121 14.9339 39.5289 15.631C38.9396 15.8921 38.3263 16.0413 37.737 16.3024C36.5344 16.7624 35.4039 17.1727 34.2134 17.6452C33.8165 17.7944 30.9784 18.6647 30.4853 18.7766C28.0801 19.3859 24.4723 20.107 22.1753 19.0253C21.0809 18.4658 20.9727 20.2065 23.4621 20.8281C24.9179 21.0917 26.4118 21.0238 27.8396 20.6292C29.0422 20.3681 30.4853 19.9081 31.6278 19.5475C32.7702 19.1869 34.1172 18.7766 35.3558 18.4161C35.6565 18.3042 35.897 18.2047 36.2458 18.1052L38.0857 17.5333C38.4345 17.4338 38.687 17.2846 38.9877 17.1727L40.8878 16.7127C41.2366 16.6132 41.4891 16.5137 41.7898 16.4018C44.3077 15.8465 46.8758 15.5714 49.4503 15.5812C50.0877 15.5812 51.0378 15.7429 51.6872 15.8423C52.8898 15.9915 52.6252 15.3326 51.8315 14.9098C49.7678 14.0923 47.5329 13.848 45.3495 14.2011V14.2011Z" fill="#28AAB9"/>
</g>
<defs>
<clipPath id="clip0_463_502">
<rect width="85" height="21" fill="white" transform="translate(0 0.00195312)"/>
</clipPath>
</defs>
</svg>
