<svg width="1406" height="434" viewBox="0 0 1406 434" fill="none" xmlns="http://www.w3.org/2000/svg">
<rect width="1406" height="434" rx="32" fill="white"/>
<mask id="mask0_15_1666" style="mask-type:alpha" maskUnits="userSpaceOnUse" x="0" y="0" width="1406" height="434">
<rect width="1406" height="434" rx="32" fill="white"/>
</mask>
<g mask="url(#mask0_15_1666)">
<mask id="mask1_15_1666" style="mask-type:alpha" maskUnits="userSpaceOnUse" x="273" y="-129" width="1680" height="945">
<rect x="273" y="-129" width="1680" height="945" fill="url(#paint0_linear_15_1666)"/>
</mask>
<g mask="url(#mask1_15_1666)">
<g opacity="0.5">
<line y1="-0.5" x2="546.981" y2="-0.5" transform="matrix(-0.866044 0.499967 -0.866044 -0.499967 1417.66 210.437)" stroke="#27B9CA"/>
<line y1="-0.5" x2="546.981" y2="-0.5" transform="matrix(-0.866044 0.499967 -0.866044 -0.499967 1430.43 217.811)" stroke="#27B9CA"/>
<line y1="-0.5" x2="546.981" y2="-0.5" transform="matrix(-0.866044 0.499967 -0.866044 -0.499967 1443.21 225.184)" stroke="#27B9CA"/>
<line y1="-0.5" x2="546.981" y2="-0.5" transform="matrix(-0.866044 0.499967 -0.866044 -0.499967 1455.98 232.557)" stroke="#27B9CA"/>
<line y1="-0.5" x2="546.981" y2="-0.5" transform="matrix(-0.866044 0.499967 -0.866044 -0.499967 1468.75 239.929)" stroke="#27B9CA"/>
<line y1="-0.5" x2="546.981" y2="-0.5" transform="matrix(-0.866044 0.499967 -0.866044 -0.499967 1481.52 247.302)" stroke="#27B9CA"/>
<line y1="-0.5" x2="546.981" y2="-0.5" transform="matrix(-0.866044 0.499967 -0.866044 -0.499967 1494.29 254.676)" stroke="#27B9CA"/>
<line y1="-0.5" x2="546.981" y2="-0.5" transform="matrix(-0.866044 0.499967 -0.866044 -0.499967 1507.06 262.049)" stroke="#27B9CA"/>
<line y1="-0.5" x2="546.981" y2="-0.5" transform="matrix(-0.866044 0.499967 -0.866044 -0.499967 1519.84 269.422)" stroke="#27B9CA"/>
<line y1="-0.5" x2="546.981" y2="-0.5" transform="matrix(-0.866044 0.499967 -0.866044 -0.499967 1532.6 276.794)" stroke="#27B9CA"/>
<line y1="-0.5" x2="546.981" y2="-0.5" transform="matrix(-0.866044 0.499967 -0.866044 -0.499967 1545.38 284.168)" stroke="#27B9CA"/>
<line y1="-0.5" x2="546.981" y2="-0.5" transform="matrix(-0.866044 0.499967 -0.866044 -0.499967 1558.15 291.541)" stroke="#27B9CA"/>
<line y1="-0.5" x2="546.981" y2="-0.5" transform="matrix(-0.866044 0.499967 -0.866044 -0.499967 1570.92 298.914)" stroke="#27B9CA"/>
<line y1="-0.5" x2="546.981" y2="-0.5" transform="matrix(-0.866044 0.499967 -0.866044 -0.499967 1583.69 306.287)" stroke="#27B9CA"/>
<line y1="-0.5" x2="546.981" y2="-0.5" transform="matrix(-0.866044 0.499967 -0.866044 -0.499967 1596.46 313.66)" stroke="#27B9CA"/>
<line y1="-0.5" x2="546.981" y2="-0.5" transform="matrix(-0.866044 0.499967 -0.866044 -0.499967 1609.24 321.033)" stroke="#27B9CA"/>
<line y1="-0.5" x2="546.981" y2="-0.5" transform="matrix(-0.866044 0.499967 -0.866044 -0.499967 1622.01 328.406)" stroke="#27B9CA"/>
<line y1="-0.5" x2="546.981" y2="-0.5" transform="matrix(-0.866044 0.499967 -0.866044 -0.499967 1634.78 335.779)" stroke="#27B9CA"/>
<line y1="-0.5" x2="546.981" y2="-0.5" transform="matrix(-0.866044 0.499967 -0.866044 -0.499967 1647.55 343.151)" stroke="#27B9CA"/>
<line y1="-0.5" x2="546.981" y2="-0.5" transform="matrix(-0.866044 0.499967 -0.866044 -0.499967 1660.32 350.525)" stroke="#27B9CA"/>
<line y1="-0.5" x2="546.981" y2="-0.5" transform="matrix(-0.866044 0.499967 -0.866044 -0.499967 1673.09 357.899)" stroke="#27B9CA"/>
<line y1="-0.5" x2="546.981" y2="-0.5" transform="matrix(-0.866044 0.499967 -0.866044 -0.499967 1685.86 365.271)" stroke="#27B9CA"/>
<line y1="-0.5" x2="546.981" y2="-0.5" transform="matrix(-0.866044 0.499967 -0.866044 -0.499967 1698.64 372.644)" stroke="#27B9CA"/>
<line y1="-0.5" x2="546.981" y2="-0.5" transform="matrix(-0.866044 0.499967 -0.866044 -0.499967 1711.41 380.017)" stroke="#27B9CA"/>
<line y1="-0.5" x2="546.981" y2="-0.5" transform="matrix(-0.866044 0.499967 -0.866044 -0.499967 1724.18 387.391)" stroke="#27B9CA"/>
<line y1="-0.5" x2="546.981" y2="-0.5" transform="matrix(-0.866044 0.499967 -0.866044 -0.499967 1736.95 394.764)" stroke="#27B9CA"/>
<line y1="-0.5" x2="546.981" y2="-0.5" transform="matrix(-0.866044 0.499967 -0.866044 -0.499967 1749.72 402.136)" stroke="#27B9CA"/>
<line y1="-0.5" x2="546.981" y2="-0.5" transform="matrix(-0.866044 0.499967 -0.866044 -0.499967 1762.49 409.509)" stroke="#27B9CA"/>
<line y1="-0.5" x2="546.981" y2="-0.5" transform="matrix(-0.866044 0.499967 -0.866044 -0.499967 1775.27 416.882)" stroke="#27B9CA"/>
<line y1="-0.5" x2="546.981" y2="-0.5" transform="matrix(-0.866044 0.499967 -0.866044 -0.499967 1788.04 424.255)" stroke="#27B9CA"/>
<line y1="-0.5" x2="546.981" y2="-0.5" transform="matrix(-0.866044 0.499967 -0.866044 -0.499967 1800.81 431.628)" stroke="#27B9CA"/>
<line y1="-0.5" x2="545.641" y2="-0.5" transform="matrix(0.866044 0.499967 -0.866044 0.499967 1404.89 211.108)" stroke="#27B9CA"/>
<line y1="-0.5" x2="545.641" y2="-0.5" transform="matrix(0.866044 0.499967 -0.866044 0.499967 1392.12 218.481)" stroke="#27B9CA"/>
<line y1="-0.5" x2="545.641" y2="-0.5" transform="matrix(0.866044 0.499967 -0.866044 0.499967 1379.35 225.854)" stroke="#27B9CA"/>
<line y1="-0.5" x2="545.641" y2="-0.5" transform="matrix(0.866044 0.499967 -0.866044 0.499967 1366.57 233.227)" stroke="#27B9CA"/>
<line y1="-0.5" x2="545.641" y2="-0.5" transform="matrix(0.866044 0.499967 -0.866044 0.499967 1353.8 240.6)" stroke="#27B9CA"/>
<line y1="-0.5" x2="545.641" y2="-0.5" transform="matrix(0.866044 0.499967 -0.866044 0.499967 1341.03 247.973)" stroke="#27B9CA"/>
<line y1="-0.5" x2="545.641" y2="-0.5" transform="matrix(0.866044 0.499967 -0.866044 0.499967 1328.26 255.346)" stroke="#27B9CA"/>
<line y1="-0.5" x2="545.641" y2="-0.5" transform="matrix(0.866044 0.499967 -0.866044 0.499967 1315.49 262.719)" stroke="#27B9CA"/>
<line y1="-0.5" x2="545.641" y2="-0.5" transform="matrix(0.866044 0.499967 -0.866044 0.499967 1302.72 270.092)" stroke="#27B9CA"/>
<line y1="-0.5" x2="545.641" y2="-0.5" transform="matrix(0.866044 0.499967 -0.866044 0.499967 1289.95 277.465)" stroke="#27B9CA"/>
<line y1="-0.5" x2="545.641" y2="-0.5" transform="matrix(0.866044 0.499967 -0.866044 0.499967 1277.17 284.838)" stroke="#27B9CA"/>
<line y1="-0.5" x2="545.641" y2="-0.5" transform="matrix(0.866044 0.499967 -0.866044 0.499967 1264.4 292.211)" stroke="#27B9CA"/>
<line y1="-0.5" x2="545.641" y2="-0.5" transform="matrix(0.866044 0.499967 -0.866044 0.499967 1251.63 299.584)" stroke="#27B9CA"/>
<line y1="-0.5" x2="545.641" y2="-0.5" transform="matrix(0.866044 0.499967 -0.866044 0.499967 1238.86 306.957)" stroke="#27B9CA"/>
<line y1="-0.5" x2="545.641" y2="-0.5" transform="matrix(0.866044 0.499967 -0.866044 0.499967 1226.09 314.331)" stroke="#27B9CA"/>
<line y1="-0.5" x2="545.641" y2="-0.5" transform="matrix(0.866044 0.499967 -0.866044 0.499967 1213.31 321.704)" stroke="#27B9CA"/>
<line y1="-0.5" x2="545.641" y2="-0.5" transform="matrix(0.866044 0.499967 -0.866044 0.499967 1200.55 329.076)" stroke="#27B9CA"/>
<line y1="-0.5" x2="545.641" y2="-0.5" transform="matrix(0.866044 0.499967 -0.866044 0.499967 1187.77 336.449)" stroke="#27B9CA"/>
<line y1="-0.5" x2="545.641" y2="-0.5" transform="matrix(0.866044 0.499967 -0.866044 0.499967 1175 343.822)" stroke="#27B9CA"/>
<line y1="-0.5" x2="545.641" y2="-0.5" transform="matrix(0.866044 0.499967 -0.866044 0.499967 1162.23 351.196)" stroke="#27B9CA"/>
<line y1="-0.5" x2="545.641" y2="-0.5" transform="matrix(0.866044 0.499967 -0.866044 0.499967 1149.46 358.569)" stroke="#27B9CA"/>
<line y1="-0.5" x2="545.641" y2="-0.5" transform="matrix(0.866044 0.499967 -0.866044 0.499967 1136.69 365.941)" stroke="#27B9CA"/>
<line y1="-0.5" x2="545.641" y2="-0.5" transform="matrix(0.866044 0.499967 -0.866044 0.499967 1123.91 373.315)" stroke="#27B9CA"/>
<line y1="-0.5" x2="545.641" y2="-0.5" transform="matrix(0.866044 0.499967 -0.866044 0.499967 1111.14 380.688)" stroke="#27B9CA"/>
<line y1="-0.5" x2="545.641" y2="-0.5" transform="matrix(0.866044 0.499967 -0.866044 0.499967 1098.37 388.061)" stroke="#27B9CA"/>
<line y1="-0.5" x2="545.641" y2="-0.5" transform="matrix(0.866044 0.499967 -0.866044 0.499967 1085.6 395.434)" stroke="#27B9CA"/>
<line y1="-0.5" x2="545.641" y2="-0.5" transform="matrix(0.866044 0.499967 -0.866044 0.499967 1072.83 402.807)" stroke="#27B9CA"/>
<line y1="-0.5" x2="545.641" y2="-0.5" transform="matrix(0.866044 0.499967 -0.866044 0.499967 1060.06 410.18)" stroke="#27B9CA"/>
<line y1="-0.5" x2="545.641" y2="-0.5" transform="matrix(0.866044 0.499967 -0.866044 0.499967 1047.29 417.552)" stroke="#27B9CA"/>
<line y1="-0.5" x2="545.641" y2="-0.5" transform="matrix(0.866044 0.499967 -0.866044 0.499967 1034.51 424.926)" stroke="#27B9CA"/>
<line y1="-0.5" x2="545.641" y2="-0.5" transform="matrix(0.866044 0.499967 -0.866044 0.499967 1021.74 432.299)" stroke="#27B9CA"/>
<line y1="-0.5" x2="546.981" y2="-0.5" transform="matrix(-0.866044 0.499967 -0.866044 -0.499967 587.502 -268.812)" stroke="#27B9CA"/>
<line y1="-0.5" x2="546.981" y2="-0.5" transform="matrix(-0.866044 0.499967 -0.866044 -0.499967 600.275 -261.439)" stroke="#27B9CA"/>
<line y1="-0.5" x2="546.981" y2="-0.5" transform="matrix(-0.866044 0.499967 -0.866044 -0.499967 613.047 -254.066)" stroke="#27B9CA"/>
<line y1="-0.5" x2="546.981" y2="-0.5" transform="matrix(-0.866044 0.499967 -0.866044 -0.499967 625.816 -246.693)" stroke="#27B9CA"/>
<line y1="-0.5" x2="546.981" y2="-0.5" transform="matrix(-0.866044 0.499967 -0.866044 -0.499967 638.588 -239.319)" stroke="#27B9CA"/>
<line y1="-0.5" x2="546.981" y2="-0.5" transform="matrix(-0.866044 0.499967 -0.866044 -0.499967 651.361 -231.947)" stroke="#27B9CA"/>
<line y1="-0.5" x2="546.981" y2="-0.5" transform="matrix(-0.866044 0.499967 -0.866044 -0.499967 664.131 -224.573)" stroke="#27B9CA"/>
<line y1="-0.5" x2="546.981" y2="-0.5" transform="matrix(-0.866044 0.499967 -0.866044 -0.499967 676.904 -217.201)" stroke="#27B9CA"/>
<line y1="-0.5" x2="546.981" y2="-0.5" transform="matrix(-0.866044 0.499967 -0.866044 -0.499967 689.678 -209.827)" stroke="#27B9CA"/>
<line y1="-0.5" x2="546.981" y2="-0.5" transform="matrix(-0.866044 0.499967 -0.866044 -0.499967 702.449 -202.456)" stroke="#27B9CA"/>
<line y1="-0.5" x2="546.981" y2="-0.5" transform="matrix(-0.866044 0.499967 -0.866044 -0.499967 715.219 -195.082)" stroke="#27B9CA"/>
<line y1="-0.5" x2="546.981" y2="-0.5" transform="matrix(-0.866044 0.499967 -0.866044 -0.499967 727.99 -187.708)" stroke="#27B9CA"/>
<line y1="-0.5" x2="546.981" y2="-0.5" transform="matrix(-0.866044 0.499967 -0.866044 -0.499967 740.764 -180.334)" stroke="#27B9CA"/>
<line y1="-0.5" x2="546.981" y2="-0.5" transform="matrix(-0.866044 0.499967 -0.866044 -0.499967 753.533 -172.963)" stroke="#27B9CA"/>
<line y1="-0.5" x2="546.981" y2="-0.5" transform="matrix(-0.866044 0.499967 -0.866044 -0.499967 766.307 -165.589)" stroke="#27B9CA"/>
<line y1="-0.5" x2="546.981" y2="-0.5" transform="matrix(-0.866044 0.499967 -0.866044 -0.499967 779.08 -158.216)" stroke="#27B9CA"/>
<line y1="-0.5" x2="546.981" y2="-0.5" transform="matrix(-0.866044 0.499967 -0.866044 -0.499967 791.85 -150.844)" stroke="#27B9CA"/>
<line y1="-0.5" x2="546.981" y2="-0.5" transform="matrix(-0.866044 0.499967 -0.866044 -0.499967 804.621 -143.471)" stroke="#27B9CA"/>
<line y1="-0.5" x2="546.981" y2="-0.5" transform="matrix(-0.866044 0.499967 -0.866044 -0.499967 817.389 -136.097)" stroke="#27B9CA"/>
<line y1="-0.5" x2="546.981" y2="-0.5" transform="matrix(-0.866044 0.499967 -0.866044 -0.499967 830.164 -128.724)" stroke="#27B9CA"/>
<line y1="-0.5" x2="546.981" y2="-0.5" transform="matrix(-0.866044 0.499967 -0.866044 -0.499967 842.936 -121.352)" stroke="#27B9CA"/>
<line y1="-0.5" x2="546.981" y2="-0.5" transform="matrix(-0.866044 0.499967 -0.866044 -0.499967 855.709 -113.979)" stroke="#27B9CA"/>
<line y1="-0.5" x2="546.981" y2="-0.5" transform="matrix(-0.866044 0.499967 -0.866044 -0.499967 868.477 -106.604)" stroke="#27B9CA"/>
<line y1="-0.5" x2="546.981" y2="-0.5" transform="matrix(-0.866044 0.499967 -0.866044 -0.499967 881.25 -99.2319)" stroke="#27B9CA"/>
<line y1="-0.5" x2="546.981" y2="-0.5" transform="matrix(-0.866044 0.499967 -0.866044 -0.499967 894.021 -91.8594)" stroke="#27B9CA"/>
<line y1="-0.5" x2="546.981" y2="-0.5" transform="matrix(-0.866044 0.499967 -0.866044 -0.499967 906.791 -84.4863)" stroke="#27B9CA"/>
<line y1="-0.5" x2="546.981" y2="-0.5" transform="matrix(-0.866044 0.499967 -0.866044 -0.499967 919.564 -77.1133)" stroke="#27B9CA"/>
<line y1="-0.5" x2="546.981" y2="-0.5" transform="matrix(-0.866044 0.499967 -0.866044 -0.499967 932.334 -69.7402)" stroke="#27B9CA"/>
<line y1="-0.5" x2="545.641" y2="-0.5" transform="matrix(0.866044 0.499967 -0.866044 0.499967 344.844 -268.142)" stroke="#27B9CA"/>
<line y1="-0.5" x2="545.641" y2="-0.5" transform="matrix(0.866044 0.499967 -0.866044 0.499967 332.07 -260.769)" stroke="#27B9CA"/>
<line y1="-0.5" x2="545.641" y2="-0.5" transform="matrix(0.866044 0.499967 -0.866044 0.499967 319.299 -253.396)" stroke="#27B9CA"/>
<line y1="-0.5" x2="545.641" y2="-0.5" transform="matrix(0.866044 0.499967 -0.866044 0.499967 306.525 -246.023)" stroke="#27B9CA"/>
<line y1="-0.5" x2="545.641" y2="-0.5" transform="matrix(0.866044 0.499967 -0.866044 0.499967 293.756 -238.649)" stroke="#27B9CA"/>
<line y1="-0.5" x2="545.641" y2="-0.5" transform="matrix(0.866044 0.499967 -0.866044 0.499967 280.986 -231.276)" stroke="#27B9CA"/>
<line y1="-0.5" x2="545.641" y2="-0.5" transform="matrix(0.866044 0.499967 -0.866044 0.499967 268.217 -223.903)" stroke="#27B9CA"/>
<line y1="-0.5" x2="545.641" y2="-0.5" transform="matrix(0.866044 0.499967 -0.866044 0.499967 255.443 -216.531)" stroke="#27B9CA"/>
<line y1="-0.5" x2="545.641" y2="-0.5" transform="matrix(0.866044 0.499967 -0.866044 0.499967 242.67 -209.158)" stroke="#27B9CA"/>
<line y1="-0.5" x2="545.641" y2="-0.5" transform="matrix(0.866044 0.499967 -0.866044 0.499967 229.9 -201.784)" stroke="#27B9CA"/>
<line y1="-0.5" x2="545.641" y2="-0.5" transform="matrix(0.866044 0.499967 -0.866044 0.499967 217.127 -194.411)" stroke="#27B9CA"/>
<line y1="-0.5" x2="545.641" y2="-0.5" transform="matrix(0.866044 0.499967 -0.866044 0.499967 204.355 -187.038)" stroke="#27B9CA"/>
<line y1="-0.5" x2="545.641" y2="-0.5" transform="matrix(0.866044 0.499967 -0.866044 0.499967 191.586 -179.666)" stroke="#27B9CA"/>
<line y1="-0.5" x2="545.641" y2="-0.5" transform="matrix(0.866044 0.499967 -0.866044 0.499967 178.814 -172.292)" stroke="#27B9CA"/>
<line y1="-0.5" x2="545.641" y2="-0.5" transform="matrix(0.866044 0.499967 -0.866044 0.499967 166.041 -164.919)" stroke="#27B9CA"/>
<line y1="-0.5" x2="545.641" y2="-0.5" transform="matrix(0.866044 0.499967 -0.866044 0.499967 153.268 -157.546)" stroke="#27B9CA"/>
<line y1="-0.5" x2="545.641" y2="-0.5" transform="matrix(0.866044 0.499967 -0.866044 0.499967 140.498 -150.173)" stroke="#27B9CA"/>
<line y1="-0.5" x2="545.641" y2="-0.5" transform="matrix(0.866044 0.499967 -0.866044 0.499967 127.725 -142.8)" stroke="#27B9CA"/>
<line y1="-0.5" x2="545.641" y2="-0.5" transform="matrix(0.866044 0.499967 -0.866044 0.499967 114.953 -135.426)" stroke="#27B9CA"/>
<line y1="-0.5" x2="545.641" y2="-0.5" transform="matrix(0.866044 0.499967 -0.866044 0.499967 102.184 -128.054)" stroke="#27B9CA"/>
<line y1="-0.5" x2="545.641" y2="-0.5" transform="matrix(0.866044 0.499967 -0.866044 0.499967 89.4102 -120.681)" stroke="#27B9CA"/>
<line y1="-0.5" x2="545.641" y2="-0.5" transform="matrix(0.866044 0.499967 -0.866044 0.499967 76.6406 -113.309)" stroke="#27B9CA"/>
<line y1="-0.5" x2="545.641" y2="-0.5" transform="matrix(0.866044 0.499967 -0.866044 0.499967 63.8672 -105.935)" stroke="#27B9CA"/>
<line y1="-0.5" x2="545.641" y2="-0.5" transform="matrix(0.866044 0.499967 -0.866044 0.499967 51.0957 -98.5625)" stroke="#27B9CA"/>
<line y1="-0.5" x2="545.641" y2="-0.5" transform="matrix(0.866044 0.499967 -0.866044 0.499967 38.3223 -91.1885)" stroke="#27B9CA"/>
<line y1="-0.5" x2="545.641" y2="-0.5" transform="matrix(0.866044 0.499967 -0.866044 0.499967 25.5527 -83.8159)" stroke="#27B9CA"/>
<line y1="-0.5" x2="545.641" y2="-0.5" transform="matrix(0.866044 0.499967 -0.866044 0.499967 12.7812 -76.4419)" stroke="#27B9CA"/>
<line y1="-0.5" x2="545.641" y2="-0.5" transform="matrix(0.866044 0.499967 -0.866044 0.499967 0.0078125 -69.0703)" stroke="#27B9CA"/>
<line y1="-0.5" x2="546.981" y2="-0.5" transform="matrix(-0.866044 0.499967 -0.866044 -0.499967 279.829 100.512)" stroke="#27B9CA"/>
<line y1="-0.5" x2="546.981" y2="-0.5" transform="matrix(-0.866044 0.499967 -0.866044 -0.499967 292.6 107.884)" stroke="#27B9CA"/>
<line y1="-0.5" x2="546.981" y2="-0.5" transform="matrix(-0.866044 0.499967 -0.866044 -0.499967 305.37 115.258)" stroke="#27B9CA"/>
<line y1="-0.5" x2="546.981" y2="-0.5" transform="matrix(-0.866044 0.499967 -0.866044 -0.499967 318.143 122.631)" stroke="#27B9CA"/>
<line y1="-0.5" x2="546.981" y2="-0.5" transform="matrix(-0.866044 0.499967 -0.866044 -0.499967 330.915 130.004)" stroke="#27B9CA"/>
<line y1="-0.5" x2="546.981" y2="-0.5" transform="matrix(-0.866044 0.499967 -0.866044 -0.499967 343.682 137.377)" stroke="#27B9CA"/>
<line y1="-0.5" x2="546.981" y2="-0.5" transform="matrix(-0.866044 0.499967 -0.866044 -0.499967 356.458 144.75)" stroke="#27B9CA"/>
<line y1="-0.5" x2="546.981" y2="-0.5" transform="matrix(-0.866044 0.499967 -0.866044 -0.499967 369.231 152.123)" stroke="#27B9CA"/>
<line y1="-0.5" x2="546.981" y2="-0.5" transform="matrix(-0.866044 0.499967 -0.866044 -0.499967 381.999 159.496)" stroke="#27B9CA"/>
<line y1="-0.5" x2="546.981" y2="-0.5" transform="matrix(-0.866044 0.499967 -0.866044 -0.499967 394.77 166.869)" stroke="#27B9CA"/>
<line y1="-0.5" x2="546.981" y2="-0.5" transform="matrix(-0.866044 0.499967 -0.866044 -0.499967 407.543 174.243)" stroke="#27B9CA"/>
<line y1="-0.5" x2="546.981" y2="-0.5" transform="matrix(-0.866044 0.499967 -0.866044 -0.499967 420.313 181.616)" stroke="#27B9CA"/>
<line y1="-0.5" x2="546.981" y2="-0.5" transform="matrix(-0.866044 0.499967 -0.866044 -0.499967 433.086 188.988)" stroke="#27B9CA"/>
<line y1="-0.5" x2="546.981" y2="-0.5" transform="matrix(-0.866044 0.499967 -0.866044 -0.499967 445.858 196.361)" stroke="#27B9CA"/>
<line y1="-0.5" x2="546.981" y2="-0.5" transform="matrix(-0.866044 0.499967 -0.866044 -0.499967 458.631 203.734)" stroke="#27B9CA"/>
<line y1="-0.5" x2="545.641" y2="-0.5" transform="matrix(0.866044 0.499967 -0.866044 0.499967 -13.9214 -61.0244)" stroke="#27B9CA"/>
<line y1="-0.5" x2="545.641" y2="-0.5" transform="matrix(0.866044 0.499967 -0.866044 0.499967 -26.6909 -53.6514)" stroke="#27B9CA"/>
<line y1="-0.5" x2="545.641" y2="-0.5" transform="matrix(0.866044 0.499967 -0.866044 0.499967 -39.4629 -46.2783)" stroke="#27B9CA"/>
<line y1="-0.5" x2="545.641" y2="-0.5" transform="matrix(0.866044 0.499967 -0.866044 0.499967 -52.2363 -38.9058)" stroke="#27B9CA"/>
<line y1="-0.5" x2="545.641" y2="-0.5" transform="matrix(0.866044 0.499967 -0.866044 0.499967 -65.0054 -31.5332)" stroke="#27B9CA"/>
<line y1="-0.5" x2="545.641" y2="-0.5" transform="matrix(0.866044 0.499967 -0.866044 0.499967 -77.7769 -24.1606)" stroke="#27B9CA"/>
<line y1="-0.5" x2="545.641" y2="-0.5" transform="matrix(0.866044 0.499967 -0.866044 0.499967 -90.5503 -16.7866)" stroke="#27B9CA"/>
<line y1="-0.5" x2="545.641" y2="-0.5" transform="matrix(0.866044 0.499967 -0.866044 0.499967 -103.32 -9.41357)" stroke="#27B9CA"/>
<line y1="-0.5" x2="545.641" y2="-0.5" transform="matrix(0.866044 0.499967 -0.866044 0.499967 -116.093 -2.04102)" stroke="#27B9CA"/>
<line y1="-0.5" x2="545.641" y2="-0.5" transform="matrix(0.866044 0.499967 -0.866044 0.499967 -128.863 5.33203)" stroke="#27B9CA"/>
<line y1="-0.5" x2="545.641" y2="-0.5" transform="matrix(0.866044 0.499967 -0.866044 0.499967 -141.636 12.7061)" stroke="#27B9CA"/>
<line y1="-0.5" x2="545.641" y2="-0.5" transform="matrix(0.866044 0.499967 -0.866044 0.499967 -154.408 20.0786)" stroke="#27B9CA"/>
<line y1="-0.5" x2="545.641" y2="-0.5" transform="matrix(0.866044 0.499967 -0.866044 0.499967 -167.177 27.4512)" stroke="#27B9CA"/>
<line y1="-0.5" x2="545.641" y2="-0.5" transform="matrix(0.866044 0.499967 -0.866044 0.499967 -179.947 34.8242)" stroke="#27B9CA"/>
<line y1="-0.5" x2="545.641" y2="-0.5" transform="matrix(0.866044 0.499967 -0.866044 0.499967 -192.722 42.1982)" stroke="#27B9CA"/>
<line y1="-0.5" x2="546.981" y2="-0.5" transform="matrix(-0.866044 0.499967 -0.866044 -0.499967 1533.76 -269.48)" stroke="#27B9CA"/>
<line y1="-0.5" x2="546.981" y2="-0.5" transform="matrix(-0.866044 0.499967 -0.866044 -0.499967 1546.54 -262.107)" stroke="#27B9CA"/>
<line y1="-0.5" x2="546.981" y2="-0.5" transform="matrix(-0.866044 0.499967 -0.866044 -0.499967 1559.31 -254.734)" stroke="#27B9CA"/>
<line y1="-0.5" x2="546.981" y2="-0.5" transform="matrix(-0.866044 0.499967 -0.866044 -0.499967 1572.08 -247.362)" stroke="#27B9CA"/>
<line y1="-0.5" x2="546.981" y2="-0.5" transform="matrix(-0.866044 0.499967 -0.866044 -0.499967 1584.85 -239.988)" stroke="#27B9CA"/>
<line y1="-0.5" x2="546.981" y2="-0.5" transform="matrix(-0.866044 0.499967 -0.866044 -0.499967 1597.62 -232.615)" stroke="#27B9CA"/>
<line y1="-0.5" x2="546.981" y2="-0.5" transform="matrix(-0.866044 0.499967 -0.866044 -0.499967 1610.4 -225.242)" stroke="#27B9CA"/>
<line y1="-0.5" x2="546.981" y2="-0.5" transform="matrix(-0.866044 0.499967 -0.866044 -0.499967 1623.17 -217.87)" stroke="#27B9CA"/>
<line y1="-0.5" x2="546.981" y2="-0.5" transform="matrix(-0.866044 0.499967 -0.866044 -0.499967 1635.94 -210.496)" stroke="#27B9CA"/>
<line y1="-0.5" x2="546.981" y2="-0.5" transform="matrix(-0.866044 0.499967 -0.866044 -0.499967 1648.71 -203.124)" stroke="#27B9CA"/>
<line y1="-0.5" x2="546.981" y2="-0.5" transform="matrix(-0.866044 0.499967 -0.866044 -0.499967 1661.48 -195.75)" stroke="#27B9CA"/>
<line y1="-0.5" x2="546.981" y2="-0.5" transform="matrix(-0.866044 0.499967 -0.866044 -0.499967 1674.25 -188.377)" stroke="#27B9CA"/>
<line y1="-0.5" x2="546.981" y2="-0.5" transform="matrix(-0.866044 0.499967 -0.866044 -0.499967 1687.02 -181.003)" stroke="#27B9CA"/>
<line y1="-0.5" x2="546.981" y2="-0.5" transform="matrix(-0.866044 0.499967 -0.866044 -0.499967 1699.8 -173.632)" stroke="#27B9CA"/>
<line y1="-0.5" x2="546.981" y2="-0.5" transform="matrix(-0.866044 0.499967 -0.866044 -0.499967 1712.57 -166.258)" stroke="#27B9CA"/>
<line y1="-0.5" x2="546.981" y2="-0.5" transform="matrix(-0.866044 0.499967 -0.866044 -0.499967 1725.34 -158.885)" stroke="#27B9CA"/>
<line y1="-0.5" x2="546.981" y2="-0.5" transform="matrix(-0.866044 0.499967 -0.866044 -0.499967 1738.11 -151.512)" stroke="#27B9CA"/>
<line y1="-0.5" x2="546.981" y2="-0.5" transform="matrix(-0.866044 0.499967 -0.866044 -0.499967 1750.88 -144.139)" stroke="#27B9CA"/>
<line y1="-0.5" x2="546.981" y2="-0.5" transform="matrix(-0.866044 0.499967 -0.866044 -0.499967 1763.65 -136.766)" stroke="#27B9CA"/>
<line y1="-0.5" x2="546.981" y2="-0.5" transform="matrix(-0.866044 0.499967 -0.866044 -0.499967 1776.43 -129.393)" stroke="#27B9CA"/>
<line y1="-0.5" x2="546.981" y2="-0.5" transform="matrix(-0.866044 0.499967 -0.866044 -0.499967 1789.2 -122.02)" stroke="#27B9CA"/>
<line y1="-0.5" x2="546.981" y2="-0.5" transform="matrix(-0.866044 0.499967 -0.866044 -0.499967 1801.97 -114.647)" stroke="#27B9CA"/>
<line y1="-0.5" x2="546.981" y2="-0.5" transform="matrix(-0.866044 0.499967 -0.866044 -0.499967 1814.74 -107.273)" stroke="#27B9CA"/>
<line y1="-0.5" x2="546.981" y2="-0.5" transform="matrix(-0.866044 0.499967 -0.866044 -0.499967 1827.51 -99.9014)" stroke="#27B9CA"/>
<line y1="-0.5" x2="546.981" y2="-0.5" transform="matrix(-0.866044 0.499967 -0.866044 -0.499967 1840.28 -92.5278)" stroke="#27B9CA"/>
<line y1="-0.5" x2="546.981" y2="-0.5" transform="matrix(-0.866044 0.499967 -0.866044 -0.499967 1853.05 -85.1548)" stroke="#27B9CA"/>
<line y1="-0.5" x2="546.981" y2="-0.5" transform="matrix(-0.866044 0.499967 -0.866044 -0.499967 1865.83 -77.7817)" stroke="#27B9CA"/>
<line y1="-0.5" x2="546.981" y2="-0.5" transform="matrix(-0.866044 0.499967 -0.866044 -0.499967 1878.6 -70.4087)" stroke="#27B9CA"/>
<line y1="-0.5" x2="545.641" y2="-0.5" transform="matrix(0.866044 0.499967 -0.866044 0.499967 1291.1 -268.81)" stroke="#27B9CA"/>
<line y1="-0.5" x2="545.641" y2="-0.5" transform="matrix(0.866044 0.499967 -0.866044 0.499967 1278.33 -261.438)" stroke="#27B9CA"/>
<line y1="-0.5" x2="545.641" y2="-0.5" transform="matrix(0.866044 0.499967 -0.866044 0.499967 1265.56 -254.064)" stroke="#27B9CA"/>
<line y1="-0.5" x2="545.641" y2="-0.5" transform="matrix(0.866044 0.499967 -0.866044 0.499967 1252.79 -246.691)" stroke="#27B9CA"/>
<line y1="-0.5" x2="545.641" y2="-0.5" transform="matrix(0.866044 0.499967 -0.866044 0.499967 1240.02 -239.318)" stroke="#27B9CA"/>
<line y1="-0.5" x2="545.641" y2="-0.5" transform="matrix(0.866044 0.499967 -0.866044 0.499967 1227.25 -231.945)" stroke="#27B9CA"/>
<line y1="-0.5" x2="545.641" y2="-0.5" transform="matrix(0.866044 0.499967 -0.866044 0.499967 1214.48 -224.572)" stroke="#27B9CA"/>
<line y1="-0.5" x2="545.641" y2="-0.5" transform="matrix(0.866044 0.499967 -0.866044 0.499967 1201.7 -217.199)" stroke="#27B9CA"/>
<line y1="-0.5" x2="545.641" y2="-0.5" transform="matrix(0.866044 0.499967 -0.866044 0.499967 1188.93 -209.826)" stroke="#27B9CA"/>
<line y1="-0.5" x2="545.641" y2="-0.5" transform="matrix(0.866044 0.499967 -0.866044 0.499967 1176.16 -202.453)" stroke="#27B9CA"/>
<line y1="-0.5" x2="545.641" y2="-0.5" transform="matrix(0.866044 0.499967 -0.866044 0.499967 1163.39 -195.08)" stroke="#27B9CA"/>
<line y1="-0.5" x2="545.641" y2="-0.5" transform="matrix(0.866044 0.499967 -0.866044 0.499967 1150.62 -187.707)" stroke="#27B9CA"/>
<line y1="-0.5" x2="545.641" y2="-0.5" transform="matrix(0.866044 0.499967 -0.866044 0.499967 1137.85 -180.334)" stroke="#27B9CA"/>
<line y1="-0.5" x2="545.641" y2="-0.5" transform="matrix(0.866044 0.499967 -0.866044 0.499967 1125.08 -172.961)" stroke="#27B9CA"/>
<line y1="-0.5" x2="545.641" y2="-0.5" transform="matrix(0.866044 0.499967 -0.866044 0.499967 1112.3 -165.587)" stroke="#27B9CA"/>
<line y1="-0.5" x2="545.641" y2="-0.5" transform="matrix(0.866044 0.499967 -0.866044 0.499967 1099.53 -158.214)" stroke="#27B9CA"/>
<line y1="-0.5" x2="545.641" y2="-0.5" transform="matrix(0.866044 0.499967 -0.866044 0.499967 1086.76 -150.842)" stroke="#27B9CA"/>
<line y1="-0.5" x2="545.641" y2="-0.5" transform="matrix(0.866044 0.499967 -0.866044 0.499967 1073.99 -143.469)" stroke="#27B9CA"/>
<line y1="-0.5" x2="545.641" y2="-0.5" transform="matrix(0.866044 0.499967 -0.866044 0.499967 1061.22 -136.095)" stroke="#27B9CA"/>
<line y1="-0.5" x2="545.641" y2="-0.5" transform="matrix(0.866044 0.499967 -0.866044 0.499967 1048.44 -128.722)" stroke="#27B9CA"/>
<line y1="-0.5" x2="545.641" y2="-0.5" transform="matrix(0.866044 0.499967 -0.866044 0.499967 1035.67 -121.35)" stroke="#27B9CA"/>
<line y1="-0.5" x2="545.641" y2="-0.5" transform="matrix(0.866044 0.499967 -0.866044 0.499967 1022.9 -113.977)" stroke="#27B9CA"/>
<line y1="-0.5" x2="545.641" y2="-0.5" transform="matrix(0.866044 0.499967 -0.866044 0.499967 1010.13 -106.603)" stroke="#27B9CA"/>
<line y1="-0.5" x2="545.641" y2="-0.5" transform="matrix(0.866044 0.499967 -0.866044 0.499967 997.358 -99.231)" stroke="#27B9CA"/>
<line y1="-0.5" x2="545.641" y2="-0.5" transform="matrix(0.866044 0.499967 -0.866044 0.499967 984.586 -91.8574)" stroke="#27B9CA"/>
<line y1="-0.5" x2="545.641" y2="-0.5" transform="matrix(0.866044 0.499967 -0.866044 0.499967 971.819 -84.4849)" stroke="#27B9CA"/>
<line y1="-0.5" x2="545.641" y2="-0.5" transform="matrix(0.866044 0.499967 -0.866044 0.499967 959.043 -77.1104)" stroke="#27B9CA"/>
<line y1="-0.5" x2="545.641" y2="-0.5" transform="matrix(0.866044 0.499967 -0.866044 0.499967 946.274 -69.7388)" stroke="#27B9CA"/>
<line y1="-0.5" x2="546.981" y2="-0.5" transform="matrix(-0.866044 0.499967 -0.866044 -0.499967 945.11 -62.3662)" stroke="#27B9CA"/>
<line y1="-0.5" x2="546.981" y2="-0.5" transform="matrix(-0.866044 0.499967 -0.866044 -0.499967 957.883 -54.9937)" stroke="#27B9CA"/>
<line y1="-0.5" x2="546.981" y2="-0.5" transform="matrix(-0.866044 0.499967 -0.866044 -0.499967 970.653 -47.6206)" stroke="#27B9CA"/>
<line y1="-0.5" x2="546.981" y2="-0.5" transform="matrix(-0.866044 0.499967 -0.866044 -0.499967 983.426 -40.2476)" stroke="#27B9CA"/>
<line y1="-0.5" x2="546.981" y2="-0.5" transform="matrix(-0.866044 0.499967 -0.866044 -0.499967 996.198 -32.8735)" stroke="#27B9CA"/>
<line y1="-0.5" x2="546.981" y2="-0.5" transform="matrix(-0.866044 0.499967 -0.866044 -0.499967 1008.97 -25.5015)" stroke="#27B9CA"/>
<line y1="-0.5" x2="546.981" y2="-0.5" transform="matrix(-0.866044 0.499967 -0.866044 -0.499967 1021.74 -18.1284)" stroke="#27B9CA"/>
<line y1="-0.5" x2="546.981" y2="-0.5" transform="matrix(-0.866044 0.499967 -0.866044 -0.499967 1034.51 -10.7554)" stroke="#27B9CA"/>
<line y1="-0.5" x2="546.981" y2="-0.5" transform="matrix(-0.866044 0.499967 -0.866044 -0.499967 1047.29 -3.38232)" stroke="#27B9CA"/>
<line y1="-0.5" x2="546.981" y2="-0.5" transform="matrix(-0.866044 0.499967 -0.866044 -0.499967 1060.05 3.99072)" stroke="#27B9CA"/>
<line y1="-0.5" x2="546.981" y2="-0.5" transform="matrix(-0.866044 0.499967 -0.866044 -0.499967 1072.83 11.3638)" stroke="#27B9CA"/>
<line y1="-0.5" x2="546.981" y2="-0.5" transform="matrix(-0.866044 0.499967 -0.866044 -0.499967 1085.6 18.7368)" stroke="#27B9CA"/>
<line y1="-0.5" x2="546.981" y2="-0.5" transform="matrix(-0.866044 0.499967 -0.866044 -0.499967 1098.37 26.1099)" stroke="#27B9CA"/>
<line y1="-0.5" x2="546.981" y2="-0.5" transform="matrix(-0.866044 0.499967 -0.866044 -0.499967 1111.14 33.4834)" stroke="#27B9CA"/>
<line y1="-0.5" x2="546.981" y2="-0.5" transform="matrix(-0.866044 0.499967 -0.866044 -0.499967 1123.91 40.856)" stroke="#27B9CA"/>
<line y1="-0.5" x2="546.981" y2="-0.5" transform="matrix(-0.866044 0.499967 -0.866044 -0.499967 1136.68 48.229)" stroke="#27B9CA"/>
<line y1="-0.5" x2="546.981" y2="-0.5" transform="matrix(-0.866044 0.499967 -0.866044 -0.499967 1149.46 55.6021)" stroke="#27B9CA"/>
<line y1="-0.5" x2="546.981" y2="-0.5" transform="matrix(-0.866044 0.499967 -0.866044 -0.499967 1162.23 62.9756)" stroke="#27B9CA"/>
<line y1="-0.5" x2="546.981" y2="-0.5" transform="matrix(-0.866044 0.499967 -0.866044 -0.499967 1175 70.3486)" stroke="#27B9CA"/>
<line y1="-0.5" x2="546.981" y2="-0.5" transform="matrix(-0.866044 0.499967 -0.866044 -0.499967 1187.77 77.7212)" stroke="#27B9CA"/>
<line y1="-0.5" x2="546.981" y2="-0.5" transform="matrix(-0.866044 0.499967 -0.866044 -0.499967 1200.54 85.0942)" stroke="#27B9CA"/>
<line y1="-0.5" x2="546.981" y2="-0.5" transform="matrix(-0.866044 0.499967 -0.866044 -0.499967 1213.31 92.4673)" stroke="#27B9CA"/>
<line y1="-0.5" x2="546.981" y2="-0.5" transform="matrix(-0.866044 0.499967 -0.866044 -0.499967 1226.08 99.8403)" stroke="#27B9CA"/>
<line y1="-0.5" x2="546.981" y2="-0.5" transform="matrix(-0.866044 0.499967 -0.866044 -0.499967 1238.86 107.214)" stroke="#27B9CA"/>
<line y1="-0.5" x2="546.981" y2="-0.5" transform="matrix(-0.866044 0.499967 -0.866044 -0.499967 1251.63 114.586)" stroke="#27B9CA"/>
<line y1="-0.5" x2="546.981" y2="-0.5" transform="matrix(-0.866044 0.499967 -0.866044 -0.499967 1264.4 121.959)" stroke="#27B9CA"/>
<line y1="-0.5" x2="546.981" y2="-0.5" transform="matrix(-0.866044 0.499967 -0.866044 -0.499967 1277.17 129.333)" stroke="#27B9CA"/>
<line y1="-0.5" x2="546.981" y2="-0.5" transform="matrix(-0.866044 0.499967 -0.866044 -0.499967 1289.94 136.706)" stroke="#27B9CA"/>
<line y1="-0.5" x2="546.981" y2="-0.5" transform="matrix(-0.866044 0.499967 -0.866044 -0.499967 1302.71 144.079)" stroke="#27B9CA"/>
<line y1="-0.5" x2="546.981" y2="-0.5" transform="matrix(-0.866044 0.499967 -0.866044 -0.499967 1315.49 151.452)" stroke="#27B9CA"/>
<line y1="-0.5" x2="546.981" y2="-0.5" transform="matrix(-0.866044 0.499967 -0.866044 -0.499967 1328.26 158.824)" stroke="#27B9CA"/>
<line y1="-0.5" x2="546.981" y2="-0.5" transform="matrix(-0.866044 0.499967 -0.866044 -0.499967 1341.03 166.197)" stroke="#27B9CA"/>
<line y1="-0.5" x2="546.981" y2="-0.5" transform="matrix(-0.866044 0.499967 -0.866044 -0.499967 1353.8 173.571)" stroke="#27B9CA"/>
<line y1="-0.5" x2="546.981" y2="-0.5" transform="matrix(-0.866044 0.499967 -0.866044 -0.499967 1366.57 180.944)" stroke="#27B9CA"/>
<line y1="-0.5" x2="546.981" y2="-0.5" transform="matrix(-0.866044 0.499967 -0.866044 -0.499967 1379.34 188.316)" stroke="#27B9CA"/>
<line y1="-0.5" x2="546.981" y2="-0.5" transform="matrix(-0.866044 0.499967 -0.866044 -0.499967 1392.12 195.689)" stroke="#27B9CA"/>
<line y1="-0.5" x2="546.981" y2="-0.5" transform="matrix(-0.866044 0.499967 -0.866044 -0.499967 1404.89 203.063)" stroke="#27B9CA"/>
<line y1="-0.5" x2="545.641" y2="-0.5" transform="matrix(0.866044 0.499967 -0.866044 0.499967 932.34 -61.6958)" stroke="#27B9CA"/>
<line y1="-0.5" x2="545.641" y2="-0.5" transform="matrix(0.866044 0.499967 -0.866044 0.499967 919.569 -54.3228)" stroke="#27B9CA"/>
<line y1="-0.5" x2="545.641" y2="-0.5" transform="matrix(0.866044 0.499967 -0.866044 0.499967 906.795 -46.9502)" stroke="#27B9CA"/>
<line y1="-0.5" x2="545.641" y2="-0.5" transform="matrix(0.866044 0.499967 -0.866044 0.499967 894.026 -39.5776)" stroke="#27B9CA"/>
<line y1="-0.5" x2="545.641" y2="-0.5" transform="matrix(0.866044 0.499967 -0.866044 0.499967 881.252 -32.2036)" stroke="#27B9CA"/>
<line y1="-0.5" x2="545.641" y2="-0.5" transform="matrix(0.866044 0.499967 -0.866044 0.499967 868.481 -24.8306)" stroke="#27B9CA"/>
<line y1="-0.5" x2="545.641" y2="-0.5" transform="matrix(0.866044 0.499967 -0.866044 0.499967 855.708 -17.4575)" stroke="#27B9CA"/>
<line y1="-0.5" x2="545.641" y2="-0.5" transform="matrix(0.866044 0.499967 -0.866044 0.499967 842.938 -10.0854)" stroke="#27B9CA"/>
<line y1="-0.5" x2="545.641" y2="-0.5" transform="matrix(0.866044 0.499967 -0.866044 0.499967 830.167 -2.71143)" stroke="#27B9CA"/>
<line y1="-0.5" x2="545.641" y2="-0.5" transform="matrix(0.866044 0.499967 -0.866044 0.499967 817.394 4.66162)" stroke="#27B9CA"/>
<line y1="-0.5" x2="545.641" y2="-0.5" transform="matrix(0.866044 0.499967 -0.866044 0.499967 804.624 12.0342)" stroke="#27B9CA"/>
<line y1="-0.5" x2="545.641" y2="-0.5" transform="matrix(0.866044 0.499967 -0.866044 0.499967 791.85 19.4067)" stroke="#27B9CA"/>
<line y1="-0.5" x2="545.641" y2="-0.5" transform="matrix(0.866044 0.499967 -0.866044 0.499967 779.081 26.7798)" stroke="#27B9CA"/>
<line y1="-0.5" x2="545.641" y2="-0.5" transform="matrix(0.866044 0.499967 -0.866044 0.499967 766.307 34.1538)" stroke="#27B9CA"/>
<line y1="-0.5" x2="545.641" y2="-0.5" transform="matrix(0.866044 0.499967 -0.866044 0.499967 753.536 41.5264)" stroke="#27B9CA"/>
<line y1="-0.5" x2="545.641" y2="-0.5" transform="matrix(0.866044 0.499967 -0.866044 0.499967 740.768 48.8994)" stroke="#27B9CA"/>
<line y1="-0.5" x2="545.641" y2="-0.5" transform="matrix(0.866044 0.499967 -0.866044 0.499967 727.995 56.272)" stroke="#27B9CA"/>
<line y1="-0.5" x2="545.641" y2="-0.5" transform="matrix(0.866044 0.499967 -0.866044 0.499967 715.223 63.646)" stroke="#27B9CA"/>
<line y1="-0.5" x2="545.641" y2="-0.5" transform="matrix(0.866044 0.499967 -0.866044 0.499967 702.45 71.0186)" stroke="#27B9CA"/>
<line y1="-0.5" x2="545.641" y2="-0.5" transform="matrix(0.866044 0.499967 -0.866044 0.499967 689.68 78.3916)" stroke="#27B9CA"/>
<line y1="-0.5" x2="545.641" y2="-0.5" transform="matrix(0.866044 0.499967 -0.866044 0.499967 676.907 85.7646)" stroke="#27B9CA"/>
<line y1="-0.5" x2="545.641" y2="-0.5" transform="matrix(0.866044 0.499967 -0.866044 0.499967 664.135 93.1372)" stroke="#27B9CA"/>
<line y1="-0.5" x2="545.641" y2="-0.5" transform="matrix(0.866044 0.499967 -0.866044 0.499967 651.366 100.511)" stroke="#27B9CA"/>
<line y1="-0.5" x2="545.641" y2="-0.5" transform="matrix(0.866044 0.499967 -0.866044 0.499967 638.592 107.884)" stroke="#27B9CA"/>
<line y1="-0.5" x2="545.641" y2="-0.5" transform="matrix(0.866044 0.499967 -0.866044 0.499967 625.823 115.257)" stroke="#27B9CA"/>
<line y1="-0.5" x2="545.641" y2="-0.5" transform="matrix(0.866044 0.499967 -0.866044 0.499967 613.049 122.63)" stroke="#27B9CA"/>
<line y1="-0.5" x2="545.641" y2="-0.5" transform="matrix(0.866044 0.499967 -0.866044 0.499967 600.278 130.002)" stroke="#27B9CA"/>
<line y1="-0.5" x2="545.641" y2="-0.5" transform="matrix(0.866044 0.499967 -0.866044 0.499967 587.504 137.376)" stroke="#27B9CA"/>
<line y1="-0.5" x2="545.641" y2="-0.5" transform="matrix(0.866044 0.499967 -0.866044 0.499967 574.735 144.749)" stroke="#27B9CA"/>
<line y1="-0.5" x2="545.641" y2="-0.5" transform="matrix(0.866044 0.499967 -0.866044 0.499967 561.961 152.122)" stroke="#27B9CA"/>
<line y1="-0.5" x2="545.641" y2="-0.5" transform="matrix(0.866044 0.499967 -0.866044 0.499967 549.19 159.495)" stroke="#27B9CA"/>
<line y1="-0.5" x2="545.641" y2="-0.5" transform="matrix(0.866044 0.499967 -0.866044 0.499967 536.417 166.868)" stroke="#27B9CA"/>
<line y1="-0.5" x2="545.641" y2="-0.5" transform="matrix(0.866044 0.499967 -0.866044 0.499967 523.647 174.241)" stroke="#27B9CA"/>
<line y1="-0.5" x2="545.641" y2="-0.5" transform="matrix(0.866044 0.499967 -0.866044 0.499967 510.874 181.614)" stroke="#27B9CA"/>
<line y1="-0.5" x2="545.641" y2="-0.5" transform="matrix(0.866044 0.499967 -0.866044 0.499967 498.102 188.987)" stroke="#27B9CA"/>
<line y1="-0.5" x2="545.641" y2="-0.5" transform="matrix(0.866044 0.499967 -0.866044 0.499967 485.333 196.36)" stroke="#27B9CA"/>
<line y1="-0.5" x2="545.641" y2="-0.5" transform="matrix(0.866044 0.499967 -0.866044 0.499967 472.559 203.733)" stroke="#27B9CA"/>
<line y1="-0.5" x2="546.981" y2="-0.5" transform="matrix(-0.866044 0.499967 -0.866044 -0.499967 471.402 211.099)" stroke="#27B9CA"/>
<line y1="-0.5" x2="546.981" y2="-0.5" transform="matrix(-0.866044 0.499967 -0.866044 -0.499967 484.176 218.473)" stroke="#27B9CA"/>
<line y1="-0.5" x2="546.981" y2="-0.5" transform="matrix(-0.866044 0.499967 -0.866044 -0.499967 496.947 225.846)" stroke="#27B9CA"/>
<line y1="-0.5" x2="546.981" y2="-0.5" transform="matrix(-0.866044 0.499967 -0.866044 -0.499967 509.716 233.219)" stroke="#27B9CA"/>
<line y1="-0.5" x2="546.981" y2="-0.5" transform="matrix(-0.866044 0.499967 -0.866044 -0.499967 522.49 240.592)" stroke="#27B9CA"/>
<line y1="-0.5" x2="546.981" y2="-0.5" transform="matrix(-0.866044 0.499967 -0.866044 -0.499967 535.262 247.965)" stroke="#27B9CA"/>
<line y1="-0.5" x2="546.981" y2="-0.5" transform="matrix(-0.866044 0.499967 -0.866044 -0.499967 548.033 255.338)" stroke="#27B9CA"/>
<line y1="-0.5" x2="546.981" y2="-0.5" transform="matrix(-0.866044 0.499967 -0.866044 -0.499967 560.805 262.711)" stroke="#27B9CA"/>
<line y1="-0.5" x2="546.981" y2="-0.5" transform="matrix(-0.866044 0.499967 -0.866044 -0.499967 573.578 270.084)" stroke="#27B9CA"/>
<line y1="-0.5" x2="546.981" y2="-0.5" transform="matrix(-0.866044 0.499967 -0.866044 -0.499967 586.348 277.457)" stroke="#27B9CA"/>
<line y1="-0.5" x2="546.981" y2="-0.5" transform="matrix(-0.866044 0.499967 -0.866044 -0.499967 599.119 284.831)" stroke="#27B9CA"/>
<line y1="-0.5" x2="546.981" y2="-0.5" transform="matrix(-0.866044 0.499967 -0.866044 -0.499967 611.893 292.203)" stroke="#27B9CA"/>
<line y1="-0.5" x2="546.981" y2="-0.5" transform="matrix(-0.866044 0.499967 -0.866044 -0.499967 624.66 299.576)" stroke="#27B9CA"/>
<line y1="-0.5" x2="546.981" y2="-0.5" transform="matrix(-0.866044 0.499967 -0.866044 -0.499967 637.436 306.949)" stroke="#27B9CA"/>
<line y1="-0.5" x2="546.981" y2="-0.5" transform="matrix(-0.866044 0.499967 -0.866044 -0.499967 650.205 314.322)" stroke="#27B9CA"/>
<line y1="-0.5" x2="546.981" y2="-0.5" transform="matrix(-0.866044 0.499967 -0.866044 -0.499967 662.98 321.696)" stroke="#27B9CA"/>
<line y1="-0.5" x2="546.981" y2="-0.5" transform="matrix(-0.866044 0.499967 -0.866044 -0.499967 675.748 329.068)" stroke="#27B9CA"/>
<line y1="-0.5" x2="546.981" y2="-0.5" transform="matrix(-0.866044 0.499967 -0.866044 -0.499967 688.52 336.441)" stroke="#27B9CA"/>
<line y1="-0.5" x2="546.981" y2="-0.5" transform="matrix(-0.866044 0.499967 -0.866044 -0.499967 701.291 343.814)" stroke="#27B9CA"/>
<line y1="-0.5" x2="546.981" y2="-0.5" transform="matrix(-0.866044 0.499967 -0.866044 -0.499967 714.062 351.187)" stroke="#27B9CA"/>
<line y1="-0.5" x2="546.981" y2="-0.5" transform="matrix(-0.866044 0.499967 -0.866044 -0.499967 726.832 358.561)" stroke="#27B9CA"/>
<line y1="-0.5" x2="546.981" y2="-0.5" transform="matrix(-0.866044 0.499967 -0.866044 -0.499967 739.605 365.933)" stroke="#27B9CA"/>
<line y1="-0.5" x2="546.981" y2="-0.5" transform="matrix(-0.866044 0.499967 -0.866044 -0.499967 752.379 373.306)" stroke="#27B9CA"/>
<line y1="-0.5" x2="546.981" y2="-0.5" transform="matrix(-0.866044 0.499967 -0.866044 -0.499967 765.15 380.679)" stroke="#27B9CA"/>
<line y1="-0.5" x2="546.981" y2="-0.5" transform="matrix(-0.866044 0.499967 -0.866044 -0.499967 777.92 388.052)" stroke="#27B9CA"/>
<line y1="-0.5" x2="546.981" y2="-0.5" transform="matrix(-0.866044 0.499967 -0.866044 -0.499967 790.693 395.426)" stroke="#27B9CA"/>
<line y1="-0.5" x2="546.981" y2="-0.5" transform="matrix(-0.866044 0.499967 -0.866044 -0.499967 803.465 402.798)" stroke="#27B9CA"/>
<line y1="-0.5" x2="546.981" y2="-0.5" transform="matrix(-0.866044 0.499967 -0.866044 -0.499967 816.234 410.171)" stroke="#27B9CA"/>
<line y1="-0.5" x2="546.981" y2="-0.5" transform="matrix(-0.866044 0.499967 -0.866044 -0.499967 829.008 417.544)" stroke="#27B9CA"/>
<line y1="-0.5" x2="546.981" y2="-0.5" transform="matrix(-0.866044 0.499967 -0.866044 -0.499967 841.781 424.925)" stroke="#27B9CA"/>
<line y1="-0.5" x2="546.981" y2="-0.5" transform="matrix(-0.866044 0.499967 -0.866044 -0.499967 854.553 432.299)" stroke="#27B9CA"/>
<line y1="-0.5" x2="545.641" y2="-0.5" transform="matrix(0.866044 0.499967 -0.866044 0.499967 458.633 211.77)" stroke="#27B9CA"/>
<line y1="-0.5" x2="545.641" y2="-0.5" transform="matrix(0.866044 0.499967 -0.866044 0.499967 445.859 219.143)" stroke="#27B9CA"/>
<line y1="-0.5" x2="545.641" y2="-0.5" transform="matrix(0.866044 0.499967 -0.866044 0.499967 433.088 226.516)" stroke="#27B9CA"/>
<line y1="-0.5" x2="545.641" y2="-0.5" transform="matrix(0.866044 0.499967 -0.866044 0.499967 420.318 233.889)" stroke="#27B9CA"/>
<line y1="-0.5" x2="545.641" y2="-0.5" transform="matrix(0.866044 0.499967 -0.866044 0.499967 407.545 241.262)" stroke="#27B9CA"/>
<line y1="-0.5" x2="545.641" y2="-0.5" transform="matrix(0.866044 0.499967 -0.866044 0.499967 394.773 248.635)" stroke="#27B9CA"/>
<line y1="-0.5" x2="545.641" y2="-0.5" transform="matrix(0.866044 0.499967 -0.866044 0.499967 382 256.008)" stroke="#27B9CA"/>
<line y1="-0.5" x2="545.641" y2="-0.5" transform="matrix(0.866044 0.499967 -0.866044 0.499967 369.23 263.381)" stroke="#27B9CA"/>
<line y1="-0.5" x2="545.641" y2="-0.5" transform="matrix(0.866044 0.499967 -0.866044 0.499967 356.457 270.754)" stroke="#27B9CA"/>
<line y1="-0.5" x2="545.641" y2="-0.5" transform="matrix(0.866044 0.499967 -0.866044 0.499967 343.689 278.127)" stroke="#27B9CA"/>
<line y1="-0.5" x2="545.641" y2="-0.5" transform="matrix(0.866044 0.499967 -0.866044 0.499967 330.918 285.5)" stroke="#27B9CA"/>
<line y1="-0.5" x2="545.641" y2="-0.5" transform="matrix(0.866044 0.499967 -0.866044 0.499967 318.145 292.874)" stroke="#27B9CA"/>
<line y1="-0.5" x2="545.641" y2="-0.5" transform="matrix(0.866044 0.499967 -0.866044 0.499967 305.375 300.247)" stroke="#27B9CA"/>
<line y1="-0.5" x2="545.641" y2="-0.5" transform="matrix(0.866044 0.499967 -0.866044 0.499967 292.602 307.619)" stroke="#27B9CA"/>
<line y1="-0.5" x2="545.641" y2="-0.5" transform="matrix(0.866044 0.499967 -0.866044 0.499967 279.83 314.992)" stroke="#27B9CA"/>
<line y1="-0.5" x2="545.641" y2="-0.5" transform="matrix(0.866044 0.499967 -0.866044 0.499967 267.057 322.366)" stroke="#27B9CA"/>
<line y1="-0.5" x2="545.641" y2="-0.5" transform="matrix(0.866044 0.499967 -0.866044 0.499967 254.287 329.739)" stroke="#27B9CA"/>
<line y1="-0.5" x2="545.641" y2="-0.5" transform="matrix(0.866044 0.499967 -0.866044 0.499967 241.516 337.112)" stroke="#27B9CA"/>
<line y1="-0.5" x2="545.641" y2="-0.5" transform="matrix(0.866044 0.499967 -0.866044 0.499967 228.742 344.484)" stroke="#27B9CA"/>
<line y1="-0.5" x2="545.641" y2="-0.5" transform="matrix(0.866044 0.499967 -0.866044 0.499967 215.969 351.858)" stroke="#27B9CA"/>
<line y1="-0.5" x2="545.641" y2="-0.5" transform="matrix(0.866044 0.499967 -0.866044 0.499967 203.199 359.231)" stroke="#27B9CA"/>
<line y1="-0.5" x2="545.641" y2="-0.5" transform="matrix(0.866044 0.499967 -0.866044 0.499967 190.43 366.604)" stroke="#27B9CA"/>
<line y1="-0.5" x2="545.641" y2="-0.5" transform="matrix(0.866044 0.499967 -0.866044 0.499967 177.656 373.977)" stroke="#27B9CA"/>
<line y1="-0.5" x2="545.641" y2="-0.5" transform="matrix(0.866044 0.499967 -0.866044 0.499967 164.885 381.349)" stroke="#27B9CA"/>
<line y1="-0.5" x2="545.641" y2="-0.5" transform="matrix(0.866044 0.499967 -0.866044 0.499967 152.115 388.723)" stroke="#27B9CA"/>
<line y1="-0.5" x2="545.641" y2="-0.5" transform="matrix(0.866044 0.499967 -0.866044 0.499967 139.342 396.096)" stroke="#27B9CA"/>
<line y1="-0.5" x2="545.641" y2="-0.5" transform="matrix(0.866044 0.499967 -0.866044 0.499967 126.57 403.469)" stroke="#27B9CA"/>
<line y1="-0.5" x2="545.641" y2="-0.5" transform="matrix(0.866044 0.499967 -0.866044 0.499967 113.797 410.841)" stroke="#27B9CA"/>
<line y1="-0.5" x2="545.641" y2="-0.5" transform="matrix(0.866044 0.499967 -0.866044 0.499967 101.027 418.223)" stroke="#27B9CA"/>
<line y1="-0.5" x2="545.641" y2="-0.5" transform="matrix(0.866044 0.499967 -0.866044 0.499967 88.2539 425.596)" stroke="#27B9CA"/>
<line y1="-0.5" x2="545.641" y2="-0.5" transform="matrix(0.866044 0.499967 -0.866044 0.499967 75.4824 432.969)" stroke="#27B9CA"/>
</g>
</g>
</g>
<defs>
<linearGradient id="paint0_linear_15_1666" x1="1545" y1="231" x2="667" y2="231" gradientUnits="userSpaceOnUse">
<stop stop-color="#D9D9D9"/>
<stop offset="1" stop-color="#D9D9D9" stop-opacity="0"/>
</linearGradient>
</defs>
</svg>
