<svg width="642" height="434" viewBox="0 0 642 434" fill="none" xmlns="http://www.w3.org/2000/svg">
<g opacity="0.4">
<mask id="mask0_463_395" style="mask-type:alpha" maskUnits="userSpaceOnUse" x="0" y="-14" width="1054" height="932">
<rect y="-14" width="1053.1" height="931.83" fill="url(#paint0_linear_463_395)"/>
</mask>
<g mask="url(#mask0_463_395)">
<line y1="-0.5" x2="1054.31" y2="-0.5" transform="matrix(-0.866044 0.499967 -0.866044 -0.499967 693.309 -7.53418)" stroke="#28AAB9"/>
<line y1="-0.5" x2="1054.31" y2="-0.5" transform="matrix(-0.866044 0.499967 -0.866044 -0.499967 717.928 6.67578)" stroke="#28AAB9"/>
<line y1="-0.5" x2="1054.31" y2="-0.5" transform="matrix(-0.866044 0.499967 -0.866044 -0.499967 742.543 20.8906)" stroke="#28AAB9"/>
<line y1="-0.5" x2="1054.31" y2="-0.5" transform="matrix(-0.866044 0.499967 -0.866044 -0.499967 767.162 35.1006)" stroke="#28AAB9"/>
<line y1="-0.5" x2="1054.31" y2="-0.5" transform="matrix(-0.866044 0.499967 -0.866044 -0.499967 791.779 49.3105)" stroke="#28AAB9"/>
<line y1="-0.5" x2="1054.31" y2="-0.5" transform="matrix(-0.866044 0.499967 -0.866044 -0.499967 816.396 63.5264)" stroke="#28AAB9"/>
<line y1="-0.5" x2="1054.31" y2="-0.5" transform="matrix(-0.866044 0.499967 -0.866044 -0.499967 841.014 77.7344)" stroke="#28AAB9"/>
<line y1="-0.5" x2="1054.31" y2="-0.5" transform="matrix(-0.866044 0.499967 -0.866044 -0.499967 865.631 91.9443)" stroke="#28AAB9"/>
<line y1="-0.5" x2="1054.31" y2="-0.5" transform="matrix(-0.866044 0.499967 -0.866044 -0.499967 890.248 106.158)" stroke="#28AAB9"/>
<line y1="-0.5" x2="1054.31" y2="-0.5" transform="matrix(-0.866044 0.499967 -0.866044 -0.499967 914.863 120.37)" stroke="#28AAB9"/>
<line y1="-0.5" x2="1054.31" y2="-0.5" transform="matrix(-0.866044 0.499967 -0.866044 -0.499967 939.482 134.58)" stroke="#28AAB9"/>
<line y1="-0.5" x2="1054.31" y2="-0.5" transform="matrix(-0.866044 0.499967 -0.866044 -0.499967 964.098 148.795)" stroke="#28AAB9"/>
<line y1="-0.5" x2="1054.31" y2="-0.5" transform="matrix(-0.866044 0.499967 -0.866044 -0.499967 988.717 163.003)" stroke="#28AAB9"/>
<line y1="-0.5" x2="1054.31" y2="-0.5" transform="matrix(-0.866044 0.499967 -0.866044 -0.499967 1013.33 177.213)" stroke="#28AAB9"/>
<line y1="-0.5" x2="1054.31" y2="-0.5" transform="matrix(-0.866044 0.499967 -0.866044 -0.499967 1037.95 191.435)" stroke="#28AAB9"/>
<line y1="-0.5" x2="1054.31" y2="-0.5" transform="matrix(-0.866044 0.499967 -0.866044 -0.499967 1062.57 205.639)" stroke="#28AAB9"/>
<line y1="-0.5" x2="1054.31" y2="-0.5" transform="matrix(-0.866044 0.499967 -0.866044 -0.499967 1087.19 219.849)" stroke="#28AAB9"/>
<line y1="-0.5" x2="1054.31" y2="-0.5" transform="matrix(-0.866044 0.499967 -0.866044 -0.499967 1111.8 234.068)" stroke="#28AAB9"/>
<line y1="-0.5" x2="1054.31" y2="-0.5" transform="matrix(-0.866044 0.499967 -0.866044 -0.499967 1136.42 248.278)" stroke="#28AAB9"/>
<line y1="-0.5" x2="1054.31" y2="-0.5" transform="matrix(-0.866044 0.499967 -0.866044 -0.499967 1161.04 262.487)" stroke="#28AAB9"/>
<line y1="-0.5" x2="1054.31" y2="-0.5" transform="matrix(-0.866044 0.499967 -0.866044 -0.499967 1185.65 276.689)" stroke="#28AAB9"/>
<line y1="-0.5" x2="1054.31" y2="-0.5" transform="matrix(-0.866044 0.499967 -0.866044 -0.499967 1210.27 290.913)" stroke="#28AAB9"/>
<line y1="-0.5" x2="1054.31" y2="-0.5" transform="matrix(-0.866044 0.499967 -0.866044 -0.499967 1234.89 305.121)" stroke="#28AAB9"/>
<line y1="-0.5" x2="1054.31" y2="-0.5" transform="matrix(-0.866044 0.499967 -0.866044 -0.499967 1259.51 319.331)" stroke="#28AAB9"/>
<line y1="-0.5" x2="1054.31" y2="-0.5" transform="matrix(-0.866044 0.499967 -0.866044 -0.499967 1284.12 333.547)" stroke="#28AAB9"/>
<line y1="-0.5" x2="1054.31" y2="-0.5" transform="matrix(-0.866044 0.499967 -0.866044 -0.499967 1308.74 347.755)" stroke="#28AAB9"/>
<line y1="-0.5" x2="1054.31" y2="-0.5" transform="matrix(-0.866044 0.499967 -0.866044 -0.499967 1333.36 361.965)" stroke="#28AAB9"/>
<line y1="-0.5" x2="1054.31" y2="-0.5" transform="matrix(-0.866044 0.499967 -0.866044 -0.499967 1357.97 376.183)" stroke="#28AAB9"/>
<line y1="-0.5" x2="1054.31" y2="-0.5" transform="matrix(-0.866044 0.499967 -0.866044 -0.499967 1382.59 390.39)" stroke="#28AAB9"/>
<line y1="-0.5" x2="1054.31" y2="-0.5" transform="matrix(-0.866044 0.499967 -0.866044 -0.499967 1407.21 404.6)" stroke="#28AAB9"/>
<line y1="-0.5" x2="1054.31" y2="-0.5" transform="matrix(-0.866044 0.499967 -0.866044 -0.499967 1431.83 418.815)" stroke="#28AAB9"/>
<line y1="-0.5" x2="1054.31" y2="-0.5" transform="matrix(-0.866044 0.499967 -0.866044 -0.499967 1456.44 433.023)" stroke="#28AAB9"/>
<line y1="-0.5" x2="1051.72" y2="-0.5" transform="matrix(0.866044 0.499967 -0.866044 0.499967 619.459 22.1787)" stroke="#28AAB9"/>
<line y1="-0.5" x2="1051.72" y2="-0.5" transform="matrix(0.866044 0.499967 -0.866044 0.499967 594.842 36.3955)" stroke="#28AAB9"/>
<line y1="-0.5" x2="1051.72" y2="-0.5" transform="matrix(0.866044 0.499967 -0.866044 0.499967 570.225 50.6035)" stroke="#28AAB9"/>
<line y1="-0.5" x2="1051.72" y2="-0.5" transform="matrix(0.866044 0.499967 -0.866044 0.499967 545.605 64.8135)" stroke="#28AAB9"/>
<line y1="-0.5" x2="1051.72" y2="-0.5" transform="matrix(0.866044 0.499967 -0.866044 0.499967 520.99 79.0273)" stroke="#28AAB9"/>
<line y1="-0.5" x2="1051.72" y2="-0.5" transform="matrix(0.866044 0.499967 -0.866044 0.499967 496.371 93.2373)" stroke="#28AAB9"/>
<line y1="-0.5" x2="1051.72" y2="-0.5" transform="matrix(0.866044 0.499967 -0.866044 0.499967 471.756 107.449)" stroke="#28AAB9"/>
<line y1="-0.5" x2="1051.72" y2="-0.5" transform="matrix(0.866044 0.499967 -0.866044 0.499967 447.139 121.663)" stroke="#28AAB9"/>
<line y1="-0.5" x2="1051.72" y2="-0.5" transform="matrix(0.866044 0.499967 -0.866044 0.499967 422.521 135.873)" stroke="#28AAB9"/>
<line y1="-0.5" x2="1051.72" y2="-0.5" transform="matrix(0.866044 0.499967 -0.866044 0.499967 397.902 150.081)" stroke="#28AAB9"/>
<line y1="-0.5" x2="1051.72" y2="-0.5" transform="matrix(0.866044 0.499967 -0.866044 0.499967 373.287 164.296)" stroke="#28AAB9"/>
<line y1="-0.5" x2="1051.72" y2="-0.5" transform="matrix(0.866044 0.499967 -0.866044 0.499967 348.666 178.506)" stroke="#28AAB9"/>
<line y1="-0.5" x2="1051.72" y2="-0.5" transform="matrix(0.866044 0.499967 -0.866044 0.499967 324.053 192.716)" stroke="#28AAB9"/>
<line y1="-0.5" x2="1051.72" y2="-0.5" transform="matrix(0.866044 0.499967 -0.866044 0.499967 299.434 206.926)" stroke="#28AAB9"/>
<line y1="-0.5" x2="1051.72" y2="-0.5" transform="matrix(0.866044 0.499967 -0.866044 0.499967 274.816 221.142)" stroke="#28AAB9"/>
<line y1="-0.5" x2="1051.72" y2="-0.5" transform="matrix(0.866044 0.499967 -0.866044 0.499967 250.199 235.35)" stroke="#28AAB9"/>
<line y1="-0.5" x2="1051.72" y2="-0.5" transform="matrix(0.866044 0.499967 -0.866044 0.499967 225.582 249.56)" stroke="#28AAB9"/>
<line y1="-0.5" x2="1051.72" y2="-0.5" transform="matrix(0.866044 0.499967 -0.866044 0.499967 200.967 263.781)" stroke="#28AAB9"/>
<line y1="-0.5" x2="1051.72" y2="-0.5" transform="matrix(0.866044 0.499967 -0.866044 0.499967 176.348 277.99)" stroke="#28AAB9"/>
<line y1="-0.5" x2="1051.72" y2="-0.5" transform="matrix(0.866044 0.499967 -0.866044 0.499967 151.73 292.194)" stroke="#28AAB9"/>
<line y1="-0.5" x2="1051.72" y2="-0.5" transform="matrix(0.866044 0.499967 -0.866044 0.499967 127.113 306.414)" stroke="#28AAB9"/>
<line y1="-0.5" x2="1051.72" y2="-0.5" transform="matrix(0.866044 0.499967 -0.866044 0.499967 102.496 320.624)" stroke="#28AAB9"/>
<line y1="-0.5" x2="1051.72" y2="-0.5" transform="matrix(0.866044 0.499967 -0.866044 0.499967 77.8789 334.834)" stroke="#28AAB9"/>
<line y1="-0.5" x2="1051.72" y2="-0.5" transform="matrix(0.866044 0.499967 -0.866044 0.499967 53.2617 349.05)" stroke="#28AAB9"/>
<line y1="-0.5" x2="1051.72" y2="-0.5" transform="matrix(0.866044 0.499967 -0.866044 0.499967 28.6465 363.26)" stroke="#28AAB9"/>
<line y1="-0.5" x2="1051.72" y2="-0.5" transform="matrix(0.866044 0.499967 -0.866044 0.499967 4.02734 377.47)" stroke="#28AAB9"/>
<line y1="-0.5" x2="1051.72" y2="-0.5" transform="matrix(0.866044 0.499967 -0.866044 0.499967 -20.5898 391.683)" stroke="#28AAB9"/>
<line y1="-0.5" x2="1051.72" y2="-0.5" transform="matrix(0.866044 0.499967 -0.866044 0.499967 -45.207 405.893)" stroke="#28AAB9"/>
<line y1="-0.5" x2="1051.72" y2="-0.5" transform="matrix(0.866044 0.499967 -0.866044 0.499967 -69.8242 420.101)" stroke="#28AAB9"/>
<line y1="-0.5" x2="1051.72" y2="-0.5" transform="matrix(0.866044 0.499967 -0.866044 0.499967 -94.4414 434.318)" stroke="#28AAB9"/>
</g>
</g>
<defs>
<linearGradient id="paint0_linear_463_395" x1="965.679" y1="188.096" x2="-169.243" y2="584.323" gradientUnits="userSpaceOnUse">
<stop stop-color="#D9D9D9"/>
<stop offset="1" stop-color="#D9D9D9" stop-opacity="0"/>
</linearGradient>
</defs>
</svg>
