<svg width="1178" height="820" viewBox="0 0 1178 820" fill="none" xmlns="http://www.w3.org/2000/svg">
  <g clip-path="url(#clip0_0_3)">
    <path opacity="0.4" fill-rule="evenodd" clip-rule="evenodd" d="M869 180.5L832 158.5L794.5 180.5V310.5L775 323V273L758 263V245L731.5 229.5L703.5 245V254L689 245L683.5 226.5L676 222.5L672 224.5L668 230.5V233L661.5 229.5V70.5L653.5 66V65L646 60V56L630 46.5L629.5 3H628.5V46.5L612.5 56V60L604.5 65V66L596 70.5V193L588 188.5V167.5L558.5 149.5V108.5L523 88L488 108.5V263.5H471C471.333 262.167 471.8 259.1 471 257.5C478.6 253.1 482.167 251 483 250.5L482.5 211.5L480.5 210L475 213L473.5 211.5L471.5 213V215H470.5V153.5C469.833 147.667 462.6 136 439 136C409.5 136 403.5 147.5 403 153.5C402.6 158.3 402.833 207.5 403 231.5L402 263V284.005L388.5 276L383 280L376 285L383 289V292.5L389 289.5L426.5 312L427 362C427 362 438.913 369.707 445.5 373C452.087 376.293 467.5 385.5 467.5 385.5V399.5L496.5 383C496.5 383 514.166 392.272 527 400.5C527.501 400.821 527.501 401.449 527.5 402.385L527.5 402.5C538.196 403.784 548.184 400.432 553.329 398.705C554.197 398.414 554.927 398.169 555.5 398L582 414L585 412L925.5 614L949 601.5L680.5 445.5L749.5 406C765 397 797.3 378.2 802.5 375C807.7 371.8 804.667 367.667 802.5 366L789.5 358.5L794.5 355L832.5 377.5L869 356V180.5ZM994.5 230C978.32 220.528 956.333 213.333 947 211.5L941.5 204.5L928.5 197V210C925.167 210.167 918 210.8 916 212C916 214 917.333 219.167 918 221.5L909 227L921.5 234.5H924L928.5 241L929 246.5L931.5 244.5C933.5 247 938.9 253.2 944.5 258C944 263.5 955.5 271 959.5 273.5C963.5 276 964.5 275.5 967.5 273.5C994.5 293 1015.5 287.5 1030 279C1031.5 256 1015 242 994.5 230ZM694.5 240.5L692.5 235.5L695.5 230.5L695 227L700 222L705.5 224.5L706.5 229.5L708.5 235L706 240L700.5 242V245.5H699.5V242L694.5 240.5Z" fill="#27B7CA" />
  </g>
  <defs>
    <clipPath id="clip0_0_3">
      <rect width="719" height="575" fill="white" transform="translate(316 45)" />
    </clipPath>
  </defs>
</svg>
