<svg width="1178" height="820" viewBox="0 0 1178 820" fill="none" xmlns="http://www.w3.org/2000/svg">
<path opacity="0.4" fill-rule="evenodd" clip-rule="evenodd" d="M217 413.5L313.5 469.5L285 486.5C284.333 487.667 283.7 490.4 286.5 492C289.3 493.6 341.667 523.667 367.5 538.5L271 594.5L292 607L490 493L545.5 460.5L602 425L555.5 398C550 399.833 536.7 403.4 527.5 403V400.5L497 383L467.5 399.5V386L427 362L426.5 312L388.5 289.5L383 292.5V289L376 284.5V235L387 241.5L395 237V227.5L305 176.5L303.5 178L302 177L284.5 186.5V197L302 206.5L313.5 199L314.5 199.5V266L307.5 270V274L314.5 278V345L241.5 386.5V399.5L217 413.5ZM374.5 234L335.5 211.5L336 260L346.5 266V283.5L337.5 288.5L336 287.5V333L350 324.5V312L368.5 301.5V283L370.5 281.5L374.5 284V234Z" fill="#27B7CA"/>
</svg>
