<svg width="1178" height="820" viewBox="0 0 1178 820" fill="none" xmlns="http://www.w3.org/2000/svg">
<path opacity="0.4" d="M614.5 417.5L594.5 406.5L415 511L310.5 450L308 441L300 436.5L296 438.5L294 440.5L231.5 405L220.11 411.446L216.874 402.781L211.86 416.243L209.434 417.653L205.552 404.192L198.03 400L193.824 402.821L190.225 408.504L191.115 412.978L186.303 420.596L189.457 427.77L191.074 428.173L183.795 432.365H183.755L179.387 434.904L164.425 443.529L160.705 433.533L154.962 449.01L135.713 460.054C135.552 459.409 135.349 458.804 135.147 458.2C134.743 456.829 134.177 455.459 133.408 454.21L133.368 461.424L77.562 493.547L77.6025 492.62L65.9965 499.23V500.197L61.5886 502.736L58.677 504.308C58.677 504.308 58.7174 504.308 58.7983 504.348L44.3616 512.651L43.1889 512.53L42.097 508.782L33.8475 504.187L29.2374 507.291L25.2744 513.538L26.2449 518.455L21.7158 525.669L0 537.812V564.5L184.5 670L270.739 619.982L271.386 594.469L292 607L523.5 474L614.5 417.5Z" fill="#27B7CA"/>
</svg>
