<svg width="33" height="36" viewBox="0 0 33 36" fill="none" xmlns="http://www.w3.org/2000/svg">
<path d="M16.116 4.93602V0.400024L27.412 6.38802V11.2864L16.1152 4.93602H16.116Z" fill="#375D91"/>
<path d="M16.116 31.064V35.6L32.2256 26.8912L27.4112 24.7136L16.1152 31.064H16.116Z" fill="#ADD3FF"/>
<path d="M16.116 31.064V18L27.4112 24.7136L16.1152 31.064H16.116Z" fill="#E4EFFF"/>
<path d="M27.4043 24.7135V6.38794L32.2187 9.10954V26.8903L27.4043 24.7135Z" fill="#C4D7ED"/>
<path d="M16.1163 31.064V35.6L4.82031 29.6128V24.7136L16.1163 31.064Z" fill="#89ABC9"/>
<path d="M4.82031 24.7136V11.2864L16.1163 18V31.064L4.82031 24.7136Z" fill="#4474A1"/>
<path d="M16.116 17.9999V4.93591L27.4112 11.2863V24.7119L16.1152 17.9983L16.116 17.9999Z" fill="#416E99"/>
<path d="M0 26.8913L4.8144 29.6129V11.2873L0 9.10974V26.8913Z" fill="#1D3C63"/>
<path d="M16.1163 17.9999V4.93591L4.82031 11.2863L16.1163 17.9991V17.9999Z" fill="#183152"/>
<path d="M4.8144 11.2864L0 9.10962L16.1096 0.400024V4.93602L4.8144 11.2864Z" fill="#214370"/>
</svg>
