<?xml version="1.0" encoding="utf-8"?><svg xmlns="http://www.w3.org/2000/svg" xmlns:xlink="http://www.w3.org/1999/xlink"><symbol viewBox="0 0 14 14" id="alert" xmlns="http://www.w3.org/2000/svg"><g clip-path="url(#aclip0_368_6221)"><path clip-rule="evenodd" d="M6.998 0a1.79 1.79 0 011.78 1.99l-.674 6.017a1.117 1.117 0 01-2.221-.002l-.664-6.019A1.79 1.79 0 016.999 0zM5.5 12.5a1.5 1.5 0 103 0 1.5 1.5 0 00-3 0z"/></g><defs><clipPath id="aclip0_368_6221"><path d="M0 0h14v14H0z"/></clipPath></defs></symbol><symbol viewBox="0 0 17 10" id="arrow-right" xmlns="http://www.w3.org/2000/svg"><path d="M.5 5.96h10.69L8.76 9.457l.405.542L16.5 5.27v-.563L9.165 0l-.393.52 2.406 3.498H.5V5.96z"/></symbol><symbol viewBox="0 0 9 10" id="arrow-slider-left" xmlns="http://www.w3.org/2000/svg"><path d="M8.37 9.458L5.94 5.96l-.507-.688v-.564l.518-.689L8.358.52 7.964 0 .63 4.707v.564L7.964 10l.405-.542z"/></symbol><symbol viewBox="0 0 9 10" id="arrow-slider-right" xmlns="http://www.w3.org/2000/svg"><path d="M.63 9.458L3.06 5.96l.507-.688v-.564l-.518-.689L.642.52 1.036 0 8.37 4.707v.564L1.036 10 .63 9.458z"/></symbol><symbol viewBox="0 0 16 16" id="arrow-top" xmlns="http://www.w3.org/2000/svg"><path d="M1 2h13v13M14 2L2 14"/></symbol><symbol viewBox="0 0 16 16" id="arrow-top-bottom" xmlns="http://www.w3.org/2000/svg"><path d="M4 6l4-3 4 3M4 10l4 3 4-3"/></symbol><symbol viewBox="0 0 21 21" id="chat" xmlns="http://www.w3.org/2000/svg"><path d="M4.251 4.03A2.506 2.506 0 001.75 6.525v3.75a2.51 2.51 0 002.501 2.502v1.877a.625.625 0 001.066.439l2.316-2.316h4.12a2.506 2.506 0 002.496-2.501V6.526a2.502 2.502 0 00-2.497-2.497h-7.5zm0 1.25h7.501a1.23 1.23 0 011.252 1.246v3.75c0 .704-.548 1.25-1.252 1.25H7.375a.625.625 0 00-.44.185l-1.434 1.435v-.992a.625.625 0 00-.622-.627H4.25c-.703 0-1.25-.547-1.25-1.25V6.525a1.23 1.23 0 011.25-1.245zm10.625 1.246v1.25h1.874c.703 0 1.25.547 1.25 1.25v3.752c0 .703-.547 1.25-1.25 1.25h-.624a.626.626 0 00-.627.627v.988l-1.43-1.43a.624.624 0 00-.443-.185H9.252a1.23 1.23 0 01-1.081-.623h-.28l-.73.73a2.501 2.501 0 002.091 1.143h4.115l2.317 2.316a.625.625 0 001.066-.442v-1.874c1.374 0 2.5-1.126 2.5-2.5V9.027a2.51 2.51 0 00-2.5-2.501h-1.874z"/></symbol><symbol viewBox="0 0 10 11" id="cross" xmlns="http://www.w3.org/2000/svg"><path d="M9.3.901L.433 9.768m0-8.867L9.3 9.768"/></symbol><symbol viewBox="0 0 20 21" id="fb" xmlns="http://www.w3.org/2000/svg"><path clip-rule="evenodd" d="M11.493 17.78v-7.779h2.148l.284-2.68h-2.432l.004-1.342c0-.699.066-1.074 1.07-1.074h1.343v-2.68h-2.148c-2.58 0-3.488 1.3-3.488 3.487v1.61H6.666v2.68h1.608v7.778h3.22z"/></symbol><symbol viewBox="0 0 16 16" id="filter" xmlns="http://www.w3.org/2000/svg"><circle cx="4" cy="4" r="3"/><circle cx="12" cy="12" r="3"/><path d="M7 4h8M1 12h8"/></symbol><symbol viewBox="0 0 14 10" id="hh" xmlns="http://www.w3.org/2000/svg"><path d="M1.898 0v3.86c.61-.701 1.343-1.054 2.192-1.054.437 0 .83.08 1.18.24.353.158.616.362.794.608.18.25.3.522.365.823.065.3.098.765.098 1.396V10H4.629V6.283c0-.737-.035-1.204-.107-1.403a.912.912 0 00-.38-.473c-.184-.118-.411-.177-.686-.177-.315 0-.597.076-.842.226-.25.151-.43.377-.544.68-.116.302-.174.749-.172 1.34L1.896 10H0V0h1.898zM9.37 0v3.86c.612-.701 1.343-1.054 2.192-1.054.436 0 .83.08 1.183.24.35.158.614.362.791.608.179.248.303.528.365.823.066.3.098.765.098 1.396V10h-1.896V6.283c0-.737-.036-1.204-.108-1.403a.909.909 0 00-.382-.473c-.18-.118-.41-.177-.685-.177-.314 0-.596.076-.842.226a1.316 1.316 0 00-.544.68c-.114.302-.172.749-.172 1.34V10H7.476V0H9.37z"/></symbol><symbol viewBox="0 0 20 21" id="inst" xmlns="http://www.w3.org/2000/svg"><path clip-rule="evenodd" d="M10 1.669c-2.263 0-2.547.01-3.436.05-.887.04-1.493.181-2.023.387a4.08 4.08 0 00-1.476.961 4.09 4.09 0 00-.962 1.476c-.206.53-.347 1.136-.387 2.023-.04.889-.05 1.173-.05 3.436s.01 2.547.05 3.435c.041.888.182 1.493.388 2.023.213.548.497 1.013.96 1.476a4.08 4.08 0 001.476.962c.53.206 1.136.347 2.023.387.89.04 1.173.05 3.436.05s2.547-.01 3.435-.05c.888-.04 1.494-.18 2.024-.387a4.078 4.078 0 001.475-.962c.464-.463.749-.928.962-1.476.205-.53.346-1.136.387-2.022.04-.89.05-1.173.05-3.436s-.01-2.547-.05-3.436c-.041-.887-.182-1.493-.387-2.022a4.091 4.091 0 00-.962-1.477 4.073 4.073 0 00-1.475-.96c-.532-.207-1.138-.347-2.025-.388-.889-.04-1.172-.05-3.435-.05H10zm-.747 1.502H10c2.225 0 2.489.008 3.367.048.813.037 1.254.173 1.548.287.389.15.666.331.957.623.292.291.473.57.624.958.114.294.25.735.287 1.547.04.878.049 1.142.049 3.366s-.01 2.488-.049 3.367c-.037.812-.173 1.253-.287 1.546a2.576 2.576 0 01-.624.958 2.577 2.577 0 01-.957.623c-.294.115-.735.25-1.547.287-.879.04-1.143.049-3.368.049-2.225 0-2.489-.009-3.367-.049-.813-.037-1.254-.173-1.548-.287a2.581 2.581 0 01-.958-.623 2.584 2.584 0 01-.624-.958c-.114-.294-.25-.735-.287-1.547-.04-.878-.048-1.142-.048-3.368 0-2.225.008-2.488.048-3.366.038-.813.173-1.254.287-1.547.151-.39.332-.667.624-.959.292-.291.57-.472.958-.623.294-.115.735-.25 1.548-.288.768-.034 1.066-.045 2.62-.046v.002zm5.195 1.383a1 1 0 100 2 1 1 0 000-2zM10 5.723a4.28 4.28 0 100 8.56 4.28 4.28 0 000-8.56zm0 1.502a2.778 2.778 0 110 5.555 2.778 2.778 0 010-5.555z"/></symbol><symbol viewBox="0 0 20 20" id="loader" xmlns="http://www.w3.org/2000/svg"><path clip-rule="evenodd" d="M10 2.75A7.25 7.25 0 002.75 10H4l-2 2-2-2h1.25a8.75 8.75 0 0114.885-6.239l-1.052 1.07A7.224 7.224 0 0010 2.75zm0 14.5A7.25 7.25 0 0017.25 10H16l2-2 2 2h-1.25a8.75 8.75 0 01-14.903 6.221l1.055-1.066A7.224 7.224 0 0010 17.25z"/></symbol><symbol viewBox="0 0 20 21" id="ok" xmlns="http://www.w3.org/2000/svg"><path clip-rule="evenodd" d="M14.444 5.97c0 2.371-1.998 4.3-4.455 4.3S5.533 8.34 5.533 5.97c0-2.372 1.999-4.301 4.456-4.301 2.457 0 4.455 1.93 4.455 4.301zm-2.61 0c0-.982-.828-1.78-1.845-1.78s-1.845.798-1.845 1.78c0 .981.828 1.78 1.845 1.78s1.845-.799 1.845-1.78z"/><path d="M14.39 12.746a8.515 8.515 0 01-2.587 1.034l2.49 2.405c.51.491.51 1.29 0 1.782a1.338 1.338 0 01-1.845 0L10 15.604l-2.447 2.363c-.255.245-.59.368-.924.368-.334 0-.667-.123-.923-.368a1.23 1.23 0 010-1.782l2.49-2.405a8.53 8.53 0 01-2.586-1.034 1.235 1.235 0 01-.41-1.738c.384-.59 1.19-.767 1.8-.396a5.83 5.83 0 006 0 1.332 1.332 0 011.8.396c.383.589.2 1.367-.41 1.738z"/></symbol><symbol viewBox="0 0 83 70" id="qoutes" xmlns="http://www.w3.org/2000/svg"><path d="M83 0L69.085 37.172H81.78V70H46.627V40.793L64.447 0H83zM36.13 0L22.214 37.172h12.694V70H0V40.793L17.576 0H36.13z" opacity=".2"/></symbol><symbol viewBox="0 0 20 21" id="tg" xmlns="http://www.w3.org/2000/svg"><path clip-rule="evenodd" d="M2.252 9.565c4.473-2.032 7.451-3.383 8.946-4.038 4.256-1.858 5.15-2.179 5.726-2.192.128 0 .409.027.6.187.154.134.192.308.218.441.025.134.051.415.025.629-.23 2.54-1.226 8.703-1.738 11.537-.217 1.203-.639 1.604-1.048 1.644-.894.08-1.572-.615-2.428-1.203-1.355-.923-2.109-1.497-3.425-2.406-1.52-1.043-.537-1.618.332-2.554.23-.24 4.154-3.984 4.23-4.318.013-.04.013-.2-.076-.28-.09-.08-.217-.054-.32-.027-.14.026-2.287 1.524-6.466 4.478-.614.441-1.163.655-1.662.642-.55-.014-1.597-.321-2.39-.588-.958-.321-1.725-.495-1.66-1.057.037-.294.42-.588 1.136-.895z"/></symbol><symbol viewBox="0 0 13 9" id="tick" xmlns="http://www.w3.org/2000/svg"><path d="M1 4.5L4.667 8 12 1"/></symbol><symbol viewBox="0 0 10 8" id="tickArrow" xmlns="http://www.w3.org/2000/svg"><path d="M.542 7.87L4.04 5.44l.688-.506h.564l.689.518L9.48 7.858 10 7.465 5.293.13H4.73L0 7.465l.542.405z"/></symbol><symbol viewBox="0 0 3027 66" id="tickerFour" xmlns="http://www.w3.org/2000/svg"><path clip-rule="evenodd" d="M.36 54.547V.977h54.35v53.57H36.96V15.914H18.07v38.633H.36zm15.71-2H2.36V2.977h50.35v49.57H38.96V13.914H16.07v38.633zm45.227 2V.977h31.492c6.801 0 12.273 1.644 16.037 5.287 3.75 3.603 5.533 8.476 5.533 14.369 0 5.842-1.756 10.738-5.412 14.483-3.727 3.818-9.34 5.525-16.392 5.525H79.008v13.906H61.297zm46.219-20.828c3.229-3.308 4.843-7.67 4.843-13.086 0-5.469-1.64-9.779-4.921-12.93-3.256-3.15-8.139-4.726-14.649-4.726H63.297v49.57h13.71V38.64h15.548c6.77 0 11.757-1.641 14.961-4.922zM96.578 15.125c-1.38-1.432-3.789-2.148-7.226-2.148H77.008v16.328h12.344c3.437 0 5.846-.768 7.226-2.305 1.38-1.537 2.07-3.568 2.07-6.094 0-2.448-.69-4.375-2.07-5.781zm-17.57 12.18h10.344c3.232 0 4.926-.738 5.738-1.642.981-1.091 1.558-2.609 1.558-4.757 0-2.058-.568-3.434-1.497-4.38l-.007-.007-.006-.006c-.807-.837-2.522-1.536-5.786-1.536H79.008v12.328zm38.07 27.242V.977h47.203v14.742h-30.156v5.023h26.68v13.453h-26.68v6h30.692a23.298 23.298 0 01-.551-4.586v-.004l-.099-3.378h17.119l.104 3.113v.008c.065 2.614.962 4.1 2.415 4.968 1.733 1.008 4.588 1.637 8.828 1.637 3.83 0 6.272-.607 7.657-1.51l.01-.008c1.425-.917 1.934-1.93 1.934-3.123 0-1.257-.425-1.868-1.156-2.273l-.012-.007-.011-.006c-.97-.554-3.018-.987-6.547-.987h-11.766V20.43h11.531c3.008 0 4.71-.414 5.509-.91l.008-.005.007-.004c.529-.322 1.047-.994 1.07-2.716-.003-.808-.325-1.466-1.405-2.076-1.14-.644-3.353-1.109-6.985-1.109-4.028 0-6.713.629-8.331 1.62l-.006.004c-1.431.869-2.202 2.151-2.282 4.152l-.001.024-.201 3.107H164.79l.102-3.358v-.007c.232-6.11 2.86-10.932 7.842-14.245 4.91-3.273 11.634-4.789 19.938-4.789 8.036 0 14.417 1.261 18.869 4.052 4.46 2.754 6.959 6.537 6.959 11.308v.019c-.03 3.095-.919 5.799-2.802 7.941a12.87 12.87 0 01-2.597 2.245 13.89 13.89 0 013.563 2.599c2.374 2.347 3.438 5.559 3.438 9.344 0 5.153-2.815 9.414-7.792 12.788l-.002.002c-5.023 3.396-11.631 4.991-19.636 4.991-8.469 0-15.324-1.444-20.35-4.557l-.007-.005c-3.922-2.45-6.384-5.982-7.448-10.432v14.135h-47.789zm98.172-24.852c-1.196-1.212-2.647-2.15-4.351-2.811a16.574 16.574 0 00-3.149-.86v-.118l.022-.006a16.875 16.875 0 003.013-1.18c1.367-.703 2.504-1.571 3.41-2.603 1.511-1.719 2.279-3.932 2.305-6.64 0-3.933-2.005-7.136-6.016-9.61-3.984-2.5-9.922-3.75-17.812-3.75-8.099 0-14.375 1.485-18.828 4.453-4.234 2.815-6.539 6.797-6.914 11.946-.017.234-.03.471-.039.71l-.039 1.29h12.929l.078-1.211c.105-2.604 1.185-4.532 3.243-5.782 2.083-1.276 5.208-1.914 9.375-1.914 3.697 0 6.354.456 7.968 1.368 1.615.911 2.422 2.187 2.422 3.828-.026 2.135-.703 3.607-2.031 4.414-1.302.807-3.49 1.21-6.563 1.21h-9.531v9.61h9.766c3.568 0 6.081.417 7.539 1.25 1.458.807 2.187 2.148 2.187 4.023 0 1.98-.95 3.581-2.851 4.805-1.875 1.224-4.792 1.836-8.75 1.836-4.375 0-7.656-.638-9.844-1.914-2.187-1.302-3.32-3.516-3.398-6.64l-.039-1.172h-13.125l.039 1.328c.005.226.014.45.026.672.306 5.854 2.667 10.161 7.083 12.921 4.583 2.839 11.016 4.258 19.297 4.258 7.76 0 13.932-1.55 18.516-4.648 4.609-3.125 6.914-6.836 6.914-11.133 0-3.411-.951-6.055-2.852-7.93zm-52.383 12.5v10.352h-43.789V2.977h43.203v10.742h-30.156v9.023h26.68v9.453h-26.68v10h30.742zm59.992 12.352V.977h47.203v14.742h-30.156v5.023h26.68v13.453h-26.68v6h30.742v14.352h-47.789zm45.789-12.352v10.352h-43.789V2.977h43.203v10.742h-30.156v9.023h26.68v9.453h-26.68v10h30.742zm5.383 12.352V.977h17.711v18.242h19.32V.977h17.711v53.57h-17.711V34.625h-19.32v19.922h-17.711zm15.711-51.57v18.242h23.32V2.977h13.711v49.57h-13.711V32.625h-23.32v19.922h-13.711V2.977h13.711zm40.969 12.859V.976h55.836v14.86h-18.945v38.71h-17.907v-38.71h-18.984zm2-2V2.976h51.836v10.86h-18.945v38.71h-13.907v-38.71h-18.984zm48.343 40.71L406.086.939h17.122L447.312 53V.977h17.711v38.632h18.93V.977h17.711v38.632h6.836v26.07h-16.734V54.548h-62.591l-4.176-9.57h-21.47l-4.11 9.57h-18.365zm21.157-11.57h24.097l4.176 9.57h14.414L421.93 2.939h-14.571l-23.164 49.609h13.907l4.109-9.57zm13.547-24.18a91.593 91.593 0 00-.51-1.23l-.008-.018a37.435 37.435 0 00-.342-.783 13.439 13.439 0 00-.664-1.484h-.117l-.045.086c-.219.42-.439.887-.658 1.399l-.268.667-.06.148-.006.017-.486 1.199-6.475 15.078h16.218l-6.579-15.078zm3.524 13.079l-5.104-11.698-5.023 11.698h10.127zm87.218 9.734v22.07h-12.734V52.548h-44.454V2.977h13.711v38.632h22.93V2.977h13.711v38.632h6.836zm59.461 12.938H548.37l-.038-26.086-19.179 26.086h-18.559V.977h17.594v25.818L547.41.977h18.551v53.57zM528.184 30.21a20.747 20.747 0 00-1.002 1.712l-.017.035a7.554 7.554 0 00-.079.16c-.26.573-.508 1.263-.742 2.07h-.235l.003-.067c.021-.644.033-1.288.036-1.932v-.266l.008-.228v-.021c.019-.61.029-1.291.031-2.044l.001-.324V2.977h-13.594v49.57h15.547l19.961-27.149c.079-.107.156-.212.23-.316.55-.774.94-1.459 1.171-2.053a28.134 28.134 0 00.747-2.045h.234m0 .075c-.001.62-.025 1.262-.07 1.925l-.008.11-.017.26-.001.02a41.017 41.017 0 00-.06 2.331v.045l.039 26.797h13.594V2.977h-15.547l-19.922 26.757c-.108.164-.211.323-.308.476m95.082 24.337h-17.711V39.586h-9.073l-10.256 14.96h-19.515l12.923-18.378a16.463 16.463 0 01-3.752-2.896l-.006-.006c-3.334-3.483-4.931-8.008-4.931-13.375 0-5.623 1.894-10.292 5.779-13.791l.006-.005c3.907-3.493 9.189-5.118 15.59-5.118h30.946v53.57zm-42.475-20.024c.581.32 1.193.61 1.835.867l-12.064 17.157h14.61l10.256-14.961h12.127v14.96h13.711V2.977H592.32c-6.067 0-10.82 1.537-14.258 4.61-3.411 3.073-5.117 7.174-5.117 12.305 0 4.948 1.459 8.945 4.375 11.992a14.53 14.53 0 003.471 2.64zm71.365 20.024V.977h54.352v53.57h-17.75V15.914h-18.891v38.633h-17.711zm15.711-2h-13.711V2.977h50.352v49.57h-13.75V13.914h-22.891v38.633zm45.227 2V.977h31.492c6.801 0 12.273 1.644 16.037 5.287 3.75 3.603 5.533 8.476 5.533 14.369 0 5.842-1.756 10.738-5.412 14.483-3.727 3.818-9.339 5.525-16.392 5.525h-13.547v13.906h-17.711zm46.14-46.844c-3.255-3.15-8.138-4.726-14.648-4.726h-29.492v49.57h13.711V38.64h15.547c6.77 0 11.757-1.641 14.96-4.922 3.23-3.308 4.844-7.67 4.844-13.086 0-5.469-1.64-9.779-4.922-12.93zm-10.859 7.422c-1.38-1.432-3.789-2.148-7.227-2.148h-12.343v16.328h12.343c3.438 0 5.847-.768 7.227-2.305 1.38-1.537 2.07-3.568 2.07-6.094 0-2.448-.69-4.375-2.07-5.781zm-17.57 12.18h10.343c3.233 0 4.927-.738 5.739-1.642.981-1.091 1.558-2.609 1.558-4.757 0-2.058-.568-3.434-1.497-4.38l-.007-.007-.006-.006c-.807-.837-2.522-1.536-5.787-1.536h-10.343v12.328zm44.417 21.754l-.008-.006c-6.325-4.555-9.347-11.621-9.347-20.764v-1.406c0-8.977 3.034-15.924 9.357-20.42C781.336 2.11 788.915 0 797.828 0c8.913 0 16.491 2.11 22.603 6.463 6.348 4.494 9.397 11.44 9.397 20.42v1.406c0 9.146-3.037 16.212-9.389 20.766l-.005.004c-6.113 4.354-13.692 6.464-22.606 6.464-8.914 0-16.493-2.11-22.606-6.464zm44.051-40.965C813.57 4.03 806.422 2 797.828 2s-15.742 2.031-21.445 6.094c-5.677 4.036-8.516 10.3-8.516 18.789v1.406c0 8.672 2.839 15.052 8.516 19.14 5.703 4.063 12.851 6.094 21.445 6.094s15.742-2.03 21.445-6.093c5.704-4.089 8.555-10.47 8.555-19.14v-1.407c0-8.49-2.851-14.753-8.555-18.79zm-31.617 8.322l-.009.007c-2.204 1.623-3.483 4.296-3.483 8.507v5.468c0 4.39 1.294 7.167 3.499 8.832 2.456 1.834 5.802 2.855 10.215 2.88 4.379.024 7.684-.985 10.104-2.832l.006-.006c2.242-1.696 3.543-4.48 3.543-8.834V24.93c0-4.213-1.279-6.866-3.473-8.461-2.433-1.77-5.776-2.77-10.207-2.82-4.444-.024-7.778.965-10.195 2.767zm10.211-4.768c-4.739-.026-8.541 1.03-11.406 3.165-2.865 2.109-4.297 5.481-4.297 10.117v5.468c0 4.792 1.432 8.269 4.297 10.43 2.891 2.162 6.693 3.255 11.406 3.281 4.688.026 8.464-1.054 11.328-3.242 2.891-2.187 4.336-5.664 4.336-10.43V24.93c0-4.636-1.432-7.995-4.297-10.078-2.864-2.084-6.653-3.152-11.367-3.204zm35.617 42.899V.977h47.204v14.742h-30.157v5.023h26.68v13.453h-26.68v6h30.742v14.352h-47.789zm45.789-12.352v10.352h-43.789V2.977h43.204v10.742h-30.157v9.023h26.68v9.453h-26.68v10h30.742zm43.696 12.352l-17.916-19.375h-2.686v19.375h-17.711V.977h17.711v19.18h2.119L922.025.976H993.5v14.859h-18.945v38.71h-17.907v-38.71h-18.984V7.275l-18.055 19.197 25.956 28.075h-22.596zm-6.094-28.087l22.086-23.483h-16.055l-17.539 19.18h-5V2.976h-13.711v49.57h13.711V33.172h5.561l17.916 19.375h17.148L916.875 26.46zm22.789-12.624h18.984v38.71h13.907v-38.71H991.5V2.976h-51.836v10.86zm48.343 40.71L1013.04.939h17.12l24.82 53.609h-18.85l-4.18-9.57h-21.47l-4.11 9.57h-18.363zm21.153-11.57h24.1l4.18 9.57h14.41l-22.97-49.608h-14.57l-23.162 49.609h13.902l4.11-9.57zm13.55-24.18c-.18-.456-.35-.866-.51-1.23 0-.006 0-.012-.01-.018-.01-.021-.01-.042-.02-.063-.12-.266-.22-.506-.32-.72-.19-.511-.4-.977-.62-1.398-.01-.029-.03-.057-.04-.086h-.12c-.01.029-.03.057-.04.086-.22.42-.44.887-.66 1.399a129.235 129.235 0 01-.33.815c0 .006-.01.011-.01.017-.14.355-.3.755-.48 1.199l-6.48 15.078h16.22l-6.58-15.078zm3.53 13.079l-5.11-11.698-5.02 11.698h10.13zM607.555 12.703v15.899h-12.422c-2.969 0-5.104-.717-6.406-2.149-1.276-1.458-1.915-3.385-1.915-5.781s.639-4.31 1.915-5.742c1.302-1.459 3.437-2.2 6.406-2.227h12.422zM590.22 16.26c-.874.981-1.408 2.38-1.408 4.412 0 2.02.528 3.437 1.407 4.449.763.83 2.224 1.48 4.914 1.48h10.422V14.704h-10.413c-2.69.025-4.154.698-4.922 1.557z"/><circle cx="1097" cy="25.547" r="6"/><path clip-rule="evenodd" d="M1146.69 54.547V.977h30.47c5.99 0 10.82 1.114 14.09 3.71 3.33 2.612 4.95 6.283 4.95 10.75 0 3.232-.86 6.076-2.7 8.392a13.97 13.97 0 01-2.28 2.268 14.46 14.46 0 013.88 2.81c2.46 2.426 3.56 5.756 3.56 9.695 0 5.039-1.95 9.105-5.87 11.934-3.81 2.745-8.8 4.01-14.77 4.01h-31.33zm47-24.227a12.754 12.754 0 00-4.49-2.93 15.63 15.63 0 00-2.98-.813l-.03-.007v-.117c0-.002.01-.004.02-.006 1.01-.306 1.94-.721 2.8-1.246a11.26 11.26 0 002.92-2.615c1.51-1.901 2.27-4.284 2.27-7.148 0-3.933-1.4-6.993-4.18-9.18-2.76-2.188-7.05-3.281-12.86-3.281h-28.47v49.57h29.33c5.71 0 10.24-1.211 13.6-3.633 3.36-2.422 5.04-5.86 5.04-10.312 0-3.568-.99-6.329-2.97-8.282zm-12.97 2.422c-1.38-1.094-3.39-1.64-6.02-1.64h-12.69v12.343h12.69c2.63 0 4.64-.508 6.02-1.523 1.38-1.042 2.07-2.578 2.07-4.61 0-1.979-.69-3.502-2.07-4.57zm-16.71 8.703h10.69c2.41 0 3.93-.47 4.82-1.127.79-.595 1.27-1.484 1.27-3.005 0-1.455-.47-2.354-1.29-2.989l-.01-.007-.01-.007c-.89-.705-2.38-1.208-4.78-1.208h-10.69v8.343zm93.36 13.102h-17.59l-.04-26.086-19.18 26.086H1202V.977h17.59v25.818L1238.82.977h18.55v53.57zm-37.78-24.337a21.85 21.85 0 00-1 1.712c-.01.012-.01.023-.02.035-.03.055-.05.108-.08.16a14.98 14.98 0 00-.74 2.07h-.23v-.067c.02-.644.03-1.288.03-1.932v-.266c.01-.075.01-.15.01-.228v-.021c.02-.61.03-1.291.03-2.044V2.977H1204v49.57h15.55l19.96-27.149c.08-.107.15-.212.23-.316.55-.774.94-1.459 1.17-2.053v-.013c.29-.703.54-1.38.75-2.032h.23v.075c0 .62-.02 1.262-.07 1.925 0 .037 0 .073-.01.11 0 .085-.01.171-.01.26-.01.007-.01.014-.01.02-.04.661-.05 1.438-.06 2.331v.045l.04 26.797h13.6V2.977h-15.55l-19.92 26.757c-.11.164-.21.323-.31.476zm88.74 35.47V54.547h-32.49V65.68h-16.73V39.61h6.36c.59-1.44 1.07-2.85 1.44-4.227l.01-.008v-.007c.8-2.873 1.36-6.863 1.65-12.032v-.008l1.4-22.351h48.26v38.632h6.83v26.07h-16.73zm7.9-24.07V2.976h-44.38l-1.29 20.468c-.28 5.235-.86 9.388-1.72 12.461a35.77 35.77 0 01-1.22 3.703c-.26.663-.54 1.33-.84 2h-5.67v22.07h12.73V52.548h36.49V63.68h12.73V41.61h-6.83zm-35.86-2c-.21.678-.43 1.345-.68 2h22.83V13.913h-18.79l-.86 10.313c-.52 5.625-1.14 9.934-1.84 12.93-.2.833-.42 1.651-.66 2.452zm5.2-23.696l-.71 8.488v.009c-.52 5.654-1.15 10.072-1.88 13.202v.004c-.16.674-.34 1.338-.53 1.992h18.07V15.914h-14.95zm41.59 38.633V.977h47.2v14.742h-30.16v5.023h26.68v13.453h-26.68v6h30.75v14.352h-47.79zm45.79-12.352v10.352h-43.79V2.977h43.2v10.742h-30.16v9.023h26.68v9.453h-26.68v10h30.75zm11.73 6.864l-.01-.006c-6.33-4.555-9.35-11.621-9.35-20.764v-1.406c0-8.977 3.03-15.923 9.36-20.418C1390.79 2.11 1398.37 0 1407.28 0c8.91 0 16.49 2.11 22.6 6.463 6.35 4.494 9.4 11.44 9.4 20.42v1.406c0 9.146-3.04 16.212-9.39 20.766v.004c-6.12 4.354-13.7 6.464-22.61 6.464s-16.49-2.11-22.6-6.464zm44.05-40.965C1423.02 4.03 1415.88 2 1407.28 2c-8.59 0-15.74 2.031-21.44 6.094-5.68 4.036-8.52 10.3-8.52 18.789v1.406c0 8.672 2.84 15.052 8.52 19.14 5.7 4.063 12.85 6.094 21.44 6.094 8.6 0 15.74-2.03 21.45-6.093 5.7-4.089 8.55-10.47 8.55-19.14v-1.407c0-8.49-2.85-14.753-8.55-18.79zm-31.62 8.322l-.01.007c-2.2 1.623-3.48 4.296-3.48 8.507v5.468c0 4.39 1.29 7.166 3.49 8.83 2.46 1.836 5.81 2.857 10.22 2.881 4.38.025 7.68-.984 10.1-2.831l.01-.006c2.24-1.696 3.54-4.48 3.54-8.834V24.93c0-4.213-1.28-6.866-3.47-8.461-2.43-1.77-5.77-2.77-10.21-2.82-4.44-.024-7.77.965-10.19 2.767zm10.21-4.768c-4.74-.026-8.54 1.03-11.41 3.165-2.86 2.109-4.29 5.481-4.29 10.117v5.468c0 4.792 1.43 8.269 4.29 10.43 2.89 2.162 6.7 3.255 11.41 3.281 4.69.026 8.46-1.054 11.33-3.242 2.89-2.187 4.33-5.664 4.33-10.43V24.93c0-4.636-1.43-7.995-4.29-10.078-2.87-2.084-6.66-3.152-11.37-3.204zm-243.31 2.86v7.328h9.95c2.33 0 3.56-.492 4.16-1.042.64-.579 1.07-1.459 1.07-2.935 0-1.342-.41-2.024-.94-2.44-.62-.478-1.91-.911-4.29-.911h-9.95zm-2-2h11.95c2.53 0 4.36.443 5.51 1.328 1.14.885 1.72 2.226 1.72 4.023 0 1.901-.58 3.373-1.72 4.414-1.15 1.042-2.98 1.563-5.51 1.563h-11.95V12.508z"/><circle cx="1486" cy="25.547" r="6"/><path clip-rule="evenodd" d="M1535.36 54.547V.977h54.35v53.57h-17.75V15.914h-18.89v38.633h-17.71zm15.71-2h-13.71V2.977h50.35v49.57h-13.75V13.914h-22.89v38.633zm45.23 2V.977h31.49c6.8 0 12.27 1.644 16.04 5.287 3.75 3.603 5.53 8.476 5.53 14.369 0 5.842-1.76 10.738-5.41 14.483-3.73 3.818-9.34 5.525-16.4 5.525h-13.54v13.906h-17.71zm46.22-20.828c3.22-3.308 4.84-7.67 4.84-13.086 0-5.469-1.64-9.779-4.92-12.93-3.26-3.15-8.14-4.726-14.65-4.726h-29.49v49.57h13.71V38.64h15.54c6.78 0 11.76-1.641 14.97-4.922zm-10.94-18.594c-1.38-1.432-3.79-2.148-7.23-2.148h-12.34v16.328h12.34c3.44 0 5.85-.768 7.23-2.305 1.38-1.537 2.07-3.568 2.07-6.094 0-2.448-.69-4.375-2.07-5.781zm-17.57 12.18h10.34c3.23 0 4.93-.738 5.74-1.642.98-1.091 1.56-2.609 1.56-4.757 0-2.058-.57-3.434-1.5-4.38l-.01-.007v-.006c-.81-.837-2.52-1.536-5.79-1.536h-10.34v12.328zm38.07 27.242V.977h47.2v14.742h-30.16v5.023h26.68v13.453h-26.68v6h30.7c-.33-1.436-.51-2.966-.55-4.586v-.004l-.1-3.378h17.12l.1 3.113v.008c.07 2.614.96 4.1 2.41 4.968 1.74 1.008 4.59 1.637 8.83 1.637 3.83 0 6.27-.607 7.66-1.51l.01-.008c1.43-.917 1.93-1.93 1.93-3.123 0-1.257-.42-1.868-1.15-2.273l-.01-.007-.02-.006c-.96-.554-3.01-.987-6.54-.987h-11.77V20.43h11.53c3.01 0 4.71-.414 5.51-.91l.01-.005.01-.004c.53-.322 1.04-.994 1.07-2.716-.01-.808-.33-1.466-1.41-2.076-1.14-.644-3.35-1.109-6.98-1.109-4.03 0-6.72.629-8.33 1.62l-.01.004c-1.43.869-2.2 2.151-2.28 4.152v.024l-.2 3.107h-16.87l.1-3.358v-.007c.23-6.11 2.86-10.932 7.84-14.245 4.91-3.273 11.64-4.789 19.94-4.789 8.04 0 14.42 1.261 18.87 4.052 4.46 2.754 6.96 6.537 6.96 11.308v.019c-.03 3.095-.92 5.799-2.8 7.941-.75.855-1.62 1.601-2.6 2.245 1.33.682 2.52 1.545 3.56 2.599 2.38 2.347 3.44 5.559 3.44 9.344 0 5.153-2.81 9.414-7.79 12.788v.002c-5.02 3.396-11.63 4.991-19.64 4.991-8.47 0-15.32-1.444-20.35-4.557l-.01-.005c-3.92-2.45-6.38-5.982-7.44-10.432v14.135h-47.79zm98.17-24.852c-1.2-1.212-2.65-2.15-4.35-2.811a16.754 16.754 0 00-3.15-.86v-.118l.02-.006c1.11-.322 2.11-.715 3.02-1.18 1.36-.703 2.5-1.571 3.41-2.603 1.51-1.719 2.27-3.932 2.3-6.64 0-3.933-2.01-7.136-6.02-9.61-3.98-2.5-9.92-3.75-17.81-3.75-8.1 0-14.37 1.485-18.83 4.453-4.23 2.815-6.54 6.797-6.91 11.946-.02.234-.03.471-.04.71l-.04 1.29h12.93l.08-1.211c.1-2.604 1.18-4.532 3.24-5.782 2.08-1.276 5.21-1.914 9.38-1.914 3.69 0 6.35.456 7.97 1.368 1.61.911 2.42 2.187 2.42 3.828-.03 2.135-.71 3.607-2.03 4.414-1.31.807-3.49 1.21-6.57 1.21h-9.53v9.61h9.77c3.57 0 6.08.417 7.54 1.25 1.46.807 2.18 2.148 2.18 4.023 0 1.98-.95 3.581-2.85 4.805-1.87 1.224-4.79 1.836-8.75 1.836-4.37 0-7.65-.638-9.84-1.914-2.19-1.302-3.32-3.516-3.4-6.64l-.04-1.172h-13.12l.04 1.328c0 .226.01.45.02.672.31 5.854 2.67 10.161 7.09 12.921 4.58 2.839 11.01 4.258 19.29 4.258 7.76 0 13.93-1.55 18.52-4.648 4.61-3.125 6.91-6.836 6.91-11.133 0-3.411-.95-6.055-2.85-7.93zm-52.38 12.5v10.352h-43.79V2.977h43.2v10.742h-30.16v9.023h26.68v9.453h-26.68v10h30.75zm59.99 12.352V.977h47.2v14.742h-30.15v5.023h26.68v13.453h-26.68v6h30.74v14.352h-47.79zm45.79-12.352v10.352h-43.79V2.977h43.2v10.742h-30.15v9.023h26.68v9.453h-26.68v10h30.74zm5.38 12.352V.977h17.71v18.242h19.32V.977h17.71v53.57h-17.71V34.625h-19.32v19.922h-17.71zm15.71-51.57v18.242h23.32V2.977h13.71v49.57h-13.71V32.625h-23.32v19.922h-13.71V2.977h13.71zm40.97 12.859V.976h55.84v14.86h-18.95v38.71h-17.9v-38.71h-18.99zm2-2V2.976h51.84v10.86h-18.95v38.71h-13.9v-38.71h-18.99zm48.34 40.71L1941.09.939h17.12L1982.31 53V.977h17.71v38.632h18.93V.977h17.71v38.632h6.84v26.07h-16.73V54.548h-62.6l-4.17-9.57h-21.47l-4.11 9.57h-18.37zm21.16-11.57h24.1l4.17 9.57h14.42l-22.97-49.608h-14.57l-23.16 49.609h13.9l4.11-9.57zm13.55-24.18l-.51-1.23c0-.006-.01-.012-.01-.018l-.03-.063c-.11-.266-.22-.506-.31-.72a14.1 14.1 0 00-.62-1.398c-.02-.029-.03-.057-.05-.086h-.11c-.02.029-.03.057-.05.086-.22.42-.44.887-.66 1.399-.08.2-.17.422-.26.667l-.06.148c-.01.006-.01.011-.01.017-.14.355-.31.755-.49 1.199l-6.47 15.078h16.22l-6.58-15.078zm3.52 13.079l-5.1-11.698-5.03 11.698h10.13zm87.22 9.734v22.07h-12.73V52.548h-44.46V2.977h13.71v38.632h22.93V2.977h13.71v38.632h6.84zm59.46 12.938h-17.59l-.04-26.086-19.18 26.086h-18.56V.977h17.6v25.818L2082.41.977h18.55v53.57zm-37.78-24.337a21.85 21.85 0 00-1 1.712c0 .012-.01.023-.02.035-.02.055-.05.108-.07.16-.26.573-.51 1.263-.75 2.07h-.23v-.067c.02-.644.04-1.288.04-1.932v-.266c0-.075 0-.15.01-.228v-.021c.01-.61.02-1.291.03-2.044V2.977h-13.6v49.57h15.55l19.96-27.149c.08-.107.16-.212.23-.316.55-.774.94-1.459 1.17-2.053 0-.004.01-.009.01-.013.28-.703.53-1.38.74-2.032h.23m0 .075c0 .62-.02 1.262-.07 1.925v.11c-.01.085-.02.171-.02.26v.02c-.04.661-.06 1.438-.06 2.331v.045l.04 26.797h13.59V2.977h-15.55l-19.92 26.757c-.11.164-.21.323-.31.476m95.09 24.337h-17.72V39.586h-9.07l-10.25 14.96h-19.52l12.92-18.378a16.672 16.672 0 01-3.75-2.896v-.006c-3.34-3.483-4.93-8.008-4.93-13.375 0-5.623 1.89-10.292 5.77-13.791l.01-.005c3.91-3.493 9.19-5.118 15.59-5.118h30.95v53.57zm-42.48-20.024c.58.32 1.19.61 1.84.867l-12.07 17.157h14.61l10.26-14.961h12.12v14.96h13.72V2.977h-28.95c-6.07 0-10.82 1.537-14.26 4.61-3.41 3.073-5.11 7.174-5.11 12.305 0 4.948 1.45 8.945 4.37 11.992 1 1.038 2.16 1.918 3.47 2.64zm71.37 20.024V.977h54.35v53.57h-17.75V15.914h-18.89v38.633h-17.71zm15.71-2h-13.71V2.977h50.35v49.57h-13.75V13.914h-22.89v38.633zm45.22 2V.977h31.5c6.8 0 12.27 1.644 16.03 5.287 3.75 3.603 5.54 8.476 5.54 14.369 0 5.842-1.76 10.738-5.42 14.483-3.72 3.818-9.34 5.525-16.39 5.525h-13.55v13.906h-17.71zm46.14-46.844c-3.25-3.15-8.13-4.726-14.64-4.726h-29.5v49.57h13.71V38.64h15.55c6.77 0 11.76-1.641 14.96-4.922 3.23-3.308 4.85-7.67 4.85-13.086 0-5.469-1.64-9.779-4.93-12.93zm-10.85 7.422c-1.39-1.432-3.79-2.148-7.23-2.148h-12.35v16.328h12.35c3.44 0 5.84-.768 7.23-2.305 1.38-1.537 2.07-3.568 2.07-6.094 0-2.448-.69-4.375-2.07-5.781zm-17.58 12.18h10.35c3.23 0 4.93-.738 5.74-1.642.98-1.091 1.56-2.609 1.56-4.757 0-2.058-.57-3.434-1.5-4.38l-.01-.007-.01-.006c-.8-.837-2.52-1.536-5.78-1.536h-10.35v12.328zm44.42 21.754l-.01-.006c-6.32-4.555-9.34-11.621-9.34-20.764v-1.406c0-8.977 3.03-15.924 9.35-20.42C2316.34 2.11 2323.92 0 2332.83 0s16.49 2.11 22.6 6.463c6.35 4.494 9.4 11.44 9.4 20.42v1.406c0 9.146-3.04 16.212-9.39 20.766l-.01.004c-6.11 4.354-13.69 6.464-22.6 6.464-8.92 0-16.5-2.11-22.61-6.464zm44.05-40.965C2348.57 4.03 2341.42 2 2332.83 2c-8.6 0-15.74 2.031-21.45 6.094-5.67 4.036-8.51 10.3-8.51 18.789v1.406c0 8.672 2.84 15.052 8.51 19.14 5.71 4.063 12.85 6.094 21.45 6.094 8.59 0 15.74-2.03 21.44-6.093 5.71-4.089 8.56-10.47 8.56-19.14v-1.407c0-8.49-2.85-14.753-8.56-18.79zm-31.61 8.322l-.01.007c-2.21 1.623-3.49 4.296-3.49 8.507v5.468c0 4.39 1.3 7.167 3.5 8.832 2.46 1.834 5.8 2.855 10.22 2.88 4.38.024 7.68-.985 10.1-2.832l.01-.006c2.24-1.696 3.54-4.48 3.54-8.834V24.93c0-4.213-1.28-6.866-3.47-8.461-2.43-1.77-5.78-2.77-10.21-2.82-4.44-.024-7.78.965-10.19 2.767zm10.21-4.768c-4.74-.026-8.54 1.03-11.41 3.165-2.86 2.109-4.3 5.481-4.3 10.117v5.468c0 4.792 1.44 8.269 4.3 10.43 2.89 2.162 6.69 3.255 11.41 3.281 4.68.026 8.46-1.054 11.33-3.242 2.89-2.187 4.33-5.664 4.33-10.43V24.93c0-4.636-1.43-7.995-4.3-10.078-2.86-2.084-6.65-3.152-11.36-3.204zm35.61 42.899V.977h47.21v14.742h-30.16v5.023h26.68v13.453h-26.68v6h30.74v14.352h-47.79zm45.79-12.352v10.352h-43.79V2.977h43.21v10.742h-30.16v9.023h26.68v9.453h-26.68v10h30.74zm43.7 12.352l-17.92-19.375h-2.68v19.375h-17.71V.977h17.71v19.18h2.12l17.54-19.18h71.47v14.859h-18.95v38.71h-17.9v-38.71h-18.99V7.275l-18.05 19.197 25.96 28.075h-22.6zm-6.1-28.087l22.09-23.483h-16.05l-17.54 19.18h-5V2.976h-13.71v49.57h13.71V33.172h5.56l17.91 19.375h17.15l-24.12-26.087zm22.79-12.624h18.99v38.71h13.9v-38.71h18.95V2.976h-51.84v10.86zm48.35 40.71L2548.04.939h17.12l24.82 53.609h-18.85l-4.18-9.57h-21.47l-4.11 9.57h-18.36zm21.15-11.57h24.1l4.18 9.57h14.41l-22.97-49.608h-14.57l-23.16 49.609h13.9l4.11-9.57zm13.55-24.18c-.18-.456-.35-.866-.51-1.23 0-.006 0-.012-.01-.018-.01-.021-.01-.042-.02-.063-.12-.266-.22-.506-.32-.72-.19-.511-.4-.977-.62-1.398-.01-.029-.03-.057-.04-.086h-.12c-.01.029-.03.057-.04.086-.22.42-.44.887-.66 1.399a129.235 129.235 0 01-.33.815c0 .006-.01.011-.01.017-.14.355-.3.755-.48 1.199l-6.48 15.078h16.22l-6.58-15.078zm3.53 13.079l-5.11-11.698-5.02 11.698h10.13zm-418.69-19.172v15.899h-12.42c-2.97 0-5.1-.717-6.4-2.149-1.28-1.458-1.92-3.385-1.92-5.781s.64-4.31 1.92-5.742c1.3-1.459 3.43-2.2 6.4-2.227h12.42zm-17.33 3.557c-.87.981-1.41 2.38-1.41 4.412 0 2.02.53 3.437 1.41 4.449.76.83 2.22 1.48 4.91 1.48h10.42V14.704h-10.41c-2.69.025-4.15.698-4.92 1.557z"/><circle cx="2632" cy="25.547" r="6"/><path clip-rule="evenodd" d="M2681.69 54.547V.977h30.47c5.99 0 10.82 1.114 14.09 3.71 3.33 2.612 4.95 6.283 4.95 10.75 0 3.232-.86 6.076-2.7 8.392a13.97 13.97 0 01-2.28 2.268 14.46 14.46 0 013.88 2.81c2.46 2.426 3.56 5.756 3.56 9.695 0 5.039-1.95 9.105-5.87 11.934-3.81 2.745-8.8 4.01-14.77 4.01h-31.33zm47-24.227a12.754 12.754 0 00-4.49-2.93 15.63 15.63 0 00-2.98-.813l-.03-.007v-.117c0-.002.01-.004.02-.006 1.01-.306 1.94-.721 2.8-1.246a11.26 11.26 0 002.92-2.615c1.51-1.901 2.27-4.284 2.27-7.148 0-3.933-1.4-6.993-4.18-9.18-2.76-2.188-7.05-3.281-12.86-3.281h-28.47v49.57h29.33c5.71 0 10.24-1.211 13.6-3.633 3.36-2.422 5.04-5.86 5.04-10.312 0-3.568-.99-6.329-2.97-8.282zm-12.97 2.422c-1.38-1.094-3.39-1.64-6.02-1.64h-12.69v12.343h12.69c2.63 0 4.64-.508 6.02-1.523 1.38-1.042 2.07-2.578 2.07-4.61 0-1.979-.69-3.502-2.07-4.57zm-16.71 8.703h10.69c2.41 0 3.93-.47 4.82-1.127.79-.595 1.27-1.484 1.27-3.005 0-1.455-.47-2.354-1.29-2.989l-.01-.007-.01-.007c-.89-.705-2.38-1.208-4.78-1.208h-10.69v8.343zm93.36 13.102h-17.59l-.04-26.086-19.18 26.086H2737V.977h17.59v25.818L2773.82.977h18.55v53.57zm-37.78-24.337a21.85 21.85 0 00-1 1.712c-.01.012-.01.023-.02.035-.03.055-.05.108-.08.16a14.98 14.98 0 00-.74 2.07h-.23v-.067c.02-.644.03-1.288.03-1.932v-.266c.01-.075.01-.15.01-.228v-.021c.02-.61.03-1.291.03-2.044V2.977H2739v49.57h15.55l19.96-27.149c.08-.107.15-.212.23-.316.55-.774.94-1.459 1.17-2.053v-.013c.29-.703.54-1.38.75-2.032h.23v.075c0 .62-.02 1.262-.07 1.925 0 .037 0 .073-.01.11 0 .085-.01.171-.01.26-.01.007-.01.014-.01.02-.04.661-.05 1.438-.06 2.331v.045l.04 26.797h13.6V2.977h-15.55l-19.92 26.757c-.11.164-.21.323-.31.476zm88.74 35.47V54.547h-32.49V65.68h-16.73V39.61h6.36c.59-1.44 1.07-2.85 1.44-4.227l.01-.008v-.007c.8-2.873 1.36-6.863 1.65-12.032v-.008l1.4-22.351h48.26v38.632h6.83v26.07h-16.73zm7.9-24.07V2.976h-44.38l-1.29 20.468c-.28 5.235-.86 9.388-1.72 12.461a35.77 35.77 0 01-1.22 3.703c-.26.663-.54 1.33-.84 2h-5.67v22.07h12.73V52.548h36.49V63.68h12.73V41.61h-6.83zm-35.86-2c-.21.678-.43 1.345-.68 2h22.83V13.913h-18.79l-.86 10.313c-.52 5.625-1.14 9.934-1.84 12.93-.2.833-.42 1.651-.66 2.452zm5.2-23.696l-.71 8.488v.009c-.52 5.654-1.15 10.072-1.88 13.202v.004c-.16.674-.34 1.338-.53 1.992h18.07V15.914h-14.95zm41.59 38.633V.977h47.2v14.742h-30.16v5.023h26.68v13.453h-26.68v6h30.75v14.352h-47.79zm45.79-12.352v10.352h-43.79V2.977h43.2v10.742h-30.16v9.023h26.68v9.453h-26.68v10h30.75zm11.73 6.864l-.01-.006c-6.33-4.555-9.35-11.621-9.35-20.764v-1.406c0-8.977 3.03-15.923 9.36-20.418C2925.79 2.11 2933.37 0 2942.28 0c8.91 0 16.49 2.11 22.6 6.463 6.35 4.494 9.4 11.44 9.4 20.42v1.406c0 9.146-3.04 16.212-9.39 20.766v.004c-6.12 4.354-13.7 6.464-22.61 6.464s-16.49-2.11-22.6-6.464zm44.05-40.965C2958.02 4.03 2950.88 2 2942.28 2c-8.59 0-15.74 2.031-21.44 6.094-5.68 4.036-8.52 10.3-8.52 18.789v1.406c0 8.672 2.84 15.052 8.52 19.14 5.7 4.063 12.85 6.094 21.44 6.094 8.6 0 15.74-2.03 21.45-6.093 5.7-4.089 8.55-10.47 8.55-19.14v-1.407c0-8.49-2.85-14.753-8.55-18.79zm-31.62 8.322l-.01.007c-2.2 1.623-3.48 4.296-3.48 8.507v5.468c0 4.39 1.29 7.166 3.49 8.83 2.46 1.836 5.81 2.857 10.22 2.881 4.38.025 7.68-.984 10.1-2.831l.01-.006c2.24-1.696 3.54-4.48 3.54-8.834V24.93c0-4.213-1.28-6.866-3.47-8.461-2.43-1.77-5.77-2.77-10.21-2.82-4.44-.024-7.77.965-10.19 2.767zm10.21-4.768c-4.74-.026-8.54 1.03-11.41 3.165-2.86 2.109-4.29 5.481-4.29 10.117v5.468c0 4.792 1.43 8.269 4.29 10.43 2.89 2.162 6.7 3.255 11.41 3.281 4.69.026 8.46-1.054 11.33-3.242 2.89-2.187 4.33-5.664 4.33-10.43V24.93c0-4.636-1.43-7.995-4.29-10.078-2.87-2.084-6.66-3.152-11.37-3.204zm-243.31 2.86v7.328h9.95c2.33 0 3.56-.492 4.16-1.042.64-.579 1.07-1.459 1.07-2.935 0-1.342-.41-2.024-.94-2.44-.62-.478-1.91-.911-4.29-.911h-9.95zm-2-2h11.95c2.53 0 4.36.443 5.51 1.328 1.14.885 1.72 2.226 1.72 4.023 0 1.901-.58 3.373-1.72 4.414-1.15 1.042-2.98 1.563-5.51 1.563h-11.95V12.508z"/><circle cx="3021" cy="25.547" r="6"/><defs><linearGradient id="spaint0_linear_302_2311" x1="995.141" y1="53.411" x2="25.726" y2="-117.54" gradientUnits="userSpaceOnUse"><stop stop-color="#28AAB9"/><stop offset="1" stop-color="#30BCCC"/></linearGradient><linearGradient id="spaint1_linear_302_2311" x1="1422.68" y1="53.411" x2="1146.02" y2="39.876" gradientUnits="userSpaceOnUse"><stop stop-color="#28AAB9"/><stop offset="1" stop-color="#30BCCC"/></linearGradient><linearGradient id="spaint2_linear_302_2311" x1="2530.14" y1="53.411" x2="1560.73" y2="-117.54" gradientUnits="userSpaceOnUse"><stop stop-color="#28AAB9"/><stop offset="1" stop-color="#30BCCC"/></linearGradient><linearGradient id="spaint3_linear_302_2311" x1="2957.68" y1="53.411" x2="2681.02" y2="39.876" gradientUnits="userSpaceOnUse"><stop stop-color="#28AAB9"/><stop offset="1" stop-color="#30BCCC"/></linearGradient></defs></symbol><symbol viewBox="0 0 2046 66" id="tickerOne" xmlns="http://www.w3.org/2000/svg"><path clip-rule="evenodd" d="M0 54.57V1h30.477c5.987 0 10.811 1.115 14.09 3.711 3.324 2.612 4.94 6.282 4.94 10.75 0 3.231-.859 6.076-2.698 8.391a13.396 13.396 0 01-2.28 2.268 14.533 14.533 0 013.885 2.81c2.454 2.426 3.555 5.756 3.555 9.695 0 5.04-1.945 9.105-5.87 11.935-3.807 2.744-8.795 4.01-14.763 4.01H0zm47-24.226a12.668 12.668 0 00-4.491-2.931 15.513 15.513 0 00-2.972-.813l-.037-.006v-.117l.021-.007a11.804 11.804 0 002.797-1.245 11.218 11.218 0 002.924-2.616c1.51-1.9 2.266-4.284 2.266-7.148 0-3.932-1.393-6.992-4.18-9.18C40.568 4.094 36.284 3 30.477 3H2v49.57h29.336c5.703 0 10.234-1.21 13.594-3.633 3.36-2.421 5.039-5.859 5.039-10.312 0-3.568-.99-6.328-2.969-8.281zm-12.969 2.422c-1.38-1.094-3.385-1.641-6.015-1.641H15.32v12.344h12.696c2.63 0 4.635-.508 6.015-1.524 1.38-1.041 2.07-2.578 2.07-4.61 0-1.978-.69-3.502-2.07-4.57zm-1.195 7.576c.782-.595 1.266-1.484 1.266-3.006 0-1.455-.474-2.354-1.294-2.989l-.01-.007-.009-.007c-.89-.705-2.38-1.208-4.773-1.208H17.32v8.344h10.696c2.409 0 3.922-.471 4.82-1.127zM17.32 14.532v7.327h9.953c2.325 0 3.557-.491 4.163-1.042.636-.579 1.064-1.458 1.064-2.934 0-1.343-.403-2.025-.942-2.441-.617-.478-1.906-.91-4.285-.91H17.32zM55.312 54.57V1h17.711v18.242h19.32V1h17.712v53.57H92.344V34.648h-19.32V54.57H55.311zM71.023 3v18.242h23.32V3h13.712v49.57H94.344V32.648h-23.32V52.57H57.311V3h13.711zm45.696 51.57V1h47.203v14.742h-30.156v5.024h26.679v13.453h-26.679v6h29.203v-.586h6.356a35.739 35.739 0 001.448-4.227l.002-.007.002-.008c.803-2.872 1.365-6.862 1.648-12.031v-.009L173.833 1h48.253v38.633h6.836v26.07h-16.734V54.57h-32.485v11.133h-16.734V54.57h-46.25zm97.469 9.133h12.734v-22.07h-6.836V3h-44.375l-1.289 20.469c-.287 5.234-.86 9.388-1.719 12.46a36.797 36.797 0 01-1.224 3.704 42.265 42.265 0 01-.837 2h-5.673v22.07h12.734V52.57h36.485v11.133zm-7.813-22.07V13.937h-18.789l-.859 10.313c-.521 5.625-1.133 9.935-1.836 12.93a39.904 39.904 0 01-.664 2.453 37.347 37.347 0 01-.673 2h22.821zm-2-2V15.937h-14.949l-.707 8.488-.001.01c-.524 5.654-1.145 10.072-1.88 13.202l-.001.004c-.16.673-.334 1.337-.523 1.992h18.061zm-41.867 2.586V52.57h-43.789V3h43.203v10.742h-30.156v9.024h26.679v9.453h-26.679v10h30.742zm68.508 12.351V1h31.492c6.799 0 12.269 1.644 16.034 5.284 3.751 3.603 5.536 8.477 5.536 14.372 0 5.843-1.756 10.739-5.412 14.483-3.728 3.818-9.339 5.525-16.393 5.525h-13.546V54.57h-17.711zm46.14-46.843C273.901 4.576 269.018 3 262.508 3h-29.492v49.57h13.711V38.664h15.546c6.771 0 11.758-1.64 14.961-4.922 3.23-3.307 4.844-7.67 4.844-13.086 0-5.468-1.64-9.778-4.922-12.93zm-10.859 7.421c-1.38-1.432-3.789-2.148-7.227-2.148h-12.343v16.328h12.343c3.438 0 5.847-.768 7.227-2.305 1.38-1.536 2.07-3.567 2.07-6.093 0-2.448-.69-4.375-2.07-5.782zm-17.57 12.18h10.343c3.233 0 4.927-.737 5.739-1.641.981-1.092 1.558-2.61 1.558-4.757 0-2.058-.569-3.434-1.497-4.38l-.007-.007-.006-.007C264.05 15.7 262.335 15 259.07 15h-10.343v12.328zm88.711 27.242h-17.711V39.61h-9.073l-10.257 14.96h-19.514l12.923-18.378a16.49 16.49 0 01-3.753-2.897l-.006-.006c-3.334-3.483-4.93-8.007-4.93-13.375 0-5.623 1.894-10.292 5.779-13.79l.005-.006C294.809 2.625 300.091 1 306.492 1h30.946v53.57zm-42.476-20.023c.582.32 1.194.609 1.836.866L284.734 52.57h14.61L309.6 37.61h12.127v14.96h13.711V3h-28.946c-6.068 0-10.82 1.536-14.258 4.61-3.411 3.072-5.117 7.174-5.117 12.304 0 4.948 1.459 8.945 4.375 11.992a14.539 14.539 0 003.47 2.64zm26.765-21.82v15.898h-12.422c-2.969 0-5.104-.716-6.407-2.148-1.276-1.459-1.914-3.386-1.914-5.782s.638-4.31 1.914-5.742c1.303-1.458 3.438-2.2 6.407-2.226h12.422zm-17.337 3.558c-.873.981-1.406 2.38-1.406 4.41 0 2.02.528 3.437 1.406 4.45.764.83 2.225 1.48 4.915 1.48h10.422V14.727h-10.413c-2.692.025-4.156.698-4.924 1.558zm39.751 38.285V1h47.203v14.742h-30.156v5.024h26.679v13.453h-26.679v6h30.742V54.57h-47.789zM389.93 42.22V52.57h-43.789V3h43.203v10.742h-30.156v9.024h26.679v9.453h-26.679v10h30.742zm5.382 12.351V1h20.59l17.113 30.296L450.089 1h20.747v53.57h-17.438V28.817L439.237 54.57h-12.83L412.21 28.92l.035 25.651h-16.933zm14.891-30.828c0-.521-.02-1.052-.059-1.594l-.002-.029-.001-.01-.016-.203a60.742 60.742 0 01-.112-1.663l-.005-.095h.273a129.747 129.747 0 01.58 1.7l.006.02c.209.598.456 1.21.742 1.835l15.977 28.867h10.469l15.937-28.984a23.438 23.438 0 00.727-1.785l.001-.003c.2-.55.4-1.114.6-1.689h.274l-.005.094a43.367 43.367 0 01-.133 1.906l-.002.034c-.037.485-.056.979-.056 1.482V52.57h13.438V3h-17.578l-16.797 29.805a300.65 300.65 0 00-.45.98l-.331.738a16.691 16.691 0 00-.586 1.524h-.117l-.018-.045a30.363 30.363 0 00-.607-1.479 129.158 129.158 0 00-.434-.96c-.108-.236-.223-.49-.348-.758L414.734 3h-17.422v49.57h12.93l-.039-28.828zM15.32 23.86h11.953c2.526 0 4.362-.52 5.508-1.562s1.719-2.513 1.719-4.414c0-1.797-.573-3.138-1.719-4.024-1.146-.885-2.982-1.328-5.508-1.328H15.32V23.86z"/><circle cx="516.836" cy="27" r="6"/><path clip-rule="evenodd" d="M562.836 54.547V.977h17.711v18.242h19.32V.977h17.711v51.93L641.844.936h17.121l24.821 53.61h-18.853l-4.176-9.57h-21.47l-4.11 9.57h-35.31V34.625h-19.32v19.922h-17.711zm75.133-11.57h24.097l4.176 9.57h14.414l-22.968-49.61h-14.571l-23.164 49.61h13.906l4.11-9.57zm13.547-24.18a91.593 91.593 0 00-.51-1.23l-.008-.019a44.947 44.947 0 00-.342-.783 13.439 13.439 0 00-.664-1.484h-.117l-.045.086c-.219.42-.439.887-.658 1.399l-.268.667a13.264 13.264 0 00-.067.165l-.485 1.199-6.475 15.078h16.218l-6.579-15.078zm3.524 13.078l-5.104-11.698-5.024 11.698h10.128zM578.547 2.977v18.242h23.32V2.977h13.711v49.57h-13.711V32.625h-23.32v19.922h-13.711V2.977h13.711zm110.359 46.05l-.009-.007c-5.989-4.564-8.835-11.537-8.835-20.497v-1.562c0-9.092 2.915-16.103 9.069-20.564C695.081 2.073 702.702 0 711.828 0c8.742 0 15.691 1.504 20.569 4.793 3.149 2.107 5.46 4.93 6.962 8.396V.977h55.836v14.859H776.25v38.71h-17.906v-38.71h-18.03c.366 1.244.645 2.556.838 3.933l.013.089.227 4.533h-17.381l-.189-4.537c-.452-1.806-1.465-3.26-3.131-4.412l-.012-.008-.011-.008c-1.579-1.125-4.304-1.856-8.527-1.856-4.586 0-7.876 1.108-10.136 3.066l-.001.001c-2.193 1.898-3.371 4.571-3.371 8.293v5.586c0 4.225 1.252 6.982 3.424 8.707 2.327 1.849 5.627 2.886 10.123 2.886 4.463 0 7.319-.7 8.927-1.772 1.575-1.057 2.521-2.6 2.787-4.852l.141-4.157h17.313l-.139 4.802-.004.047c-.487 6.299-3.256 11.229-8.314 14.562-4.955 3.283-12.057 4.784-21.024 4.784-9.398 0-17.12-2.094-22.961-6.496zm36.985-13.394c-.313 2.812-1.537 4.935-3.672 6.367-2.11 1.406-5.456 2.11-10.039 2.11-4.792 0-8.581-1.107-11.368-3.32-2.786-2.215-4.179-5.639-4.179-10.274V24.93c0-4.193 1.354-7.461 4.062-9.805 2.735-2.37 6.55-3.555 11.446-3.555 4.375 0 7.604.742 9.687 2.227 2.11 1.458 3.438 3.385 3.984 5.781l.118 2.813h13.359l-.117-2.344c-.86-6.12-3.49-10.651-7.891-13.594C726.88 3.484 720.396 2 711.828 2 703 2 695.826 4.005 690.305 8.016c-5.495 3.984-8.243 10.3-8.243 18.945v1.562c0 8.516 2.683 14.818 8.047 18.907 5.391 4.062 12.644 6.093 21.758 6.093 8.802 0 15.443-1.484 19.922-4.453 4.505-2.968 6.979-7.317 7.422-13.047l.078-2.695h-13.32l-.078 2.305zm15.468-21.797V2.976h51.836v10.86H774.25v38.71h-13.906v-38.71h-18.985zm55.774 40.71V.977h31.492c6.799 0 12.269 1.644 16.034 5.285 3.752 3.603 5.536 8.477 5.536 14.372 0 5.842-1.756 10.738-5.412 14.483-3.727 3.818-9.339 5.525-16.392 5.525h-13.547v13.906h-17.711zm46.14-46.843c-3.255-3.15-8.138-4.726-14.648-4.726h-29.492v49.57h13.711V38.64h15.547c6.77 0 11.757-1.641 14.961-4.922 3.229-3.308 4.843-7.67 4.843-13.086 0-5.469-1.64-9.779-4.922-12.93zm-10.859 7.422c-1.38-1.432-3.789-2.148-7.226-2.148h-12.344v16.328h12.344c3.437 0 5.846-.768 7.226-2.305 1.38-1.537 2.07-3.568 2.07-6.094 0-2.448-.69-4.375-2.07-5.781zm-17.57 12.18h10.344c3.232 0 4.926-.738 5.738-1.642.981-1.091 1.558-2.609 1.558-4.757 0-2.058-.568-3.434-1.497-4.38l-.007-.007-.006-.006c-.807-.837-2.522-1.536-5.786-1.536h-10.344v12.328zm30.64 27.242L870.516.937h17.121l24.105 52.064V.977h17.594v25.818L948.558.977h18.551v53.57h-17.59l-.039-26.086-19.179 26.086h-36.696l-4.176-9.57h-21.47l-4.11 9.57h-18.365zm21.157-11.57h24.097l4.176 9.57h14.414l-22.969-49.61h-14.57l-23.164 49.61h13.906l4.11-9.57zm13.547-24.18a79.405 79.405 0 00-.511-1.23l-.007-.019a44.947 44.947 0 00-.342-.783 13.439 13.439 0 00-.664-1.484h-.117l-.045.086c-.22.42-.439.887-.658 1.399l-.268.667-.06.148-.007.017-.486 1.199-6.474 15.078h16.218l-6.579-15.078zm3.524 13.078l-5.105-11.698-5.023 11.698h10.128zm67.765-6.17v.045l.039 26.797h13.593V2.977h-15.547l-19.921 26.757c-.108.164-.211.323-.309.476a20.696 20.696 0 00-1.019 1.747 7.554 7.554 0 00-.079.16c-.26.573-.507 1.263-.742 2.07h-.234l.002-.067c.022-.644.034-1.288.036-1.932l.001-.266.007-.228.001-.021a76.7 76.7 0 00.03-2.044l.001-.324V2.977h-13.594v49.57h15.547l19.961-27.149c.08-.107.156-.212.23-.316.55-.774.941-1.459 1.171-2.053a27.665 27.665 0 00.747-2.045h.235v.075c-.002.62-.026 1.262-.071 1.925l-.007.11a17.82 17.82 0 00-.017.26l-.002.02a40.196 40.196 0 00-.059 2.331zm22.296 28.842V.977h30.477c5.99 0 10.81 1.114 14.09 3.71 3.32 2.612 4.94 6.283 4.94 10.75 0 3.232-.86 6.077-2.7 8.393-.68.86-1.44 1.617-2.28 2.267 1.44.717 2.74 1.652 3.89 2.81 2.45 2.426 3.55 5.756 3.55 9.695 0 5.039-1.94 9.105-5.87 11.934-3.8 2.745-8.79 4.01-14.76 4.01h-31.337zm46.997-24.227c-1.26-1.284-2.76-2.26-4.49-2.93-.92-.36-1.91-.63-2.97-.813-.01-.002-.02-.005-.04-.007v-.117c.01-.002.02-.004.02-.006a11.3 11.3 0 005.73-3.86c1.51-1.902 2.26-4.285 2.26-7.15 0-3.932-1.39-6.992-4.18-9.18-2.76-2.187-7.04-3.28-12.85-3.28h-28.477v49.57h29.337c5.7 0 10.23-1.211 13.59-3.633 3.36-2.422 5.04-5.86 5.04-10.312 0-3.568-.99-6.329-2.97-8.282zm-12.97 2.422c-1.38-1.094-3.38-1.64-6.01-1.64h-12.696v12.343h12.696c2.63 0 4.63-.508 6.01-1.523 1.38-1.042 2.08-2.578 2.08-4.61 0-1.979-.7-3.502-2.08-4.57zm-1.19 7.576c.78-.595 1.27-1.484 1.27-3.005 0-1.455-.48-2.354-1.3-2.989l-.01-.007-.01-.007c-.89-.705-2.38-1.208-4.77-1.208h-10.696v8.343h10.696c2.41 0 3.92-.47 4.82-1.127zm-15.516-25.81v7.328h9.956c2.32 0 3.55-.492 4.16-1.042.64-.579 1.06-1.459 1.06-2.935 0-1.342-.4-2.024-.94-2.44-.62-.478-1.9-.911-4.28-.911h-9.956zm30.566 40.039l25.03-53.61h17.12l24.1 52.064V.977h47.21v14.742h-30.16v5.023h26.68v13.453h-26.68v6h30.74v14.352h-65.92l-4.18-9.57h-21.47l-4.11 9.57h-18.36zm21.15-11.57h24.1l4.18 9.57h14.41l-22.97-49.61h-14.57l-23.16 49.61h13.9l4.11-9.57zm13.55-24.18l-.51-1.23c0-.007-.01-.013-.01-.019l-.03-.063c-.11-.266-.21-.506-.31-.72-.19-.511-.4-.977-.62-1.398-.01-.029-.03-.057-.04-.086h-.12c-.02.029-.03.057-.05.086-.22.42-.44.887-.65 1.399a129.235 129.235 0 01-.33.815c0 .006-.01.011-.01.017-.14.355-.3.755-.48 1.199l-6.48 15.078h16.22l-6.58-15.078zm3.52 13.078l-5.1-11.698-5.02 11.698h10.12zm73.82 10.32v10.352h-43.79V2.977h43.21v10.742h-30.16v9.023h26.68v9.453h-26.68v10h30.74zm5.39 12.352V.977h20.59l17.11 30.296L1193.86.977h20.75v53.57h-17.44V28.793l-14.16 25.754h-12.83l-14.2-25.652.04 25.652h-16.93zm14.89-30.828c0-.522-.02-1.053-.06-1.594v-.029c-.01-.003-.01-.007-.01-.01 0-.068-.01-.135-.01-.203a41.36 41.36 0 01-.11-1.664c-.01-.032-.01-.063-.01-.094h.27c.18.515.38 1.08.58 1.697v.002c.01.007.01.013.01.02.21.599.46 1.21.74 1.836l.02.037v.002l15.96 28.828h10.47l15.94-28.984c.26-.573.49-1.146.7-1.72.01-.021.01-.043.02-.065v-.003c.2-.551.4-1.114.6-1.69h.28c0 .032-.01.063-.01.095-.02.543-.06 1.097-.11 1.664-.01.08-.01.161-.02.242v.034c-.04.484-.06.978-.06 1.482v28.945h13.44V2.977h-17.58l-16.8 29.804c-.12.27-.24.522-.34.758-.04.076-.07.15-.11.223l-.33.738c-.2.454-.39.945-.57 1.472 0 .017-.01.034-.01.051h-.12c-.01-.015-.01-.03-.02-.044-.2-.53-.4-1.023-.61-1.479-.09-.222-.2-.468-.33-.738-.03-.072-.06-.147-.1-.223-.11-.236-.22-.489-.35-.758l-16.83-29.804h-17.42v49.57h12.93l-.04-28.828zm-164.886.117h11.956c2.52 0 4.36-.52 5.5-1.563 1.15-1.041 1.72-2.513 1.72-4.414 0-1.797-.57-3.138-1.72-4.023-1.14-.886-2.98-1.328-5.5-1.328h-11.956v11.328z"/><circle cx="1260.61" cy="27" r="6"/><path clip-rule="evenodd" d="M1315.96 49.059v-.006c-6.33-4.555-9.35-11.621-9.35-20.764v-1.406c0-8.977 3.03-15.924 9.36-20.42C1322.08 2.11 1329.66 0 1338.57 0c8.91 0 16.49 2.11 22.6 6.463 6.35 4.494 9.4 11.44 9.4 20.42v1.406c0 9.146-3.04 16.212-9.39 20.766v.004c-6.12 4.354-13.7 6.464-22.61 6.464s-16.49-2.11-22.61-6.464zm44.06-40.965C1354.31 4.03 1347.16 2 1338.57 2s-15.74 2.031-21.45 6.094c-5.67 4.036-8.51 10.3-8.51 18.789v1.406c0 8.672 2.84 15.052 8.51 19.14 5.71 4.063 12.86 6.094 21.45 6.094s15.74-2.03 21.45-6.093c5.7-4.089 8.55-10.47 8.55-19.14v-1.407c0-8.49-2.85-14.753-8.55-18.79zm-31.63 8.329c-2.2 1.623-3.48 4.296-3.48 8.507v5.468c0 4.39 1.29 7.166 3.49 8.831 2.46 1.835 5.81 2.856 10.22 2.88 4.38.025 7.68-.984 10.1-2.831l.01-.006c2.24-1.696 3.54-4.48 3.54-8.834V24.93c0-4.213-1.28-6.866-3.47-8.461-2.43-1.77-5.78-2.77-10.21-2.82-4.44-.024-7.77.965-10.19 2.767l-.01.007zm10.22-4.775c4.71.053 8.5 1.12 11.37 3.204 2.86 2.083 4.29 5.442 4.29 10.078v5.508c0 4.765-1.44 8.242-4.33 10.43-2.87 2.187-6.64 3.267-11.33 3.241-4.71-.026-8.52-1.12-11.41-3.28-2.86-2.162-4.29-5.639-4.29-10.43v-5.47c0-4.635 1.43-8.007 4.29-10.116 2.87-2.136 6.67-3.19 11.41-3.165zm35.62 42.899V.977h47.94v14.585h-30.23v2.055h12.76c6.97 0 12.51 1.483 16.17 4.868 3.6 3.33 5.33 7.803 5.33 13.187 0 5.677-1.77 10.375-5.48 13.843-3.72 3.48-9.21 5.032-16.06 5.032h-30.43zm45.12-6.492c-3.2 2.995-8.1 4.492-14.69 4.492h-28.43V2.977h43.94v10.585h-30.23v6.055h14.76c6.75 0 11.68 1.445 14.81 4.336 3.12 2.89 4.69 6.797 4.69 11.719 0 5.234-1.62 9.362-4.85 12.383zm-10.7-17.657c-1.28-1.432-3.57-2.148-6.88-2.148h-11.83v15.156h11.83c3.31 0 5.6-.677 6.88-2.031 1.27-1.354 1.91-3.203 1.91-5.547 0-2.213-.64-4.023-1.91-5.43zm-16.71 11.008h9.83c3.16 0 4.73-.668 5.42-1.403.84-.893 1.37-2.203 1.37-4.175 0-1.804-.51-3.107-1.39-4.086l-.01-.006v-.007c-.7-.782-2.26-1.479-5.39-1.479h-9.83v11.156zm43.04 7.62v-.006c-5.99-4.564-8.84-11.537-8.84-20.497v-1.562c0-9.092 2.92-16.103 9.07-20.564 5.95-4.323 13.57-6.397 22.7-6.397 8.74 0 15.69 1.504 20.56 4.793 4.96 3.314 7.84 8.397 8.76 14.976l.01.089.23 4.533h-17.38l-.19-4.537c-.45-1.806-1.46-3.26-3.13-4.412l-.01-.008-.01-.008c-1.58-1.125-4.31-1.856-8.53-1.856-4.59 0-7.88 1.108-10.14 3.066v.001c-2.19 1.898-3.37 4.571-3.37 8.293v5.586c0 4.225 1.25 6.982 3.42 8.707 2.33 1.849 5.63 2.886 10.13 2.886 4.46 0 7.32-.7 8.93-1.772 1.57-1.057 2.52-2.6 2.78-4.852l.14-4.157h17.32l-.14 4.802-.01.047c-.04.596-.11 1.18-.2 1.751l.92.29c.39.124.77.215 1.12.277.37.038.8.06 1.29.06 1.98 0 2.88-.635 3.36-1.508l.01-.01c.74-1.32 1.37-3.812 1.7-7.76l1.72-28.3h66.11l13.53 21.446c.11.152.21.302.3.449.09-.138.18-.281.27-.428L1590.17.977h30.55l15.98 19.218h.42V.977h17.59v19.218h.46L1671.15.977h37.31v25.818L1727.68.977h18.55v53.57h-17.59l-.03-26.086-19.18 26.086h-37.59l-16.8-19.336h-.33v19.336h-17.59V35.21h-.31l-16.86 19.336h-21.74l22.93-26.762-16.27-20.838-19.57 31.661c-3.39 5.422-6.54 9.585-9.43 12.402-3.21 3.138-7.73 4.553-13.24 4.553-1.7 0-3.16-.094-4.33-.305-1.1-.197-2.07-.45-2.88-.787l-1.23-.513v-15.73l2.57.76c.59.177 1.23.313 1.91.404.71.09 1.54.14 2.52.14 1.75 0 3.06-.313 4.02-.823l.01-.004.01-.003c.44-.231 1-.697 1.66-1.478l-22.57-35.158v52.48h-17.71V15.915h-13.91l-1.08 14.98v.001c-.51 6.954-1.87 12.717-4.21 17.185-2.58 4.973-7.46 7.248-13.92 7.248-1.62 0-2.98-.066-4.03-.215l-.01-.002c-.96-.14-1.84-.33-2.64-.574l-1.41-.435V43.505c-1.4 2.904-3.54 5.33-6.43 7.234-4.96 3.283-12.06 4.784-21.02 4.784-9.4 0-17.13-2.094-22.97-6.496zm70.66-1.87c2.16-4.14 3.49-9.61 3.98-16.406l1.22-16.836h17.77v38.633h13.71V2.977h-43.24l-1.6 26.445c-.34 4.01-.99 6.875-1.96 8.594-.93 1.692-2.64 2.539-5.11 2.539-.36 0-.7-.01-1.01-.03-.19-.013-.38-.029-.56-.048-.46-.079-.95-.196-1.44-.352v12.5c.68.208 1.46.378 2.34.508.91.13 2.16.195 3.75.195 5.97 0 10.02-2.057 12.15-6.172zm63.69-9.83c-.16.226-.32.442-.48.646-.28.37-.56.703-.84 1.001-.64.69-1.26 1.192-1.86 1.504-1.33.703-2.98 1.054-4.96 1.054-1.04 0-1.97-.052-2.78-.156-.07-.01-.15-.02-.22-.032-.7-.103-1.37-.249-2-.437v11.719c.62.26 1.44.482 2.46.664 1.01.182 2.34.273 3.98.273 5.19 0 9.13-1.328 11.84-3.984 2.73-2.656 5.78-6.667 9.14-12.031l21.07-34.096 19.04 24.393-21.17 24.703h16.49l16.86-19.336h3.22v19.336h13.59V33.21h3.25l16.79 19.336h16.76l-21.54-24.821 19.51-24.75h-15.39l-15.98 19.22h-3.4V2.975h-13.59v19.22h-3.36l-15.98-19.22h-28.48l-12.18 20.508c-.36.576-.65 1.052-.86 1.43l-.24.445c-.17.375-.41.953-.7 1.734-.01.034-.03.068-.04.102h-.19c-.02-.03-.03-.058-.04-.087-.35-.789-.61-1.372-.78-1.749-.06-.13-.13-.284-.23-.463-.2-.359-.49-.817-.87-1.373L1562.2 2.977h-14.92l22.05 34.35zm101.24-9.662l20.3 23.398V1.905l-20.3 25.76zm60.03-1.959v.045l.04 26.797h13.59V2.977h-15.54l-19.92 26.757c-.11.164-.22.323-.31.476-.43.674-.77 1.245-1 1.712-.01.012-.02.023-.02.035-.03.055-.06.108-.08.16a14.98 14.98 0 00-.74 2.07h-.24c0-.022 0-.044.01-.067.02-.644.03-1.288.03-1.932v-.266c0-.075.01-.15.01-.228v-.021c.02-.61.03-1.291.03-2.044V2.977h-13.59v49.57h15.54l19.97-27.149c.07-.107.15-.212.23-.316.55-.774.94-1.459 1.17-2.053v-.013c.29-.703.54-1.38.74-2.032h.24v.075c0 .62-.03 1.262-.07 1.925-.01.037-.01.073-.01.11-.01.085-.01.171-.02.26v.02c-.04.661-.06 1.438-.06 2.331zm-258.63 9.928c-.31 2.812-1.54 4.935-3.67 6.367-2.11 1.406-5.46 2.11-10.04 2.11-4.79 0-8.58-1.107-11.37-3.32-2.79-2.215-4.18-5.639-4.18-10.274V24.93c0-4.193 1.36-7.461 4.06-9.805 2.74-2.37 6.55-3.555 11.45-3.555 4.37 0 7.6.742 9.69 2.227 2.11 1.458 3.43 3.385 3.98 5.781l.12 2.813h13.36l-.12-2.344c-.86-6.12-3.49-10.651-7.89-13.594-4.4-2.969-10.89-4.453-19.45-4.453-8.83 0-16.01 2.005-21.53 6.016-5.49 3.984-8.24 10.3-8.24 18.945v1.562c0 8.516 2.68 14.818 8.05 18.907 5.39 4.062 12.64 6.093 21.76 6.093 8.8 0 15.44-1.484 19.92-4.453 4.5-2.968 6.98-7.317 7.42-13.047l.08-2.695h-13.32l-.08 2.305zm280.93 18.914V.977h30.48c5.98 0 10.81 1.114 14.09 3.71 3.32 2.612 4.94 6.283 4.94 10.75 0 3.232-.86 6.077-2.7 8.393-.68.86-1.45 1.617-2.28 2.267a14.46 14.46 0 013.88 2.81c2.46 2.426 3.56 5.756 3.56 9.695 0 5.039-1.95 9.105-5.87 11.934-3.81 2.745-8.8 4.01-14.77 4.01h-31.33zm47-24.227a12.754 12.754 0 00-4.49-2.93 15.73 15.73 0 00-2.97-.813c-.02-.002-.03-.005-.04-.007v-.117l.02-.006c1.01-.306 1.94-.721 2.8-1.246a11.26 11.26 0 002.92-2.615c1.51-1.901 2.27-4.284 2.27-7.148 0-3.933-1.4-6.993-4.18-9.18-2.76-2.188-7.05-3.281-12.85-3.281h-28.48v49.57h29.33c5.71 0 10.24-1.211 13.6-3.633 3.36-2.422 5.04-5.86 5.04-10.312 0-3.568-.99-6.329-2.97-8.282zm-12.97 2.422c-1.38-1.094-3.39-1.64-6.02-1.64h-12.69v12.343h12.69c2.63 0 4.64-.508 6.02-1.523 1.38-1.042 2.07-2.578 2.07-4.61 0-1.979-.69-3.502-2.07-4.57zm-1.2 7.576c.79-.595 1.27-1.484 1.27-3.005 0-1.455-.47-2.354-1.29-2.989l-.01-.007-.01-.007c-.89-.705-2.38-1.208-4.78-1.208h-10.69v8.343h10.69c2.41 0 3.93-.47 4.82-1.127zm-15.51-25.81v7.328h9.95c2.33 0 3.56-.492 4.16-1.042.64-.579 1.07-1.459 1.07-2.935 0-1.342-.4-2.024-.94-2.44-.62-.478-1.91-.911-4.29-.911h-9.95zm30.56 40.039l25.03-53.61h17.12l24.11 52.064V.977h47.2v14.742h-30.15v5.023h26.68v13.453h-26.68v6h30.74v14.352h-65.93l-4.17-9.57h-21.47l-4.11 9.57h-18.37zm21.16-11.57h24.09l4.18 9.57h14.41l-22.96-49.61h-14.57l-23.17 49.61h13.91l4.11-9.57zm13.54-24.18c-.18-.457-.35-.867-.51-1.23v-.019l-.03-.063c-.11-.266-.22-.506-.32-.72-.19-.511-.4-.977-.61-1.398-.02-.029-.03-.057-.05-.086h-.12c-.01.029-.03.057-.04.086-.22.42-.44.887-.66 1.399a129.235 129.235 0 01-.33.815v.017c-.15.355-.31.755-.49 1.199l-6.47 15.078h16.21l-6.58-15.078zm3.53 13.078l-5.11-11.698-5.02 11.698h10.13zm73.82 10.32v10.352h-43.79V2.977h43.2v10.742h-30.15v9.023h26.68v9.453h-26.68v10h30.74zm5.38 12.352V.977h20.59l17.11 30.296L1972.99.977h20.74v53.57h-17.43V28.793l-14.16 25.754h-12.83l-14.2-25.652.03 25.652h-16.93zm14.89-30.828c0-.522-.02-1.053-.06-1.594v-.029-.01c-.01-.068-.01-.135-.02-.203-.05-.612-.08-1.167-.11-1.664v-.094h.27c.18.515.37 1.08.58 1.697v.002c0 .007 0 .013.01.02.2.599.45 1.21.74 1.836l.02.037v.002l15.95 28.828h10.47l15.94-28.984c.26-.573.5-1.146.7-1.72l.03-.065v-.003c.2-.551.4-1.114.6-1.69h.27v.095c-.03.543-.07 1.097-.11 1.664l-.03.242v.034c-.03.484-.05.978-.05 1.482v28.945h13.43V2.977h-17.57l-16.8 29.804c-.12.27-.24.522-.35.758-.03.076-.07.15-.1.223l-.33.738c-.2.454-.39.945-.57 1.472-.01.017-.01.034-.02.051h-.11c-.01-.015-.02-.03-.02-.044-.2-.53-.41-1.023-.61-1.479l-.33-.738c-.03-.072-.07-.147-.1-.223-.11-.236-.23-.489-.35-.758l-16.84-29.804h-17.42v49.57h12.93l-.04-28.828zm-164.88.117h11.95c2.53 0 4.36-.52 5.51-1.563 1.15-1.041 1.72-2.513 1.72-4.414 0-1.797-.57-3.138-1.72-4.023-1.15-.886-2.98-1.328-5.51-1.328h-11.95v11.328z"/><circle cx="2039.73" cy="27" r="6"/><defs><linearGradient id="tpaint0_linear_517_4020" x1="448.234" y1="52.57" x2="-5.079" y2="24.846" gradientUnits="userSpaceOnUse"><stop stop-color="#28AAB9"/><stop offset="1" stop-color="#30BCCC"/></linearGradient><linearGradient id="tpaint1_linear_517_4020" x1="1182.12" y1="52.547" x2="559.242" y2=".027" gradientUnits="userSpaceOnUse"><stop stop-color="#28AAB9"/><stop offset="1" stop-color="#30BCCC"/></linearGradient><linearGradient id="tpaint2_linear_517_4020" x1="1959.32" y1="52.547" x2="1306.65" y2="-5.157" gradientUnits="userSpaceOnUse"><stop stop-color="#28AAB9"/><stop offset="1" stop-color="#30BCCC"/></linearGradient></defs></symbol><symbol viewBox="0 0 2373 54" id="tickerThree" xmlns="http://www.w3.org/2000/svg"><path clip-rule="evenodd" d="M0 53.61V.04h17.71V18.28h19.321V.04h17.711v51.93L79.008 0h17.121l24.105 52.063V.04h54.352v53.57h-17.75V14.977h-18.891v38.632h-35.848l-4.176-9.57H76.45l-4.11 9.57h-35.31V33.687h-19.32V53.61H0zm75.133-11.57H99.23l4.176 9.57h14.414L94.852 2h-14.57L57.116 51.61h13.906l4.11-9.57zM88.68 17.86a83.156 83.156 0 00-.518-1.25c-.01-.02-.018-.041-.027-.062a41.042 41.042 0 00-.315-.72 13.481 13.481 0 00-.664-1.484h-.117l-.045.086c-.22.42-.439.886-.658 1.398l-.268.668-.06.148-.007.016-.485 1.2-6.475 15.078H95.26l-6.58-15.079zm3.524 13.078L87.1 19.239l-5.023 11.698h10.127zM15.711 2.038v18.242h23.32V2.04h13.711v49.57h-13.71V31.687H15.71V51.61H2V2.04h13.71zm120.234 49.57h-13.711V2.04h50.352v49.57h-13.75V12.977h-22.891v38.632zm100.594 2h-17.591l-.038-26.085-19.179 26.085h-18.559V.04h17.594v25.818L217.988.04h18.551v53.57zm-37.777-24.336a20.747 20.747 0 00-1.002 1.711l-.017.035a7.554 7.554 0 00-.079.16c-.26.574-.508 1.264-.742 2.071h-.234l.002-.067c.021-.645.033-1.289.036-1.933l.001-.266.007-.227.001-.022a76.7 76.7 0 00.03-2.043l.001-.325V2.04h-13.594v49.57h15.547l19.961-27.148c.079-.107.156-.213.23-.317.55-.774.94-1.458 1.171-2.052a28.134 28.134 0 00.747-2.045h.234v.075c-.001.62-.025 1.262-.07 1.925l-.008.11-.017.26-.001.02a41.02 41.02 0 00-.06 2.33v.046l.039 26.796h13.594V2.04h-15.547L199.07 28.797c-.108.164-.21.322-.308.476zM243.203.039h17.633v38.633h12.523V.039h17.633v38.633h12.563V.039h17.633v53.57h-77.985V.04zm62.352 2h13.633v49.57h-73.985V2.04h13.633v38.633h16.523V2.039h13.633v38.633h16.563V2.039zm77.625 51.57h-17.591l-.038-26.085-19.18 26.085h-18.559V.04h17.594v25.818L364.628.04h18.552v53.57zm-37.778-24.336c-.43.674-.764 1.245-1.001 1.711l-.018.035a20 20 0 00-.078.16 15.498 15.498 0 00-.743 2.071h-.234l.002-.067c.022-.645.034-1.289.037-1.933v-.266l.008-.227v-.022c.018-.61.029-1.29.031-2.043V2.039h-13.594v49.57h15.547l19.961-27.148c.08-.107.157-.213.231-.317.55-.774.94-1.458 1.17-2.052l.006-.014c.286-.703.533-1.38.742-2.031h.234v.075a29.88 29.88 0 01-.07 1.925l-.008.11-.017.26-.001.02c-.04.66-.059 1.438-.06 2.33v.046l.039 26.796h13.594V2.04h-15.547l-19.922 26.758c-.108.164-.211.322-.309.476zm39.715-14.375V.04h55.836V14.9h-18.945v38.71h-17.906V14.9h-18.985zm2-2V2.04h51.836V12.9h-18.945v38.71h-13.906V12.9h-18.985zm55.774 40.711V.04h47.203v14.742h-30.156v5.024h26.679v13.453h-26.679v6h30.742v14.351h-47.789zm45.789-12.351v10.351h-43.789V2.04h43.203v10.742h-30.156v9.024h26.679v9.453h-26.679v10h30.742zm27.57 12.351V.04h17.711v18.242h19.32V.04h17.711v51.93L595.258 0h17.122l24.104 52.063V.04h20.59l17.113 30.296L691.261.04h20.747v53.57H694.57V27.856l-14.161 25.753h-12.83l-14.197-25.651.035 25.651h-35.07l-4.176-9.57h-21.47l-4.11 9.57h-35.31V33.687h-19.32V53.61H516.25zm75.133-11.57h24.097l4.176 9.57h14.414L611.102 2h-14.571l-23.164 49.61h13.906l4.11-9.57zm13.547-24.18a91.593 91.593 0 00-.51-1.23l-.008-.018a44.947 44.947 0 00-.342-.783 13.439 13.439 0 00-.664-1.484h-.117l-.045.086c-.219.42-.439.886-.658 1.398l-.268.668a12.527 12.527 0 00-.067.164l-.485 1.2-6.475 15.078h16.218l-6.579-15.079zm3.524 13.078L603.35 19.24l-5.023 11.698h10.127zm42.921-8.156a22.175 22.175 0 00-.061-1.622l-.001-.01-.016-.204a56.987 56.987 0 01-.112-1.663l-.005-.095h.273c.18.515.373 1.08.579 1.697v.003l.007.02c.208.598.456 1.21.742 1.835l.021.037.001.002 15.955 28.828h10.469l15.937-28.984c.26-.573.495-1.146.703-1.719l.024-.066.001-.003c.2-.55.4-1.113.6-1.689h.274l-.005.094a41.452 41.452 0 01-.133 1.906l-.003.034c-.036.485-.055.979-.055 1.482V51.61h13.438V2.04H692.43l-16.797 29.805a285.202 285.202 0 00-.45.98c-.122.27-.233.516-.331.739-.202.454-.392.944-.569 1.472l-.017.05h-.118l-.017-.044a29.291 29.291 0 00-.608-1.478 79.397 79.397 0 00-.433-.961l-.348-.758-16.836-29.805h-17.422v49.57h12.93l-.039-28.828zM531.961 2.04v18.242h23.32V2.04h13.711v49.57h-13.711V31.687h-23.32V51.61H518.25V2.04h13.711z"/><circle cx="758.008" cy="26.805" r="6"/><path clip-rule="evenodd" d="M804.008 53.61V.04h17.711V18.28h19.32V.04h17.711v51.93L883.016 0h17.121l24.105 52.063V.04h54.352v53.57h-17.75V14.977h-18.891v38.632h-35.848l-4.176-9.57h-21.47l-4.11 9.57h-35.31V33.687h-19.32V53.61h-17.711zm75.133-11.57h24.097l4.176 9.57h14.414L898.859 2h-14.57l-23.164 49.61h13.906l4.11-9.57zm13.547-24.18a79.405 79.405 0 00-.511-1.23l-.007-.02a44.947 44.947 0 00-.342-.783 13.439 13.439 0 00-.664-1.483h-.117l-.045.086c-.22.42-.439.886-.658 1.398l-.268.668-.06.148-.007.016-.486 1.2-6.474 15.078h16.218l-6.579-15.079zm3.524 13.078l-5.105-11.699-5.023 11.698h10.128zM819.719 2.038v18.242h23.32V2.04h13.711v49.57h-13.711V31.687h-23.32V51.61h-13.711V2.04h13.711zm120.234 49.57h-13.711V2.04h50.352v49.57h-13.75V12.977h-22.891v38.632zm100.597 2h-17.59l-.04-26.085-19.18 26.085h-18.56V.04h17.59v25.818L1022 .04h18.55v53.57zm-37.78-24.336a21.85 21.85 0 00-1 1.711c-.01.012-.01.024-.02.035-.03.055-.05.109-.08.16a14.98 14.98 0 00-.74 2.071h-.23v-.067c.02-.645.03-1.289.03-1.933v-.266c.01-.074.01-.15.01-.227v-.022c.02-.61.03-1.29.03-2.043V2.039h-13.59v49.57h15.55l19.96-27.148c.08-.107.15-.213.23-.317.55-.774.94-1.458 1.17-2.052v-.014c.29-.703.54-1.38.75-2.031h.23v.075c0 .62-.03 1.262-.07 1.925 0 .036-.01.073-.01.11 0 .084-.01.171-.01.26-.01.007-.01.013-.01.02-.04.66-.06 1.438-.06 2.33v.046l.04 26.796h13.6V2.04H1023l-19.92 26.758c-.11.164-.21.322-.31.476zM1047.21.039h17.63v38.633h12.53V.039H1095v38.633h12.56V.039h17.64v53.57h-77.99V.04zm62.35 2h13.64v49.57h-73.99V2.04h13.63v38.633h16.53V2.039H1093v38.633h16.56V2.039zm77.63 51.57h-17.59l-.04-26.085-19.18 26.085h-18.56V.04h17.59v25.818L1168.64.04h18.55v53.57zm-37.78-24.336a21.85 21.85 0 00-1 1.711c-.01.012-.01.024-.02.035-.03.055-.05.109-.08.16a14.98 14.98 0 00-.74 2.071h-.23v-.067c.02-.645.03-1.289.03-1.933 0-.088.01-.177.01-.266v-.227-.022c.02-.61.03-1.29.03-2.043V2.039h-13.59v49.57h15.55l19.96-27.148c.08-.107.15-.213.23-.317.55-.774.94-1.458 1.17-2.052v-.014c.29-.703.54-1.38.75-2.031h.23v.075c0 .62-.02 1.262-.07 1.925 0 .036 0 .073-.01.11 0 .084-.01.171-.01.26 0 .007-.01.013-.01.02-.03.66-.05 1.438-.06 2.33v.046l.04 26.796h13.6V2.04h-15.55l-19.92 26.758c-.11.164-.21.322-.31.476zm39.71-14.375V.04h55.84V14.9h-18.94v38.71h-17.91V14.9h-18.99zm2-2V2.04h51.84V12.9h-18.94v38.71h-13.91V12.9h-18.99zm55.78 40.711V.04h47.2v14.742h-30.15v5.024h26.67v13.453h-26.67v6h30.74v14.351h-47.79zm45.79-12.351v10.351h-43.79V2.04h43.2v10.742h-30.15v9.024h26.67v9.453h-26.67v10h30.74zm27.57 12.351V.04h17.71v18.242h19.32V.04H1375v51.93L1399.27 0h17.12l24.1 52.063V.04h20.59l17.11 30.296L1495.27.04h20.75v53.57h-17.44V27.856l-14.16 25.753h-12.83l-14.2-25.651.03 25.651h-35.07l-4.17-9.57h-21.47l-4.11 9.57h-35.31V33.687h-19.32V53.61h-17.71zm75.13-11.57h24.1l4.17 9.57h14.42L1415.11 2h-14.57l-23.16 49.61h13.9l4.11-9.57zm13.55-24.18l-.51-1.23c-.01-.006-.01-.012-.01-.018l-.03-.063c-.11-.266-.22-.506-.31-.72a14.1 14.1 0 00-.62-1.398c-.02-.03-.03-.058-.05-.086h-.11c-.02.028-.03.057-.05.086-.22.42-.44.886-.66 1.398-.08.2-.17.422-.26.668l-.06.148c-.01.005-.01.01-.01.016-.14.355-.31.755-.49 1.2l-6.47 15.078h16.22l-6.58-15.079zm3.52 13.078l-5.1-11.698-5.03 11.698h10.13zm42.92-8.156c0-.521-.02-1.052-.06-1.593v-.03-.01c0-.067-.01-.135-.02-.203-.04-.612-.08-1.166-.11-1.663v-.095h.27c.18.515.37 1.08.58 1.697v.003c0 .006 0 .013.01.02.21.598.45 1.21.74 1.835l.02.037v.002l15.96 28.828h10.46l15.94-28.984c.26-.573.5-1.146.71-1.719 0-.022.01-.044.02-.066v-.003c.2-.55.4-1.113.6-1.689h.27v.094c-.03.543-.06 1.098-.11 1.664-.01.08-.02.162-.02.242 0 .012-.01.023-.01.034-.03.485-.05.979-.05 1.482V51.61h13.44V2.04h-17.58l-16.8 29.805c-.12.269-.24.521-.35.758-.03.076-.07.15-.1.223l-.33.737c-.2.455-.39.945-.57 1.473-.01.017-.01.034-.02.05h-.11c-.01-.014-.02-.029-.02-.044-.2-.53-.41-1.023-.61-1.478l-.33-.738c-.03-.073-.07-.147-.1-.223-.11-.236-.23-.49-.35-.758l-16.84-29.805h-17.42v49.57h12.93l-.04-28.828zM1335.97 2.04v18.242h23.32V2.04H1373v49.57h-13.71V31.687h-23.32V51.61h-13.71V2.04h13.71z"/><circle cx="1562.02" cy="26.805" r="6"/><path clip-rule="evenodd" d="M1608.02 53.61V.04h17.71V18.28h19.32V.04h17.71v51.93L1687.02 0h17.13l24.1 52.063V.04h54.35v53.57h-17.75V14.977h-18.89v38.632h-35.85l-4.17-9.57h-21.47l-4.11 9.57h-35.31V33.687h-19.32V53.61h-17.71zm75.13-11.57h24.1l4.17 9.57h14.42L1702.87 2h-14.57l-23.17 49.61h13.91l4.11-9.57zm13.55-24.18l-.51-1.23c-.01-.007-.01-.013-.01-.02l-.03-.062c-.11-.266-.22-.506-.31-.72-.2-.512-.41-.978-.62-1.398-.02-.03-.03-.058-.05-.086h-.12c-.01.028-.03.057-.04.086-.22.42-.44.886-.66 1.398a129.235 129.235 0 01-.33.816v.016c-.15.355-.31.755-.49 1.2l-6.47 15.078h16.21l-6.57-15.079zm3.52 13.078l-5.1-11.699-5.03 11.698h10.13zm-76.49-28.899v18.242h23.32V2.04h13.71v49.57h-13.71V31.687h-23.32V51.61h-13.71V2.04h13.71zm120.23 49.57h-13.71V2.04h50.35v49.57h-13.75V12.977h-22.89v38.632zm100.59 2h-17.59l-.03-26.085-19.18 26.085h-18.56V.04h17.59v25.818L1826 .04h18.55v53.57zm-37.77-24.336c-.43.674-.77 1.245-1 1.711-.01.012-.02.024-.02.035-.03.055-.06.109-.08.16a14.98 14.98 0 00-.74 2.071h-.24c0-.023 0-.045.01-.067.02-.645.03-1.289.03-1.933v-.266c0-.074.01-.15.01-.227v-.022c.02-.61.03-1.29.03-2.043V2.039h-13.59v49.57h15.54l19.97-27.148c.07-.107.15-.213.23-.317.55-.774.94-1.458 1.17-2.052v-.014c.29-.703.54-1.38.74-2.031h.24v.075c0 .62-.03 1.262-.07 1.925 0 .036-.01.073-.01.11-.01.084-.01.171-.02.26v.02c-.04.66-.06 1.438-.06 2.33v.046l.04 26.796h13.59V2.04h-15.54l-19.92 26.758c-.11.164-.21.322-.31.476zM1851.22.039h17.63v38.633h12.53V.039h17.63v38.633h12.56V.039h17.63v53.57h-77.98V.04zm62.35 2h13.63v49.57h-73.98V2.04h13.63v38.633h16.53V2.039h13.63v38.633h16.56V2.039zm77.63 51.57h-17.6l-.03-26.085-19.18 26.085h-18.56V.04h17.59v25.818L1972.64.04h18.56v53.57zm-37.78-24.336c-.43.674-.77 1.245-1 1.711-.01.012-.02.024-.02.035-.03.055-.05.109-.08.16a14.98 14.98 0 00-.74 2.071h-.24c0-.023.01-.045.01-.067.02-.645.03-1.289.03-1.933v-.266c.01-.074.01-.15.01-.227v-.022c.02-.61.03-1.29.03-2.043V2.039h-13.59v49.57h15.55l19.96-27.148c.08-.107.15-.213.23-.317.55-.774.94-1.458 1.17-2.052v-.014c.29-.703.54-1.38.74-2.031h.24v.075c0 .62-.03 1.262-.07 1.925 0 .036-.01.073-.01.11-.01.084-.01.171-.02.26v.02c-.04.66-.06 1.438-.06 2.33v.046l.04 26.796h13.6V2.04h-15.55l-19.92 26.758c-.11.164-.21.322-.31.476zm39.71-14.375V.04h55.84V14.9h-18.95v38.71h-17.9V14.9h-18.99zm2-2V2.04h51.84V12.9h-18.95v38.71h-13.9V12.9h-18.99zm55.78 40.711V.04h47.2v14.742h-30.16v5.024h26.68v13.453h-26.68v6h30.75v14.351h-47.79zm45.79-12.351v10.351h-43.79V2.04h43.2v10.742h-30.16v9.024h26.68v9.453h-26.68v10h30.75zm27.57 12.351V.04h17.71v18.242h19.32V.04h17.71v51.93L2203.27 0h17.13l24.1 52.063V.04h20.59l17.11 30.296L2299.28.04h20.74v53.57h-17.43V27.856l-14.17 25.753h-12.83l-14.19-25.651.03 25.651h-35.07l-4.17-9.57h-21.47l-4.11 9.57h-35.31V33.687h-19.32V53.61h-17.71zm75.13-11.57h24.1l4.17 9.57h14.42L2219.12 2h-14.57l-23.17 49.61h13.91l4.11-9.57zm13.55-24.18l-.51-1.23c-.01-.006-.01-.012-.01-.018l-.03-.063c-.11-.266-.22-.506-.31-.72-.2-.512-.41-.978-.62-1.398-.02-.03-.03-.058-.05-.086h-.12c-.01.028-.03.057-.04.086-.22.42-.44.886-.66 1.398a129.235 129.235 0 01-.33.816v.016c-.15.355-.31.755-.49 1.2l-6.47 15.078h16.21l-6.57-15.079zm3.52 13.078l-5.1-11.698-5.03 11.698h10.13zm42.92-8.156c0-.521-.02-1.052-.06-1.593v-.03-.01c-.01-.067-.01-.135-.02-.203-.05-.612-.08-1.166-.11-1.663v-.095h.27c.18.515.37 1.08.58 1.697v.023c.21.598.46 1.21.75 1.835l.02.037v.002l15.95 28.828h10.47l15.94-28.984c.26-.573.49-1.146.7-1.719l.03-.066v-.003c.2-.55.4-1.113.6-1.689h.27v.094c-.03.543-.07 1.098-.12 1.664 0 .08-.01.162-.02.242v.034c-.04.485-.05.979-.05 1.482V51.61h13.43V2.04h-17.57l-16.8 29.805c-.13.269-.24.521-.35.758-.03.076-.07.15-.1.223l-.33.737c-.2.455-.39.945-.57 1.473-.01.017-.01.034-.02.05h-.12c0-.014-.01-.029-.01-.044-.21-.53-.41-1.023-.61-1.478l-.33-.738a1.897 1.897 0 01-.1-.223c-.11-.236-.23-.49-.35-.758l-16.84-29.805h-17.42v49.57h12.93l-.04-28.828zM2139.98 2.04v18.242h23.32V2.04h13.71v49.57h-13.71V31.687h-23.32V51.61h-13.71V2.04h13.71z"/><circle cx="2366.02" cy="26.805" r="6"/><defs><linearGradient id="upaint0_linear_517_4042" x1="676.108" y1="51.609" x2="-2.564" y2="-10.826" gradientUnits="userSpaceOnUse"><stop stop-color="#28AAB9"/><stop offset="1" stop-color="#30BCCC"/></linearGradient><linearGradient id="upaint1_linear_517_4042" x1="1480.12" y1="51.609" x2="801.443" y2="-10.826" gradientUnits="userSpaceOnUse"><stop stop-color="#28AAB9"/><stop offset="1" stop-color="#30BCCC"/></linearGradient><linearGradient id="upaint2_linear_517_4042" x1="2284.12" y1="51.609" x2="1605.45" y2="-10.826" gradientUnits="userSpaceOnUse"><stop stop-color="#28AAB9"/><stop offset="1" stop-color="#30BCCC"/></linearGradient></defs></symbol><symbol viewBox="0 0 2033 66" id="tickerTwo" xmlns="http://www.w3.org/2000/svg"><path clip-rule="evenodd" d="M9.355 49.059l-.008-.006C3.022 44.498 0 37.432 0 28.289v-1.406C0 17.906 3.034 10.96 9.356 6.464 15.468 2.111 23.047 0 31.961 0c8.913 0 16.491 2.11 22.603 6.463 6.348 4.494 9.397 11.44 9.397 20.42v1.406c0 9.146-3.038 16.212-9.39 20.766l-.004.004c-6.113 4.354-13.692 6.464-22.606 6.464-8.914 0-16.493-2.11-22.606-6.464zM53.406 8.094C47.703 4.03 40.555 2 31.961 2S16.219 4.031 10.516 8.094C4.839 12.13 2 18.394 2 26.883v1.406c0 8.672 2.839 15.052 8.516 19.14 5.703 4.063 12.851 6.094 21.445 6.094s15.742-2.03 21.445-6.093c5.703-4.089 8.555-10.47 8.555-19.14v-1.407c0-8.49-2.852-14.753-8.555-18.79zM21.78 16.423c-2.204 1.623-3.483 4.296-3.483 8.507v5.468c0 4.39 1.294 7.166 3.498 8.831 2.456 1.835 5.802 2.856 10.216 2.88 4.379.025 7.684-.984 10.103-2.831l.007-.006c2.242-1.696 3.543-4.48 3.543-8.834V24.93c0-4.213-1.28-6.866-3.473-8.461-2.433-1.77-5.776-2.77-10.208-2.82-4.443-.024-7.777.965-10.194 2.767l-.01.007zM32 11.648c4.714.053 8.503 1.12 11.367 3.204 2.865 2.083 4.297 5.442 4.297 10.078v5.508c0 4.765-1.445 8.242-4.336 10.43-2.864 2.187-6.64 3.267-11.328 3.241-4.713-.026-8.516-1.12-11.406-3.28-2.865-2.162-4.297-5.639-4.297-10.43v-5.47c0-4.635 1.432-8.007 4.297-10.116 2.864-2.136 6.666-3.19 11.406-3.165zm35.617 42.899V.977h67.204l13.537 21.446c.104.152.205.301.302.449l.265-.429L161.682.977h34.31v14.46c0 4.023.868 6.087 1.926 7.004 1.189 1.029 3.508 1.778 7.48 1.778 2.778 0 5.392-.128 7.842-.38h.002c.18-.019.363-.038.547-.059V.977H231.5v51.93L255.766.936h17.121l24.105 52.064V.977h47.203v14.742h-30.156v5.023h26.68v13.453h-26.68v6h30.742v14.352h-65.926l-4.176-9.57h-21.47l-4.11 9.57h-35.31V38.655c-.26.034-.517.067-.773.097h-.008l-.008.002c-2.92.321-6.027.48-9.32.48-8.614 0-15.26-1.597-19.411-5.267-4.199-3.712-6.041-9.518-5.988-16.895V3.886L156.82 38.608c-3.395 5.422-6.539 9.584-9.438 12.401-3.202 3.138-7.725 4.553-13.234 4.553-1.698 0-3.158-.093-4.337-.304-1.093-.197-2.068-.45-2.877-.787l-1.231-.513v-15.73l2.568.76c.596.177 1.235.313 1.919.404.702.09 1.537.14 2.513.14 1.753 0 3.062-.313 4.025-.823l.007-.004.007-.003c.446-.231 1.004-.697 1.662-1.478L115.562 1.64v13.922H85.328v2.055h12.766c6.967 0 12.503 1.483 16.163 4.868 3.599 3.33 5.329 7.803 5.329 13.187 0 5.677-1.77 10.375-5.477 13.843-3.723 3.48-9.208 5.032-16.054 5.032H67.617zm73.229-17.22c-.16.225-.319.44-.477.645-.284.37-.565.703-.842 1.001-.642.69-1.263 1.192-1.863 1.504-1.328.703-2.982 1.054-4.961 1.054-1.042 0-1.966-.052-2.773-.156a14.507 14.507 0 01-2.227-.469v11.719c.625.26 1.445.482 2.461.664 1.016.182 2.344.273 3.984.273 5.183 0 9.128-1.328 11.836-3.984 2.735-2.656 5.782-6.667 9.141-12.031l21.367-34.57H162.82l-12.187 20.507c-.36.576-.645 1.052-.856 1.43-.094.168-.174.317-.238.445-.175.375-.409.953-.704 1.734l-.038.102h-.195a84.976 84.976 0 00-.821-1.836 4.383 4.383 0 00-.225-.463 17 17 0 00-.868-1.373L133.719 2.977h-14.922l22.049 34.35zm39.435-20.249c-.052 7.084 1.719 12.214 5.313 15.39 3.594 3.178 9.622 4.766 18.086 4.766 3.229 0 6.263-.156 9.101-.468a65.134 65.134 0 003.008-.433v16.214H229.5V2.977h-13.711v22.569a68.905 68.905 0 01-2.344.282c-2.526.26-5.208.39-8.047.39-4.114 0-7.044-.755-8.789-2.265-1.744-1.51-2.617-4.349-2.617-8.515V2.976h-13.711v14.101zm71.61 25.899h24.097l4.176 9.57h14.414l-22.969-49.61h-14.57l-23.164 49.61h13.906l4.11-9.57zm13.547-24.18a79.405 79.405 0 00-.511-1.23l-.007-.019a44.947 44.947 0 00-.342-.783 13.439 13.439 0 00-.664-1.484h-.117l-.045.086c-.22.42-.439.887-.658 1.399l-.268.667-.06.148-.007.017-.486 1.199-6.474 15.078h16.218l-6.579-15.078zm3.524 13.078l-5.105-11.698-5.023 11.698h10.128zm-156.22 16.18c-3.203 2.995-8.099 4.492-14.687 4.492H69.617V2.977h43.945v10.585H83.328v6.055h14.766c6.745 0 11.679 1.445 14.804 4.336 3.125 2.89 4.688 6.797 4.688 11.719 0 5.234-1.615 9.362-4.844 12.383zm-10.703-17.657c-1.276-1.432-3.568-2.148-6.875-2.148H83.328v15.156h11.836c3.307 0 5.599-.677 6.875-2.031 1.276-1.354 1.914-3.203 1.914-5.547 0-2.213-.638-4.023-1.914-5.43zm-16.71 11.008h9.835c3.153 0 4.727-.668 5.419-1.403.842-.893 1.37-2.203 1.37-4.175 0-1.804-.507-3.107-1.395-4.086l-.006-.006-.006-.007c-.697-.782-2.254-1.479-5.382-1.479h-9.836v11.156zm257.452.79v10.35h-43.789V2.977h43.203V13.72h-30.156v9.023h26.68v9.453h-26.68v10h30.742zm5.383 12.35V.977h20.589l17.114 30.297L402.941.977h20.747v53.57H406.25V28.793l-14.161 25.754h-12.83l-14.197-25.652.034 25.652h-16.932zm14.891-30.827a21.62 21.62 0 00-.062-1.623v-.01l-.016-.203a61.005 61.005 0 01-.118-1.758h.274c.18.515.373 1.08.578 1.697l.001.002.007.02c.208.599.455 1.21.742 1.836l15.977 28.867h10.468l15.938-28.984c.26-.573.495-1.146.703-1.72l.024-.065.001-.003c.2-.551.4-1.114.6-1.69h.273l-.004.095a43.406 43.406 0 01-.133 1.906l-.003.034c-.037.484-.055.978-.055 1.482v28.945h13.438V2.977h-17.579L387.312 32.78a134.43 134.43 0 00-.781 1.719 17.01 17.01 0 00-.569 1.472l-.017.051h-.117l-.017-.044a30.253 30.253 0 00-.608-1.479 81.235 81.235 0 00-.332-.738l-.101-.223-.348-.758-16.836-29.804h-17.422v49.57h12.93l-.039-28.828zm89.484 30.828V.977h54.352v53.57h-17.75V15.914H470.25v38.633h-17.711zm15.711-2h-13.711V2.977h50.352v49.57h-13.75V13.914H468.25v38.633zm45.227 2V.977h47.203v14.742h-30.157v5.023h26.68v13.453h-26.68v6h30.743v14.352h-47.789zm45.789-12.352v10.352h-43.789V2.977h43.203v10.742h-30.157v9.023h26.68v9.453h-26.68v10h30.743zm5.382 12.352V.977h31.493c6.801 0 12.273 1.644 16.037 5.287 3.749 3.603 5.533 8.476 5.533 14.369 0 5.842-1.757 10.738-5.413 14.483-3.727 3.818-9.338 5.525-16.392 5.525h-13.547v13.906h-17.711zm46.141-46.844c-3.255-3.15-8.138-4.726-14.648-4.726h-29.493v49.57h13.711V38.64h15.547c6.771 0 11.758-1.641 14.961-4.922 3.229-3.308 4.844-7.67 4.844-13.086 0-5.469-1.641-9.779-4.922-12.93zm-10.859 7.422c-1.381-1.432-3.789-2.148-7.227-2.148h-12.344v16.328h12.344c3.438 0 5.846-.768 7.227-2.305 1.38-1.537 2.07-3.568 2.07-6.094 0-2.448-.69-4.375-2.07-5.781zm-17.571 12.18h10.344c3.233 0 4.927-.738 5.739-1.642.981-1.091 1.558-2.609 1.558-4.757 0-2.058-.569-3.434-1.498-4.38l-.006-.007-.006-.006c-.807-.837-2.523-1.536-5.787-1.536h-10.344v12.328zm45.506 21.722l-.009-.007c-5.988-4.564-8.834-11.537-8.834-20.497v-1.562c0-9.092 2.915-16.103 9.068-20.564C634.041 2.073 641.662 0 650.787 0c8.742 0 15.692 1.504 20.569 4.793 4.953 3.314 7.832 8.397 8.756 14.976l.012.089.145 2.895c.817-6.996 3.809-12.51 9.125-16.29C695.506 2.11 703.085 0 711.998 0c8.913 0 16.492 2.11 22.604 6.463 6.348 4.494 9.396 11.44 9.396 20.42v1.406c0 9.146-3.037 16.212-9.389 20.766l-.005.004c-6.112 4.354-13.692 6.464-22.606 6.464-8.913 0-16.493-2.11-22.605-6.464l-.009-.006c-5.309-3.824-8.291-9.417-9.112-16.522l-.104 3.599-.004.047c-.486 6.298-3.255 11.228-8.312 14.561-4.955 3.284-12.058 4.785-21.025 4.785-9.399 0-17.121-2.094-22.962-6.496zm42.883.043c4.506-2.968 6.98-7.317 7.422-13.047l.078-2.695h-13.32l-.078 2.305c-.313 2.812-1.536 4.935-3.672 6.367-2.109 1.406-5.456 2.11-10.039 2.11-4.792 0-8.581-1.107-11.367-3.32-2.787-2.215-4.18-5.639-4.18-10.274V24.93c0-4.193 1.354-7.461 4.063-9.805 2.734-2.37 6.549-3.555 11.445-3.555 4.375 0 7.604.742 9.687 2.227 2.11 1.458 3.438 3.385 3.985 5.781l.117 2.813h13.359l-.117-2.344c-.859-6.12-3.489-10.651-7.89-13.594C665.84 3.484 659.355 2 650.787 2c-8.828 0-16.002 2.005-21.523 6.016-5.495 3.984-8.242 10.3-8.242 18.945v1.562c0 8.516 2.682 14.818 8.047 18.907 5.39 4.062 12.643 6.093 21.758 6.093 8.802 0 15.442-1.484 19.921-4.453zm-7.966-29.216c-.453-1.807-1.466-3.26-3.132-4.412l-.012-.008-.011-.008c-1.579-1.125-4.304-1.856-8.527-1.856-4.586 0-7.876 1.108-10.135 3.066l-.002.001c-2.192 1.898-3.371 4.571-3.371 8.293v5.586c0 4.225 1.252 6.982 3.424 8.707 2.327 1.849 5.627 2.886 10.123 2.886 4.461 0 7.316-.7 8.925-1.77 1.577-1.057 2.523-2.6 2.79-4.855l.141-4.156h17.16a38.523 38.523 0 01-.118-3.039v-1.406c0-.85.028-1.68.082-2.492h-17.148l-.189-4.537zm70.662-11.76C727.741 4.03 720.592 2 711.998 2c-8.593 0-15.742 2.031-21.445 6.094-5.677 4.036-8.516 10.3-8.516 18.789v1.406c0 8.672 2.839 15.052 8.516 19.14 5.703 4.063 12.852 6.094 21.445 6.094 8.594 0 15.743-2.03 21.446-6.093 5.703-4.089 8.554-10.47 8.554-19.14v-1.407c0-8.49-2.851-14.753-8.554-18.79zm-31.617 8.322l-.01.007c-2.203 1.623-3.483 4.296-3.483 8.507v5.468c0 4.39 1.295 7.167 3.499 8.832 2.456 1.834 5.802 2.855 10.216 2.88 4.378.024 7.683-.985 10.103-2.832l.007-.006c2.241-1.696 3.543-4.48 3.543-8.834V24.93c0-4.213-1.28-6.866-3.474-8.461-2.432-1.77-5.776-2.77-10.207-2.82-4.444-.024-7.778.965-10.194 2.767zm10.21-4.768c4.714.053 8.503 1.12 11.368 3.204 2.864 2.083 4.297 5.442 4.297 10.078v5.508c0 4.765-1.446 8.242-4.336 10.43-2.865 2.187-6.641 3.267-11.329 3.241-4.713-.026-8.515-1.12-11.406-3.28-2.864-2.162-4.297-5.639-4.297-10.43v-5.47c0-4.635 1.433-8.007 4.297-10.116 2.865-2.136 6.667-3.19 11.406-3.165zm35.618 42.899V.977h17.711v18.242h19.32V.977h17.711v51.93L826.662.936h17.122l23.739 51.274V37.396l2.603.822c.393.124.766.215 1.118.277.37.038.797.06 1.287.06 1.983 0 2.884-.635 3.368-1.508l.005-.01c.74-1.32 1.368-3.812 1.703-7.76l.002-.023L879.321.977h47.124v53.57h-17.711V15.914h-13.912l-1.077 14.98v.001c-.506 6.954-1.874 12.717-4.205 17.185-2.582 4.973-7.465 7.248-13.923 7.248-1.626 0-2.984-.066-4.033-.215l-.008-.002a17.874 17.874 0 01-2.641-.574l-.391-.12.061.13h-18.854l-4.175-9.57h-21.471l-4.109 9.57h-35.31V34.625h-19.32v19.922h-17.711zm75.133-11.57h24.097l4.176 9.57h14.414l-22.969-49.61h-14.57l-23.164 49.61h13.906l4.11-9.57zm13.546-24.18a71.166 71.166 0 00-.518-1.249l-.026-.063a44.947 44.947 0 00-.315-.72 13.439 13.439 0 00-.664-1.484h-.117l-.045.086c-.22.42-.439.887-.658 1.399l-.269.667-.059.148-.007.017-.486 1.199-6.474 15.078h16.218l-6.58-15.078zm3.525 13.078l-5.105-11.698-5.023 11.698h10.128zm47.907 15.281c2.161-4.14 3.489-9.61 3.984-16.406l1.211-16.836h17.773v38.633h13.711V2.977h-43.242l-1.601 26.445c-.339 4.01-.99 6.875-1.954 8.594-.937 1.692-2.643 2.539-5.117 2.539-.356 0-.692-.01-1.008-.03a11.758 11.758 0 01-.554-.048 10.607 10.607 0 01-1.446-.352v12.5c.678.208 1.459.378 2.344.508.912.13 2.162.195 3.75.195 5.964 0 10.013-2.057 12.149-6.172zm-124.4-44.18V21.22h23.32V2.977h13.711v49.57h-13.711V32.625h-23.32v19.922h-13.711V2.977h13.711z"/><circle cx="972.445" cy="28" r="6"/><path clip-rule="evenodd" d="M1064.8 54.547l25.03-53.61h17.12l24.82 53.61h-18.85l-4.18-9.57h-21.47l-4.11 9.57h-18.36zm21.15-11.57h24.1l4.18 9.57h14.41l-22.97-49.61h-14.57l-23.16 49.61h13.9l4.11-9.57zm13.55-24.18l-.51-1.23c0-.007-.01-.013-.01-.019-.01-.021-.02-.042-.02-.063-.12-.266-.22-.506-.32-.72-.19-.511-.4-.977-.62-1.398-.01-.029-.03-.057-.04-.086h-.12c-.02.029-.03.057-.05.086-.22.42-.43.887-.65 1.399a129.235 129.235 0 01-.33.815c0 .006-.01.011-.01.017-.14.355-.3.755-.48 1.199l-6.48 15.078h16.22l-6.58-15.078zm3.52 13.078l-5.1-11.698-5.02 11.698h10.12zm39.18 3.523c.07 3.125 1.21 5.339 3.39 6.641 2.19 1.276 5.47 1.914 9.85 1.914 3.96 0 6.87-.612 8.75-1.836 1.9-1.224 2.85-2.825 2.85-4.804 0-1.876-.73-3.217-2.19-4.024-1.46-.833-3.97-1.25-7.54-1.25h-9.76v-9.61h9.53c3.07 0 5.26-.403 6.56-1.21 1.33-.808 2.01-2.279 2.03-4.414 0-1.64-.81-2.917-2.42-3.828-1.61-.912-4.27-1.368-7.97-1.368-4.17 0-7.29.638-9.37 1.914-2.06 1.25-3.14 3.178-3.25 5.782l-.07 1.21h-12.93l.04-1.288c0-.24.02-.477.03-.711.38-5.15 2.68-9.131 6.92-11.946 4.45-2.968 10.73-4.453 18.83-4.453 7.89 0 13.82 1.25 17.81 3.75 4.01 2.474 6.01 5.677 6.01 9.61-.02 2.708-.79 4.921-2.3 6.64-.91 1.032-2.04 1.9-3.41 2.603a16.872 16.872 0 01-3.04 1.186v.117a16.335 16.335 0 013.15.86c1.71.662 3.16 1.6 4.35 2.812 1.91 1.875 2.86 4.519 2.86 7.93 0 4.297-2.31 8.008-6.92 11.133-4.58 3.099-10.75 4.648-18.51 4.648-8.28 0-14.72-1.419-19.3-4.258-4.42-2.76-6.78-7.067-7.08-12.921-.02-.222-.02-.446-.03-.672l-.04-1.328h13.13l.04 1.171zm-15.13.207l-.1-3.378h17.12l.1 3.113v.008c.07 2.614.97 4.1 2.42 4.968 1.73 1.008 4.59 1.637 8.83 1.637 3.83 0 6.27-.607 7.65-1.51l.01-.008c1.43-.917 1.94-1.93 1.94-3.123 0-1.257-.43-1.868-1.16-2.273l-.01-.007-.01-.006c-.97-.554-3.02-.987-6.55-.987h-11.76V20.43h11.53c3.01 0 4.71-.414 5.51-.91v-.005l.01-.004c.53-.322 1.05-.995 1.07-2.717 0-.807-.32-1.465-1.4-2.075-1.14-.644-3.36-1.109-6.99-1.109-4.03 0-6.71.629-8.33 1.62l-.01.004c-1.43.869-2.2 2.151-2.28 4.152v.024l-.2 3.107h-16.87l.11-3.358v-.007c.23-6.111 2.86-10.933 7.84-14.246 4.91-3.273 11.63-4.788 19.94-4.788 8.03 0 14.41 1.261 18.87 4.052 4.46 2.754 6.95 6.537 6.95 11.308v.019c-.03 3.095-.91 5.799-2.8 7.941-.75.855-1.62 1.601-2.59 2.245 1.32.682 2.52 1.545 3.56 2.6 2.37 2.346 3.44 5.558 3.44 9.343 0 5.153-2.82 9.414-7.8 12.788v.002c-5.02 3.396-11.63 4.991-19.63 4.991-8.47 0-15.33-1.444-20.35-4.557l-.01-.005c-5.24-3.276-7.88-8.483-8.05-15.235v-.004zm58.59 18.942V.977h30.48c5.99 0 10.81 1.114 14.09 3.71 3.33 2.612 4.94 6.283 4.94 10.75 0 3.232-.86 6.077-2.7 8.393-.68.86-1.44 1.617-2.28 2.267a14.51 14.51 0 013.89 2.81c2.45 2.426 3.55 5.756 3.55 9.695 0 5.039-1.94 9.105-5.87 11.934-3.8 2.745-8.79 4.01-14.76 4.01h-31.34zm47-24.227c-1.26-1.284-2.76-2.26-4.49-2.93-.92-.36-1.91-.63-2.97-.813-.01-.002-.02-.005-.04-.007v-.117l.03-.006c1.01-.306 1.94-.721 2.79-1.246a11.3 11.3 0 002.93-2.615c1.51-1.901 2.26-4.284 2.26-7.148 0-3.933-1.39-6.993-4.18-9.18-2.76-2.188-7.04-3.281-12.85-3.281h-28.48v49.57H1217c5.7 0 10.23-1.211 13.59-3.633 3.36-2.422 5.04-5.86 5.04-10.312 0-3.568-.99-6.329-2.97-8.282zm-12.96 2.422c-1.38-1.094-3.39-1.64-6.02-1.64h-12.7v12.343h12.7c2.63 0 4.64-.508 6.02-1.523 1.38-1.042 2.07-2.578 2.07-4.61 0-1.979-.69-3.502-2.07-4.57zm-1.2 7.576c.78-.595 1.27-1.484 1.27-3.005 0-1.455-.48-2.354-1.3-2.989l-.01-.007-.01-.007c-.89-.705-2.38-1.208-4.77-1.208h-10.7v8.343h10.7c2.41 0 3.92-.47 4.82-1.127zm77.84 14.229h-17.59l-.04-26.086-19.17 26.086h-18.56V.977h17.59v25.818L1277.79.977h18.55v53.57zm-37.77-24.337c-.43.674-.77 1.245-1 1.712-.01.012-.02.023-.02.035-.03.055-.06.108-.08.16a14.98 14.98 0 00-.74 2.07h-.24v-.067c.03-.644.04-1.288.04-1.932v-.266c0-.075.01-.15.01-.228v-.021c.02-.61.03-1.291.03-2.044V2.977h-13.59v49.57h15.54l19.96-27.149c.08-.107.16-.212.23-.316.55-.774.94-1.459 1.18-2.053v-.013c.29-.703.53-1.38.74-2.032h.24v.075c0 .62-.03 1.262-.07 1.925-.01.037-.01.073-.01.11-.01.085-.01.171-.02.26v.02c-.04.661-.06 1.438-.06 2.331v.045l.04 26.797h13.59V2.977h-15.54l-19.92 26.757c-.11.164-.22.323-.31.476zm44.44 24.337V.977h30.47c5.99 0 10.82 1.114 14.09 3.71 3.33 2.612 4.95 6.283 4.95 10.75 0 3.232-.86 6.077-2.7 8.393-.69.86-1.45 1.617-2.28 2.267 1.44.717 2.74 1.652 3.88 2.81 2.46 2.426 3.56 5.756 3.56 9.695 0 5.039-1.95 9.105-5.87 11.934-3.81 2.745-8.8 4.01-14.77 4.01h-31.33zm47-24.227a12.754 12.754 0 00-4.49-2.93 15.63 15.63 0 00-2.98-.813l-.03-.007v-.117c0-.002.01-.004.02-.006 1.01-.306 1.94-.721 2.8-1.246a11.26 11.26 0 002.92-2.615c1.51-1.901 2.27-4.284 2.27-7.148 0-3.933-1.4-6.993-4.18-9.18-2.76-2.188-7.05-3.281-12.86-3.281h-28.47v49.57h29.33c5.71 0 10.24-1.211 13.6-3.633 3.36-2.422 5.04-5.86 5.04-10.312 0-3.568-.99-6.329-2.97-8.282zm-12.97 2.422c-1.38-1.094-3.39-1.64-6.02-1.64h-12.69v12.343h12.69c2.63 0 4.64-.508 6.02-1.523 1.38-1.042 2.07-2.578 2.07-4.61 0-1.979-.69-3.502-2.07-4.57zm-1.2 7.576c.79-.595 1.27-1.484 1.27-3.005 0-1.455-.47-2.354-1.29-2.989l-.01-.007-.01-.007c-.89-.705-2.38-1.208-4.78-1.208h-10.69v8.343h10.69c2.41 0 3.93-.47 4.82-1.127zm15.05 14.229l25.03-53.61h17.12l24.11 52.064V.977h47.2v14.742h-30.15v5.023h26.68v13.453h-26.68v6h30.74v14.352h-65.93l-4.18-9.57h-21.47l-4.1 9.57h-18.37zm21.16-11.57h24.09l4.18 9.57h14.41l-22.96-49.61h-14.57l-23.17 49.61h13.91l4.11-9.57zm13.54-24.18c-.18-.457-.35-.867-.51-1.23v-.019l-.03-.063c-.11-.266-.22-.506-.32-.72-.19-.511-.4-.977-.61-1.398-.02-.029-.03-.057-.05-.086h-.12c-.01.029-.03.057-.04.086-.22.42-.44.887-.66 1.399a129.235 129.235 0 01-.33.815v.017c-.15.355-.31.755-.49 1.199l-6.47 15.078h16.21l-6.58-15.078zm3.53 13.078l-5.11-11.698-5.02 11.698h10.13zm73.82 10.32v10.352h-43.79V2.977h43.2v10.742h-30.15v9.023h26.68v9.453h-26.68v10h30.74zm5.38 12.352V.977h20.59l17.11 30.296L1523.1.977h20.74v53.57h-17.43V28.793l-14.16 25.754h-12.84l-14.19-25.652.03 25.652h-16.93zm14.89-30.828c0-.522-.02-1.053-.06-1.594v-.029-.01c-.01-.068-.01-.135-.02-.203-.05-.612-.08-1.167-.11-1.664v-.094h.27c.18.515.37 1.08.58 1.697v.002c0 .007 0 .013.01.02.2.599.45 1.21.74 1.836l15.97 28.867h10.47L1527 23.563c.26-.573.49-1.146.7-1.72l.03-.065v-.003c.2-.551.4-1.114.6-1.69h.27v.095c-.03.543-.07 1.097-.12 1.664 0 .08-.01.161-.02.242v.034c-.04.484-.05.978-.05 1.482v28.945h13.43V2.977h-17.57l-16.8 29.804c-.13.27-.24.522-.35.758-.03.076-.07.15-.1.223l-.33.738c-.2.454-.39.945-.57 1.472-.01.017-.01.034-.02.051h-.12c0-.015-.01-.03-.01-.044-.21-.53-.41-1.023-.61-1.479l-.33-.738a1.897 1.897 0 01-.1-.223c-.11-.236-.23-.489-.35-.758l-16.84-29.804h-17.42v49.57h12.93l-.04-28.828zm89.49 30.828V.977h54.35v53.57h-17.75V15.914h-18.89v38.633h-17.71zm15.71-2h-13.71V2.977h50.35v49.57h-13.75V13.914h-22.89v38.633zm45.22 2V.977h31.49c6.81 0 12.28 1.644 16.04 5.287 3.75 3.603 5.54 8.476 5.54 14.369 0 5.842-1.76 10.738-5.42 14.483-3.72 3.818-9.34 5.525-16.39 5.525h-13.55v13.906h-17.71zm46.14-46.844c-3.25-3.15-8.13-4.726-14.65-4.726h-29.49v49.57h13.71V38.64h15.55c6.77 0 11.76-1.641 14.96-4.922 3.23-3.308 4.85-7.67 4.85-13.086 0-5.469-1.65-9.779-4.93-12.93zm-10.86 7.422c-1.38-1.432-3.79-2.148-7.22-2.148h-12.35v16.328h12.35c3.43 0 5.84-.768 7.22-2.305 1.38-1.537 2.07-3.568 2.07-6.094 0-2.448-.69-4.375-2.07-5.781zm-17.57 12.18h10.35c3.23 0 4.92-.738 5.74-1.642.98-1.091 1.55-2.609 1.55-4.757 0-2.058-.56-3.434-1.49-4.38l-.01-.007-.01-.006c-.8-.837-2.52-1.536-5.78-1.536h-10.35v12.328zm44.42 21.754l-.01-.006c-6.32-4.555-9.34-11.621-9.34-20.764v-1.406c0-8.977 3.03-15.924 9.35-20.42C1701.88 2.11 1709.45 0 1718.37 0c8.91 0 16.49 2.11 22.6 6.463 6.35 4.494 9.4 11.44 9.4 20.42v1.406c0 9.146-3.04 16.212-9.39 20.766l-.01.004c-6.11 4.354-13.69 6.464-22.6 6.464-8.92 0-16.5-2.11-22.61-6.464zm44.05-40.965C1734.11 4.03 1726.96 2 1718.37 2c-8.6 0-15.75 2.031-21.45 6.094-5.68 4.036-8.51 10.3-8.51 18.789v1.406c0 8.672 2.83 15.052 8.51 19.14 5.7 4.063 12.85 6.094 21.45 6.094 8.59 0 15.74-2.03 21.44-6.093 5.71-4.089 8.56-10.47 8.56-19.14v-1.407c0-8.49-2.85-14.753-8.56-18.79zm-31.61 8.322l-.01.007c-2.21 1.623-3.49 4.296-3.49 8.507v5.468c0 4.39 1.3 7.167 3.5 8.832 2.46 1.834 5.8 2.855 10.22 2.88 4.38.024 7.68-.985 10.1-2.832l.01-.006c2.24-1.696 3.54-4.48 3.54-8.834V24.93c0-4.213-1.28-6.866-3.47-8.461-2.44-1.77-5.78-2.77-10.21-2.82-4.44-.024-7.78.965-10.19 2.767zm10.21-4.768c-4.74-.026-8.55 1.03-11.41 3.165-2.86 2.109-4.3 5.481-4.3 10.117v5.468c0 4.792 1.44 8.269 4.3 10.43 2.89 2.162 6.69 3.255 11.41 3.281 4.68.026 8.46-1.054 11.32-3.242 2.89-2.187 4.34-5.664 4.34-10.43V24.93c0-4.636-1.43-7.995-4.3-10.078-2.86-2.084-6.65-3.152-11.36-3.204zm79.91 54.032V54.547h-32.48V65.68h-16.74V39.61h6.36c.59-1.44 1.07-2.85 1.45-4.227v-.015c.8-2.873 1.36-6.863 1.65-12.032v-.016l1.41-22.343h48.25v38.632h6.83v26.07h-16.73zm7.9-24.07V2.976h-44.38l-1.29 20.468c-.28 5.235-.85 9.388-1.71 12.461a35.878 35.878 0 01-1.23 3.703c-.26.663-.53 1.33-.83 2h-5.68v22.07h12.74V52.548h36.48V63.68h12.73V41.61h-6.83zm-35.86-2c-.21.678-.43 1.345-.67 2h22.82V13.913h-18.79l-.86 10.313c-.52 5.625-1.13 9.934-1.84 12.93-.19.833-.42 1.651-.66 2.452zm5.2-23.696l-.71 8.479v.018c-.52 5.654-1.14 10.072-1.88 13.202v.004c-.16.674-.33 1.338-.52 1.992h18.06V15.914h-14.95zm44.75 22.314l2.57.76c.6.177 1.24.313 1.92.404.7.09 1.54.14 2.51.14 1.76 0 3.06-.313 4.03-.823v-.004l.01-.003c.45-.231 1.01-.697 1.66-1.478L1809.75.977h19.68l13.54 21.446c.1.152.2.302.3.449.08-.138.17-.281.26-.428.01-.007.01-.013.02-.02L1856.29.977h35.37v19.18h2.11l17.54-19.18h71.48v14.859h-18.95v38.71h-17.9v-38.71h-18.99V7.275l-18.05 19.197 25.95 28.075h-22.59l-17.92-19.375h-2.68v19.375h-17.71V2.18l-22.52 36.428c-3.4 5.423-6.54 9.586-9.44 12.403-3.2 3.137-7.72 4.551-13.23 4.551-1.7 0-3.16-.093-4.34-.304-1.09-.197-2.07-.45-2.88-.787l-1.23-.513v-15.73zm20.28 11.35c2.74-2.656 5.79-6.667 9.14-12.031l21.37-34.57h-13.67l-12.19 20.507c-.36.576-.64 1.052-.85 1.43-.1.168-.18.317-.24.445-.18.375-.41.953-.71 1.734l-.03.102h-.2a.332.332 0 00-.04-.087c-.34-.789-.6-1.372-.78-1.749-.05-.13-.13-.284-.22-.463-.2-.359-.49-.817-.87-1.373l-12.97-20.546h-14.92l22.05 34.35a18.871 18.871 0 01-1.32 1.647c-.65.69-1.27 1.19-1.87 1.503-1.32.703-2.98 1.054-4.96 1.054-1.04 0-1.96-.052-2.77-.156a14.605 14.605 0 01-2.23-.469v11.719c.63.26 1.45.482 2.46.664 1.02.182 2.35.273 3.99.273 5.18 0 9.13-1.328 11.83-3.984zm49.07-16.406h5.56l17.91 19.375h17.15l-24.12-26.087 22.09-23.483h-16.05l-17.54 19.18h-5V2.976h-13.71v49.57h13.71V33.172zm39.29-19.336h18.99v38.71h13.9v-38.71h18.95V2.976h-51.84v10.86zm-725.97.672v7.328h9.96c2.32 0 3.55-.492 4.16-1.042.64-.579 1.06-1.459 1.06-2.935 0-1.342-.4-2.024-.94-2.44-.62-.478-1.9-.911-4.28-.911h-9.96zm117.35 0v7.328h9.95c2.33 0 3.56-.492 4.16-1.042.64-.579 1.07-1.459 1.07-2.935 0-1.342-.41-2.024-.94-2.44-.62-.478-1.91-.911-4.29-.911h-9.95zm-119.35 9.328h11.96c2.52 0 4.36-.52 5.51-1.563 1.14-1.041 1.71-2.513 1.71-4.414 0-1.797-.57-3.138-1.71-4.023-1.15-.886-2.99-1.328-5.51-1.328h-11.96v11.328zm117.35 0h11.95c2.53 0 4.36-.52 5.51-1.563 1.14-1.041 1.72-2.513 1.72-4.414 0-1.797-.58-3.138-1.72-4.023-1.15-.886-2.98-1.328-5.51-1.328h-11.95v11.328z"/><path clip-rule="evenodd" d="M1016.65 54.547V.977h31.49c6.8 0 12.27 1.644 16.04 5.287 3.75 3.603 5.53 8.476 5.53 14.369 0 5.842-1.76 10.738-5.41 14.483-3.73 3.818-9.34 5.525-16.39 5.525h-13.55v13.906h-17.71zm46.14-46.844c-3.26-3.15-8.14-4.726-14.65-4.726h-29.49v49.57h13.71V38.64h15.55c6.77 0 11.75-1.641 14.96-4.922 3.23-3.308 4.84-7.67 4.84-13.086 0-5.469-1.64-9.779-4.92-12.93zm-10.86 7.422c-1.38-1.432-3.79-2.148-7.23-2.148h-12.34v16.328h12.34c3.44 0 5.85-.768 7.23-2.305 1.38-1.537 2.07-3.568 2.07-6.094 0-2.448-.69-4.375-2.07-5.781zm-17.57 12.18h10.34c3.24 0 4.93-.738 5.74-1.642.98-1.091 1.56-2.609 1.56-4.757 0-2.058-.57-3.434-1.5-4.38v-.007l-.01-.006c-.81-.837-2.52-1.536-5.79-1.536h-10.34v12.328z"/><circle cx="2026.79" cy="28" r="6"/><defs><linearGradient id="vpaint0_linear_517_4029" x1="873.877" y1="45.184" x2="24.29" y2="-110.392" gradientUnits="userSpaceOnUse"><stop stop-color="#28AAB9"/><stop offset="1" stop-color="#30BCCC"/></linearGradient><linearGradient id="vpaint1_linear_517_4029" x1="1927.97" y1="53.411" x2="1035.56" y2="-90.757" gradientUnits="userSpaceOnUse"><stop stop-color="#28AAB9"/><stop offset="1" stop-color="#30BCCC"/></linearGradient><linearGradient id="vpaint2_linear_517_4029" x1="1927.97" y1="53.411" x2="1035.56" y2="-90.757" gradientUnits="userSpaceOnUse"><stop stop-color="#28AAB9"/><stop offset="1" stop-color="#30BCCC"/></linearGradient></defs></symbol><symbol viewBox="0 0 20 21" id="tw" xmlns="http://www.w3.org/2000/svg"><path clip-rule="evenodd" d="M9.759 6.913l.036.618-.602-.075C7 7.166 5.086 6.182 3.46 4.53l-.794-.82-.205.606c-.434 1.35-.157 2.774.746 3.732.482.53.374.606-.457.29-.29-.1-.542-.176-.566-.138-.084.088.205 1.236.433 1.69.313.63.952 1.248 1.65 1.614l.59.29-.698.012c-.675 0-.699.013-.626.278.24.82 1.192 1.69 2.252 2.068l.746.264-.65.404a6.598 6.598 0 01-3.227.933c-.542.013-.988.063-.988.101 0 .126 1.47.832 2.324 1.11 2.565.82 5.612.466 7.9-.933 1.626-.997 3.252-2.976 4.01-4.893.41-1.021.82-2.888.82-3.783 0-.58.035-.656.71-1.35.397-.403.77-.844.843-.97.12-.24.108-.24-.506-.026-1.024.379-1.168.328-.662-.24.373-.403.819-1.134.819-1.349 0-.037-.181.026-.386.14-.217.125-.698.314-1.06.428l-.65.214-.59-.416c-.325-.227-.783-.479-1.024-.555-.614-.176-1.553-.151-2.107.05a3.612 3.612 0 00-2.348 3.632z"/></symbol><symbol viewBox="0 0 20 21" id="vk" xmlns="http://www.w3.org/2000/svg"><path d="M10.8 15.546c-6.078 0-9.544-4.166-9.689-11.1h3.045c.1 5.09 2.344 7.245 4.122 7.69v-7.69h2.867v4.39c1.755-.19 3.6-2.19 4.222-4.39h2.866a8.465 8.465 0 01-3.9 5.534 8.778 8.778 0 014.567 5.566h-3.155a5.49 5.49 0 00-4.6-3.966v3.966H10.8z"/></symbol></svg>