<?xml version="1.0" encoding="utf-8"?><svg xmlns="http://www.w3.org/2000/svg" xmlns:xlink="http://www.w3.org/1999/xlink"><symbol fill="none" viewBox="0 0 85 22" id="MarkWeber" xmlns="http://www.w3.org/2000/svg"><g clip-path="url(#aclip0_463_502)" fill-rule="evenodd" clip-rule="evenodd"><path d="M45.7 5.087c.204.211 2.044 5.247 2.236 5.868.192.666.462 1.305.806 1.903.637.149.697-.51.89-1.032 1.046-2.823 2.634-6.938 3.427-9.71.553-1.344.602-1.704-.397-1.704-.998 0-.89.671-1.286 1.542-.35 1.653-1.696 5.147-2.19 6.75 0 .212 0 .212-.252.212-.83-2.387-1.791-5.309-2.73-7.671-.252-.46-.697-.56-.998.472-.505 1.641-1.202 3.594-1.744 5.185 0 0-.649 2.014-.697 2.114a6.333 6.333 0 01-.746-1.853c-.745-1.902-1.395-3.954-2.032-5.856-.156-.36-.156-.572-.505-.783a2.017 2.017 0 00-1.094-.1c-.987.162-.35.982-.145 1.592 1.203 3.344 2.538 7.36 3.873 10.543a.482.482 0 00.147.2.46.46 0 00.658-.088c.193-.385 2.634-7.584 2.778-7.584zM.193.623c-.05.207-.033.425.048.622.205.87-.396 10.792-.24 11.19a2.333 2.333 0 001.551.149c.24-.261.145-.51.145-.92 0-1.753.144-3.444.144-5.247.06-.671.108-1.132.108-1.542 0-.41 0-.36.096-.46.097-.1 1.672 2.736 1.828 3.046.3.61.89 1.542 1.287 2.263.601 1.132.902.36 1.046.1.35-.46 3.043-5.347 3.235-5.446.18.199.18 5.085.18 5.446 0 2.673-.3 2.934 1.336 2.822.505 0 .553-.41.505-.87V9.053a121.872 121.872 0 01-.229-6.938c0-.261.096-1.243.096-1.393a.947.947 0 00-1.203-.211c-.348.211-.444.671-.697.982C8.42 3.346 7.06 5.447 6.11 7.2c-.349.622-.349.41-.65 0-.649-.982-1.49-2.673-2.08-3.655L2.178 1.493A4.265 4.265 0 001.54.511C1.203.262.542.461.193.623zM63.653 6.38c.425-.36.93-.604 1.47-.712a3.226 3.226 0 011.62.09c1.588.721 1.792 3.146 1.095 4.327-.297.46-.725.814-1.225 1.012-.5.198-1.047.231-1.565.095a3.547 3.547 0 01-1.395-.622V6.38zm0-1.753a36.762 36.762 0 010-4.066c0-.56-.193-.659-.698-.46-1.202.522-1.202.31-1.034 1.442.096.572 0 7.2 0 8.132 0 1.84-.252 2.263 2.333 3.034.736.16 1.496.163 2.234.011a5.485 5.485 0 002.06-.894c2.537-2.151 1.84-8.219-2.79-7.759a8.982 8.982 0 00-1.203.15c-.157.05-.746.41-.818.41h-.084zM28.585 12.547c.188-.648.241-1.33.156-2.002-.049-.703-.049-1.41 0-2.113.145 0 .301.26.602.572.3.31 2.778 2.984 3.175 3.282a1.165 1.165 0 001.046.31c.349 0 .902 0 1.094-.248 0-.36-.697-.932-.998-1.243-.3-.311-.685-.709-1.034-1.132a21.594 21.594 0 01-2.14-2.25c0-.112 2.73-2.487 3.234-2.934.193-.212.397-.261.349-.572a3.122 3.122 0 00-1.9 0c-.24.112-1.888 1.653-2.333 2.064-.145.149-.998 1.081-1.095 1.032-.144-.473 0-6.901-.096-7.262-.096-.36-1.792.212-1.744.834.095.436.143.882.145 1.33v8.89c0 .31-.096 1.243.108 1.392.468.124.956.14 1.431.05zM15.632 8.332c.553-.15 2.405.31 2.49.82.047.55.047 1.104 0 1.654-.35.46-2.743 1.38-3.536-.261a1.79 1.79 0 010-1.492c.115-.19.268-.352.448-.476s.384-.208.598-.245zm2.537-.622a4.276 4.276 0 00-1.539-.659 5.52 5.52 0 00-2.044.15 2.729 2.729 0 00-1.413.993 2.884 2.884 0 00-.565 1.668c-.01.604.166 1.195.505 1.688.338.492.821.859 1.377 1.046a4.404 4.404 0 002.934 0c.204-.1.601-.36.745-.41.145-.05.205.36.397.46.193.1 1.095 0 1.347-.248.253-.25.3-.212.145-.572a2.65 2.65 0 01-.241-1.542V6.579a2.233 2.233 0 00-.349-1.492c-.95-1.952-6.674-1.182-6.217.472.457 1.654 1.202-.572 3.728-.261 1.359.15 1.215 1.492 1.215 2.412h-.025zM77.037 7.462h-4.125c.056-.51.281-.985.638-1.343.39-.353.879-.566 1.395-.609.269-.023.54.01.796.098.256.088.493.228.695.412.204.173.365.395.47.646.104.25.15.524.131.796zm-4.233 1.33c.3-.149 4.81 0 5.629 0 .817 0 .444-2.772-1.047-3.904a3.918 3.918 0 00-4.281-.348 4.09 4.09 0 00-1.613 1.6 4.277 4.277 0 00-.54 2.242 4.343 4.343 0 00.497 2.189c.353.67.876 1.228 1.512 1.616 1.335.932 4.918.883 5.363-.56.553-1.852-.745-.82-1.202-.621a4.2 4.2 0 01-1.203.31c-2.658.311-3.307-2.113-3.115-2.524zM54.755 7.461a2.154 2.154 0 01.654-1.388 2.02 2.02 0 011.39-.564c1.035-.112 2.237.82 2.033 1.952h-4.077zm-.204 1.243h5.58c.65 0 .54-.41.493-.92a4.086 4.086 0 00-.604-1.941 3.912 3.912 0 00-1.452-1.38 3.757 3.757 0 00-3.813.126 4.133 4.133 0 00-1.516 1.639 4.309 4.309 0 00-.468 2.215 4 4 0 00.475 2.18 3.823 3.823 0 001.557 1.55c1.696 1.082 5.027.622 5.328-.609 0-.36.24-1.243-.3-1.032a6.51 6.51 0 01-2.106.783 2.912 2.912 0 01-1.178-.079 2.967 2.967 0 01-1.058-.542c-.433-.36-1.13-1.443-.938-1.99zM81.561 12.596c.3-.311.252-.46.252-.92v-1.244c0-1.64-.3-4.364 1.54-4.774.397-.1.493.249.998.15.298-.277.522-.628.65-1.02 0-.784-1.203-.933-2.297-.423-.35.161-.638.72-.89.77 0-.46.096-.658-.205-1.069a2.656 2.656 0 00-1.094.361c-.493.249-.59.249-.493.87.096.622 0 4.887 0 5.906.048 1.554.048 1.505 1.539 1.393zM22.923 12.547v-.1c.14-1.262.175-2.535.108-3.804 0-.982.24-2.574 1.287-2.885.841-.31.89.51 1.443 0 1.287-1.392-.445-1.952-1.491-1.492-1.047.46-.902.82-1.203.92a2.576 2.576 0 010-.609c0-.261-.108-.261-.204-.41a2.03 2.03 0 00-1.095.31c-.493.2-.65.25-.493.871.106.953.138 1.914.096 2.872v2.835c.109 1.542-.096 1.654 1.552 1.492z" fill="#221F20"/><path d="M45.35 14.201a26.378 26.378 0 00-5.821 1.43c-.59.261-1.203.41-1.792.671-1.203.46-2.333.87-3.524 1.343-.397.15-3.235 1.02-3.728 1.132-2.405.609-6.013 1.33-8.31.248-1.094-.56-1.202 1.181 1.287 1.803a9.84 9.84 0 004.378-.199c1.202-.26 2.645-.72 3.788-1.082 1.142-.36 2.49-.77 3.728-1.13.3-.113.541-.212.89-.312l1.84-.572c.349-.1.601-.248.902-.36l1.9-.46c.349-.1.601-.2.902-.311a34.945 34.945 0 017.66-.82c.638 0 1.588.16 2.237.26 1.203.15.938-.51.145-.932a12.265 12.265 0 00-6.483-.709z" fill="#28AAB9"/></g><defs><clipPath id="aclip0_463_502"><path fill="#fff" transform="translate(0 .002)" d="M0 0h85v21H0z"/></clipPath></defs></symbol><symbol fill="none" viewBox="0 0 16 16" id="warning" xmlns="http://www.w3.org/2000/svg"><path d="M8.895 5.83V13H7.111V5.83h1.784zM7 3.96c0-.277.09-.507.272-.688C7.452 3.09 7.695 3 8 3c.3 0 .541.09.722.272.185.18.278.41.278.689a.923.923 0 01-.278.69c-.18.18-.422.27-.722.27-.305 0-.547-.09-.728-.27A.934.934 0 017 3.96z" fill="#C5C5C5"/><rect x=".5" y=".5" width="15" height="15" rx="7.5" stroke="#C5C5C5"/></symbol></svg>