<?xml version="1.0" encoding="utf-8"?><svg xmlns="http://www.w3.org/2000/svg" xmlns:xlink="http://www.w3.org/1999/xlink"><symbol viewBox="0 0 17 10" id="arrow-right" xmlns="http://www.w3.org/2000/svg"><path d="M.5 5.96h10.69L8.76 9.457l.405.542L16.5 5.27v-.563L9.165 0l-.393.52 2.406 3.498H.5V5.96z"/></symbol><symbol viewBox="0 0 9 10" id="arrow-slider-left" xmlns="http://www.w3.org/2000/svg"><path d="M8.37 9.458L5.94 5.96l-.507-.688v-.564l.518-.689L8.358.52 7.964 0 .63 4.707v.564L7.964 10l.405-.542z"/></symbol><symbol viewBox="0 0 9 10" id="arrow-slider-right" xmlns="http://www.w3.org/2000/svg"><path d="M.63 9.458L3.06 5.96l.507-.688v-.564l-.518-.689L.642.52 1.036 0 8.37 4.707v.564L1.036 10 .63 9.458z"/></symbol><symbol viewBox="0 0 16 16" id="arrow-top" xmlns="http://www.w3.org/2000/svg"><path d="M1 2h13v13M14 2L2 14"/></symbol><symbol viewBox="0 0 21 21" id="chat" xmlns="http://www.w3.org/2000/svg"><path d="M4.251 4.03A2.506 2.506 0 001.75 6.525v3.75a2.51 2.51 0 002.501 2.502v1.877a.625.625 0 001.066.439l2.316-2.316h4.12a2.506 2.506 0 002.496-2.501V6.526a2.502 2.502 0 00-2.497-2.497h-7.5zm0 1.25h7.501a1.23 1.23 0 011.252 1.246v3.75c0 .704-.548 1.25-1.252 1.25H7.375a.625.625 0 00-.44.185l-1.434 1.435v-.992a.625.625 0 00-.622-.627H4.25c-.703 0-1.25-.547-1.25-1.25V6.525a1.23 1.23 0 011.25-1.245zm10.625 1.246v1.25h1.874c.703 0 1.25.547 1.25 1.25v3.752c0 .703-.547 1.25-1.25 1.25h-.624a.626.626 0 00-.627.627v.988l-1.43-1.43a.624.624 0 00-.443-.185H9.252a1.23 1.23 0 01-1.081-.623h-.28l-.73.73a2.501 2.501 0 002.091 1.143h4.115l2.317 2.316a.625.625 0 001.066-.442v-1.874c1.374 0 2.5-1.126 2.5-2.5V9.027a2.51 2.51 0 00-2.5-2.501h-1.874z"/></symbol><symbol viewBox="0 0 10 11" id="cross" xmlns="http://www.w3.org/2000/svg"><path d="M9.3.901L.433 9.768m0-8.867L9.3 9.768"/></symbol><symbol viewBox="0 0 20 21" id="fb" xmlns="http://www.w3.org/2000/svg"><path clip-rule="evenodd" d="M11.493 17.78v-7.779h2.148l.284-2.68h-2.432l.004-1.342c0-.699.066-1.074 1.07-1.074h1.343v-2.68h-2.148c-2.58 0-3.488 1.3-3.488 3.487v1.61H6.666v2.68h1.608v7.778h3.22z"/></symbol><symbol viewBox="0 0 20 21" id="inst" xmlns="http://www.w3.org/2000/svg"><path clip-rule="evenodd" d="M10 1.669c-2.263 0-2.547.01-3.436.05-.887.04-1.493.181-2.023.387a4.08 4.08 0 00-1.476.961 4.09 4.09 0 00-.962 1.476c-.206.53-.347 1.136-.387 2.023-.04.889-.05 1.173-.05 3.436s.01 2.547.05 3.435c.041.888.182 1.493.388 2.023.213.548.497 1.013.96 1.476a4.08 4.08 0 001.476.962c.53.206 1.136.347 2.023.387.89.04 1.173.05 3.436.05s2.547-.01 3.435-.05c.888-.04 1.494-.18 2.024-.387a4.078 4.078 0 001.475-.962c.464-.463.749-.928.962-1.476.205-.53.346-1.136.387-2.022.04-.89.05-1.173.05-3.436s-.01-2.547-.05-3.436c-.041-.887-.182-1.493-.387-2.022a4.091 4.091 0 00-.962-1.477 4.073 4.073 0 00-1.475-.96c-.532-.207-1.138-.347-2.025-.388-.889-.04-1.172-.05-3.435-.05H10zm-.747 1.502H10c2.225 0 2.489.008 3.367.048.813.037 1.254.173 1.548.287.389.15.666.331.957.623.292.291.473.57.624.958.114.294.25.735.287 1.547.04.878.049 1.142.049 3.366s-.01 2.488-.049 3.367c-.037.812-.173 1.253-.287 1.546a2.576 2.576 0 01-.624.958 2.577 2.577 0 01-.957.623c-.294.115-.735.25-1.547.287-.879.04-1.143.049-3.368.049-2.225 0-2.489-.009-3.367-.049-.813-.037-1.254-.173-1.548-.287a2.581 2.581 0 01-.958-.623 2.584 2.584 0 01-.624-.958c-.114-.294-.25-.735-.287-1.547-.04-.878-.048-1.142-.048-3.368 0-2.225.008-2.488.048-3.366.038-.813.173-1.254.287-1.547.151-.39.332-.667.624-.959.292-.291.57-.472.958-.623.294-.115.735-.25 1.548-.288.768-.034 1.066-.045 2.62-.046v.002zm5.195 1.383a1 1 0 100 2 1 1 0 000-2zM10 5.723a4.28 4.28 0 100 8.56 4.28 4.28 0 000-8.56zm0 1.502a2.778 2.778 0 110 5.555 2.778 2.778 0 010-5.555z"/></symbol><symbol viewBox="0 0 20 21" id="ok" xmlns="http://www.w3.org/2000/svg"><path clip-rule="evenodd" d="M14.444 5.97c0 2.371-1.998 4.3-4.455 4.3S5.533 8.34 5.533 5.97c0-2.372 1.999-4.301 4.456-4.301 2.457 0 4.455 1.93 4.455 4.301zm-2.61 0c0-.982-.828-1.78-1.845-1.78s-1.845.798-1.845 1.78c0 .981.828 1.78 1.845 1.78s1.845-.799 1.845-1.78z"/><path d="M14.39 12.746a8.515 8.515 0 01-2.587 1.034l2.49 2.405c.51.491.51 1.29 0 1.782a1.338 1.338 0 01-1.845 0L10 15.604l-2.447 2.363c-.255.245-.59.368-.924.368-.334 0-.667-.123-.923-.368a1.23 1.23 0 010-1.782l2.49-2.405a8.53 8.53 0 01-2.586-1.034 1.235 1.235 0 01-.41-1.738c.384-.59 1.19-.767 1.8-.396a5.83 5.83 0 006 0 1.332 1.332 0 011.8.396c.383.589.2 1.367-.41 1.738z"/></symbol><symbol viewBox="0 0 20 21" id="tg" xmlns="http://www.w3.org/2000/svg"><path clip-rule="evenodd" d="M2.252 9.565c4.473-2.032 7.451-3.383 8.946-4.038 4.256-1.858 5.15-2.179 5.726-2.192.128 0 .409.027.6.187.154.134.192.308.218.441.025.134.051.415.025.629-.23 2.54-1.226 8.703-1.738 11.537-.217 1.203-.639 1.604-1.048 1.644-.894.08-1.572-.615-2.428-1.203-1.355-.923-2.109-1.497-3.425-2.406-1.52-1.043-.537-1.618.332-2.554.23-.24 4.154-3.984 4.23-4.318.013-.04.013-.2-.076-.28-.09-.08-.217-.054-.32-.027-.14.026-2.287 1.524-6.466 4.478-.614.441-1.163.655-1.662.642-.55-.014-1.597-.321-2.39-.588-.958-.321-1.725-.495-1.66-1.057.037-.294.42-.588 1.136-.895z"/></symbol><symbol viewBox="0 0 20 21" id="tw" xmlns="http://www.w3.org/2000/svg"><path clip-rule="evenodd" d="M9.759 6.913l.036.618-.602-.075C7 7.166 5.086 6.182 3.46 4.53l-.794-.82-.205.606c-.434 1.35-.157 2.774.746 3.732.482.53.374.606-.457.29-.29-.1-.542-.176-.566-.138-.084.088.205 1.236.433 1.69.313.63.952 1.248 1.65 1.614l.59.29-.698.012c-.675 0-.699.013-.626.278.24.82 1.192 1.69 2.252 2.068l.746.264-.65.404a6.598 6.598 0 01-3.227.933c-.542.013-.988.063-.988.101 0 .126 1.47.832 2.324 1.11 2.565.82 5.612.466 7.9-.933 1.626-.997 3.252-2.976 4.01-4.893.41-1.021.82-2.888.82-3.783 0-.58.035-.656.71-1.35.397-.403.77-.844.843-.97.12-.24.108-.24-.506-.026-1.024.379-1.168.328-.662-.24.373-.403.819-1.134.819-1.349 0-.037-.181.026-.386.14-.217.125-.698.314-1.06.428l-.65.214-.59-.416c-.325-.227-.783-.479-1.024-.555-.614-.176-1.553-.151-2.107.05a3.612 3.612 0 00-2.348 3.632z"/></symbol><symbol viewBox="0 0 20 21" id="vk" xmlns="http://www.w3.org/2000/svg"><path d="M10.8 15.546c-6.078 0-9.544-4.166-9.689-11.1h3.045c.1 5.09 2.344 7.245 4.122 7.69v-7.69h2.867v4.39c1.755-.19 3.6-2.19 4.222-4.39h2.866a8.465 8.465 0 01-3.9 5.534 8.778 8.778 0 014.567 5.566h-3.155a5.49 5.49 0 00-4.6-3.966v3.966H10.8z"/></symbol></svg>