<svg width="4096" height="2900" viewBox="0 0 4096 2900" fill="none" xmlns="http://www.w3.org/2000/svg">
  <path opacity="0.4" fill-rule="evenodd" clip-rule="evenodd" d="M754.526 1430.82L1090.06 1625.53L990.968 1684.65C988.65 1688.7 986.448 1698.21 996.183 1703.77C1005.92 1709.33 1188 1813.88 1277.83 1865.45L942.289 2060.17L1015.31 2103.63L1703.77 1707.25L1896.75 1594.24L2093.2 1470.8L1931.52 1376.92C1912.39 1383.3 1866.15 1395.7 1834.16 1394.31V1385.62L1728.11 1324.77L1625.53 1382.14V1335.2L1484.71 1251.75L1482.97 1077.89L1350.85 999.66L1331.72 1010.09V997.922L1307.38 982.275V810.16L1345.63 832.761L1373.45 817.114V784.081L1060.51 606.75L1055.29 611.966L1050.08 608.489L989.229 641.521V678.031L1050.08 711.063L1090.06 684.985L1093.54 686.723V917.949L1069.2 931.857V945.766L1093.54 959.674V1192.64L839.715 1336.94V1382.14L754.526 1430.82ZM1302.17 806.682L1166.56 728.448L1168.3 897.087L1204.81 917.949V978.798L1173.51 996.183L1168.3 992.706V1150.91L1216.98 1121.36V1077.89L1281.3 1041.39V977.059L1288.26 971.844L1302.17 980.536V806.682Z" fill="#27B7CA" />
  <g clip-path="url(#clip0_2_2)">
    <path opacity="0.4" d="M2136.67 1444.73L2067.12 1406.48L1442.99 1769.83L1079.63 1557.73L1070.94 1526.44L1043.12 1510.79L1029.22 1517.75L1022.26 1524.7L804.944 1401.26L765.339 1423.68L754.09 1393.55L736.654 1440.35L728.218 1445.26L714.719 1398.45L688.566 1383.88L673.942 1393.69L661.428 1413.45L664.521 1429L647.789 1455.49L658.756 1480.44L664.381 1481.84L639.071 1496.41H638.93L623.745 1505.24L571.719 1535.23L558.783 1500.48L538.816 1554.29L471.886 1592.69C471.324 1590.45 470.621 1588.34 469.918 1586.24C468.512 1581.48 466.543 1576.71 463.871 1572.37L463.731 1597.45L269.689 1709.15L269.83 1705.92L229.475 1728.91V1732.27L214.149 1741.1L204.025 1746.57C204.025 1746.57 204.165 1746.57 204.446 1746.71L154.249 1775.57L150.171 1775.15L146.375 1762.12L117.69 1746.14L101.661 1756.94L87.8811 1778.66L91.2557 1795.76L75.5074 1820.84L0 1863.06V1955.86L641.521 2322.69L941.382 2148.77L943.632 2060.06L1015.31 2103.63L1820.25 1641.18L2136.67 1444.73Z" fill="#27B7CA" />
  </g>
  <g clip-path="url(#clip1_2_2)">
    <path opacity="0.4" fill-rule="evenodd" clip-rule="evenodd" d="M2709.86 1822.64L2819.91 1886.87L2556.43 2038.74L2359.21 2152.75L2510.25 2233.53C2418.77 2298.93 2103.24 2480.41 1942.39 2572.93L1942.38 2572.94L1942.25 2573.01C1920.03 2585.79 1900.76 2596.87 1885.45 2605.71L2143.74 2754.5V2844.25L1579.72 2519.75L1522.96 2486.25C1505.98 2496.91 1468.68 2517.22 1460.12 2515.96C1458.3 2519.89 1420.68 2499.69 1380.25 2476.7C1377.86 2477.54 1376.32 2476.7 1375.48 2475.29C1373.79 2475.15 1372.67 2474.03 1372.25 2472.21C1371.74 2471.91 1371.31 2471.67 1370.93 2471.45L1370.58 2471.24C1370.13 2470.98 1369.75 2470.76 1369.37 2470.54L1368.66 2470.12C1368.08 2469.79 1367.43 2469.41 1366.49 2468.87C1366.63 2469.99 1366.63 2471.5 1366.49 2472.34C1366.21 2478.51 1359.19 2479.22 1353.72 2475.86C1348.24 2472.49 1344.03 2464.78 1344.31 2458.61C1344.45 2457.76 1344.59 2457.06 1344.88 2456.36C1339.85 2453.43 1334.85 2450.45 1330.02 2447.57C1325.15 2444.65 1320.45 2441.85 1316.07 2439.31L1286.52 2421.93C1285.82 2423.89 1286.38 2432.27 1286.52 2434.1C1286.52 2435.54 1286.57 2437.1 1286.61 2438.73L1286.61 2438.74V2438.74C1286.8 2444.98 1287.01 2452.14 1284.78 2456.7C1281.83 2462.87 1276.09 2468.87 1265.66 2468.87C1262.79 2468.87 1260.44 2467.81 1258.33 2466.87C1256.61 2466.09 1255.05 2465.39 1253.49 2465.39V2757.46C1253.49 2763.07 1244.37 2773.71 1238.75 2767.4C1238.43 2766.62 1238.67 2721.88 1238.98 2664.11L1238.98 2664.09V2664.08C1239.35 2596.9 1239.81 2512.12 1239.58 2458.44C1226.31 2450.48 1217.35 2445.05 1209.69 2440.41L1209.67 2440.39L1209.66 2440.39L1209.63 2440.37C1197.25 2432.88 1188.28 2427.44 1170.04 2416.71L1142.22 2434.1L1083.11 2402.8V2385.42V2364.55C1083.11 2364.55 1072.07 2359.51 1063.99 2354.12C1058.77 2350.65 1052.69 2343.69 1051.82 2340.21C1050.95 2336.74 1050.08 2319.35 1050.08 2319.35L994.445 2286.32C994.445 2286.32 994.128 2295.01 989.229 2296.75C984.331 2298.49 979.206 2296.49 973.582 2288.06C970.105 2282.84 973.582 2274.15 973.582 2274.15L950.981 2261.98C950.981 2261.98 947.064 2260.24 944.027 2260.24C938.812 2260.24 933.596 2261.98 933.596 2261.98L897.087 2282.84C897.087 2282.84 881.44 2295.01 867.531 2295.01C858.839 2295.01 850.146 2289.8 850.146 2289.8L818.852 2270.67C818.852 2270.67 814.558 2272.87 810.16 2270.67C806.683 2268.93 806.683 2265.46 806.683 2265.46L773.65 2246.33L711.934 2281.63L639.783 2323.98V2234.23L939.057 2060.34V2060.62L939.338 2060.76L1226.12 1894.3L1233.28 1877.33L1244.37 1883.64L1617.06 1666.98L1627.16 1643L1642.89 1651.98L2064 1407.41L2117.91 1436.16L2114.68 1420.03L2128.44 1398.29L2144.44 1387.49L2173.07 1403.48L2190.2 1462.94L2177 1489.87L2154.26 1498.28L2178.13 1512.16L2190.2 1479.77L2208.87 1529.97L2213.08 1532.5L2221.22 1519.6L2237.22 1508.8L2265.86 1524.78L2279.34 1571.2L2350.51 1612.71L2356.12 1597.57L2364.82 1620.99L2402.72 1643.14L2407.36 1630.52L2414.66 1650.15L2454.8 1673.57L2470.8 1630.38L2495.79 1697.55L2660.59 1793.75L2680.52 1740.04L2710 1819.42H2709.72C2709.86 1820.54 2710 1821.66 2709.86 1822.64ZM1448.2 2498.28C1456.21 2502.91 1465.46 2504.46 1473.46 2499.69L1509.05 2479.3L1305.64 2361.08C1305.64 2361.08 1298.69 2366.29 1293.47 2371.51C1290.44 2374.54 1286.52 2380.2 1286.52 2383.68V2406.28L1378.66 2458.44C1390.83 2449.74 1391.11 2464.13 1390.83 2465.39C1390.33 2464.89 1390.43 2464.99 1390.96 2465.52L1392.57 2467.13C1393.32 2467.87 1395.59 2469.36 1397.79 2470.61C1431.62 2489.82 1448.2 2498.28 1448.2 2498.28ZM938.812 2150.57L1067.46 2225.33C1062.25 2229.39 1051.82 2240.28 1051.82 2251.41V2303.57L999.66 2275.75C1000.82 2273.43 1001.75 2268.45 996.183 2267.06C990.62 2265.67 988.07 2266.48 987.491 2267.06L954.458 2247.93C948.084 2246.77 932.553 2246.19 921.426 2253.15C910.3 2260.1 887.814 2273.43 877.963 2279.23C873.327 2280.38 862.316 2281.66 855.362 2277.49C848.408 2273.31 831.602 2264.16 824.068 2260.1C824.647 2258.36 824.763 2254.19 820.591 2251.41C816.418 2248.63 813.057 2250.25 811.898 2251.41L785.82 2235.76L938.812 2150.57ZM1293.47 2353.98L1083.11 2232.29C1080.79 2233.44 1074.76 2236.81 1069.2 2240.98C1063.64 2245.15 1063.41 2255.47 1063.99 2260.1V2327.9C1063.99 2336.25 1066.3 2339.5 1067.46 2340.07L1086.59 2350.51L1116.14 2334.86L1171.78 2366.15V2400.92L1201.33 2418.31C1203.07 2417.15 1208.28 2413.44 1215.24 2407.88C1218.02 2400.92 1222.19 2400.92 1225.67 2402.66C1227.99 2400.92 1234.71 2396.06 1243.06 2397.45C1251.4 2398.84 1253.49 2406.72 1253.49 2409.62L1253.49 2429.65L1253.49 2442.65C1253.49 2449.6 1256.96 2454.82 1265.66 2454.82C1270.6 2454.82 1272.03 2450.18 1272.61 2447.86C1272.61 2428.74 1272.96 2388.06 1274.35 2378.32C1275.74 2368.59 1287.68 2358.04 1293.47 2353.98ZM1239.58 2440.91L1215.24 2427L1222.19 2421.79C1222.19 2423.52 1224.63 2423.52 1227.41 2423.52H1227.41C1232.19 2423.52 1234.36 2418.31 1234.36 2413.09C1234.73 2412.91 1235.08 2412.73 1235.41 2412.55C1238.19 2411.08 1239.58 2410.35 1239.58 2416.57V2440.91Z" fill="#27B7CA" />
  </g>
  <g clip-path="url(#clip2_2_2)">
    <path opacity="0.4" d="M2141.88 2760.8L2143.62 2842.51L2668.66 2540.01L4096 1719.42V1625.53L3211.08 2133.19V2068.86L3061.57 1981.94C3060.99 1981.36 3059.83 1979.5 3059.83 1976.72C3065.39 1972.55 3077.22 1948.32 3082.43 1936.73L3084.17 1934.99V1931.52L3044.18 1877.62V1865.45L3018.11 1848.07L3000.72 1858.5V1863.71L2976.38 1868.93C2973.48 1870.67 2965.95 1875.54 2958.99 1881.1C2958.99 1888.05 2948.56 1904.86 2943.35 1912.39L2809.48 1835.9L2345.29 2103.63V2161.01L2449.6 2220.12L2390.49 2253.15L2387.02 2249.67L2367.89 2267.06L2338.34 2282.7L1877.62 2550.44L1875.88 2609.55L2141.88 2760.8Z" fill="#27B7CA" />
  </g>
  <g clip-path="url(#clip3_2_2)">
    <path opacity="0.4" d="M4096 1625.53L3541.41 1303.9V1269.13L3411.02 1190.9L3190.22 1317.81L3131.11 1283.04L3115.46 1229.15L3089.39 1215.24L3075.48 1225.67L3063.31 1243.06L3040.71 1230.89L3030.28 1203.07L3021.58 1230.89L2894.67 1302.17L2764.28 1227.41L2748.63 1239.58C2757.32 1244.22 2776.8 1256.27 2792.1 1267.4C2807.39 1278.52 2797.31 1291.74 2790.36 1296.95L2366.15 1542.08L3303.23 2082.77L4096 1625.53Z" fill="#27B7CA" />
  </g>
  <g clip-path="url(#clip4_2_2)">
    <path opacity="0.4" fill-rule="evenodd" clip-rule="evenodd" d="M3021.58 620.659L2892.93 544.163L2762.54 620.659V1072.68L2694.74 1116.14V942.289L2635.63 907.518V844.93L2543.48 791.036L2446.13 844.93V876.224L2395.71 844.93L2376.58 780.604L2350.51 766.696L2336.6 773.65L2322.69 794.513V803.205L2300.09 791.036V238.18L2272.27 222.533V219.056L2246.19 201.671V187.762L2190.56 154.73L2188.82 3.47705H2185.34V154.73L2129.71 187.762V201.671L2101.89 219.056V222.533L2072.34 238.18V664.122L2044.52 648.475V575.457L1941.95 512.869V370.309L1818.51 299.029L1696.81 370.309V909.256H1637.7C1638.86 904.62 1640.49 893.957 1637.7 888.394C1664.13 873.095 1676.53 865.793 1679.43 864.054L1677.69 728.448L1670.74 723.233L1651.61 733.664L1646.4 728.448L1639.44 733.664V740.618H1635.97V526.778C1633.65 506.495 1608.5 465.929 1526.44 465.929C1423.86 465.929 1403 505.915 1401.26 526.778C1399.87 543.468 1400.68 714.54 1401.26 797.99L1397.79 907.518V980.554L1350.85 952.72L1331.72 966.628L1307.38 984.014L1331.72 997.922V1010.09L1352.58 999.66L1482.97 1077.89L1484.71 1251.75C1484.71 1251.75 1526.14 1278.55 1549.04 1290C1571.94 1301.45 1625.53 1333.46 1625.53 1333.46V1382.14L1726.37 1324.77C1726.37 1324.77 1787.8 1357.01 1832.42 1385.62C1834.16 1386.73 1834.16 1388.92 1834.16 1392.17L1834.16 1392.57C1871.35 1397.03 1906.08 1385.38 1923.97 1379.38C1926.99 1378.36 1929.53 1377.51 1931.52 1376.92L2023.66 1432.56L2034.09 1425.6L2786.51 1871.97L2861.64 1829.96L2366.15 1542.08L2606.07 1404.74C2659.97 1373.45 2772.28 1308.08 2790.36 1296.95C2808.44 1285.82 2797.89 1271.45 2790.36 1265.66L2745.15 1239.58L2762.54 1227.41L2894.67 1305.64L3021.58 1230.89V620.659ZM3457.96 792.774C3401.7 759.841 3325.25 734.823 3292.8 728.448L3273.67 704.109L3228.47 678.031V723.233C3216.88 723.812 3191.96 726.014 3185.01 730.187C3185.01 737.141 3189.64 755.106 3191.96 763.219L3160.67 782.343L3204.13 808.421H3212.82L3228.47 831.022L3230.21 850.146L3238.9 843.192C3245.85 851.885 3264.63 873.442 3284.1 890.132C3282.36 909.256 3322.35 935.334 3336.26 944.027C3350.17 952.72 3353.64 950.981 3364.08 944.027C3457.96 1011.83 3530.97 992.706 3581.39 963.151C3586.61 883.178 3529.24 834.499 3457.96 792.774ZM2414.83 829.284L2407.88 811.898L2418.31 794.513L2416.57 782.343L2433.96 764.958L2453.08 773.65L2456.56 791.036L2463.51 810.16L2454.82 827.545L2435.69 834.499V846.669H2432.22V834.499L2414.83 829.284Z" fill="#27B7CA" />
  </g>
  <defs>
    <clipPath id="clip0_2_2">
      <rect width="2152.31" height="938.812" fill="white" transform="translate(0 1383.88)" />
    </clipPath>
    <clipPath id="clip1_2_2">
      <rect width="2180.13" height="1456.9" fill="white" transform="translate(639.783 1387.35)" />
    </clipPath>
    <clipPath id="clip2_2_2">
      <rect width="2218.38" height="1276.09" fill="white" transform="translate(1877.62 1623.8)" />
    </clipPath>
    <clipPath id="clip3_2_2">
      <rect width="1735.06" height="921.426" fill="white" transform="translate(2360.94 1164.82)" />
    </clipPath>
    <clipPath id="clip4_2_2">
      <rect width="2500.02" height="1999.32" fill="white" transform="translate(1098.76 149.514)" />
    </clipPath>
  </defs>
</svg>
