<svg width="1178" height="820" viewBox="0 0 1178 820" fill="none" xmlns="http://www.w3.org/2000/svg">
<path opacity="0.4" fill-rule="evenodd" clip-rule="evenodd" d="M779.349 526.188L811 544.659L735.224 588.338L678.503 621.127L721.942 644.358C695.633 663.167 604.897 715.355 558.635 741.964L558.63 741.967L558.627 741.968L558.617 741.974C552.212 745.658 546.66 748.851 542.251 751.397L616.534 794.188V820L454.323 726.674L438 717.04C433.115 720.105 422.39 725.948 419.927 725.585C419.403 726.714 408.583 720.906 396.956 714.292C396.27 714.534 395.826 714.292 395.584 713.889C395.099 713.848 394.776 713.526 394.655 713.001C394.272 712.78 394.05 712.65 393.828 712.521C393.606 712.391 393.384 712.262 393 712.04C393.04 712.363 393.04 712.798 393 713.04C392.919 714.815 390.901 715.018 389.326 714.05C387.752 713.082 386.541 710.864 386.621 709.089C386.662 708.847 386.702 708.646 386.783 708.444C385.338 707.602 383.902 706.745 382.516 705.917L382.512 705.915C381.11 705.077 379.758 704.27 378.5 703.54L370 698.54C369.798 699.105 369.96 701.516 370 702.04C370 702.455 370.013 702.906 370.027 703.376C370.08 705.17 370.14 707.23 369.5 708.54C368.652 710.315 367 712.04 364 712.04C363.174 712.04 362.5 711.737 361.894 711.465C361.399 711.242 360.949 711.04 360.5 711.04V795.04C360.5 796.654 357.877 799.713 356.263 797.898C356.169 797.675 356.239 784.8 356.329 768.182C356.433 748.86 356.565 724.478 356.5 709.04C352.681 706.749 350.102 705.187 347.899 703.853L347.898 703.852L347.896 703.851L347.89 703.847C344.329 701.69 341.749 700.128 336.5 697.04L328.5 702.04L311.5 693.04V688.04V682.04C311.5 682.04 308.326 680.591 306 679.04C304.5 678.04 302.75 676.04 302.5 675.04C302.25 674.04 302 669.04 302 669.04L286 659.54C286 659.54 285.909 662.04 284.5 662.54C283.091 663.04 281.617 662.466 280 660.04C279 658.54 280 656.04 280 656.04L273.5 652.54C273.5 652.54 272.373 652.04 271.5 652.04C270 652.04 268.5 652.54 268.5 652.54L258 658.54C258 658.54 253.5 662.04 249.5 662.04C247 662.04 244.5 660.54 244.5 660.54L235.5 655.04C235.5 655.04 234.265 655.673 233 655.04C232 654.54 232 653.54 232 653.54L222.5 648.04L204.751 658.191L184 670.371V644.56L270.071 594.549V594.63L270.151 594.67L352.629 546.797L354.688 541.917L357.877 543.732L465.062 481.42L467.969 474.524L472.49 477.105L593.603 406.767L609.105 415.035L608.177 410.397L612.133 404.146L616.735 401.04L624.971 405.638L629.896 422.738L626.101 430.482L619.561 432.902L626.424 436.895L629.896 427.578L635.266 442.017L636.477 442.743L638.818 439.032L643.421 435.927L651.656 440.524L655.532 453.874L676 465.812L677.615 461.456L680.118 468.192L691.018 474.564L692.35 470.934L694.449 476.58L705.995 483.316L710.598 470.894L717.784 490.212L765.179 517.88L770.912 502.433L779.39 525.26H779.309C779.349 525.583 779.39 525.905 779.349 526.188ZM416.5 720.5C418.801 721.831 421.461 722.278 423.763 720.906L434 715.04L375.5 681.04C375.5 681.04 373.5 682.54 372 684.04C371.127 684.914 370 686.54 370 687.54V694.04L396.5 709.04C400 706.54 400.081 710.677 400 711.04L400.5 711.54C400.714 711.754 401.368 712.181 402 712.54C411.729 718.066 416.5 720.5 416.5 720.5ZM270 620.5L307 642C305.5 643.167 302.5 646.3 302.5 649.5V664.5L287.5 656.5C287.833 655.833 288.1 654.4 286.5 654C284.9 653.6 284.167 653.833 284 654L274.5 648.5C272.667 648.167 268.2 648 265 650C261.8 652 255.333 655.833 252.5 657.5C251.167 657.833 248 658.2 246 657C244 655.8 239.167 653.167 237 652C237.167 651.5 237.2 650.3 236 649.5C234.8 648.7 233.833 649.167 233.5 649.5L226 645L270 620.5ZM372 679L311.5 644C310.833 644.333 309.1 645.3 307.5 646.5C305.9 647.7 305.833 650.667 306 652V671.5C306 673.9 306.666 674.833 307 675L312.5 678L321 673.5L337 682.5V692.5L345.5 697.5C346 697.167 347.5 696.1 349.5 694.5C350.3 692.5 351.5 692.5 352.5 693C353.166 692.5 355.1 691.1 357.5 691.5C359.9 691.9 360.5 694.167 360.5 695L360.5 704.5C360.5 706.5 361.5 708 364 708C365.422 708 365.833 706.667 366 706C366 700.5 366.1 688.8 366.5 686C366.9 683.2 370.333 680.167 372 679ZM356.5 697V704L349.5 700L351.5 698.5C351.5 699 352.2 699 352.999 699H353C354.375 699 355 697.5 355 696C355.106 695.947 355.206 695.894 355.3 695.845C356.1 695.422 356.5 695.211 356.5 697Z" fill="#27B7CA"/>
</svg>
