<svg width="201" height="39" viewBox="0 0 201 39" fill="none" xmlns="http://www.w3.org/2000/svg">
<path d="M53.1141 9.7439e-05C48.4363 0.00652032 43.9186 1.71251 40.3944 4.80337C36.8701 7.89423 34.5772 12.1614 33.9384 16.8178H23.4814L21.0074 22.0854H33.2298C32.732 24.7309 31.4951 27.1794 29.6637 29.1447C27.8323 31.11 25.482 32.5108 22.8875 33.1835C20.2931 33.8562 17.5616 33.773 15.0125 32.9435C12.4634 32.1141 10.202 30.5727 8.49242 28.4995C6.78288 26.4263 5.6959 23.907 5.35859 21.236C5.02127 18.5651 5.44755 15.8528 6.58755 13.4163C7.72756 10.9797 9.53419 8.91958 11.7963 7.47663C14.0585 6.03367 16.6826 5.26751 19.362 5.26773C22.3365 5.25743 25.2367 6.20128 27.6404 7.96191L29.9075 3.13463C26.7722 1.07779 23.1063 -0.0118645 19.3621 9.7439e-05C15.6451 -0.000684597 12.0065 1.07381 8.88103 3.09521C5.75554 5.1166 3.27531 7.99943 1.73662 11.3993C0.197917 14.7991 -0.334164 18.5722 0.203955 22.2677C0.742074 25.9633 2.32763 29.425 4.7712 32.2393C7.21476 35.0537 10.413 37.1016 13.9838 38.1385C17.5546 39.1754 21.347 39.1574 24.9079 38.0866C28.4688 37.0158 31.6476 34.9375 34.0646 32.1C36.4815 29.2626 38.0344 25.7859 38.5377 22.0854H48.9947L51.4685 16.8178H39.2463C39.7441 14.1723 40.981 11.7238 42.8124 9.75859C44.6438 7.79333 46.9941 6.39249 49.5886 5.71979C52.183 5.04709 54.9144 5.13034 57.4635 5.9598C60.0126 6.78925 62.2741 8.33065 63.9836 10.4038C65.6932 12.477 66.7801 14.9963 67.1174 17.6672C67.4547 20.3382 67.0285 23.0504 65.8885 25.487C64.7485 27.9235 62.9418 29.9836 60.6797 31.4266C58.4176 32.8695 55.7935 33.6357 53.1141 33.6355C50.1396 33.6458 47.2394 32.702 44.8357 30.9413L42.5686 35.7686C45.7039 37.8254 49.3697 38.9151 53.114 38.9031C58.2466 38.9008 63.1682 36.8505 66.7966 33.2029C70.4251 29.5552 72.4635 24.609 72.4635 19.4516C72.4635 14.2942 70.4251 9.34798 66.7966 5.70036C63.1682 2.05274 58.2466 0.00238544 53.114 9.7439e-05H53.1141Z" fill="#28AAB9"/>
<path d="M96.954 9.28172H83.5557V29.6491H87.4608V12.9068H96.954V9.28172Z" fill="#002E33"/>
<path d="M114.578 9.28172L104.308 23.1961V9.28172H100.402V29.6491H103.847L104.308 29.0263L114.145 15.7343V29.6491H118.05V9.28172H114.578Z" fill="#002E33"/>
<path d="M137.958 23.4559C137.115 24.6665 135.913 25.5774 134.522 26.0576C133.132 26.5377 131.626 26.5624 130.221 26.1282C128.816 25.6939 127.585 24.8229 126.703 23.6407C125.822 22.4584 125.337 21.0257 125.317 19.5488C125.298 18.0718 125.745 16.6267 126.594 15.4212C127.444 14.2158 128.652 13.3122 130.045 12.8405C131.438 12.3688 132.944 12.3532 134.347 12.796C135.749 13.2388 136.975 14.1172 137.85 15.3048L140.591 12.9696C139.556 11.6967 138.251 10.6725 136.771 9.97171C135.291 9.27095 133.674 8.91143 132.039 8.91943C126.043 8.91943 121.183 13.6366 121.183 19.4556C121.183 25.2746 126.043 29.9918 132.039 29.9918C133.703 30.0004 135.348 29.6282 136.849 28.9033C138.349 28.1785 139.666 27.12 140.699 25.8081L137.958 23.4559Z" fill="#002E33"/>
<path d="M157.257 9.28172H143.858V29.6491H147.763V12.9068H157.257V9.28172Z" fill="#002E33"/>
<path d="M174.881 9.28172L164.611 23.1961V9.28172H160.705V29.6491H164.15L164.611 29.0263L174.448 15.7343V29.6491H178.353V9.28172H174.881Z" fill="#002E33"/>
<path d="M198.259 23.4559C197.417 24.6665 196.214 25.5774 194.824 26.0576C193.433 26.5377 191.928 26.5624 190.523 26.1282C189.118 25.6939 187.886 24.8229 187.005 23.6407C186.123 22.4584 185.638 21.0257 185.618 19.5488C185.599 18.0718 186.046 16.6267 186.896 15.4212C187.745 14.2158 188.953 13.3122 190.346 12.8405C191.739 12.3688 193.245 12.3532 194.648 12.796C196.05 13.2388 197.277 14.1172 198.151 15.3048L200.892 12.9696C199.857 11.6967 198.552 10.6725 197.072 9.97171C195.592 9.27095 193.976 8.91143 192.34 8.91943C186.344 8.91943 181.484 13.6366 181.484 19.4556C181.484 25.2746 186.344 29.9918 192.34 29.9918C194.005 30.0004 195.65 29.6282 197.15 28.9033C198.65 28.1785 199.967 27.12 201 25.8081L198.259 23.4559Z" fill="#002E33"/>
</svg>
