<svg width="468" height="62" viewBox="0 0 468 62" fill="none" xmlns="http://www.w3.org/2000/svg">
<path d="M0.5625 50H-1.4375V52H0.5625V50ZM45.5625 27.7734L44.139 29.1783L44.1483 29.1877L44.1577 29.197L45.5625 27.7734ZM38.0625 24.0234H36.0625V25.7106L37.7255 25.9948L38.0625 24.0234ZM38.0625 23.9062L37.4878 21.9906L36.0625 22.4182V23.9062H38.0625ZM43.8047 20.0391L42.2388 18.7949L42.2366 18.7977L43.8047 20.0391ZM41.8906 3.71094L40.6484 5.27845L40.6556 5.28408L41.8906 3.71094ZM0.5625 0.429688V-1.57031H-1.4375V0.429688H0.5625ZM13.8828 40.8984H11.8828V42.8984H13.8828V40.8984ZM13.8828 28.5547V26.5547H11.8828V28.5547H13.8828ZM32.5938 30.1953L31.3516 31.7628L31.3608 31.7701L31.37 31.7772L32.5938 30.1953ZM32.5938 39.375L33.7791 40.9859L33.7889 40.9787L33.7986 40.9714L32.5938 39.375ZM13.8828 21.2891H11.8828V23.2891H13.8828V21.2891ZM13.8828 9.96094V7.96094H11.8828V9.96094H13.8828ZM0.5625 52H29.8984V48H0.5625V52ZM29.8984 52C35.8667 52 40.8548 50.7341 44.6618 47.9895L42.3226 44.7448C39.4108 46.844 35.3364 48 29.8984 48V52ZM44.6618 47.9895C48.5869 45.1598 50.5312 41.094 50.5312 36.0547H46.5312C46.5312 39.9216 45.1162 42.7308 42.3226 44.7448L44.6618 47.9895ZM50.5312 36.0547C50.5312 32.1109 49.4272 28.7774 46.9673 26.3499L44.1577 29.197C45.6561 30.6757 46.5312 32.8631 46.5312 36.0547H50.5312ZM46.986 26.3686C44.7064 24.0585 41.8107 22.6351 38.3995 22.052L37.7255 25.9948C40.4081 26.4534 42.5124 27.53 44.139 29.1783L46.986 26.3686ZM40.0625 24.0234V23.9062H36.0625V24.0234H40.0625ZM38.6372 25.8219C41.3636 25.004 43.6279 23.4845 45.3728 21.2805L42.2366 18.7977C41.0127 20.3436 39.4489 21.4023 37.4878 21.9906L38.6372 25.8219ZM45.3706 21.2832C47.2106 18.9674 48.0703 16.1225 48.0703 12.8906H44.0703C44.0703 15.388 43.4197 17.3086 42.2388 18.7949L45.3706 21.2832ZM48.0703 12.8906C48.0703 8.42145 46.4526 4.74965 43.1256 2.13779L40.6556 5.28408C42.9015 7.04723 44.0703 9.49522 44.0703 12.8906H48.0703ZM43.1328 2.14345C39.8538 -0.45496 35.028 -1.57031 29.0391 -1.57031V2.42969C34.6647 2.42969 38.4066 3.50183 40.6485 5.27843L43.1328 2.14345ZM29.0391 -1.57031H0.5625V2.42969H29.0391V-1.57031ZM-1.4375 0.429688V50H2.5625V0.429688H-1.4375ZM15.8828 40.8984V28.5547H11.8828V40.8984H15.8828ZM13.8828 30.5547H26.5781V26.5547H13.8828V30.5547ZM26.5781 30.5547C28.9707 30.5547 30.4619 31.0578 31.3516 31.7628L33.8359 28.6278C31.9651 27.1453 29.446 26.5547 26.5781 26.5547V30.5547ZM31.37 31.7772C32.1904 32.4119 32.6641 33.311 32.6641 34.7656H36.6641C36.6641 32.2619 35.7575 30.1142 33.8175 28.6134L31.37 31.7772ZM32.6641 34.7656C32.6641 36.2934 32.1771 37.1838 31.3889 37.7786L33.7986 40.9714C35.7708 39.4829 36.6641 37.3004 36.6641 34.7656H32.6641ZM31.4084 37.7641C30.5115 38.4241 28.9962 38.8984 26.5781 38.8984V42.8984C29.4204 42.8984 31.9156 42.3571 33.7791 40.9859L31.4084 37.7641ZM26.5781 38.8984H13.8828V42.8984H26.5781V38.8984ZM15.8828 21.2891V9.96094H11.8828V21.2891H15.8828ZM13.8828 11.9609H25.8359V7.96094H13.8828V11.9609ZM25.8359 11.9609C28.2143 11.9609 29.503 12.3942 30.1209 12.8716L32.5666 9.70649C30.8929 8.41311 28.5096 7.96094 25.8359 7.96094V11.9609ZM30.1209 12.8716C30.6593 13.2877 31.0625 13.97 31.0625 15.3125H35.0625C35.0625 13.0612 34.3199 11.0612 32.5666 9.70649L30.1209 12.8716ZM31.0625 15.3125C31.0625 16.7885 30.6348 17.6681 29.9984 18.2467L32.6891 21.2064C34.3443 19.7017 35.0625 17.6386 35.0625 15.3125H31.0625ZM29.9984 18.2467C29.3927 18.7973 28.1601 19.2891 25.8359 19.2891V23.2891C28.5639 23.2891 31.0031 22.7391 32.6891 21.2064L29.9984 18.2467ZM25.8359 19.2891H13.8828V23.2891H25.8359V19.2891ZM55.875 50H53.875V52H55.875V50ZM69.5859 50V52H71.5859V50H69.5859ZM69.5859 30.0781V28.0781H67.5859V30.0781H69.5859ZM92.9062 30.0781H94.9062V28.0781H92.9062V30.0781ZM92.9062 50H90.9062V52H92.9062V50ZM106.617 50V52H108.617V50H106.617ZM106.617 0.429688H108.617V-1.57031H106.617V0.429688ZM92.9062 0.429688V-1.57031H90.9062V0.429688H92.9062ZM92.9062 18.6719V20.6719H94.9062V18.6719H92.9062ZM69.5859 18.6719H67.5859V20.6719H69.5859V18.6719ZM69.5859 0.429688H71.5859V-1.57031H69.5859V0.429688ZM55.875 0.429688V-1.57031H53.875V0.429688H55.875ZM55.875 52H69.5859V48H55.875V52ZM71.5859 50V30.0781H67.5859V50H71.5859ZM69.5859 32.0781H92.9062V28.0781H69.5859V32.0781ZM90.9062 30.0781V50H94.9062V30.0781H90.9062ZM92.9062 52H106.617V48H92.9062V52ZM108.617 50V0.429688H104.617V50H108.617ZM106.617 -1.57031H92.9062V2.42969H106.617V-1.57031ZM90.9062 0.429688V18.6719H94.9062V0.429688H90.9062ZM92.9062 16.6719H69.5859V20.6719H92.9062V16.6719ZM71.5859 18.6719V0.429688H67.5859V18.6719H71.5859ZM69.5859 -1.57031H55.875V2.42969H69.5859V-1.57031ZM53.875 0.429688V50H57.875V0.429688H53.875ZM117.281 50H115.281V52H117.281V50ZM161.07 50V52H163.07V50H161.07ZM161.07 39.6484H163.07V37.6484H161.07V39.6484ZM130.328 39.6484H128.328V41.6484H130.328V39.6484ZM130.328 29.6484V27.6484H128.328V29.6484H130.328ZM157.008 29.6484V31.6484H159.008V29.6484H157.008ZM157.008 20.1953H159.008V18.1953H157.008V20.1953ZM130.328 20.1953H128.328V22.1953H130.328V20.1953ZM130.328 11.1719V9.17188H128.328V11.1719H130.328ZM160.484 11.1719V13.1719H162.484V11.1719H160.484ZM160.484 0.429688H162.484V-1.57031H160.484V0.429688ZM117.281 0.429688V-1.57031H115.281V0.429688H117.281ZM117.281 52H161.07V48H117.281V52ZM163.07 50V39.6484H159.07V50H163.07ZM161.07 37.6484H130.328V41.6484H161.07V37.6484ZM132.328 39.6484V29.6484H128.328V39.6484H132.328ZM130.328 31.6484H157.008V27.6484H130.328V31.6484ZM159.008 29.6484V20.1953H155.008V29.6484H159.008ZM157.008 18.1953H130.328V22.1953H157.008V18.1953ZM132.328 20.1953V11.1719H128.328V20.1953H132.328ZM130.328 13.1719H160.484V9.17188H130.328V13.1719ZM162.484 11.1719V0.429688H158.484V11.1719H162.484ZM160.484 -1.57031H117.281V2.42969H160.484V-1.57031ZM115.281 0.429688V50H119.281V0.429688H115.281ZM212.75 61.1328H210.75V63.1328H212.75V61.1328ZM225.484 61.1328V63.1328H227.484V61.1328H225.484ZM225.484 39.0625H227.484V37.0625H225.484V39.0625ZM163.531 39.0625V37.0625H161.531V39.0625H163.531ZM163.531 61.1328H161.531V63.1328H163.531V61.1328ZM176.266 61.1328V63.1328H178.266V61.1328H176.266ZM176.266 50V48H174.266V50H176.266ZM212.75 50H214.75V48H212.75V50ZM174.273 0.429688V-1.57031H172.395L172.277 0.303982L174.273 0.429688ZM172.984 20.8984L170.988 20.7727L170.988 20.7809L170.987 20.7891L172.984 20.8984ZM171.266 33.3594L169.34 32.8207L169.337 32.8283L169.335 32.8359L171.266 33.3594ZM167.281 42.8906L165.533 41.9193L163.882 44.8906H167.281V42.8906ZM180.445 42.8906V44.8906H181.67L182.227 43.7996L180.445 42.8906ZM183.453 34.6094L185.399 35.0703L185.4 35.0665L183.453 34.6094ZM185.289 21.6797L187.281 21.8641L187.281 21.8549L187.282 21.8458L185.289 21.6797ZM186.148 11.3672V9.36719H184.308L184.155 11.2011L186.148 11.3672ZM204.938 11.3672H206.938V9.36719H204.938V11.3672ZM204.938 49.8438H202.938V51.8438H204.938V49.8438ZM218.648 49.8438V51.8438H220.648V49.8438H218.648ZM218.648 0.429688H220.648V-1.57031H218.648V0.429688ZM212.75 63.1328H225.484V59.1328H212.75V63.1328ZM227.484 61.1328V39.0625H223.484V61.1328H227.484ZM225.484 37.0625H163.531V41.0625H225.484V37.0625ZM161.531 39.0625V61.1328H165.531V39.0625H161.531ZM163.531 63.1328H176.266V59.1328H163.531V63.1328ZM178.266 61.1328V50H174.266V61.1328H178.266ZM176.266 52H212.75V48H176.266V52ZM210.75 50V61.1328H214.75V50H210.75ZM172.277 0.303982L170.988 20.7727L174.98 21.0241L176.269 0.555393L172.277 0.303982ZM170.987 20.7891C170.704 25.9582 170.143 29.9483 169.34 32.8207L173.192 33.898C174.107 30.6246 174.691 26.3074 174.981 21.0077L170.987 20.7891ZM169.335 32.8359C168.551 35.7279 167.291 38.755 165.533 41.9193L169.03 43.8619C170.917 40.4637 172.314 37.1367 173.196 33.8828L169.335 32.8359ZM167.281 44.8906H180.445V40.8906H167.281V44.8906ZM182.227 43.7996C183.606 41.0964 184.662 38.1844 185.399 35.0703L181.507 34.1484C180.838 36.9718 179.889 39.5807 178.664 41.9817L182.227 43.7996ZM185.4 35.0665C186.135 31.9366 186.757 27.5186 187.281 21.8641L183.298 21.4953C182.779 27.0908 182.177 31.2925 181.506 34.1522L185.4 35.0665ZM187.282 21.8458L188.142 11.5333L184.155 11.2011L183.296 21.5136L187.282 21.8458ZM186.148 13.3672H204.938V9.36719H186.148V13.3672ZM202.938 11.3672V49.8438H206.938V11.3672H202.938ZM204.938 51.8438H218.648V47.8438H204.938V51.8438ZM220.648 49.8438V0.429688H216.648V49.8438H220.648ZM218.648 -1.57031H174.273V2.42969H218.648V-1.57031ZM231.578 50H229.578V52H231.578V50ZM245.289 50V52H247.289V50H245.289ZM245.289 36.0938V34.0938H243.289V36.0938H245.289ZM275.797 31.1719L274.366 29.7747L274.366 29.7748L275.797 31.1719ZM275.719 5.15625L274.328 6.59328L274.333 6.5988L275.719 5.15625ZM231.578 0.429688V-1.57031H229.578V0.429688H231.578ZM245.289 26.7578H243.289V28.7578H245.289V26.7578ZM245.289 10.4297V8.42969H243.289V10.4297H245.289ZM264.859 12.5781L263.419 13.9659L263.426 13.9725L263.432 13.9791L264.859 12.5781ZM231.578 52H245.289V48H231.578V52ZM247.289 50V36.0938H243.289V50H247.289ZM245.289 38.0938H260.836V34.0938H245.289V38.0938ZM260.836 38.0938C267.889 38.0938 273.501 36.387 277.228 32.5689L274.366 29.7748C271.687 32.5193 267.324 34.0938 260.836 34.0938V38.0938ZM277.228 32.5691C280.884 28.8245 282.641 23.9284 282.641 18.0859H278.641C278.641 23.0768 277.168 26.9047 274.366 29.7747L277.228 32.5691ZM282.641 18.0859C282.641 12.1912 280.856 7.31674 277.104 3.7137L274.333 6.5988C277.144 9.29784 278.641 13.0432 278.641 18.0859H282.641ZM277.11 3.71923C273.345 0.0752296 267.873 -1.57031 261.07 -1.57031V2.42969C267.288 2.42969 271.582 3.93519 274.328 6.59327L277.11 3.71923ZM261.07 -1.57031H231.578V2.42969H261.07V-1.57031ZM229.578 0.429688V50H233.578V0.429688H229.578ZM247.289 26.7578V10.4297H243.289V26.7578H247.289ZM245.289 12.4297H257.633V8.42969H245.289V12.4297ZM257.633 12.4297C260.897 12.4297 262.613 13.1288 263.419 13.9659L266.3 11.1903C264.346 9.1629 261.243 8.42969 257.633 8.42969V12.4297ZM263.432 13.9791C264.361 14.9255 264.93 16.3014 264.93 18.3594H268.93C268.93 15.5215 268.118 13.0432 266.287 11.1772L263.432 13.9791ZM264.93 18.3594C264.93 20.5072 264.352 22.0247 263.372 23.1166L266.347 25.7897C268.127 23.8086 268.93 21.2636 268.93 18.3594H264.93ZM263.372 23.1166C262.559 24.0206 260.865 24.7578 257.633 24.7578V28.7578C261.275 28.7578 264.399 27.9586 266.347 25.7897L263.372 23.1166ZM257.633 24.7578H245.289V28.7578H257.633V24.7578ZM334 50V52H336V50H334ZM320.289 50H318.289V52H320.289V50ZM320.289 35.0391H322.289V33.0391H320.289V35.0391ZM304.352 35.0391L303.601 36.893L303.962 37.0391H304.352V35.0391ZM302.711 34.375L303.461 32.5211L303.159 32.3987L302.833 32.3787L302.711 34.375ZM290.055 29.3359L288.61 30.719L288.616 30.7251L290.055 29.3359ZM290.797 5.03906L289.464 3.54798L289.458 3.55304L290.797 5.03906ZM334 0.429688H336V-1.57031H334V0.429688ZM320.289 26.0547V28.0547H322.289V26.0547H320.289ZM320.289 10.1562H322.289V8.15625H320.289V10.1562ZM307.867 10.1562V8.15625H307.858L307.85 8.15633L307.867 10.1562ZM301.461 12.3828L299.969 11.0508L299.968 11.0524L301.461 12.3828ZM301.461 23.9062L299.956 25.2233L299.968 25.2375L299.981 25.2516L301.461 23.9062ZM297.906 50V52H298.96L299.556 51.1309L297.906 50ZM283.297 50L281.661 48.8496L279.446 52H283.297V50ZM297.359 30V28H296.321L295.723 28.8496L297.359 30ZM311.617 30L313.267 31.1309L315.413 28H311.617V30ZM334 48H320.289V52H334V48ZM322.289 50V35.0391H318.289V50H322.289ZM320.289 33.0391H304.352V37.0391H320.289V33.0391ZM305.102 33.1852L303.461 32.5211L301.961 36.2289L303.601 36.893L305.102 33.1852ZM302.833 32.3787C297.65 32.0609 293.964 30.5058 291.493 27.9467L288.616 30.7251C291.978 34.2077 296.731 36.012 302.589 36.3713L302.833 32.3787ZM291.499 27.9529C289 25.342 287.68 21.8718 287.68 17.3438H283.68C283.68 22.7115 285.276 27.2361 288.61 30.7189L291.499 27.9529ZM287.68 17.3438C287.68 12.7062 289.197 9.17189 292.135 6.52509L289.458 3.55304C285.574 7.05207 283.68 11.7208 283.68 17.3438H287.68ZM292.13 6.53014C295.098 3.87718 299.32 2.42969 305.055 2.42969V-1.57031C298.654 -1.57031 293.371 0.055107 289.464 3.54799L292.13 6.53014ZM305.055 2.42969H334V-1.57031H305.055V2.42969ZM332 0.429688V50H336V0.429688H332ZM322.289 26.0547V10.1562H318.289V26.0547H322.289ZM320.289 8.15625H307.867V12.1562H320.289V8.15625ZM307.85 8.15633C304.609 8.18475 301.805 8.99494 299.969 11.0508L302.953 13.7148C303.721 12.854 305.188 12.1798 307.885 12.1562L307.85 8.15633ZM299.968 11.0524C298.29 12.9358 297.547 15.3654 297.547 18.125H301.547C301.547 16.0929 302.08 14.6944 302.954 13.7132L299.968 11.0524ZM297.547 18.125C297.547 20.8863 298.29 23.3198 299.956 25.2233L302.966 22.5892C302.08 21.5761 301.547 20.1554 301.547 18.125H297.547ZM299.981 25.2516C301.825 27.28 304.634 28.0547 307.867 28.0547V24.0547C305.163 24.0547 303.701 23.3971 302.941 22.5609L299.981 25.2516ZM307.867 28.0547H320.289V24.0547H307.867V28.0547ZM297.906 48H283.297V52H297.906V48ZM284.933 51.1504L298.995 31.1504L295.723 28.8496L281.661 48.8496L284.933 51.1504ZM297.359 32H311.617V28H297.359V32ZM309.968 28.8691L296.257 48.8691L299.556 51.1309L313.267 31.1309L309.968 28.8691ZM344.703 50H342.703V52H344.703V50ZM388.492 50V52H390.492V50H388.492ZM388.492 39.6484H390.492V37.6484H388.492V39.6484ZM357.75 39.6484H355.75V41.6484H357.75V39.6484ZM357.75 29.6484V27.6484H355.75V29.6484H357.75ZM384.43 29.6484V31.6484H386.43V29.6484H384.43ZM384.43 20.1953H386.43V18.1953H384.43V20.1953ZM357.75 20.1953H355.75V22.1953H357.75V20.1953ZM357.75 11.1719V9.17188H355.75V11.1719H357.75ZM387.906 11.1719V13.1719H389.906V11.1719H387.906ZM387.906 0.429688H389.906V-1.57031H387.906V0.429688ZM344.703 0.429688V-1.57031H342.703V0.429688H344.703ZM344.703 52H388.492V48H344.703V52ZM390.492 50V39.6484H386.492V50H390.492ZM388.492 37.6484H357.75V41.6484H388.492V37.6484ZM359.75 39.6484V29.6484H355.75V39.6484H359.75ZM357.75 31.6484H384.43V27.6484H357.75V31.6484ZM386.43 29.6484V20.1953H382.43V29.6484H386.43ZM384.43 18.1953H357.75V22.1953H384.43V18.1953ZM359.75 20.1953V11.1719H355.75V20.1953H359.75ZM357.75 13.1719H387.906V9.17188H357.75V13.1719ZM389.906 11.1719V0.429688H385.906V11.1719H389.906ZM387.906 -1.57031H344.703V2.42969H387.906V-1.57031ZM342.703 0.429688V50H346.703V0.429688H342.703ZM395.875 50H393.875V52H395.875V50ZM408.805 50V52H410.807L410.805 49.9973L408.805 50ZM408.766 21.1719L406.766 21.1719L406.766 21.1746L408.766 21.1719ZM408.688 19.3359L406.694 19.4954L406.694 19.502L408.688 19.3359ZM408.57 17.5781V15.5781H406.468L406.573 17.678L408.57 17.5781ZM408.844 17.5781L410.731 16.9174L410.263 15.5781H408.844V17.5781ZM409.43 19.2969L407.532 19.9293L407.536 19.9417L407.541 19.9539L409.43 19.2969ZM410.172 21.1328L408.354 21.9661L408.385 22.035L408.422 22.1013L410.172 21.1328ZM426.148 50L424.399 50.9685L424.969 52H426.148V50ZM436.617 50V52H437.8L438.37 50.9637L436.617 50ZM452.555 21.0156L454.307 21.9793L454.344 21.9126L454.375 21.8432L452.555 21.0156ZM453.883 17.5391V15.5391H452.461L451.994 16.882L453.883 17.5391ZM454.156 17.5391L456.154 17.6299L456.249 15.5391H454.156V17.5391ZM454.039 19.2969L456.031 19.4779L456.032 19.4701L454.039 19.2969ZM453.961 50H451.961V52H453.961V50ZM467.398 50V52H469.398V50H467.398ZM467.398 0.429688H469.398V-1.57031H467.398V0.429688ZM449.82 0.429688V-1.57031H448.652L448.078 -0.552244L449.82 0.429688ZM433.023 30.2344L431.281 29.2524L431.241 29.3229L431.208 29.3963L433.023 30.2344ZM431.656 33.4766V35.4766H433.098L433.554 34.109L431.656 33.4766ZM431.539 33.4766L429.67 34.1886L430.161 35.4766H431.539V33.4766ZM430.133 30.2344L431.949 29.3963L431.914 29.322L431.874 29.2507L430.133 30.2344ZM413.297 0.429688L415.038 -0.553976L414.464 -1.57031H413.297V0.429688ZM395.875 0.429688V-1.57031H393.875V0.429688H395.875ZM395.875 52H408.805V48H395.875V52ZM410.805 49.9973L410.766 21.1692L406.766 21.1746L406.805 50.0027L410.805 49.9973ZM410.766 21.1719C410.766 20.515 410.737 19.8475 410.681 19.1698L406.694 19.502C406.742 20.0744 406.766 20.6309 406.766 21.1719H410.766ZM410.681 19.1764C410.63 18.5406 410.593 17.975 410.568 17.4782L406.573 17.678C406.6 18.2229 406.641 18.8292 406.694 19.4954L410.681 19.1764ZM408.57 19.5781H408.844V15.5781H408.57V19.5781ZM406.956 18.2388C407.134 18.7487 407.327 19.312 407.532 19.9293L411.327 18.6644C411.116 18.0317 410.918 17.4492 410.731 16.9174L406.956 18.2388ZM407.541 19.9539C407.771 20.6175 408.043 21.2883 408.354 21.9661L411.99 20.2995C411.728 19.7274 411.505 19.1742 411.319 18.6398L407.541 19.9539ZM408.422 22.1013L424.399 50.9685L427.898 49.0315L411.922 20.1643L408.422 22.1013ZM426.148 52H436.617V48H426.148V52ZM438.37 50.9637L454.307 21.9793L450.802 20.052L434.865 49.0363L438.37 50.9637ZM454.375 21.8432C454.657 21.2246 454.911 20.6036 455.137 19.9804L451.378 18.6134C451.188 19.136 450.974 19.6608 450.734 20.188L454.375 21.8432ZM455.137 19.9804C455.349 19.3983 455.561 18.8035 455.772 18.1961L451.994 16.882C451.788 17.4725 451.583 18.0496 451.378 18.6134L455.137 19.9804ZM453.883 19.5391H454.156V15.5391H453.883V19.5391ZM452.158 17.4482C452.134 17.9924 452.096 18.5508 452.047 19.1236L456.032 19.4701C456.086 18.845 456.127 18.2316 456.154 17.6299L452.158 17.4482ZM452.047 19.1158C451.99 19.7513 451.961 20.3977 451.961 21.0547H455.961C455.961 20.5137 455.984 19.9883 456.031 19.4779L452.047 19.1158ZM451.961 21.0547V50H455.961V21.0547H451.961ZM453.961 52H467.398V48H453.961V52ZM469.398 50V0.429688H465.398V50H469.398ZM467.398 -1.57031H449.82V2.42969H467.398V-1.57031ZM448.078 -0.552244L431.281 29.2524L434.766 31.2163L451.563 1.41162L448.078 -0.552244ZM431.208 29.3963C430.893 30.0785 430.628 30.6606 430.415 31.1408L434.07 32.7654C434.273 32.3082 434.529 31.7445 434.839 31.0725L431.208 29.3963ZM430.415 31.1408C430.177 31.675 429.959 32.2435 429.759 32.8441L433.554 34.109C433.718 33.6158 433.891 33.1687 434.07 32.7654L430.415 31.1408ZM431.656 31.4766H431.539V35.4766H431.656V31.4766ZM433.408 32.7646C433.189 32.1885 432.967 31.6469 432.742 31.1408L429.086 32.7654C429.278 33.1969 429.473 33.6709 429.67 34.1886L433.408 32.7646ZM432.742 31.1408C432.528 30.6606 432.264 30.0785 431.949 29.3963L428.317 31.0725C428.627 31.7445 428.883 32.3082 429.086 32.7654L432.742 31.1408ZM431.874 29.2507L415.038 -0.553976L411.555 1.41335L428.391 31.218L431.874 29.2507ZM413.297 -1.57031H395.875V2.42969H413.297V-1.57031ZM393.875 0.429688V50H397.875V0.429688H393.875Z" fill="url(#paint0_linear_0_4288)"/>
<defs>
<linearGradient id="paint0_linear_0_4288" x1="446.796" y1="49.9999" x2="-6.51648" y2="22.2754" gradientUnits="userSpaceOnUse">
<stop stop-color="#28AAB9"/>
<stop offset="1" stop-color="#30BCCC"/>
</linearGradient>
</defs>
</svg>
