<svg width="2033" height="66" viewBox="0 0 2033 66" fill="none" xmlns="http://www.w3.org/2000/svg">
<path fill-rule="evenodd" clip-rule="evenodd" d="M9.35526 49.0587L9.3468 49.0526C3.02197 44.4976 0 37.4315 0 28.2891V26.8828C0 17.9061 3.03358 10.9599 9.35596 6.46428C15.4683 2.11051 23.0475 0 31.9609 0C40.8736 0 48.4523 2.11016 54.5644 6.46319C60.9123 10.9574 63.9609 17.9035 63.9609 26.8828V28.2891C63.9609 37.435 60.9234 44.5015 54.5715 49.0551L54.5666 49.0587C48.4541 53.4128 40.8747 55.5234 31.9609 55.5234C23.0472 55.5234 15.4678 53.4128 9.35526 49.0587ZM53.4062 8.09375C47.7031 4.03125 40.5547 2 31.9609 2C23.3672 2 16.2188 4.03125 10.5156 8.09375C4.83854 12.1302 2 18.3932 2 26.8828V28.2891C2 36.9609 4.83854 43.3411 10.5156 47.4297C16.2188 51.4922 23.3672 53.5234 31.9609 53.5234C40.5547 53.5234 47.7031 51.4922 53.4062 47.4297C59.1094 43.3411 61.9609 36.9609 61.9609 28.2891V26.8828C61.9609 18.3932 59.1094 12.1302 53.4062 8.09375ZM21.7796 16.423C19.5761 18.0456 18.2969 20.7186 18.2969 24.9297V30.3984C18.2969 34.7883 19.591 37.5643 21.7952 39.2292C24.2511 41.0641 27.597 42.085 32.011 42.1094C36.3898 42.1337 39.6946 41.1254 42.1143 39.2777L42.1212 39.2724C44.363 37.5759 45.6641 34.7912 45.6641 30.4375V24.9297C45.6641 20.7173 44.3845 18.0644 42.1908 16.469C39.7582 14.6998 36.4147 13.6981 31.9834 13.6484C27.5399 13.6248 24.2059 14.6144 21.7891 16.416L21.7796 16.423ZM32 11.6484C36.7135 11.7005 40.5026 12.7682 43.3672 14.8516C46.2318 16.9349 47.6641 20.2943 47.6641 24.9297V30.4375C47.6641 35.2031 46.2188 38.6797 43.3281 40.8672C40.4635 43.0547 36.6875 44.1354 32 44.1094C27.2865 44.0833 23.4844 42.9896 20.5938 40.8281C17.7292 38.6667 16.2969 35.1901 16.2969 30.3984V24.9297C16.2969 20.2943 17.7292 16.9219 20.5938 14.8125C23.4583 12.6771 27.2604 11.6224 32 11.6484ZM67.6172 54.5469V0.976562H134.821L148.358 22.4232C148.462 22.5748 148.563 22.7244 148.66 22.8715C148.745 22.7335 148.833 22.5907 148.925 22.4433L161.682 0.976562H195.992V15.4375C195.992 19.4597 196.86 21.5244 197.918 22.441C199.107 23.4697 201.426 24.2188 205.398 24.2188C208.176 24.2188 210.79 24.0913 213.24 23.8387L213.242 23.8385C213.422 23.8201 213.605 23.8006 213.789 23.7801V0.976562H231.5V52.9061L255.766 0.9375H272.887L296.992 53.0007V0.976562H344.195V15.7188H314.039V20.7422H340.719V34.1953H314.039V40.1953H344.781V54.5469H278.855L274.679 44.9766H253.209L249.099 54.5469H213.789V38.6553C213.529 38.6894 213.272 38.7216 213.016 38.7518L213.008 38.7527L213 38.7536C210.08 39.0751 206.973 39.2344 203.68 39.2344C195.066 39.2344 188.42 37.637 184.269 33.9672C180.07 30.2554 178.228 24.4492 178.281 17.0718V3.88603L156.82 38.6084C153.425 44.0299 150.281 48.1918 147.382 51.009C144.18 54.1473 139.657 55.5625 134.148 55.5625C132.45 55.5625 130.99 55.4693 129.811 55.2576C128.718 55.0615 127.743 54.8082 126.934 54.4712L125.703 53.9583V38.2277L128.271 38.9887C128.867 39.1651 129.506 39.3006 130.19 39.392C130.892 39.4823 131.727 39.5312 132.703 39.5312C134.456 39.5312 135.765 39.2188 136.728 38.709L136.735 38.7052L136.742 38.7016C137.188 38.4705 137.746 38.0048 138.404 37.2241L115.562 1.64025V15.5625H85.3281V17.6172H98.0938C105.061 17.6172 110.597 19.1002 114.257 22.4849C117.856 25.8144 119.586 30.288 119.586 35.6719C119.586 41.3493 117.816 46.0468 114.109 49.5152C110.386 52.9956 104.901 54.5469 98.0547 54.5469H67.6172ZM140.846 37.3261C140.686 37.5523 140.527 37.7677 140.369 37.9721C140.085 38.3411 139.804 38.6748 139.527 38.9731C138.885 39.6637 138.264 40.1648 137.664 40.4766C136.336 41.1797 134.682 41.5312 132.703 41.5312C131.661 41.5312 130.737 41.4792 129.93 41.375C129.854 41.3649 129.778 41.3543 129.703 41.3432C129.005 41.24 128.338 41.0943 127.703 40.9062V52.625C128.328 52.8854 129.148 53.1068 130.164 53.2891C131.18 53.4714 132.508 53.5625 134.148 53.5625C139.331 53.5625 143.276 52.2344 145.984 49.5781C148.719 46.9219 151.766 42.9115 155.125 37.5469L176.492 2.97656H162.82L150.633 23.4844C150.273 24.0601 149.988 24.5363 149.777 24.9132C149.683 25.0818 149.603 25.2306 149.539 25.3594C149.364 25.7338 149.13 26.3117 148.835 27.093C148.823 27.1268 148.81 27.1608 148.797 27.1953H148.602C148.589 27.1658 148.576 27.1366 148.563 27.1077C148.218 26.3189 147.957 25.7362 147.781 25.3594C147.729 25.2294 147.654 25.075 147.556 24.8961C147.359 24.5371 147.07 24.0796 146.688 23.5234L133.719 2.97656H118.797L140.846 37.3261ZM180.281 17.0781C180.229 24.1615 182 29.2917 185.594 32.4688C189.188 35.6458 195.216 37.2344 203.68 37.2344C206.909 37.2344 209.943 37.0781 212.781 36.7656C213.113 36.7264 213.449 36.6837 213.789 36.6375C214.441 36.5488 215.108 36.4473 215.789 36.333V52.5469H229.5V2.97656H215.789V25.5456C215.098 25.6406 214.432 25.7227 213.789 25.792C213.674 25.8045 213.559 25.8165 213.445 25.8281C210.919 26.0885 208.237 26.2188 205.398 26.2188C201.284 26.2188 198.354 25.4635 196.609 23.9531C194.865 22.4427 193.992 19.6042 193.992 15.4375V2.97656H180.281V17.0781ZM251.891 42.9766H275.988L280.164 52.5469H294.578L271.609 2.9375H257.039L233.875 52.5469H247.781L251.891 42.9766ZM265.438 18.7969C265.252 18.3398 265.082 17.9297 264.927 17.5666C264.925 17.5604 264.922 17.5543 264.92 17.5481C264.911 17.527 264.902 17.506 264.893 17.4852C264.779 17.2191 264.674 16.9792 264.578 16.7656C264.383 16.2538 264.177 15.7876 263.959 15.3671C263.944 15.3383 263.929 15.3096 263.914 15.2812H263.797C263.782 15.3097 263.767 15.3383 263.752 15.3672C263.532 15.7877 263.313 16.2539 263.094 16.7656C263.014 16.9652 262.924 17.1878 262.826 17.4333C262.806 17.4817 262.786 17.5309 262.766 17.5811C262.764 17.5866 262.761 17.592 262.759 17.5975C262.616 17.9529 262.454 18.3527 262.273 18.7969L255.799 33.875H272.017L265.438 18.7969ZM268.962 31.875L263.857 20.1768L258.834 31.875H268.962ZM112.742 48.0547C109.539 51.0495 104.643 52.5469 98.0547 52.5469H69.6172V2.97656H113.562V13.5625H83.3281V19.6172H98.0938C104.839 19.6172 109.773 21.0625 112.898 23.9531C116.023 26.8438 117.586 30.75 117.586 35.6719C117.586 40.9062 115.971 45.0339 112.742 48.0547ZM102.039 30.3984C100.763 28.9661 98.4714 28.25 95.1641 28.25H83.3281V43.4062H95.1641C98.4714 43.4062 100.763 42.7292 102.039 41.375C103.315 40.0208 103.953 38.1719 103.953 35.8281C103.953 33.6146 103.315 31.8047 102.039 30.3984ZM85.3281 41.4062H95.1641C98.3174 41.4062 99.891 40.7383 100.583 40.0034C101.425 39.11 101.953 37.8002 101.953 35.8281C101.953 34.0239 101.446 32.7206 100.558 31.7424L100.552 31.7357L100.546 31.7288C99.8488 30.9466 98.2925 30.25 95.1641 30.25H85.3281V41.4062ZM342.781 42.1953V52.5469H298.992V2.97656H342.195V13.7188H312.039V22.7422H338.719V32.1953H312.039V42.1953H342.781ZM348.164 54.5469V0.976562H368.753L385.867 31.2728L402.941 0.976562H423.688V54.5469H406.25V28.7932L392.089 54.5469H379.259L365.062 28.8954L365.096 54.5469H348.164ZM363.055 23.7188C363.055 23.1974 363.035 22.6661 362.995 22.125C362.995 22.1154 362.994 22.1057 362.993 22.0961C362.993 22.0926 362.993 22.0892 362.993 22.0858C362.988 22.0183 362.982 21.9506 362.977 21.8828C362.928 21.2707 362.89 20.7161 362.864 20.219C362.863 20.1874 362.861 20.1561 362.859 20.125H363.133C363.313 20.6397 363.506 21.2052 363.711 21.8216C363.712 21.8224 363.712 21.8232 363.712 21.824C363.714 21.8306 363.717 21.8371 363.719 21.8438C363.927 22.4427 364.174 23.0547 364.461 23.6797L380.438 52.5469H390.906L406.844 23.5625C407.104 22.9896 407.339 22.4167 407.547 21.8438C407.555 21.8218 407.563 21.7999 407.571 21.7779C407.571 21.7769 407.572 21.776 407.572 21.775C407.772 21.224 407.972 20.661 408.172 20.0859H408.445C408.444 20.1171 408.442 20.1483 408.441 20.1795C408.415 20.7226 408.377 21.2774 408.328 21.8438C408.321 21.9242 408.314 22.005 408.308 22.0859C408.307 22.0971 408.306 22.1083 408.305 22.1195C408.268 22.6043 408.25 23.0983 408.25 23.6016V52.5469H421.688V2.97656H404.109L387.312 32.7812C387.188 33.0504 387.072 33.303 386.965 33.5392C386.93 33.6153 386.896 33.6896 386.863 33.7623C386.741 34.0316 386.63 34.2775 386.531 34.5C386.329 34.9541 386.14 35.4449 385.962 35.9723C385.957 35.9893 385.951 36.0063 385.945 36.0234H385.828C385.822 36.0085 385.817 35.9936 385.811 35.9787C385.608 35.4488 385.406 34.9559 385.203 34.5C385.104 34.2775 384.994 34.0316 384.871 33.7623C384.838 33.6896 384.805 33.6153 384.77 33.5392C384.662 33.303 384.546 33.0504 384.422 32.7812L367.586 2.97656H350.164V52.5469H363.094L363.055 23.7188ZM452.539 54.5469V0.976562H506.891V54.5469H489.141V15.9141H470.25V54.5469H452.539ZM468.25 52.5469H454.539V2.97656H504.891V52.5469H491.141V13.9141H468.25V52.5469ZM513.477 54.5469V0.976562H560.68V15.7188H530.523V20.7422H557.203V34.1953H530.523V40.1953H561.266V54.5469H513.477ZM559.266 42.1953V52.5469H515.477V2.97656H558.68V13.7188H528.523V22.7422H555.203V32.1953H528.523V42.1953H559.266ZM564.648 54.5469V0.976562H596.141C602.942 0.976562 608.414 2.62147 612.178 6.26399C615.927 9.86669 617.711 14.7399 617.711 20.6328C617.711 26.4752 615.954 31.3713 612.298 35.1158C608.571 38.9339 602.96 40.6406 595.906 40.6406H582.359V54.5469H564.648ZM610.789 7.70312C607.534 4.55208 602.651 2.97656 596.141 2.97656H566.648V52.5469H580.359V38.6406H595.906C602.677 38.6406 607.664 37 610.867 33.7188C614.096 30.4115 615.711 26.0495 615.711 20.6328C615.711 15.1641 614.07 10.8542 610.789 7.70312ZM599.93 15.125C598.549 13.6927 596.141 12.9766 592.703 12.9766H580.359V29.3047H592.703C596.141 29.3047 598.549 28.5365 599.93 27C601.31 25.4635 602 23.4323 602 20.9062C602 18.4583 601.31 16.5312 599.93 15.125ZM582.359 27.3047H592.703C595.936 27.3047 597.63 26.5674 598.442 25.6635C599.423 24.5716 600 23.0541 600 20.9062C600 18.8483 599.431 17.4724 598.502 16.5259L598.496 16.5194L598.49 16.5128C597.683 15.6756 595.967 14.9766 592.703 14.9766H582.359V27.3047ZM627.865 49.0269L627.856 49.0204C621.868 44.4561 619.022 37.4826 619.022 28.5234V26.9609C619.022 17.8688 621.937 10.8583 628.09 6.3965C634.041 2.07444 641.662 0 650.787 0C659.529 0 666.479 1.50428 671.356 4.79317C676.309 8.10653 679.188 13.1903 680.112 19.7688L680.124 19.8575L680.269 22.7529C681.086 15.7569 684.078 10.2439 689.394 6.46376C695.506 2.11033 703.085 0 711.998 0C720.911 0 728.49 2.1101 734.602 6.46301C740.95 10.9572 743.998 17.9034 743.998 26.8828V28.2891C743.998 37.435 740.961 44.5015 734.609 49.0551L734.604 49.0587C728.492 53.4128 720.912 55.5234 711.998 55.5234C703.085 55.5234 695.505 53.4128 689.393 49.0587L689.384 49.0526C684.075 45.229 681.093 39.6359 680.272 32.5306L680.168 36.1295L680.164 36.1775C679.678 42.4752 676.909 47.4046 671.852 50.7382C666.897 54.0218 659.794 55.5234 650.827 55.5234C641.428 55.5234 633.706 53.4288 627.865 49.0269ZM670.748 49.0703C675.254 46.1016 677.728 41.7526 678.17 36.0234L678.248 33.3281H664.928L664.85 35.6328C664.537 38.4453 663.314 40.5677 661.178 42C659.069 43.4062 655.722 44.1094 651.139 44.1094C646.347 44.1094 642.558 43.0026 639.772 40.7891C636.985 38.5755 635.592 35.151 635.592 30.5156V24.9297C635.592 20.737 636.946 17.4688 639.655 15.125C642.389 12.7552 646.204 11.5703 651.1 11.5703C655.475 11.5703 658.704 12.3125 660.787 13.7969C662.897 15.2552 664.225 17.1823 664.772 19.5781L664.889 22.3906H678.248L678.131 20.0469C677.272 13.9271 674.642 9.39583 670.241 6.45312C665.84 3.48438 659.355 2 650.787 2C641.959 2 634.785 4.00521 629.264 8.01562C623.769 12 621.022 18.3151 621.022 26.9609V28.5234C621.022 37.0391 623.704 43.3411 629.069 47.4297C634.459 51.4922 641.712 53.5234 650.827 53.5234C659.629 53.5234 666.269 52.0391 670.748 49.0703ZM662.782 19.8542C662.329 18.0473 661.316 16.5939 659.65 15.442L659.638 15.4339L659.627 15.4257C658.048 14.3007 655.323 13.5703 651.1 13.5703C646.514 13.5703 643.224 14.6781 640.965 16.6364L640.963 16.6373C638.771 18.535 637.592 21.2081 637.592 24.9297V30.5156C637.592 34.7408 638.844 37.4979 641.016 39.223C643.343 41.0719 646.643 42.1094 651.139 42.1094C655.6 42.1094 658.455 41.4096 660.064 40.339C661.641 39.2816 662.587 37.7387 662.854 35.4845L662.995 31.3281H680.155C680.077 30.3424 680.037 29.3292 680.037 28.2891V26.8828C680.037 26.0338 680.065 25.203 680.119 24.3906H662.971L662.782 19.8542ZM733.444 8.09375C727.741 4.03125 720.592 2 711.998 2C703.405 2 696.256 4.03125 690.553 8.09375C684.876 12.1302 682.037 18.3932 682.037 26.8828V28.2891C682.037 36.9609 684.876 43.3411 690.553 47.4297C696.256 51.4922 703.405 53.5234 711.998 53.5234C720.592 53.5234 727.741 51.4922 733.444 47.4297C739.147 43.3411 741.998 36.9609 741.998 28.2891V26.8828C741.998 18.3932 739.147 12.1302 733.444 8.09375ZM701.827 16.416L701.817 16.423C699.614 18.0456 698.334 20.7186 698.334 24.9297V30.3984C698.334 34.7888 699.629 37.5649 701.833 39.2298C704.289 41.0643 707.635 42.085 712.049 42.1094C716.427 42.1337 719.732 41.1254 722.152 39.2777L722.159 39.2724C724.4 37.5759 725.702 34.7912 725.702 30.4375V24.9297C725.702 20.7173 724.422 18.0644 722.228 16.469C719.796 14.6998 716.452 13.6981 712.021 13.6484C707.577 13.6248 704.243 14.6144 701.827 16.416ZM712.037 11.6484C716.751 11.7005 720.54 12.7682 723.405 14.8516C726.269 16.9349 727.702 20.2943 727.702 24.9297V30.4375C727.702 35.2031 726.256 38.6797 723.366 40.8672C720.501 43.0547 716.725 44.1354 712.037 44.1094C707.324 44.0833 703.522 42.9896 700.631 40.8281C697.767 38.6667 696.334 35.1901 696.334 30.3984V24.9297C696.334 20.2943 697.767 16.9219 700.631 14.8125C703.496 12.6771 707.298 11.6224 712.037 11.6484ZM747.655 54.5469V0.976562H765.366V19.2188H784.686V0.976562H802.397V52.9061L826.662 0.9375H843.784L867.523 52.211V37.3961L870.126 38.2178C870.519 38.3421 870.892 38.4333 871.244 38.4947C871.614 38.5334 872.041 38.5547 872.531 38.5547C874.514 38.5547 875.415 37.9204 875.899 37.0466L875.904 37.0376C876.644 35.7166 877.272 33.2249 877.607 29.2766C877.607 29.2689 877.608 29.2613 877.609 29.2536L879.321 0.976562H926.445V54.5469H908.734V15.9141H894.822L893.745 30.8935L893.745 30.8952C893.239 37.8488 891.871 43.6125 889.54 48.0797C886.958 53.0526 882.075 55.3281 875.617 55.3281C873.991 55.3281 872.633 55.2625 871.584 55.1127L871.576 55.1115C870.615 54.9702 869.731 54.7814 868.935 54.5366L868.544 54.4163L868.605 54.5469H849.751L845.576 44.9766H824.105L819.996 54.5469H784.686V34.625H765.366V54.5469H747.655ZM822.788 42.9766H846.885L851.061 52.5469H865.475L842.506 2.9375H827.936L804.772 52.5469H818.678L822.788 42.9766ZM836.334 18.7969C836.149 18.3398 835.979 17.9297 835.824 17.5666C835.822 17.5604 835.819 17.5542 835.816 17.5481C835.807 17.527 835.798 17.506 835.79 17.4852C835.676 17.2191 835.571 16.9792 835.475 16.7656C835.28 16.2538 835.074 15.7876 834.856 15.3671C834.841 15.3383 834.826 15.3096 834.811 15.2812H834.694C834.679 15.3097 834.664 15.3383 834.649 15.3672C834.429 15.7877 834.21 16.2539 833.991 16.7656C833.911 16.9652 833.821 17.1878 833.722 17.4333C833.703 17.4817 833.683 17.5309 833.663 17.5811C833.661 17.5866 833.658 17.592 833.656 17.5975C833.513 17.9529 833.351 18.3527 833.17 18.7969L826.696 33.875H842.914L836.334 18.7969ZM839.859 31.875L834.754 20.1768L829.731 31.875H839.859ZM887.766 47.1562C889.927 43.0156 891.255 37.5469 891.75 30.75L892.961 13.9141H910.734V52.5469H924.445V2.97656H881.203L879.602 29.4219C879.263 33.4323 878.612 36.2969 877.648 38.0156C876.711 39.7083 875.005 40.5547 872.531 40.5547C872.175 40.5547 871.839 40.5446 871.523 40.5245C871.331 40.5123 871.146 40.4963 870.969 40.4766C870.5 40.3984 870.018 40.2812 869.523 40.125V52.625C870.201 52.8333 870.982 53.0026 871.867 53.1328C872.779 53.263 874.029 53.3281 875.617 53.3281C881.581 53.3281 885.63 51.2708 887.766 47.1562ZM763.366 2.97656V21.2188H786.686V2.97656H800.397V52.5469H786.686V32.625H763.366V52.5469H749.655V2.97656H763.366Z" fill="url(#paint0_linear_517_4029)"/>
<circle cx="972.445" cy="28" r="6" fill="#28AAB9"/>
<path fill-rule="evenodd" clip-rule="evenodd" d="M1064.8 54.5469L1089.83 0.9375H1106.95L1131.77 54.5469H1112.92L1108.74 44.9766H1087.27L1083.16 54.5469H1064.8ZM1085.95 42.9766H1110.05L1114.23 52.5469H1128.64L1105.67 2.9375H1091.1L1067.94 52.5469H1081.84L1085.95 42.9766ZM1099.5 18.7969C1099.31 18.3398 1099.14 17.9297 1098.99 17.5666C1098.99 17.5604 1098.98 17.5543 1098.98 17.5481C1098.97 17.527 1098.96 17.506 1098.96 17.4852C1098.84 17.2191 1098.74 16.9792 1098.64 16.7656C1098.45 16.2538 1098.24 15.7876 1098.02 15.3671C1098.01 15.3383 1097.99 15.3096 1097.98 15.2812H1097.86C1097.84 15.3097 1097.83 15.3383 1097.81 15.3672C1097.59 15.7877 1097.38 16.2539 1097.16 16.7656C1097.08 16.9652 1096.99 17.1878 1096.89 17.4333C1096.87 17.4817 1096.85 17.5309 1096.83 17.5811C1096.83 17.5866 1096.82 17.592 1096.82 17.5975C1096.68 17.9529 1096.52 18.3527 1096.34 18.7969L1089.86 33.875H1106.08L1099.5 18.7969ZM1103.02 31.875L1097.92 20.1768L1092.9 31.875H1103.02ZM1142.2 35.3984C1142.27 38.5234 1143.41 40.737 1145.59 42.0391C1147.78 43.3151 1151.06 43.9531 1155.44 43.9531C1159.4 43.9531 1162.31 43.3411 1164.19 42.1172C1166.09 40.8932 1167.04 39.2917 1167.04 37.3125C1167.04 35.4375 1166.31 34.0964 1164.85 33.2891C1163.39 32.4557 1160.88 32.0391 1157.31 32.0391H1147.55V22.4297H1157.08C1160.15 22.4297 1162.34 22.026 1163.64 21.2188C1164.97 20.4115 1165.65 18.9401 1165.67 16.8047C1165.67 15.1641 1164.86 13.888 1163.25 12.9766C1161.64 12.0651 1158.98 11.6094 1155.28 11.6094C1151.11 11.6094 1147.99 12.2474 1145.91 13.5234C1143.85 14.7734 1142.77 16.7005 1142.66 19.3047L1142.59 20.5156H1129.66L1129.7 19.2266C1129.7 18.9872 1129.72 18.7502 1129.73 18.5156C1130.11 13.3666 1132.41 9.38481 1136.65 6.57031C1141.1 3.60156 1147.38 2.11719 1155.48 2.11719C1163.37 2.11719 1169.3 3.36719 1173.29 5.86719C1177.3 8.34115 1179.3 11.5443 1179.3 15.4766C1179.28 18.1849 1178.51 20.3984 1177 22.1172C1176.09 23.149 1174.96 24.0166 1173.59 24.7199C1172.69 25.1851 1171.68 25.5785 1170.58 25.9C1170.57 25.9021 1170.56 25.9042 1170.55 25.9062V26.0234C1170.57 26.0255 1170.58 26.0276 1170.59 26.0297C1171.71 26.2275 1172.75 26.5122 1173.7 26.8838C1175.41 27.5454 1176.86 28.4826 1178.05 29.6953C1179.96 31.5703 1180.91 34.2135 1180.91 37.625C1180.91 41.9219 1178.6 45.6328 1173.99 48.7578C1169.41 51.8568 1163.24 53.4062 1155.48 53.4062C1147.2 53.4062 1140.76 51.987 1136.18 49.1484C1131.76 46.3884 1129.4 42.0811 1129.1 36.2266C1129.08 36.0048 1129.08 35.7809 1129.07 35.5547L1129.03 34.2266H1142.16L1142.2 35.3984ZM1127.07 35.6051L1126.97 32.2266H1144.09L1144.19 35.3401L1144.19 35.3485C1144.26 37.9624 1145.16 39.4481 1146.61 40.3159C1148.34 41.3242 1151.2 41.9531 1155.44 41.9531C1159.27 41.9531 1161.71 41.3464 1163.09 40.4424L1163.1 40.4355C1164.53 39.5182 1165.04 38.5052 1165.04 37.3125C1165.04 36.0546 1164.61 35.4435 1163.88 35.0388L1163.87 35.0323L1163.86 35.0255C1162.89 34.4717 1160.84 34.0391 1157.31 34.0391H1145.55V20.4297H1157.08C1160.09 20.4297 1161.79 20.0145 1162.59 19.5189L1162.59 19.5143L1162.6 19.5097C1163.13 19.1885 1163.65 18.5155 1163.67 16.7932C1163.67 15.9859 1163.35 15.3279 1162.27 14.7182C1161.13 14.0744 1158.91 13.6094 1155.28 13.6094C1151.25 13.6094 1148.57 14.2378 1146.95 15.2289L1146.94 15.2327C1145.51 16.1019 1144.74 17.3844 1144.66 19.3846L1144.66 19.4091L1144.46 22.5156H1127.59L1127.7 19.1584L1127.7 19.1508C1127.93 13.0397 1130.56 8.21752 1135.54 4.90471C1140.45 1.63232 1147.17 0.117188 1155.48 0.117188C1163.51 0.117188 1169.89 1.37843 1174.35 4.16906C1178.81 6.92266 1181.3 10.7062 1181.3 15.4766V15.4862L1181.3 15.4958C1181.27 18.5908 1180.39 21.2947 1178.5 23.4374C1177.75 24.2924 1176.88 25.0383 1175.91 25.6818C1177.23 26.3637 1178.43 27.2272 1179.47 28.2813C1181.84 30.6283 1182.91 33.8398 1182.91 37.625C1182.91 42.7777 1180.09 47.039 1175.11 50.4132L1175.11 50.4146C1170.09 53.8106 1163.48 55.4062 1155.48 55.4062C1147.01 55.4062 1140.15 53.9616 1135.13 50.8488L1135.12 50.8444C1129.88 47.5675 1127.24 42.3615 1127.07 35.6095L1127.07 35.6051ZM1185.66 54.5469V0.976562H1216.14C1222.13 0.976562 1226.95 2.0911 1230.23 4.68748C1233.56 7.29916 1235.17 10.9699 1235.17 15.4375C1235.17 18.6693 1234.31 21.5143 1232.47 23.8301C1231.79 24.6905 1231.03 25.4465 1230.19 26.0971C1231.64 26.8144 1232.93 27.7489 1234.08 28.9065C1236.53 31.3332 1237.63 34.663 1237.63 38.6016C1237.63 43.6409 1235.69 47.7067 1231.76 50.5364C1227.96 53.281 1222.97 54.5469 1217 54.5469H1185.66ZM1232.66 30.3203C1231.4 29.0364 1229.9 28.0594 1228.17 27.3892C1227.25 27.0304 1226.26 26.7596 1225.2 26.5767C1225.19 26.5746 1225.18 26.5724 1225.16 26.5703V26.4531C1225.17 26.451 1225.18 26.4489 1225.19 26.4468C1226.2 26.1411 1227.13 25.7259 1227.98 25.2011C1229.09 24.5161 1230.07 23.6444 1230.91 22.5859C1232.42 20.6849 1233.17 18.3021 1233.17 15.4375C1233.17 11.5052 1231.78 8.44531 1228.99 6.25781C1226.23 4.07031 1221.95 2.97656 1216.14 2.97656H1187.66V52.5469H1217C1222.7 52.5469 1227.23 51.3359 1230.59 48.9141C1233.95 46.4922 1235.63 43.0547 1235.63 38.6016C1235.63 35.0339 1234.64 32.2734 1232.66 30.3203ZM1219.7 32.7422C1218.32 31.6484 1216.31 31.1016 1213.68 31.1016H1200.98V43.4453H1213.68C1216.31 43.4453 1218.32 42.9375 1219.7 41.9219C1221.08 40.8802 1221.77 39.3438 1221.77 37.3125C1221.77 35.3333 1221.08 33.8099 1219.7 32.7422ZM1218.5 40.3182C1219.28 39.7234 1219.77 38.834 1219.77 37.3125C1219.77 35.8579 1219.29 34.9588 1218.47 34.3241L1218.46 34.3169L1218.45 34.3097C1217.56 33.6047 1216.07 33.1016 1213.68 33.1016H1202.98V41.4453H1213.68C1216.09 41.4453 1217.6 40.9744 1218.5 40.3182ZM1296.34 54.5469H1278.75L1278.71 28.4612L1259.54 54.5469H1240.98V0.976562H1258.57V26.7946L1277.79 0.976562H1296.34V54.5469ZM1258.57 30.2101C1258.14 30.8845 1257.8 31.4551 1257.57 31.9219C1257.56 31.9336 1257.55 31.9453 1257.55 31.9569C1257.52 32.0118 1257.49 32.0652 1257.47 32.1172C1257.21 32.6901 1256.96 33.3802 1256.73 34.1875H1256.49C1256.49 34.165 1256.49 34.1426 1256.49 34.1201C1256.52 33.4759 1256.53 32.8317 1256.53 32.1875C1256.53 32.099 1256.53 32.0104 1256.53 31.9219C1256.53 31.8472 1256.54 31.7714 1256.54 31.6944C1256.54 31.6872 1256.54 31.6799 1256.54 31.6726C1256.56 31.063 1256.57 30.382 1256.57 29.6294C1256.57 29.5226 1256.57 29.4144 1256.57 29.3047V2.97656H1242.98V52.5469H1258.52L1278.48 25.3984C1278.56 25.2912 1278.64 25.1857 1278.71 25.0817C1279.26 24.3077 1279.65 23.6235 1279.89 23.0292C1279.89 23.0247 1279.89 23.0201 1279.89 23.0156C1280.18 22.3125 1280.42 21.6354 1280.63 20.9844H1280.87C1280.87 21.0093 1280.87 21.0344 1280.87 21.0594C1280.87 21.6793 1280.84 22.321 1280.8 22.9844C1280.79 23.0208 1280.79 23.0572 1280.79 23.0938C1280.78 23.1786 1280.78 23.2655 1280.77 23.3546C1280.77 23.3611 1280.77 23.3677 1280.77 23.3742C1280.73 24.0354 1280.71 24.8124 1280.71 25.7051C1280.71 25.72 1280.71 25.735 1280.71 25.75L1280.75 52.5469H1294.34V2.97656H1278.8L1258.88 29.7344C1258.77 29.8983 1258.66 30.0569 1258.57 30.2101ZM1303.01 54.5469V0.976562H1333.48C1339.47 0.976562 1344.3 2.09115 1347.57 4.68766C1350.9 7.29933 1352.52 10.97 1352.52 15.4375C1352.52 18.6693 1351.66 21.5143 1349.82 23.8301C1349.13 24.6905 1348.37 25.4465 1347.54 26.0971C1348.98 26.8144 1350.28 27.7489 1351.42 28.9065C1353.88 31.3332 1354.98 34.663 1354.98 38.6016C1354.98 43.6409 1353.03 47.7067 1349.11 50.5364C1345.3 53.281 1340.31 54.5469 1334.34 54.5469H1303.01ZM1350.01 30.3203C1348.74 29.0364 1347.24 28.0594 1345.52 27.3892C1344.59 27.0304 1343.6 26.7596 1342.54 26.5767C1342.53 26.5746 1342.52 26.5724 1342.51 26.5703V26.4531C1342.51 26.451 1342.52 26.4489 1342.53 26.4468C1343.54 26.1411 1344.47 25.7259 1345.33 25.2011C1346.44 24.5161 1347.41 23.6444 1348.25 22.5859C1349.76 20.6849 1350.52 18.3021 1350.52 15.4375C1350.52 11.5052 1349.12 8.44531 1346.34 6.25781C1343.58 4.07031 1339.29 2.97656 1333.48 2.97656H1305.01V52.5469H1334.34C1340.05 52.5469 1344.58 51.3359 1347.94 48.9141C1351.3 46.4922 1352.98 43.0547 1352.98 38.6016C1352.98 35.0339 1351.99 32.2734 1350.01 30.3203ZM1337.04 32.7422C1335.66 31.6484 1333.65 31.1016 1331.02 31.1016H1318.33V43.4453H1331.02C1333.65 43.4453 1335.66 42.9375 1337.04 41.9219C1338.42 40.8802 1339.11 39.3438 1339.11 37.3125C1339.11 35.3333 1338.42 33.8099 1337.04 32.7422ZM1335.84 40.3179C1336.63 39.7231 1337.11 38.8338 1337.11 37.3125C1337.11 35.8579 1336.64 34.9588 1335.82 34.3241L1335.81 34.3169L1335.8 34.3097C1334.91 33.6047 1333.42 33.1016 1331.02 33.1016H1320.33V41.4453H1331.02C1333.43 41.4453 1334.95 40.9743 1335.84 40.3179ZM1350.89 54.5469L1375.92 0.9375H1393.04L1417.15 53.0007V0.976562H1464.35V15.7188H1434.2V20.7422H1460.88V34.1953H1434.2V40.1953H1464.94V54.5469H1399.01L1394.83 44.9766H1373.36L1369.26 54.5469H1350.89ZM1372.05 42.9766H1396.14L1400.32 52.5469H1414.73L1391.77 2.9375H1377.2L1354.03 52.5469H1367.94L1372.05 42.9766ZM1385.59 18.7969C1385.41 18.3398 1385.24 17.9297 1385.08 17.5666C1385.08 17.5604 1385.08 17.5543 1385.08 17.5481C1385.07 17.527 1385.06 17.506 1385.05 17.4852C1384.94 17.2191 1384.83 16.9792 1384.73 16.7656C1384.54 16.2538 1384.33 15.7876 1384.12 15.3671C1384.1 15.3383 1384.09 15.3096 1384.07 15.2812H1383.95C1383.94 15.3097 1383.92 15.3383 1383.91 15.3672C1383.69 15.7877 1383.47 16.2539 1383.25 16.7656C1383.17 16.9652 1383.08 17.1878 1382.98 17.4333C1382.96 17.4817 1382.94 17.5309 1382.92 17.5811C1382.92 17.5866 1382.92 17.592 1382.92 17.5975C1382.77 17.9529 1382.61 18.3527 1382.43 18.7969L1375.96 33.875H1392.17L1385.59 18.7969ZM1389.12 31.875L1384.01 20.1768L1378.99 31.875H1389.12ZM1462.94 42.1953V52.5469H1419.15V2.97656H1462.35V13.7188H1432.2V22.7422H1458.88V32.1953H1432.2V42.1953H1462.94ZM1468.32 54.5469V0.976562H1488.91L1506.02 31.2728L1523.1 0.976562H1543.84V54.5469H1526.41V28.7932L1512.25 54.5469H1499.41L1485.22 28.8954L1485.25 54.5469H1468.32ZM1483.21 23.7188C1483.21 23.1974 1483.19 22.6661 1483.15 22.125C1483.15 22.1154 1483.15 22.1057 1483.15 22.0961C1483.15 22.0926 1483.15 22.0892 1483.15 22.0858C1483.14 22.0183 1483.14 21.9506 1483.13 21.8828C1483.08 21.2707 1483.05 20.7161 1483.02 20.219C1483.02 20.1874 1483.02 20.1561 1483.02 20.125H1483.29C1483.47 20.6397 1483.66 21.2052 1483.87 21.8216L1483.87 21.824C1483.87 21.8306 1483.87 21.8371 1483.88 21.8438C1484.08 22.4427 1484.33 23.0547 1484.62 23.6797L1500.59 52.5469H1511.06L1527 23.5625C1527.26 22.9896 1527.49 22.4167 1527.7 21.8438C1527.71 21.8218 1527.72 21.7999 1527.73 21.7779L1527.73 21.775C1527.93 21.224 1528.13 20.661 1528.33 20.0859H1528.6C1528.6 20.1171 1528.6 20.1483 1528.6 20.1795C1528.57 20.7226 1528.53 21.2774 1528.48 21.8438C1528.48 21.9242 1528.47 22.005 1528.46 22.0859C1528.46 22.0971 1528.46 22.1083 1528.46 22.1195C1528.42 22.6043 1528.41 23.0983 1528.41 23.6016V52.5469H1541.84V2.97656H1524.27L1507.47 32.7812C1507.34 33.0504 1507.23 33.303 1507.12 33.5392C1507.09 33.6153 1507.05 33.6896 1507.02 33.7623C1506.9 34.0316 1506.79 34.2775 1506.69 34.5C1506.49 34.9541 1506.3 35.4449 1506.12 35.9723C1506.11 35.9893 1506.11 36.0063 1506.1 36.0234H1505.98C1505.98 36.0085 1505.97 35.9936 1505.97 35.9787C1505.76 35.4488 1505.56 34.9559 1505.36 34.5C1505.26 34.2775 1505.15 34.0316 1505.03 33.7623C1504.99 33.6896 1504.96 33.6153 1504.93 33.5392C1504.82 33.303 1504.7 33.0504 1504.58 32.7812L1487.74 2.97656H1470.32V52.5469H1483.25L1483.21 23.7188ZM1572.7 54.5469V0.976562H1627.05V54.5469H1609.3V15.9141H1590.41V54.5469H1572.7ZM1588.41 52.5469H1574.7V2.97656H1625.05V52.5469H1611.3V13.9141H1588.41V52.5469ZM1633.63 54.5469V0.976562H1665.12C1671.93 0.976562 1677.4 2.62147 1681.16 6.26399C1684.91 9.86669 1686.7 14.7399 1686.7 20.6328C1686.7 26.4752 1684.94 31.3713 1681.28 35.1158C1677.56 38.9339 1671.94 40.6406 1664.89 40.6406H1651.34V54.5469H1633.63ZM1679.77 7.70312C1676.52 4.55208 1671.64 2.97656 1665.12 2.97656H1635.63V52.5469H1649.34V38.6406H1664.89C1671.66 38.6406 1676.65 37 1679.85 33.7188C1683.08 30.4115 1684.7 26.0495 1684.7 20.6328C1684.7 15.1641 1683.05 10.8542 1679.77 7.70312ZM1668.91 15.125C1667.53 13.6927 1665.12 12.9766 1661.69 12.9766H1649.34V29.3047H1661.69C1665.12 29.3047 1667.53 28.5365 1668.91 27C1670.29 25.4635 1670.98 23.4323 1670.98 20.9062C1670.98 18.4583 1670.29 16.5312 1668.91 15.125ZM1651.34 27.3047H1661.69C1664.92 27.3047 1666.61 26.5674 1667.43 25.6635C1668.41 24.5716 1668.98 23.0541 1668.98 20.9062C1668.98 18.8483 1668.42 17.4724 1667.49 16.5259L1667.48 16.5194L1667.47 16.5128C1666.67 15.6756 1664.95 14.9766 1661.69 14.9766H1651.34V27.3047ZM1695.76 49.0587L1695.75 49.0526C1689.43 44.4976 1686.41 37.4315 1686.41 28.2891V26.8828C1686.41 17.9058 1689.44 10.9594 1695.76 6.46376C1701.88 2.11033 1709.45 0 1718.37 0C1727.28 0 1734.86 2.1101 1740.97 6.46301C1747.32 10.9572 1750.37 17.9034 1750.37 26.8828V28.2891C1750.37 37.435 1747.33 44.5015 1740.98 49.0551L1740.97 49.0587C1734.86 53.4128 1727.28 55.5234 1718.37 55.5234C1709.45 55.5234 1701.87 53.4128 1695.76 49.0587ZM1739.81 8.09375C1734.11 4.03125 1726.96 2 1718.37 2C1709.77 2 1702.62 4.03125 1696.92 8.09375C1691.24 12.1302 1688.41 18.3932 1688.41 26.8828V28.2891C1688.41 36.9609 1691.24 43.3411 1696.92 47.4297C1702.62 51.4922 1709.77 53.5234 1718.37 53.5234C1726.96 53.5234 1734.11 51.4922 1739.81 47.4297C1745.52 43.3411 1748.37 36.9609 1748.37 28.2891V26.8828C1748.37 18.3932 1745.52 12.1302 1739.81 8.09375ZM1708.2 16.416L1708.19 16.423C1705.98 18.0456 1704.7 20.7186 1704.7 24.9297V30.3984C1704.7 34.7888 1706 37.5649 1708.2 39.2298C1710.66 41.0643 1714 42.085 1718.42 42.1094C1722.8 42.1337 1726.1 41.1254 1728.52 39.2777L1728.53 39.2724C1730.77 37.5759 1732.07 34.7912 1732.07 30.4375V24.9297C1732.07 20.7173 1730.79 18.0644 1728.6 16.469C1726.16 14.6998 1722.82 13.6981 1718.39 13.6484C1713.95 13.6248 1710.61 14.6144 1708.2 16.416ZM1718.41 11.6484C1713.67 11.6224 1709.86 12.6771 1707 14.8125C1704.14 16.9219 1702.7 20.2943 1702.7 24.9297V30.3984C1702.7 35.1901 1704.14 38.6667 1707 40.8281C1709.89 42.9896 1713.69 44.0833 1718.41 44.1094C1723.09 44.1354 1726.87 43.0547 1729.73 40.8672C1732.62 38.6797 1734.07 35.2031 1734.07 30.4375V24.9297C1734.07 20.2943 1732.64 16.9349 1729.77 14.8516C1726.91 12.7682 1723.12 11.7005 1718.41 11.6484ZM1798.32 65.6797V54.5469H1765.84V65.6797H1749.1V39.6094H1755.46C1756.05 38.1697 1756.53 36.7609 1756.91 35.3828L1756.91 35.3752L1756.91 35.3676C1757.71 32.4952 1758.27 28.5051 1758.56 23.336L1758.56 23.3278L1758.56 23.3196L1759.97 0.976562H1808.22V39.6094H1815.05V65.6797H1798.32ZM1806.22 41.6094V2.97656H1761.84L1760.55 23.4453C1760.27 28.6797 1759.7 32.8333 1758.84 35.9062C1758.51 37.1243 1758.1 38.3586 1757.61 39.6094C1757.35 40.2715 1757.08 40.9381 1756.78 41.6094H1751.1V63.6797H1763.84V52.5469H1800.32V63.6797H1813.05V41.6094H1806.22ZM1770.36 39.6094C1770.15 40.2878 1769.93 40.9545 1769.69 41.6094H1792.51V13.9141H1773.72L1772.86 24.2266C1772.34 29.8516 1771.73 34.1615 1771.02 37.1562C1770.83 37.9904 1770.6 38.8081 1770.36 39.6094ZM1775.56 15.9141L1774.85 24.3927L1774.85 24.4018L1774.85 24.411C1774.33 30.0654 1773.71 34.4835 1772.97 37.6134L1772.97 37.6172C1772.81 38.2907 1772.64 38.9548 1772.45 39.6094H1790.51V15.9141H1775.56ZM1820.31 38.2277L1822.88 38.9887C1823.48 39.1652 1824.12 39.3007 1824.8 39.3921C1825.5 39.4824 1826.34 39.5312 1827.31 39.5312C1829.07 39.5312 1830.37 39.2188 1831.34 38.709L1831.34 38.7052L1831.35 38.7016C1831.8 38.4705 1832.36 38.0048 1833.01 37.2241L1809.75 0.976562H1829.43L1842.97 22.4234C1843.07 22.575 1843.17 22.7245 1843.27 22.8715C1843.35 22.7336 1843.44 22.591 1843.53 22.4438C1843.54 22.4373 1843.54 22.4308 1843.55 22.4244L1856.29 0.976562H1891.66V20.1562H1893.77L1911.31 0.976562H1982.79V15.8359H1963.84V54.5469H1945.94V15.8359H1926.95V7.27479L1908.9 26.4721L1934.85 54.5469H1912.26L1894.34 35.1719H1891.66V54.5469H1873.95V2.17965L1851.43 38.6084C1848.03 44.031 1844.89 48.1935 1841.99 51.0107C1838.79 54.1478 1834.27 55.5625 1828.76 55.5625C1827.06 55.5625 1825.6 55.4693 1824.42 55.2576C1823.33 55.0615 1822.35 54.8082 1821.54 54.4712L1820.31 53.9583V38.2277ZM1840.59 49.5781C1843.33 46.9219 1846.38 42.9115 1849.73 37.5469L1871.1 2.97656H1857.43L1845.24 23.4844C1844.88 24.0601 1844.6 24.5363 1844.39 24.9132C1844.29 25.0818 1844.21 25.2306 1844.15 25.3594C1843.97 25.7338 1843.74 26.3117 1843.44 27.093C1843.43 27.1268 1843.42 27.1608 1843.41 27.1953H1843.21C1843.2 27.1658 1843.19 27.1366 1843.17 27.1077C1842.83 26.319 1842.57 25.7362 1842.39 25.3594C1842.34 25.2294 1842.26 25.075 1842.17 24.896C1841.97 24.5371 1841.68 24.0795 1841.3 23.5234L1828.33 2.97656H1813.41L1835.46 37.3261C1835.3 37.5523 1835.14 37.7677 1834.98 37.9721C1834.69 38.3411 1834.41 38.6748 1834.14 38.9731C1833.49 39.6637 1832.87 40.1648 1832.27 40.4766C1830.95 41.1797 1829.29 41.5312 1827.31 41.5312C1826.27 41.5312 1825.35 41.4792 1824.54 41.375C1824.46 41.3649 1824.39 41.3543 1824.31 41.3432C1823.61 41.24 1822.95 41.0943 1822.31 40.9062V52.625C1822.94 52.8854 1823.76 53.1068 1824.77 53.2891C1825.79 53.4714 1827.12 53.5625 1828.76 53.5625C1833.94 53.5625 1837.89 52.2344 1840.59 49.5781ZM1889.66 33.1719H1895.22L1913.13 52.5469H1930.28L1906.16 26.4604L1928.25 2.97656H1912.2L1894.66 22.1562H1889.66V2.97656H1875.95V52.5469H1889.66V33.1719ZM1928.95 13.8359H1947.94V52.5469H1961.84V13.8359H1980.79V2.97656H1928.95V13.8359ZM1202.98 14.5078V21.8359H1212.94C1215.26 21.8359 1216.49 21.3442 1217.1 20.7936C1217.74 20.215 1218.16 19.3353 1218.16 17.8594C1218.16 16.5169 1217.76 15.8346 1217.22 15.4185C1216.6 14.9411 1215.32 14.5078 1212.94 14.5078H1202.98ZM1320.33 14.5078V21.8359H1330.28C1332.61 21.8359 1333.84 21.3442 1334.44 20.7936C1335.08 20.215 1335.51 19.3353 1335.51 17.8594C1335.51 16.5169 1335.1 15.8346 1334.57 15.4185C1333.95 14.9411 1332.66 14.5078 1330.28 14.5078H1320.33ZM1200.98 23.8359H1212.94C1215.46 23.8359 1217.3 23.3151 1218.45 22.2734C1219.59 21.2318 1220.16 19.7604 1220.16 17.8594C1220.16 16.0625 1219.59 14.7214 1218.45 13.8359C1217.3 12.9505 1215.46 12.5078 1212.94 12.5078H1200.98V23.8359ZM1318.33 23.8359H1330.28C1332.81 23.8359 1334.64 23.3151 1335.79 22.2734C1336.93 21.2318 1337.51 19.7604 1337.51 17.8594C1337.51 16.0625 1336.93 14.7214 1335.79 13.8359C1334.64 12.9505 1332.81 12.5078 1330.28 12.5078H1318.33V23.8359Z" fill="url(#paint1_linear_517_4029)"/>
<path fill-rule="evenodd" clip-rule="evenodd" d="M1016.65 54.5469V0.976562H1048.14C1054.94 0.976562 1060.41 2.62147 1064.18 6.26399C1067.93 9.86669 1069.71 14.7399 1069.71 20.6328C1069.71 26.4752 1067.95 31.3713 1064.3 35.1158C1060.57 38.9339 1054.96 40.6406 1047.91 40.6406H1034.36V54.5469H1016.65ZM1062.79 7.70312C1059.53 4.55208 1054.65 2.97656 1048.14 2.97656H1018.65V52.5469H1032.36V38.6406H1047.91C1054.68 38.6406 1059.66 37 1062.87 33.7188C1066.1 30.4115 1067.71 26.0495 1067.71 20.6328C1067.71 15.1641 1066.07 10.8542 1062.79 7.70312ZM1051.93 15.125C1050.55 13.6927 1048.14 12.9766 1044.7 12.9766H1032.36V29.3047H1044.7C1048.14 29.3047 1050.55 28.5365 1051.93 27C1053.31 25.4635 1054 23.4323 1054 20.9062C1054 18.4583 1053.31 16.5312 1051.93 15.125ZM1034.36 27.3047H1044.7C1047.94 27.3047 1049.63 26.5674 1050.44 25.6635C1051.42 24.5716 1052 23.0541 1052 20.9062C1052 18.8483 1051.43 17.4724 1050.5 16.5259L1050.5 16.5194L1050.49 16.5128C1049.68 15.6756 1047.97 14.9766 1044.7 14.9766H1034.36V27.3047Z" fill="url(#paint2_linear_517_4029)"/>
<circle cx="2026.79" cy="28" r="6" fill="#28AAB9"/>
<defs>
<linearGradient id="paint0_linear_517_4029" x1="873.877" y1="45.1836" x2="24.2903" y2="-110.392" gradientUnits="userSpaceOnUse">
<stop stop-color="#28AAB9"/>
<stop offset="1" stop-color="#30BCCC"/>
</linearGradient>
<linearGradient id="paint1_linear_517_4029" x1="1927.97" y1="53.4109" x2="1035.56" y2="-90.7572" gradientUnits="userSpaceOnUse">
<stop stop-color="#28AAB9"/>
<stop offset="1" stop-color="#30BCCC"/>
</linearGradient>
<linearGradient id="paint2_linear_517_4029" x1="1927.97" y1="53.4109" x2="1035.56" y2="-90.7572" gradientUnits="userSpaceOnUse">
<stop stop-color="#28AAB9"/>
<stop offset="1" stop-color="#30BCCC"/>
</linearGradient>
</defs>
</svg>
