<svg width="1680" height="80" viewBox="0 0 1680 80" fill="none" xmlns="http://www.w3.org/2000/svg">
<path d="M-273.641 67H-275.641V69H-273.641V67ZM-259.93 67V69H-257.93V67H-259.93ZM-259.93 28.3672V26.3672H-261.93V28.3672H-259.93ZM-237.039 28.3672H-235.039V26.3672H-237.039V28.3672ZM-237.039 67H-239.039V69H-237.039V67ZM-223.289 67V69H-221.289V67H-223.289ZM-223.289 17.4297H-221.289V15.4297H-223.289V17.4297ZM-273.641 17.4297V15.4297H-275.641V17.4297H-273.641ZM-273.641 69H-259.93V65H-273.641V69ZM-257.93 67V28.3672H-261.93V67H-257.93ZM-259.93 30.3672H-237.039V26.3672H-259.93V30.3672ZM-239.039 28.3672V67H-235.039V28.3672H-239.039ZM-237.039 69H-223.289V65H-237.039V69ZM-221.289 67V17.4297H-225.289V67H-221.289ZM-223.289 15.4297H-273.641V19.4297H-223.289V15.4297ZM-275.641 17.4297V67H-271.641V17.4297H-275.641ZM-212.703 67H-214.703V69H-212.703V67ZM-198.992 67V69H-196.992V67H-198.992ZM-198.992 53.0938V51.0938H-200.992V53.0938H-198.992ZM-168.484 48.1719L-169.915 46.7747L-169.916 46.7748L-168.484 48.1719ZM-168.562 22.1562L-169.954 23.5933L-169.948 23.5988L-168.562 22.1562ZM-212.703 17.4297V15.4297H-214.703V17.4297H-212.703ZM-198.992 43.7578H-200.992V45.7578H-198.992V43.7578ZM-198.992 27.4297V25.4297H-200.992V27.4297H-198.992ZM-179.422 29.5781L-180.862 30.9659L-180.856 30.9725L-180.849 30.9791L-179.422 29.5781ZM-212.703 69H-198.992V65H-212.703V69ZM-196.992 67V53.0938H-200.992V67H-196.992ZM-198.992 55.0938H-183.445V51.0938H-198.992V55.0938ZM-183.445 55.0938C-176.392 55.0938 -170.78 53.387 -167.053 49.5689L-169.916 46.7748C-172.595 49.5193 -176.957 51.0938 -183.445 51.0938V55.0938ZM-167.053 49.5691C-163.397 45.8245 -161.641 40.9284 -161.641 35.0859H-165.641C-165.641 40.0769 -167.113 43.9047 -169.915 46.7747L-167.053 49.5691ZM-161.641 35.0859C-161.641 29.1912 -163.425 24.3167 -167.177 20.7137L-169.948 23.5988C-167.137 26.2978 -165.641 30.0432 -165.641 35.0859H-161.641ZM-167.171 20.7192C-170.936 17.0752 -176.408 15.4297 -183.211 15.4297V19.4297C-176.993 19.4297 -172.699 20.9352 -169.954 23.5933L-167.171 20.7192ZM-183.211 15.4297H-212.703V19.4297H-183.211V15.4297ZM-214.703 17.4297V67H-210.703V17.4297H-214.703ZM-196.992 43.7578V27.4297H-200.992V43.7578H-196.992ZM-198.992 29.4297H-186.648V25.4297H-198.992V29.4297ZM-186.648 29.4297C-183.384 29.4297 -181.669 30.1288 -180.862 30.9659L-177.982 28.1903C-179.935 26.1629 -183.038 25.4297 -186.648 25.4297V29.4297ZM-180.849 30.9791C-179.92 31.9255 -179.352 33.3014 -179.352 35.3594H-175.352C-175.352 32.5215 -176.163 30.0432 -177.995 28.1772L-180.849 30.9791ZM-179.352 35.3594C-179.352 37.5072 -179.929 39.0247 -180.91 40.1166L-177.934 42.7897C-176.154 40.8086 -175.352 38.2636 -175.352 35.3594H-179.352ZM-180.91 40.1166C-181.722 41.0206 -183.416 41.7578 -186.648 41.7578V45.7578C-183.006 45.7578 -179.882 44.9586 -177.934 42.7897L-180.91 40.1166ZM-186.648 41.7578H-198.992V45.7578H-186.648V41.7578ZM-156.922 67H-158.922V69H-156.922V67ZM-113.133 67V69H-111.133V67H-113.133ZM-113.133 56.6484H-111.133V54.6484H-113.133V56.6484ZM-143.875 56.6484H-145.875V58.6484H-143.875V56.6484ZM-143.875 46.6484V44.6484H-145.875V46.6484H-143.875ZM-117.195 46.6484V48.6484H-115.195V46.6484H-117.195ZM-117.195 37.1953H-115.195V35.1953H-117.195V37.1953ZM-143.875 37.1953H-145.875V39.1953H-143.875V37.1953ZM-143.875 28.1719V26.1719H-145.875V28.1719H-143.875ZM-113.719 28.1719V30.1719H-111.719V28.1719H-113.719ZM-113.719 17.4297H-111.719V15.4297H-113.719V17.4297ZM-156.922 17.4297V15.4297H-158.922V17.4297H-156.922ZM-156.922 69H-113.133V65H-156.922V69ZM-111.133 67V56.6484H-115.133V67H-111.133ZM-113.133 54.6484H-143.875V58.6484H-113.133V54.6484ZM-141.875 56.6484V46.6484H-145.875V56.6484H-141.875ZM-143.875 48.6484H-117.195V44.6484H-143.875V48.6484ZM-115.195 46.6484V37.1953H-119.195V46.6484H-115.195ZM-117.195 35.1953H-143.875V39.1953H-117.195V35.1953ZM-141.875 37.1953V28.1719H-145.875V37.1953H-141.875ZM-143.875 30.1719H-113.719V26.1719H-143.875V30.1719ZM-111.719 28.1719V17.4297H-115.719V28.1719H-111.719ZM-113.719 15.4297H-156.922V19.4297H-113.719V15.4297ZM-158.922 17.4297V67H-154.922V17.4297H-158.922ZM-93.2109 56.4922L-94.2339 58.2108L-94.2263 58.2153L-94.2187 58.2197L-93.2109 56.4922ZM-96.6094 49.8516L-94.61 49.8016L-94.6102 49.7933L-94.6105 49.7849L-96.6094 49.8516ZM-96.6484 48.6797L-94.6496 48.6131L-94.714 46.6797H-96.6484V48.6797ZM-109.773 48.6797V46.6797H-111.833L-111.773 48.7385L-109.773 48.6797ZM-109.734 50.0078L-107.735 49.9574L-107.735 49.949L-109.734 50.0078ZM-102.625 63.6016L-103.685 65.2976L-103.678 65.3019L-102.625 63.6016ZM-64.8125 63.2109L-63.6923 64.8678L-63.6902 64.8664L-64.8125 63.2109ZM-60.75 44.1484L-62.1739 45.5529L-62.1642 45.5627L-62.1544 45.5724L-60.75 44.1484ZM-68.25 40.4766H-70.25V42.157L-68.5948 42.4466L-68.25 40.4766ZM-68.25 40.3594L-68.8065 38.4384L-70.25 38.8566V40.3594H-68.25ZM-59.5 29.9297L-57.5001 29.9489L-57.5 29.9393V29.9297H-59.5ZM-65.5156 20.3203L-66.5786 22.0144L-66.5722 22.0185L-66.5657 22.0225L-65.5156 20.3203ZM-102.156 21.0234L-101.049 22.689L-101.047 22.6875L-102.156 21.0234ZM-109.109 33.6797L-111.108 33.6039L-111.108 33.6115L-111.108 33.6191L-109.109 33.6797ZM-109.148 34.9688L-111.148 34.9082L-111.21 36.9688H-109.148V34.9688ZM-96.2188 34.9688V36.9688H-94.3436L-94.2229 35.0975L-96.2188 34.9688ZM-96.1406 33.7578L-94.1448 33.8866L-94.1432 33.8622L-94.1422 33.8377L-96.1406 33.7578ZM-92.8984 27.9766L-91.8599 29.6858L-91.8538 29.6821L-92.8984 27.9766ZM-75.5547 27.4297L-74.5715 25.688L-75.5547 27.4297ZM-73.1328 31.2578L-71.133 31.2822L-71.1328 31.27V31.2578H-73.1328ZM-75.1641 35.6719L-76.2029 33.9628L-76.2104 33.9674L-76.2179 33.9721L-75.1641 35.6719ZM-91.2578 36.8828V34.8828H-93.2578V36.8828H-91.2578ZM-91.2578 46.4922H-93.2578V48.4922H-91.2578V46.4922ZM-73.9531 47.7422L-74.9454 49.4787L-74.9336 49.4854L-74.9218 49.492L-73.9531 47.7422ZM-74.6172 56.5703L-75.6999 54.8887L-75.7104 54.8956L-74.6172 56.5703ZM-83.3672 56.4062C-87.6132 56.4062 -90.4703 55.7755 -92.2032 54.7646L-94.2187 58.2197C-91.5765 59.761 -87.8711 60.4062 -83.3672 60.4062V56.4062ZM-92.188 54.7736C-93.6449 53.9064 -94.5445 52.4201 -94.61 49.8016L-98.6087 49.9015C-98.518 53.5331 -97.152 56.4738 -94.2339 58.2108L-92.188 54.7736ZM-94.6105 49.7849L-94.6496 48.6131L-98.6473 48.7463L-98.6083 49.9182L-94.6105 49.7849ZM-96.6484 46.6797H-109.773V50.6797H-96.6484V46.6797ZM-111.773 48.7385L-111.734 50.0666L-107.735 49.949L-107.774 48.6209L-111.773 48.7385ZM-111.734 50.0582C-111.563 56.8123 -108.929 62.0199 -103.685 65.2976L-101.565 61.9056C-105.487 59.454 -107.593 55.5991 -107.735 49.9574L-111.734 50.0582ZM-103.678 65.3019C-98.6518 68.4147 -91.7974 69.8594 -83.3281 69.8594V65.8594C-91.4214 65.8594 -97.4315 64.4655 -101.572 61.9012L-103.678 65.3019ZM-83.3281 69.8594C-75.3234 69.8594 -68.7149 68.2638 -63.6923 64.8678L-65.9327 61.5541C-70.0768 64.356 -75.812 65.8594 -83.3281 65.8594V69.8594ZM-63.6902 64.8664C-58.7132 61.4921 -55.8984 57.2308 -55.8984 52.0781H-59.8984C-59.8984 55.5192 -61.693 58.6797 -65.9348 61.5555L-63.6902 64.8664ZM-55.8984 52.0781C-55.8984 48.2876 -56.9651 45.0724 -59.3456 42.7245L-62.1544 45.5724C-60.7328 46.9745 -59.8984 49.0457 -59.8984 52.0781H-55.8984ZM-59.3261 42.744C-61.5449 40.4943 -64.4495 39.1113 -67.9052 38.5065L-68.5948 42.4466C-65.8005 42.9356 -63.7051 44.0005 -62.1739 45.5529L-59.3261 42.744ZM-66.25 40.4766V40.3594H-70.25V40.4766H-66.25ZM-67.6935 42.2804C-64.6383 41.3952 -62.1238 39.9632 -60.3024 37.8905L-63.307 35.2501C-64.5064 36.6149 -66.2888 37.7089 -68.8065 38.4384L-67.6935 42.2804ZM-60.3024 37.8905C-58.4194 35.7478 -57.5298 33.0439 -57.5001 29.9489L-61.4999 29.9105C-61.5222 32.2321 -62.1692 33.9553 -63.307 35.2501L-60.3024 37.8905ZM-57.5 29.9297C-57.5 25.157 -60.0013 21.3721 -64.4656 18.6181L-66.5657 22.0225C-63.0091 24.2165 -61.5 26.8378 -61.5 29.9297H-57.5ZM-64.4526 18.6262C-68.9047 15.8328 -75.2884 14.5703 -83.3281 14.5703V18.5703C-75.5866 18.5703 -70.0953 19.8079 -66.5786 22.0144L-64.4526 18.6262ZM-83.3281 14.5703C-91.6324 14.5703 -98.3555 16.0859 -103.266 19.3593L-101.047 22.6875C-97.0507 20.0235 -91.2217 18.5703 -83.3281 18.5703V14.5703ZM-103.263 19.3578C-108.247 22.6706 -110.876 27.4928 -111.108 33.6039L-107.111 33.7555C-106.926 28.877 -104.919 25.2616 -101.049 22.689L-103.263 19.3578ZM-111.108 33.6191L-111.148 34.9082L-107.149 35.0293L-107.11 33.7403L-111.108 33.6191ZM-109.148 36.9688H-96.2188V32.9688H-109.148V36.9688ZM-94.2229 35.0975L-94.1448 33.8866L-98.1365 33.629L-98.2146 34.84L-94.2229 35.0975ZM-94.1422 33.8377C-94.0622 31.8376 -93.2905 30.555 -91.8599 29.6858L-93.937 26.2673C-96.6209 27.8981 -98.0107 30.4697 -98.139 33.6779L-94.1422 33.8377ZM-91.8538 29.6821C-90.2355 28.6909 -87.551 28.0625 -83.5234 28.0625V24.0625C-87.8292 24.0625 -91.3947 24.7102 -93.9431 26.2711L-91.8538 29.6821ZM-83.5234 28.0625C-79.8906 28.0625 -77.6783 28.5275 -76.5379 29.1713L-74.5715 25.688C-76.6602 24.5089 -79.7604 24.0625 -83.5234 24.0625V28.0625ZM-76.5379 29.1713C-75.4528 29.7839 -75.1328 30.4453 -75.1328 31.2578H-71.1328C-71.1328 28.7891 -72.4274 26.8984 -74.5715 25.688L-76.5379 29.1713ZM-75.1327 31.2334C-75.1538 32.9653 -75.6731 33.6408 -76.2029 33.9628L-74.1252 37.3809C-71.9988 36.0884 -71.1639 33.8212 -71.133 31.2822L-75.1327 31.2334ZM-76.2179 33.9721C-77.0173 34.4676 -78.719 34.8828 -81.7266 34.8828V38.8828C-78.5883 38.8828 -75.915 38.4907 -74.1102 37.3717L-76.2179 33.9721ZM-81.7266 34.8828H-91.2578V38.8828H-81.7266V34.8828ZM-93.2578 36.8828V46.4922H-89.2578V36.8828H-93.2578ZM-91.2578 48.4922H-81.4922V44.4922H-91.2578V48.4922ZM-81.4922 48.4922C-77.963 48.4922 -75.9146 48.9249 -74.9454 49.4787L-72.9608 46.0057C-74.9083 44.8928 -77.886 44.4922 -81.4922 44.4922V48.4922ZM-74.9218 49.492C-74.1908 49.8966 -73.7656 50.5077 -73.7656 51.7656H-69.7656C-69.7656 49.2735 -70.7988 47.2024 -72.9845 45.9924L-74.9218 49.492ZM-73.7656 51.7656C-73.7656 52.9584 -74.275 53.9713 -75.6999 54.8887L-73.5345 58.2519C-71.1573 56.7214 -69.7656 54.5312 -69.7656 51.7656H-73.7656ZM-75.7104 54.8956C-77.0952 55.7995 -79.5366 56.4062 -83.3672 56.4062V60.4062C-79.2811 60.4062 -75.8891 59.789 -73.5239 58.2451L-75.7104 54.8956ZM-51.1406 67H-53.1406V69H-51.1406V67ZM-7.35156 67V69H-5.35156V67H-7.35156ZM-7.35156 56.6484H-5.35156V54.6484H-7.35156V56.6484ZM-38.0938 56.6484H-40.0938V58.6484H-38.0938V56.6484ZM-38.0938 46.6484V44.6484H-40.0938V46.6484H-38.0938ZM-11.4141 46.6484V48.6484H-9.41406V46.6484H-11.4141ZM-11.4141 37.1953H-9.41406V35.1953H-11.4141V37.1953ZM-38.0938 37.1953H-40.0938V39.1953H-38.0938V37.1953ZM-38.0938 28.1719V26.1719H-40.0938V28.1719H-38.0938ZM-7.9375 28.1719V30.1719H-5.9375V28.1719H-7.9375ZM-7.9375 17.4297H-5.9375V15.4297H-7.9375V17.4297ZM-51.1406 17.4297V15.4297H-53.1406V17.4297H-51.1406ZM-51.1406 69H-7.35156V65H-51.1406V69ZM-5.35156 67V56.6484H-9.35156V67H-5.35156ZM-7.35156 54.6484H-38.0938V58.6484H-7.35156V54.6484ZM-36.0938 56.6484V46.6484H-40.0938V56.6484H-36.0938ZM-38.0938 48.6484H-11.4141V44.6484H-38.0938V48.6484ZM-9.41406 46.6484V37.1953H-13.4141V46.6484H-9.41406ZM-11.4141 35.1953H-38.0938V39.1953H-11.4141V35.1953ZM-36.0938 37.1953V28.1719H-40.0938V37.1953H-36.0938ZM-38.0938 30.1719H-7.9375V26.1719H-38.0938V30.1719ZM-5.9375 28.1719V17.4297H-9.9375V28.1719H-5.9375ZM-7.9375 15.4297H-51.1406V19.4297H-7.9375V15.4297ZM-53.1406 17.4297V67H-49.1406V17.4297H-53.1406ZM0.03125 67H-1.96875V69H0.03125V67ZM13.7422 67V69H15.7422V67H13.7422ZM13.7422 47.0781V45.0781H11.7422V47.0781H13.7422ZM37.0625 47.0781H39.0625V45.0781H37.0625V47.0781ZM37.0625 67H35.0625V69H37.0625V67ZM50.7734 67V69H52.7734V67H50.7734ZM50.7734 17.4297H52.7734V15.4297H50.7734V17.4297ZM37.0625 17.4297V15.4297H35.0625V17.4297H37.0625ZM37.0625 35.6719V37.6719H39.0625V35.6719H37.0625ZM13.7422 35.6719H11.7422V37.6719H13.7422V35.6719ZM13.7422 17.4297H15.7422V15.4297H13.7422V17.4297ZM0.03125 17.4297V15.4297H-1.96875V17.4297H0.03125ZM0.03125 69H13.7422V65H0.03125V69ZM15.7422 67V47.0781H11.7422V67H15.7422ZM13.7422 49.0781H37.0625V45.0781H13.7422V49.0781ZM35.0625 47.0781V67H39.0625V47.0781H35.0625ZM37.0625 69H50.7734V65H37.0625V69ZM52.7734 67V17.4297H48.7734V67H52.7734ZM50.7734 15.4297H37.0625V19.4297H50.7734V15.4297ZM35.0625 17.4297V35.6719H39.0625V17.4297H35.0625ZM37.0625 33.6719H13.7422V37.6719H37.0625V33.6719ZM15.7422 35.6719V17.4297H11.7422V35.6719H15.7422ZM13.7422 15.4297H0.03125V19.4297H13.7422V15.4297ZM-1.96875 17.4297V67H2.03125V17.4297H-1.96875ZM56.7109 28.2891H54.7109V30.2891H56.7109V28.2891ZM75.6953 28.2891H77.6953V26.2891H75.6953V28.2891ZM75.6953 67H73.6953V69H75.6953V67ZM89.6016 67V69H91.6016V67H89.6016ZM89.6016 28.2891V26.2891H87.6016V28.2891H89.6016ZM108.547 28.2891V30.2891H110.547V28.2891H108.547ZM108.547 17.4297H110.547V15.4297H108.547V17.4297ZM56.7109 17.4297V15.4297H54.7109V17.4297H56.7109ZM56.7109 30.2891H75.6953V26.2891H56.7109V30.2891ZM73.6953 28.2891V67H77.6953V28.2891H73.6953ZM75.6953 69H89.6016V65H75.6953V69ZM91.6016 67V28.2891H87.6016V67H91.6016ZM89.6016 30.2891H108.547V26.2891H89.6016V30.2891ZM110.547 28.2891V17.4297H106.547V28.2891H110.547ZM108.547 15.4297H56.7109V19.4297H108.547V15.4297ZM54.7109 17.4297V28.2891H58.7109V17.4297H54.7109ZM108.195 67L106.383 66.1538L105.054 69H108.195V67ZM122.102 67V69H123.419L123.939 67.7891L122.102 67ZM136.594 33.25L138.431 34.0391L138.439 34.021L138.447 34.0028L136.594 33.25ZM137.414 31.2188L135.576 30.4309L135.566 30.4533L135.557 30.476L137.414 31.2188ZM138.117 29.7344V27.7344H136.913L136.35 28.7986L138.117 29.7344ZM138.234 29.7344L140.002 28.7986L139.439 27.7344H138.234V29.7344ZM138.898 31.2188L137.029 31.9307L137.05 31.9858L137.075 32.0395L138.898 31.2188ZM139.758 33.25L137.905 34.0028L137.914 34.0264L137.925 34.0499L139.758 33.25ZM154.484 67L152.651 67.7999L153.175 69H154.484V67ZM168.898 67V69H172.028L170.713 66.1597L168.898 67ZM145.93 17.3906L147.745 16.5503L147.208 15.3906H145.93V17.3906ZM131.359 17.3906V15.3906H130.086L129.547 16.5445L131.359 17.3906ZM119.797 57.4297L117.923 56.7301L116.915 59.4297H119.797V57.4297ZM156.984 57.4297V59.4297H159.866L158.858 56.7301L156.984 57.4297ZM153.586 48.3281L155.46 47.6285L154.974 46.3281H153.586V48.3281ZM123.195 48.3281V46.3281H121.807L121.322 47.6285L123.195 48.3281ZM108.195 69H122.102V65H108.195V69ZM123.939 67.7891L138.431 34.0391L134.756 32.4609L120.264 66.2109L123.939 67.7891ZM138.447 34.0028C138.786 33.1678 139.061 32.4871 139.271 31.9615L135.557 30.476C135.351 30.9921 135.079 31.6655 134.741 32.4972L138.447 34.0028ZM139.252 32.0066C139.469 31.501 139.68 31.0566 139.885 30.6702L136.35 28.7986C136.085 29.2976 135.828 29.8428 135.576 30.4309L139.252 32.0066ZM138.117 31.7344H138.234V27.7344H138.117V31.7344ZM136.467 30.6702C136.657 31.0296 136.846 31.4481 137.029 31.9307L140.767 30.5068C140.535 29.8957 140.28 29.3246 140.002 28.7986L136.467 30.6702ZM137.075 32.0395C137.295 32.5289 137.571 33.1809 137.905 34.0028L141.611 32.4972C141.268 31.6524 140.971 30.9503 140.722 30.398L137.075 32.0395ZM137.925 34.0499L152.651 67.7999L156.317 66.2001L141.591 32.4501L137.925 34.0499ZM154.484 69H168.898V65H154.484V69ZM170.713 66.1597L147.745 16.5503L144.115 18.2309L167.084 67.8403L170.713 66.1597ZM145.93 15.3906H131.359V19.3906H145.93V15.3906ZM129.547 16.5445L106.383 66.1538L110.008 67.8462L133.172 18.2368L129.547 16.5445ZM119.797 59.4297H156.984V55.4297H119.797V59.4297ZM158.858 56.7301L155.46 47.6285L151.712 49.0277L155.111 58.1293L158.858 56.7301ZM153.586 46.3281H123.195V50.3281H153.586V46.3281ZM121.322 47.6285L117.923 56.7301L121.671 58.1293L125.069 49.0277L121.322 47.6285ZM217.766 78.1328H215.766V80.1328H217.766V78.1328ZM230.5 78.1328V80.1328H232.5V78.1328H230.5ZM230.5 56.0625H232.5V54.0625H230.5V56.0625ZM223.664 56.0625H221.664V58.0625H223.664V56.0625ZM223.664 17.4297H225.664V15.4297H223.664V17.4297ZM209.953 17.4297V15.4297H207.953V17.4297H209.953ZM209.953 56.0625V58.0625H211.953V56.0625H209.953ZM187.023 56.0625H185.023V58.0625H187.023V56.0625ZM187.023 17.4297H189.023V15.4297H187.023V17.4297ZM173.312 17.4297V15.4297H171.312V17.4297H173.312ZM173.312 67H171.312V69H173.312V67ZM217.766 67H219.766V65H217.766V67ZM217.766 80.1328H230.5V76.1328H217.766V80.1328ZM232.5 78.1328V56.0625H228.5V78.1328H232.5ZM230.5 54.0625H223.664V58.0625H230.5V54.0625ZM225.664 56.0625V17.4297H221.664V56.0625H225.664ZM223.664 15.4297H209.953V19.4297H223.664V15.4297ZM207.953 17.4297V56.0625H211.953V17.4297H207.953ZM209.953 54.0625H187.023V58.0625H209.953V54.0625ZM189.023 56.0625V17.4297H185.023V56.0625H189.023ZM187.023 15.4297H173.312V19.4297H187.023V15.4297ZM171.312 17.4297V67H175.312V17.4297H171.312ZM173.312 69H217.766V65H173.312V69ZM215.766 67V78.1328H219.766V67H215.766ZM287.961 67V69H289.961V67H287.961ZM287.961 17.4297H289.961V15.4297H287.961V17.4297ZM272.414 17.4297V15.4297H271.41L270.81 16.2353L272.414 17.4297ZM252.492 44.1875L250.888 42.9931L250.853 43.0397L250.821 43.0883L252.492 44.1875ZM251.086 46.5703L249.282 45.7074L249.273 45.725L249.265 45.7427L251.086 46.5703ZM250.344 48.6406V50.6406H251.846L252.264 49.1982L250.344 48.6406ZM250.109 48.6406L248.111 48.5717L248.039 50.6406H250.109V48.6406ZM250.148 46.375L248.15 46.3061L248.148 46.3405V46.375H250.148ZM250.188 17.4297H252.188V15.4297H250.188V17.4297ZM236.594 17.4297V15.4297H234.594V17.4297H236.594ZM236.594 67H234.594V69H236.594V67ZM252.141 67V69H253.153L253.752 68.1847L252.141 67ZM272.102 39.8516L270.496 38.6589L270.49 38.6668L272.102 39.8516ZM273.508 37.4688L271.656 36.7142L271.648 36.7324L271.641 36.7508L273.508 37.4688ZM274.25 35.4375V33.4375H272.79L272.345 34.8279L274.25 35.4375ZM274.484 35.4375H276.484V33.4375H274.484V35.4375ZM274.328 40.2031H272.328V40.206L274.328 40.2031ZM274.367 67L272.367 67.0029L272.37 69H274.367V67ZM289.961 67V17.4297H285.961V67H289.961ZM287.961 15.4297H272.414V19.4297H287.961V15.4297ZM270.81 16.2353L250.888 42.9931L254.096 45.3819L274.018 18.6241L270.81 16.2353ZM250.821 43.0883C250.153 44.1047 249.626 44.9871 249.282 45.7074L252.89 47.4332C253.119 46.9556 253.53 46.2494 254.163 45.2867L250.821 43.0883ZM249.265 45.7427C248.954 46.4265 248.676 47.212 248.423 48.083L252.264 49.1982C252.48 48.4547 252.697 47.8599 252.907 47.3979L249.265 45.7427ZM250.344 46.6406H250.109V50.6406H250.344V46.6406ZM252.108 48.7095C252.135 47.9314 252.148 47.1532 252.148 46.375H248.148C248.148 47.1072 248.136 47.8394 248.111 48.5717L252.108 48.7095ZM252.147 46.4439C252.174 45.66 252.188 44.7638 252.188 43.7578H248.188C248.188 44.731 248.175 45.5796 248.15 46.3061L252.147 46.4439ZM252.188 43.7578V17.4297H248.188V43.7578H252.188ZM250.188 15.4297H236.594V19.4297H250.188V15.4297ZM234.594 17.4297V67H238.594V17.4297H234.594ZM236.594 69H252.141V65H236.594V69ZM253.752 68.1847L273.713 41.0363L270.49 38.6668L250.529 65.8153L253.752 68.1847ZM273.707 41.0442C274.439 40.0593 275.023 39.1004 275.375 38.1867L271.641 36.7508C271.472 37.1912 271.119 37.8209 270.496 38.6589L273.707 41.0442ZM275.36 38.2233C275.664 37.4777 275.929 36.7521 276.155 36.0471L272.345 34.8279C272.154 35.425 271.925 36.0535 271.656 36.7142L275.36 38.2233ZM274.25 37.4375H274.484V33.4375H274.25V37.4375ZM272.484 35.4375C272.484 36.0635 272.46 36.7189 272.411 37.4044L276.401 37.6894C276.456 36.9165 276.484 36.1657 276.484 35.4375H272.484ZM272.411 37.4044C272.355 38.1961 272.328 39.1321 272.328 40.2031H276.328C276.328 39.1909 276.354 38.3559 276.401 37.6894L272.411 37.4044ZM272.328 40.206L272.367 67.0029L276.367 66.9971L276.328 40.2002L272.328 40.206ZM274.367 69H287.961V65H274.367V69ZM345.266 67V69H347.266V67H345.266ZM331.555 67H329.555V69H331.555V67ZM331.555 52.0391H333.555V50.0391H331.555V52.0391ZM315.617 52.0391L314.867 53.893L315.228 54.0391H315.617V52.0391ZM313.977 51.375L314.727 49.5211L314.425 49.3987L314.099 49.3787L313.977 51.375ZM301.32 46.3359L299.876 47.719L299.882 47.7251L301.32 46.3359ZM302.062 22.0391L300.73 20.548L300.724 20.553L302.062 22.0391ZM345.266 17.4297H347.266V15.4297H345.266V17.4297ZM331.555 43.0547V45.0547H333.555V43.0547H331.555ZM331.555 27.1562H333.555V25.1562H331.555V27.1562ZM319.133 27.1562V25.1562H319.124L319.115 25.1563L319.133 27.1562ZM312.727 29.3828L311.235 28.0508L311.233 28.0524L312.727 29.3828ZM312.727 40.9062L311.221 42.2233L311.234 42.2375L311.247 42.2516L312.727 40.9062ZM309.172 67V69H310.226L310.821 68.1309L309.172 67ZM294.562 67L292.926 65.8496L290.711 69H294.562V67ZM308.625 47V45H307.586L306.989 45.8496L308.625 47ZM322.883 47L324.532 48.1309L326.679 45H322.883V47ZM345.266 65H331.555V69H345.266V65ZM333.555 67V52.0391H329.555V67H333.555ZM331.555 50.0391H315.617V54.0391H331.555V50.0391ZM316.368 50.1852L314.727 49.5211L313.226 53.2289L314.867 53.893L316.368 50.1852ZM314.099 49.3787C308.915 49.0609 305.23 47.5058 302.759 44.9467L299.882 47.7251C303.244 51.2077 307.996 53.012 313.854 53.3713L314.099 49.3787ZM302.765 44.9529C300.266 42.342 298.945 38.8718 298.945 34.3438H294.945C294.945 39.7115 296.542 44.2361 299.876 47.7189L302.765 44.9529ZM298.945 34.3438C298.945 29.7062 300.463 26.1719 303.401 23.5251L300.724 20.553C296.839 24.0521 294.945 28.7208 294.945 34.3438H298.945ZM303.395 23.5301C306.363 20.8772 310.586 19.4297 316.32 19.4297V15.4297C309.919 15.4297 304.637 17.0551 300.73 20.548L303.395 23.5301ZM316.32 19.4297H345.266V15.4297H316.32V19.4297ZM343.266 17.4297V67H347.266V17.4297H343.266ZM333.555 43.0547V27.1562H329.555V43.0547H333.555ZM331.555 25.1562H319.133V29.1562H331.555V25.1562ZM319.115 25.1563C315.875 25.1848 313.07 25.9949 311.235 28.0508L314.218 30.7148C314.987 29.854 316.453 29.1798 319.15 29.1562L319.115 25.1563ZM311.233 28.0524C309.555 29.9358 308.812 32.3654 308.812 35.125H312.812C312.812 33.0929 313.346 31.6944 314.22 30.7132L311.233 28.0524ZM308.812 35.125C308.812 37.8863 309.556 40.3198 311.221 42.2233L314.232 39.5892C313.345 38.5761 312.812 37.1554 312.812 35.125H308.812ZM311.247 42.2516C313.091 44.28 315.9 45.0547 319.133 45.0547V41.0547C316.429 41.0547 314.967 40.3971 314.206 39.5609L311.247 42.2516ZM319.133 45.0547H331.555V41.0547H319.133V45.0547ZM309.172 65H294.562V69H309.172V65ZM296.199 68.1504L310.261 48.1504L306.989 45.8496L292.926 65.8496L296.199 68.1504ZM308.625 49H322.883V45H308.625V49ZM321.233 45.8691L307.522 65.8691L310.821 68.1309L324.532 48.1309L321.233 45.8691ZM378.156 67H376.156V69H378.156V67ZM391.867 67V69H393.867V67H391.867ZM391.867 28.3672V26.3672H389.867V28.3672H391.867ZM414.758 28.3672H416.758V26.3672H414.758V28.3672ZM414.758 67H412.758V69H414.758V67ZM428.508 67V69H430.508V67H428.508ZM428.508 17.4297H430.508V15.4297H428.508V17.4297ZM378.156 17.4297V15.4297H376.156V17.4297H378.156ZM378.156 69H391.867V65H378.156V69ZM393.867 67V28.3672H389.867V67H393.867ZM391.867 30.3672H414.758V26.3672H391.867V30.3672ZM412.758 28.3672V67H416.758V28.3672H412.758ZM414.758 69H428.508V65H414.758V69ZM430.508 67V17.4297H426.508V67H430.508ZM428.508 15.4297H378.156V19.4297H428.508V15.4297ZM376.156 17.4297V67H380.156V17.4297H376.156ZM439.094 67H437.094V69H439.094V67ZM452.805 67V69H454.805V67H452.805ZM452.805 53.0938V51.0938H450.805V53.0938H452.805ZM483.312 48.1719L481.881 46.7747L481.881 46.7748L483.312 48.1719ZM483.234 22.1562L481.843 23.5933L481.849 23.5988L483.234 22.1562ZM439.094 17.4297V15.4297H437.094V17.4297H439.094ZM452.805 43.7578H450.805V45.7578H452.805V43.7578ZM452.805 27.4297V25.4297H450.805V27.4297H452.805ZM472.375 29.5781L470.935 30.9659L470.941 30.9725L470.948 30.9791L472.375 29.5781ZM439.094 69H452.805V65H439.094V69ZM454.805 67V53.0938H450.805V67H454.805ZM452.805 55.0938H468.352V51.0938H452.805V55.0938ZM468.352 55.0938C475.405 55.0938 481.017 53.387 484.744 49.5689L481.881 46.7748C479.202 49.5193 474.84 51.0938 468.352 51.0938V55.0938ZM484.744 49.5691C488.4 45.8245 490.156 40.9284 490.156 35.0859H486.156C486.156 40.0769 484.684 43.9047 481.881 46.7747L484.744 49.5691ZM490.156 35.0859C490.156 29.1912 488.372 24.3167 484.62 20.7137L481.849 23.5988C484.66 26.2978 486.156 30.0432 486.156 35.0859H490.156ZM484.625 20.7192C480.861 17.0752 475.389 15.4297 468.586 15.4297V19.4297C474.804 19.4297 479.097 20.9352 481.843 23.5933L484.625 20.7192ZM468.586 15.4297H439.094V19.4297H468.586V15.4297ZM437.094 17.4297V67H441.094V17.4297H437.094ZM454.805 43.7578V27.4297H450.805V43.7578H454.805ZM452.805 29.4297H465.148V25.4297H452.805V29.4297ZM465.148 29.4297C468.413 29.4297 470.128 30.1288 470.935 30.9659L473.815 28.1903C471.861 26.1629 468.759 25.4297 465.148 25.4297V29.4297ZM470.948 30.9791C471.877 31.9255 472.445 33.3014 472.445 35.3594H476.445C476.445 32.5215 475.634 30.0432 473.802 28.1772L470.948 30.9791ZM472.445 35.3594C472.445 37.5072 471.868 39.0247 470.887 40.1166L473.863 42.7897C475.642 40.8086 476.445 38.2636 476.445 35.3594H472.445ZM470.887 40.1166C470.075 41.0206 468.381 41.7578 465.148 41.7578V45.7578C468.791 45.7578 471.914 44.9586 473.863 42.7897L470.887 40.1166ZM465.148 41.7578H452.805V45.7578H465.148V41.7578ZM500.383 61.8828L499.214 63.5058L499.222 63.5118L500.383 61.8828ZM543.273 61.8828L544.434 63.5118L544.439 63.5083L543.273 61.8828ZM543.273 22.5469L542.113 24.1759L542.118 24.1794L543.273 22.5469ZM500.383 22.5469L501.542 24.1769L501.543 24.1758L500.383 22.5469ZM510.461 29.2656L511.647 30.8761L511.656 30.8691L510.461 29.2656ZM521.867 26.1016L521.889 24.1017L521.878 24.1016L521.867 26.1016ZM533.195 55.3203L531.988 53.7255L531.982 53.7308L533.195 55.3203ZM521.867 58.5625L521.878 56.5625H521.878L521.867 58.5625ZM510.461 55.2812L509.256 56.8778L509.263 56.883L510.461 55.2812ZM489.867 42.7422C489.867 51.8846 492.889 58.9507 499.214 63.5057L501.552 60.2599C496.522 56.6379 493.867 50.9435 493.867 42.7422H489.867ZM499.222 63.5118C505.335 67.8659 512.914 69.9766 521.828 69.9766V65.9766C513.554 65.9766 506.837 64.0247 501.543 60.2538L499.222 63.5118ZM521.828 69.9766C530.742 69.9766 538.321 67.8659 544.434 63.5118L542.113 60.2538C536.819 64.0247 530.102 65.9766 521.828 65.9766V69.9766ZM544.439 63.5083C550.791 58.9546 553.828 51.8881 553.828 42.7422H549.828C549.828 50.94 547.163 56.6339 542.108 60.2574L544.439 63.5083ZM553.828 42.7422V41.3359H549.828V42.7422H553.828ZM553.828 41.3359C553.828 32.3553 550.779 25.4085 544.429 20.9144L542.118 24.1794C547.174 27.7581 549.828 33.3374 549.828 41.3359H553.828ZM544.434 20.9179C538.321 16.5638 530.742 14.4531 521.828 14.4531V18.4531C530.102 18.4531 536.819 20.405 542.113 24.1758L544.434 20.9179ZM521.828 14.4531C512.914 14.4531 505.335 16.5638 499.222 20.9179L501.543 24.1758C506.837 20.405 513.554 18.4531 521.828 18.4531V14.4531ZM499.224 20.9169C492.901 25.4125 489.867 32.3589 489.867 41.3359H493.867C493.867 33.3338 496.51 27.7542 501.542 24.1769L499.224 20.9169ZM489.867 41.3359V42.7422H493.867V41.3359H489.867ZM508.164 44.8516V39.3828H504.164V44.8516H508.164ZM508.164 39.3828C508.164 35.1718 509.443 32.4987 511.647 30.8761L509.275 27.6551C505.749 30.2513 504.164 34.323 504.164 39.3828H508.164ZM511.656 30.8691C514.074 29.0667 517.41 28.0771 521.856 28.1015L521.878 24.1016C516.845 24.0739 512.577 25.1937 509.266 27.6621L511.656 30.8691ZM521.845 28.1014C526.279 28.1504 529.624 29.1522 532.058 30.9222L534.411 27.6872C531.115 25.2905 526.882 24.1569 521.889 24.1017L521.845 28.1014ZM532.058 30.9222C534.252 32.5176 535.531 35.1704 535.531 39.3828H539.531C539.531 34.3244 537.946 30.2585 534.411 27.6872L532.058 30.9222ZM535.531 39.3828V44.8906H539.531V39.3828H535.531ZM535.531 44.8906C535.531 49.2443 534.23 52.029 531.988 53.7255L534.402 56.9151C537.942 54.2366 539.531 50.0682 539.531 44.8906H535.531ZM531.982 53.7308C529.562 55.5785 526.257 56.5869 521.878 56.5625L521.856 60.5625C526.852 60.5902 531.1 59.4371 534.409 56.9098L531.982 53.7308ZM521.878 56.5625C517.462 56.5381 514.115 55.5161 511.659 53.6795L509.263 56.883C512.588 59.3693 516.845 60.5348 521.856 60.5625L521.878 56.5625ZM511.666 53.6847C509.459 52.0201 508.164 49.2435 508.164 44.8516H504.164C504.164 50.0429 505.733 54.2195 509.256 56.8778L511.666 53.6847ZM559.484 67H557.484V69H559.484V67ZM603.273 67V69H605.273V67H603.273ZM603.273 56.6484H605.273V54.6484H603.273V56.6484ZM572.531 56.6484H570.531V58.6484H572.531V56.6484ZM572.531 46.6484V44.6484H570.531V46.6484H572.531ZM599.211 46.6484V48.6484H601.211V46.6484H599.211ZM599.211 37.1953H601.211V35.1953H599.211V37.1953ZM572.531 37.1953H570.531V39.1953H572.531V37.1953ZM572.531 28.1719V26.1719H570.531V28.1719H572.531ZM602.688 28.1719V30.1719H604.688V28.1719H602.688ZM602.688 17.4297H604.688V15.4297H602.688V17.4297ZM559.484 17.4297V15.4297H557.484V17.4297H559.484ZM559.484 69H603.273V65H559.484V69ZM605.273 67V56.6484H601.273V67H605.273ZM603.273 54.6484H572.531V58.6484H603.273V54.6484ZM574.531 56.6484V46.6484H570.531V56.6484H574.531ZM572.531 48.6484H599.211V44.6484H572.531V48.6484ZM601.211 46.6484V37.1953H597.211V46.6484H601.211ZM599.211 35.1953H572.531V39.1953H599.211V35.1953ZM574.531 37.1953V28.1719H570.531V37.1953H574.531ZM572.531 30.1719H602.688V26.1719H572.531V30.1719ZM604.688 28.1719V17.4297H600.688V28.1719H604.688ZM602.688 15.4297H559.484V19.4297H602.688V15.4297ZM557.484 17.4297V67H561.484V17.4297H557.484ZM647.844 67L646.375 68.3578L646.969 69H647.844V67ZM664.992 67V69H669.565L666.461 65.6423L664.992 67ZM638.195 38.0156L639.664 36.6579L638.553 35.4566L637.156 36.3071L638.195 38.0156ZM627.219 44.6953L626.179 42.9868L624.09 44.2579L625.75 46.0532L627.219 44.6953ZM617.531 36.6094V34.6094H615.531V36.6094H617.531ZM617.531 47.625H615.531V49.625H617.531V47.625ZM634.562 47.625V49.625H635.427L636.019 48.9952L634.562 47.625ZM662.961 17.4297L664.418 18.7999L667.587 15.4297H662.961V17.4297ZM646.906 17.4297V15.4297H646.025L645.43 16.08L646.906 17.4297ZM629.367 36.6094V38.6094H630.248L630.843 37.9591L629.367 36.6094ZM610.656 67H608.656V69H610.656V67ZM624.367 67V69H626.367V67H624.367ZM624.367 17.4297H626.367V15.4297H624.367V17.4297ZM610.656 17.4297V15.4297H608.656V17.4297H610.656ZM647.844 69H664.992V65H647.844V69ZM666.461 65.6423L639.664 36.6579L636.727 39.3733L663.524 68.3577L666.461 65.6423ZM637.156 36.3071L626.179 42.9868L628.258 46.4038L639.235 39.7241L637.156 36.3071ZM625.75 46.0532L646.375 68.3578L649.312 65.6422L628.687 43.3375L625.75 46.0532ZM615.531 36.6094V47.625H619.531V36.6094H615.531ZM617.531 49.625H634.562V45.625H617.531V49.625ZM636.019 48.9952L664.418 18.7999L661.504 16.0595L633.106 46.2548L636.019 48.9952ZM662.961 15.4297H646.906V19.4297H662.961V15.4297ZM645.43 16.08L627.891 35.2597L630.843 37.9591L648.382 18.7794L645.43 16.08ZM629.367 34.6094H617.531V38.6094H629.367V34.6094ZM610.656 69H624.367V65H610.656V69ZM626.367 67V17.4297H622.367V67H626.367ZM624.367 15.4297H610.656V19.4297H624.367V15.4297ZM608.656 17.4297V67H612.656V17.4297H608.656ZM663.664 28.2891H661.664V30.2891H663.664V28.2891ZM682.648 28.2891H684.648V26.2891H682.648V28.2891ZM682.648 67H680.648V69H682.648V67ZM696.555 67V69H698.555V67H696.555ZM696.555 28.2891V26.2891H694.555V28.2891H696.555ZM715.5 28.2891V30.2891H717.5V28.2891H715.5ZM715.5 17.4297H717.5V15.4297H715.5V17.4297ZM663.664 17.4297V15.4297H661.664V17.4297H663.664ZM663.664 30.2891H682.648V26.2891H663.664V30.2891ZM680.648 28.2891V67H684.648V28.2891H680.648ZM682.648 69H696.555V65H682.648V69ZM698.555 67V28.2891H694.555V67H698.555ZM696.555 30.2891H715.5V26.2891H696.555V30.2891ZM717.5 28.2891V17.4297H713.5V28.2891H717.5ZM715.5 15.4297H663.664V19.4297H715.5V15.4297ZM661.664 17.4297V28.2891H665.664V17.4297H661.664ZM715.148 67L713.336 66.1538L712.007 69H715.148V67ZM729.055 67V69H730.372L730.892 67.7891L729.055 67ZM743.547 33.25L745.385 34.0391L745.392 34.021L745.4 34.0028L743.547 33.25ZM744.367 31.2188L742.529 30.4309L742.519 30.4533L742.51 30.476L744.367 31.2188ZM745.07 29.7344V27.7344H743.866L743.303 28.7986L745.07 29.7344ZM745.188 29.7344L746.955 28.7986L746.392 27.7344H745.188V29.7344ZM745.852 31.2188L743.983 31.9307L744.004 31.9858L744.028 32.0395L745.852 31.2188ZM746.711 33.25L744.858 34.0028L744.868 34.0264L744.878 34.0499L746.711 33.25ZM761.438 67L759.604 67.7999L760.128 69H761.438V67ZM775.852 67V69H778.982L777.667 66.1597L775.852 67ZM752.883 17.3906L754.698 16.5503L754.161 15.3906H752.883V17.3906ZM738.312 17.3906V15.3906H737.039L736.5 16.5445L738.312 17.3906ZM726.75 57.4297L724.876 56.7301L723.868 59.4297H726.75V57.4297ZM763.938 57.4297V59.4297H766.819L765.811 56.7301L763.938 57.4297ZM760.539 48.3281L762.413 47.6285L761.927 46.3281H760.539V48.3281ZM730.148 48.3281V46.3281H728.76L728.275 47.6285L730.148 48.3281ZM715.148 69H729.055V65H715.148V69ZM730.892 67.7891L745.385 34.0391L741.709 32.4609L727.217 66.2109L730.892 67.7891ZM745.4 34.0028C745.739 33.1678 746.014 32.4871 746.224 31.9615L742.51 30.476C742.304 30.9921 742.032 31.6655 741.694 32.4972L745.4 34.0028ZM746.205 32.0066C746.422 31.501 746.633 31.0566 746.838 30.6702L743.303 28.7986C743.039 29.2976 742.781 29.8428 742.529 30.4309L746.205 32.0066ZM745.07 31.7344H745.188V27.7344H745.07V31.7344ZM743.42 30.6702C743.61 31.0296 743.799 31.4481 743.983 31.9307L747.721 30.5068C747.488 29.8957 747.234 29.3246 746.955 28.7986L743.42 30.6702ZM744.028 32.0395C744.248 32.5289 744.524 33.1809 744.858 34.0028L748.564 32.4972C748.221 31.6524 747.924 30.9503 747.675 30.398L744.028 32.0395ZM744.878 34.0499L759.604 67.7999L763.271 66.2001L748.544 32.4501L744.878 34.0499ZM761.438 69H775.852V65H761.438V69ZM777.667 66.1597L754.698 16.5503L751.068 18.2309L774.037 67.8403L777.667 66.1597ZM752.883 15.3906H738.312V19.3906H752.883V15.3906ZM736.5 16.5445L713.336 66.1538L716.961 67.8462L740.125 18.2368L736.5 16.5445ZM726.75 59.4297H763.938V55.4297H726.75V59.4297ZM765.811 56.7301L762.413 47.6285L758.665 49.0277L762.064 58.1293L765.811 56.7301ZM760.539 46.3281H730.148V50.3281H760.539V46.3281ZM728.275 47.6285L724.876 56.7301L728.624 58.1293L732.022 49.0277L728.275 47.6285Z" fill="url(#paint0_linear_15_4846)"/>
<circle cx="821" cy="40" r="6" fill="#28AAB9"/>
<path d="M872.688 67H870.688V69H872.688V67ZM917.688 44.7734L916.264 46.1783L916.273 46.1877L916.283 46.197L917.688 44.7734ZM910.188 41.0234H908.188V42.7106L909.851 42.9948L910.188 41.0234ZM910.188 40.9062L909.613 38.9906L908.188 39.4182V40.9062H910.188ZM915.93 37.0391L914.364 35.7949L914.362 35.7977L915.93 37.0391ZM914.016 20.7109L912.773 22.2784L912.781 22.2841L914.016 20.7109ZM872.688 17.4297V15.4297H870.688V17.4297H872.688ZM886.008 57.8984H884.008V59.8984H886.008V57.8984ZM886.008 45.5547V43.5547H884.008V45.5547H886.008ZM904.719 47.1953L903.477 48.7628L903.486 48.7701L903.495 48.7772L904.719 47.1953ZM904.719 56.375L905.904 57.9859L905.914 57.9787L905.924 57.9714L904.719 56.375ZM886.008 38.2891H884.008V40.2891H886.008V38.2891ZM886.008 26.9609V24.9609H884.008V26.9609H886.008ZM872.688 69H902.023V65H872.688V69ZM902.023 69C907.992 69 912.98 67.7341 916.787 64.9895L914.448 61.7448C911.536 63.844 907.461 65 902.023 65V69ZM916.787 64.9895C920.712 62.1598 922.656 58.094 922.656 53.0547H918.656C918.656 56.9216 917.241 59.7308 914.448 61.7448L916.787 64.9895ZM922.656 53.0547C922.656 49.1109 921.552 45.7774 919.092 43.3499L916.283 46.197C917.781 47.6757 918.656 49.8631 918.656 53.0547H922.656ZM919.111 43.3686C916.831 41.0585 913.936 39.6351 910.524 39.052L909.851 42.9948C912.533 43.4534 914.637 44.53 916.264 46.1783L919.111 43.3686ZM912.188 41.0234V40.9062H908.188V41.0234H912.188ZM910.762 42.8219C913.489 42.004 915.753 40.4845 917.498 38.2805L914.362 35.7977C913.138 37.3436 911.574 38.4023 909.613 38.9906L910.762 42.8219ZM917.496 38.2832C919.336 35.9674 920.195 33.1225 920.195 29.8906H916.195C916.195 32.388 915.545 34.3086 914.364 35.7949L917.496 38.2832ZM920.195 29.8906C920.195 25.4214 918.578 21.7496 915.251 19.1378L912.781 22.2841C915.027 24.0472 916.195 26.4952 916.195 29.8906H920.195ZM915.258 19.1434C911.979 16.545 907.153 15.4297 901.164 15.4297V19.4297C906.79 19.4297 910.532 20.5018 912.773 22.2784L915.258 19.1434ZM901.164 15.4297H872.688V19.4297H901.164V15.4297ZM870.688 17.4297V67H874.688V17.4297H870.688ZM888.008 57.8984V45.5547H884.008V57.8984H888.008ZM886.008 47.5547H898.703V43.5547H886.008V47.5547ZM898.703 47.5547C901.096 47.5547 902.587 48.0578 903.477 48.7628L905.961 45.6278C904.09 44.1453 901.571 43.5547 898.703 43.5547V47.5547ZM903.495 48.7772C904.315 49.4119 904.789 50.311 904.789 51.7656H908.789C908.789 49.2619 907.883 47.1142 905.942 45.6134L903.495 48.7772ZM904.789 51.7656C904.789 53.2934 904.302 54.1838 903.514 54.7786L905.924 57.9714C907.896 56.4829 908.789 54.3004 908.789 51.7656H904.789ZM903.533 54.7641C902.636 55.4241 901.121 55.8984 898.703 55.8984V59.8984C901.545 59.8984 904.041 59.3571 905.904 57.9859L903.533 54.7641ZM898.703 55.8984H886.008V59.8984H898.703V55.8984ZM888.008 38.2891V26.9609H884.008V38.2891H888.008ZM886.008 28.9609H897.961V24.9609H886.008V28.9609ZM897.961 28.9609C900.339 28.9609 901.628 29.3942 902.246 29.8716L904.692 26.7065C903.018 25.4131 900.635 24.9609 897.961 24.9609V28.9609ZM902.246 29.8716C902.784 30.2877 903.188 30.97 903.188 32.3125H907.188C907.188 30.0612 906.445 28.0612 904.692 26.7065L902.246 29.8716ZM903.188 32.3125C903.188 33.7885 902.76 34.6681 902.123 35.2467L904.814 38.2064C906.469 36.7017 907.188 34.6386 907.188 32.3125H903.188ZM902.123 35.2467C901.518 35.7973 900.285 36.2891 897.961 36.2891V40.2891C900.689 40.2891 903.128 39.7391 904.814 38.2064L902.123 35.2467ZM897.961 36.2891H886.008V40.2891H897.961V36.2891ZM979.367 67V69H981.367V67H979.367ZM979.367 17.4297H981.367V15.4297H979.367V17.4297ZM963.82 17.4297V15.4297H962.816L962.216 16.2353L963.82 17.4297ZM943.898 44.1875L942.294 42.9931L942.26 43.0397L942.228 43.0883L943.898 44.1875ZM942.492 46.5703L940.688 45.7074L940.68 45.725L940.671 45.7427L942.492 46.5703ZM941.75 48.6406V50.6406H943.252L943.671 49.1982L941.75 48.6406ZM941.516 48.6406L939.517 48.5717L939.445 50.6406H941.516V48.6406ZM941.555 46.375L939.556 46.3061L939.555 46.3405V46.375H941.555ZM941.594 17.4297H943.594V15.4297H941.594V17.4297ZM928 17.4297V15.4297H926V17.4297H928ZM928 67H926V69H928V67ZM943.547 67V69H944.559L945.158 68.1847L943.547 67ZM963.508 39.8516L961.902 38.6589L961.896 38.6668L963.508 39.8516ZM964.914 37.4688L963.062 36.7142L963.054 36.7324L963.047 36.7508L964.914 37.4688ZM965.656 35.4375V33.4375H964.196L963.751 34.8279L965.656 35.4375ZM965.891 35.4375H967.891V33.4375H965.891V35.4375ZM965.734 40.2031H963.734V40.206L965.734 40.2031ZM965.773 67L963.773 67.0029L963.776 69H965.773V67ZM981.367 67V17.4297H977.367V67H981.367ZM979.367 15.4297H963.82V19.4297H979.367V15.4297ZM962.216 16.2353L942.294 42.9931L945.503 45.3819L965.425 18.6241L962.216 16.2353ZM942.228 43.0883C941.559 44.1047 941.032 44.9871 940.688 45.7074L944.296 47.4332C944.525 46.9556 944.936 46.2494 945.569 45.2867L942.228 43.0883ZM940.671 45.7427C940.361 46.4265 940.082 47.212 939.829 48.083L943.671 49.1982C943.887 48.4547 944.103 47.8599 944.313 47.3979L940.671 45.7427ZM941.75 46.6406H941.516V50.6406H941.75V46.6406ZM943.514 48.7095C943.541 47.9314 943.555 47.1532 943.555 46.375H939.555C939.555 47.1072 939.542 47.8394 939.517 48.5717L943.514 48.7095ZM943.553 46.4439C943.581 45.66 943.594 44.7638 943.594 43.7578H939.594C939.594 44.731 939.581 45.5796 939.556 46.3061L943.553 46.4439ZM943.594 43.7578V17.4297H939.594V43.7578H943.594ZM941.594 15.4297H928V19.4297H941.594V15.4297ZM926 17.4297V67H930V17.4297H926ZM928 69H943.547V65H928V69ZM945.158 68.1847L965.119 41.0363L961.896 38.6668L941.936 65.8153L945.158 68.1847ZM965.113 41.0442C965.845 40.0593 966.429 39.1004 966.781 38.1867L963.047 36.7508C962.878 37.1912 962.525 37.8209 961.902 38.6589L965.113 41.0442ZM966.766 38.2233C967.07 37.4777 967.335 36.7521 967.561 36.0471L963.751 34.8279C963.56 35.425 963.331 36.0535 963.062 36.7142L966.766 38.2233ZM965.656 37.4375H965.891V33.4375H965.656V37.4375ZM963.891 35.4375C963.891 36.0635 963.867 36.7189 963.818 37.4044L967.807 37.6894C967.863 36.9165 967.891 36.1657 967.891 35.4375H963.891ZM963.818 37.4044C963.761 38.1961 963.734 39.1321 963.734 40.2031H967.734C967.734 39.1909 967.76 38.3559 967.807 37.6894L963.818 37.4044ZM963.734 40.206L963.773 67.0029L967.773 66.9971L967.734 40.2002L963.734 40.206ZM965.773 69H979.367V65H965.773V69ZM1034.33 78.1328H1032.33V80.1328H1034.33V78.1328ZM1047.06 78.1328V80.1328H1049.06V78.1328H1047.06ZM1047.06 56.0625H1049.06V54.0625H1047.06V56.0625ZM985.109 56.0625V54.0625H983.109V56.0625H985.109ZM985.109 78.1328H983.109V80.1328H985.109V78.1328ZM997.844 78.1328V80.1328H999.844V78.1328H997.844ZM997.844 67V65H995.844V67H997.844ZM1034.33 67H1036.33V65H1034.33V67ZM995.852 17.4297V15.4297H993.974L993.856 17.304L995.852 17.4297ZM994.562 37.8984L992.566 37.7727L992.566 37.7809L992.565 37.7891L994.562 37.8984ZM992.844 50.3594L990.918 49.8207L990.916 49.8283L990.913 49.8359L992.844 50.3594ZM988.859 59.8906L987.111 58.9193L985.46 61.8906H988.859V59.8906ZM1002.02 59.8906V61.8906H1003.25L1003.8 60.7996L1002.02 59.8906ZM1005.03 51.6094L1006.98 52.0703L1006.98 52.0665L1005.03 51.6094ZM1006.87 38.6797L1008.86 38.8641L1008.86 38.8549L1008.86 38.8458L1006.87 38.6797ZM1007.73 28.3672V26.3672H1005.89L1005.73 28.2011L1007.73 28.3672ZM1026.52 28.3672H1028.52V26.3672H1026.52V28.3672ZM1026.52 66.8438H1024.52V68.8438H1026.52V66.8438ZM1040.23 66.8438V68.8438H1042.23V66.8438H1040.23ZM1040.23 17.4297H1042.23V15.4297H1040.23V17.4297ZM1034.33 80.1328H1047.06V76.1328H1034.33V80.1328ZM1049.06 78.1328V56.0625H1045.06V78.1328H1049.06ZM1047.06 54.0625H985.109V58.0625H1047.06V54.0625ZM983.109 56.0625V78.1328H987.109V56.0625H983.109ZM985.109 80.1328H997.844V76.1328H985.109V80.1328ZM999.844 78.1328V67H995.844V78.1328H999.844ZM997.844 69H1034.33V65H997.844V69ZM1032.33 67V78.1328H1036.33V67H1032.33ZM993.856 17.304L992.566 37.7727L996.559 38.0241L997.848 17.5554L993.856 17.304ZM992.565 37.7891C992.283 42.9582 991.721 46.9483 990.918 49.8207L994.77 50.898C995.685 47.6246 996.269 43.3074 996.56 38.0077L992.565 37.7891ZM990.913 49.8359C990.129 52.7279 988.869 55.755 987.111 58.9193L990.608 60.8619C992.496 57.4637 993.892 54.1367 994.774 50.8828L990.913 49.8359ZM988.859 61.8906H1002.02V57.8906H988.859V61.8906ZM1003.8 60.7996C1005.18 58.0964 1006.24 55.1844 1006.98 52.0703L1003.09 51.1484C1002.42 53.9718 1001.47 56.5807 1000.24 58.9817L1003.8 60.7996ZM1006.98 52.0665C1007.71 48.9366 1008.34 44.5186 1008.86 38.8641L1004.88 38.4953C1004.36 44.0908 1003.76 48.2925 1003.08 51.1522L1006.98 52.0665ZM1008.86 38.8458L1009.72 28.5333L1005.73 28.2011L1004.87 38.5136L1008.86 38.8458ZM1007.73 30.3672H1026.52V26.3672H1007.73V30.3672ZM1024.52 28.3672V66.8438H1028.52V28.3672H1024.52ZM1026.52 68.8438H1040.23V64.8438H1026.52V68.8438ZM1042.23 66.8438V17.4297H1038.23V66.8438H1042.23ZM1040.23 15.4297H995.852V19.4297H1040.23V15.4297ZM1053.16 67H1051.16V69H1053.16V67ZM1096.95 67V69H1098.95V67H1096.95ZM1096.95 56.6484H1098.95V54.6484H1096.95V56.6484ZM1066.2 56.6484H1064.2V58.6484H1066.2V56.6484ZM1066.2 46.6484V44.6484H1064.2V46.6484H1066.2ZM1092.88 46.6484V48.6484H1094.88V46.6484H1092.88ZM1092.88 37.1953H1094.88V35.1953H1092.88V37.1953ZM1066.2 37.1953H1064.2V39.1953H1066.2V37.1953ZM1066.2 28.1719V26.1719H1064.2V28.1719H1066.2ZM1096.36 28.1719V30.1719H1098.36V28.1719H1096.36ZM1096.36 17.4297H1098.36V15.4297H1096.36V17.4297ZM1053.16 17.4297V15.4297H1051.16V17.4297H1053.16ZM1053.16 69H1096.95V65H1053.16V69ZM1098.95 67V56.6484H1094.95V67H1098.95ZM1096.95 54.6484H1066.2V58.6484H1096.95V54.6484ZM1068.2 56.6484V46.6484H1064.2V56.6484H1068.2ZM1066.2 48.6484H1092.88V44.6484H1066.2V48.6484ZM1094.88 46.6484V37.1953H1090.88V46.6484H1094.88ZM1092.88 35.1953H1066.2V39.1953H1092.88V35.1953ZM1068.2 37.1953V28.1719H1064.2V37.1953H1068.2ZM1066.2 30.1719H1096.36V26.1719H1066.2V30.1719ZM1098.36 28.1719V17.4297H1094.36V28.1719H1098.36ZM1096.36 15.4297H1053.16V19.4297H1096.36V15.4297ZM1051.16 17.4297V67H1055.16V17.4297H1051.16ZM1109.84 61.8828L1108.67 63.5058L1108.68 63.5118L1109.84 61.8828ZM1152.73 61.8828L1153.89 63.5118L1153.89 63.5083L1152.73 61.8828ZM1152.73 22.5469L1151.57 24.1759L1151.57 24.1794L1152.73 22.5469ZM1109.84 22.5469L1110.99 24.1769L1111 24.1758L1109.84 22.5469ZM1119.91 29.2656L1121.1 30.8761L1121.11 30.8691L1119.91 29.2656ZM1131.32 26.1016L1131.34 24.1017L1131.33 24.1016L1131.32 26.1016ZM1142.65 55.3203L1141.44 53.7255L1141.43 53.7308L1142.65 55.3203ZM1131.32 58.5625L1131.33 56.5625H1131.33L1131.32 58.5625ZM1119.91 55.2812L1118.71 56.8778L1118.72 56.883L1119.91 55.2812ZM1099.32 42.7422C1099.32 51.8846 1102.34 58.9507 1108.67 63.5057L1111 60.2599C1105.98 56.6379 1103.32 50.9435 1103.32 42.7422H1099.32ZM1108.68 63.5118C1114.79 67.8659 1122.37 69.9766 1131.28 69.9766V65.9766C1123.01 65.9766 1116.29 64.0247 1111 60.2538L1108.68 63.5118ZM1131.28 69.9766C1140.19 69.9766 1147.77 67.8659 1153.89 63.5118L1151.57 60.2538C1146.27 64.0247 1139.56 65.9766 1131.28 65.9766V69.9766ZM1153.89 63.5083C1160.24 58.9546 1163.28 51.8881 1163.28 42.7422H1159.28C1159.28 50.94 1156.62 56.6339 1151.56 60.2574L1153.89 63.5083ZM1163.28 42.7422V41.3359H1159.28V42.7422H1163.28ZM1163.28 41.3359C1163.28 32.3553 1160.23 25.4085 1153.88 20.9144L1151.57 24.1794C1156.63 27.7581 1159.28 33.3374 1159.28 41.3359H1163.28ZM1153.89 20.9179C1147.77 16.5638 1140.19 14.4531 1131.28 14.4531V18.4531C1139.56 18.4531 1146.27 20.405 1151.57 24.1758L1153.89 20.9179ZM1131.28 14.4531C1122.37 14.4531 1114.79 16.5638 1108.68 20.9179L1111 24.1758C1116.29 20.405 1123.01 18.4531 1131.28 18.4531V14.4531ZM1108.68 20.9169C1102.35 25.4125 1099.32 32.3589 1099.32 41.3359H1103.32C1103.32 33.3338 1105.96 27.7542 1110.99 24.1769L1108.68 20.9169ZM1099.32 41.3359V42.7422H1103.32V41.3359H1099.32ZM1117.62 44.8516V39.3828H1113.62V44.8516H1117.62ZM1117.62 39.3828C1117.62 35.1718 1118.9 32.4987 1121.1 30.8761L1118.73 27.6551C1115.2 30.2513 1113.62 34.323 1113.62 39.3828H1117.62ZM1121.11 30.8691C1123.53 29.0667 1126.86 28.0771 1131.31 28.1015L1131.33 24.1016C1126.3 24.0739 1122.03 25.1937 1118.72 27.6621L1121.11 30.8691ZM1131.3 28.1014C1135.73 28.1504 1139.08 29.1522 1141.51 30.9222L1143.86 27.6872C1140.57 25.2905 1136.34 24.1569 1131.34 24.1017L1131.3 28.1014ZM1141.51 30.9222C1143.7 32.5176 1144.98 35.1704 1144.98 39.3828H1148.98C1148.98 34.3244 1147.4 30.2585 1143.86 27.6872L1141.51 30.9222ZM1144.98 39.3828V44.8906H1148.98V39.3828H1144.98ZM1144.98 44.8906C1144.98 49.2443 1143.68 52.029 1141.44 53.7255L1143.86 56.9151C1147.39 54.2366 1148.98 50.0682 1148.98 44.8906H1144.98ZM1141.43 53.7308C1139.01 55.5785 1135.71 56.5869 1131.33 56.5625L1131.31 60.5625C1136.31 60.5902 1140.55 59.4371 1143.86 56.9098L1141.43 53.7308ZM1131.33 56.5625C1126.92 56.5381 1123.57 55.5161 1121.11 53.6795L1118.72 56.883C1122.04 59.3693 1126.3 60.5348 1131.31 60.5625L1131.33 56.5625ZM1121.12 53.6847C1118.91 52.0201 1117.62 49.2435 1117.62 44.8516H1113.62C1113.62 50.0429 1115.19 54.2195 1118.71 56.8778L1121.12 53.6847Z" fill="url(#paint1_linear_15_4846)"/>
<circle cx="1210" cy="40" r="6" fill="#28AAB9"/>
<path d="M1261.36 67H1259.36V69H1261.36V67ZM1275.07 67V69H1277.07V67H1275.07ZM1275.07 28.3672V26.3672H1273.07V28.3672H1275.07ZM1297.96 28.3672H1299.96V26.3672H1297.96V28.3672ZM1297.96 67H1295.96V69H1297.96V67ZM1311.71 67V69H1313.71V67H1311.71ZM1311.71 17.4297H1313.71V15.4297H1311.71V17.4297ZM1261.36 17.4297V15.4297H1259.36V17.4297H1261.36ZM1261.36 69H1275.07V65H1261.36V69ZM1277.07 67V28.3672H1273.07V67H1277.07ZM1275.07 30.3672H1297.96V26.3672H1275.07V30.3672ZM1295.96 28.3672V67H1299.96V28.3672H1295.96ZM1297.96 69H1311.71V65H1297.96V69ZM1313.71 67V17.4297H1309.71V67H1313.71ZM1311.71 15.4297H1261.36V19.4297H1311.71V15.4297ZM1259.36 17.4297V67H1263.36V17.4297H1259.36ZM1322.3 67H1320.3V69H1322.3V67ZM1336.01 67V69H1338.01V67H1336.01ZM1336.01 53.0938V51.0938H1334.01V53.0938H1336.01ZM1366.52 48.1719L1365.08 46.7747L1365.08 46.7748L1366.52 48.1719ZM1366.44 22.1562L1365.05 23.5933L1365.05 23.5988L1366.44 22.1562ZM1322.3 17.4297V15.4297H1320.3V17.4297H1322.3ZM1336.01 43.7578H1334.01V45.7578H1336.01V43.7578ZM1336.01 27.4297V25.4297H1334.01V27.4297H1336.01ZM1355.58 29.5781L1354.14 30.9659L1354.14 30.9725L1354.15 30.9791L1355.58 29.5781ZM1322.3 69H1336.01V65H1322.3V69ZM1338.01 67V53.0938H1334.01V67H1338.01ZM1336.01 55.0938H1351.55V51.0938H1336.01V55.0938ZM1351.55 55.0938C1358.61 55.0938 1364.22 53.387 1367.95 49.5689L1365.08 46.7748C1362.41 49.5193 1358.04 51.0938 1351.55 51.0938V55.0938ZM1367.95 49.5691C1371.6 45.8245 1373.36 40.9284 1373.36 35.0859H1369.36C1369.36 40.0769 1367.89 43.9047 1365.08 46.7747L1367.95 49.5691ZM1373.36 35.0859C1373.36 29.1912 1371.57 24.3167 1367.82 20.7137L1365.05 23.5988C1367.86 26.2978 1369.36 30.0432 1369.36 35.0859H1373.36ZM1367.83 20.7192C1364.06 17.0752 1358.59 15.4297 1351.79 15.4297V19.4297C1358.01 19.4297 1362.3 20.9352 1365.05 23.5933L1367.83 20.7192ZM1351.79 15.4297H1322.3V19.4297H1351.79V15.4297ZM1320.3 17.4297V67H1324.3V17.4297H1320.3ZM1338.01 43.7578V27.4297H1334.01V43.7578H1338.01ZM1336.01 29.4297H1348.35V25.4297H1336.01V29.4297ZM1348.35 29.4297C1351.62 29.4297 1353.33 30.1288 1354.14 30.9659L1357.02 28.1903C1355.06 26.1629 1351.96 25.4297 1348.35 25.4297V29.4297ZM1354.15 30.9791C1355.08 31.9255 1355.65 33.3014 1355.65 35.3594H1359.65C1359.65 32.5215 1358.84 30.0432 1357.01 28.1772L1354.15 30.9791ZM1355.65 35.3594C1355.65 37.5072 1355.07 39.0247 1354.09 40.1166L1357.07 42.7897C1358.85 40.8086 1359.65 38.2636 1359.65 35.3594H1355.65ZM1354.09 40.1166C1353.28 41.0206 1351.58 41.7578 1348.35 41.7578V45.7578C1351.99 45.7578 1355.12 44.9586 1357.07 42.7897L1354.09 40.1166ZM1348.35 41.7578H1336.01V45.7578H1348.35V41.7578ZM1378.08 67H1376.08V69H1378.08V67ZM1421.87 67V69H1423.87V67H1421.87ZM1421.87 56.6484H1423.87V54.6484H1421.87V56.6484ZM1391.12 56.6484H1389.12V58.6484H1391.12V56.6484ZM1391.12 46.6484V44.6484H1389.12V46.6484H1391.12ZM1417.8 46.6484V48.6484H1419.8V46.6484H1417.8ZM1417.8 37.1953H1419.8V35.1953H1417.8V37.1953ZM1391.12 37.1953H1389.12V39.1953H1391.12V37.1953ZM1391.12 28.1719V26.1719H1389.12V28.1719H1391.12ZM1421.28 28.1719V30.1719H1423.28V28.1719H1421.28ZM1421.28 17.4297H1423.28V15.4297H1421.28V17.4297ZM1378.08 17.4297V15.4297H1376.08V17.4297H1378.08ZM1378.08 69H1421.87V65H1378.08V69ZM1423.87 67V56.6484H1419.87V67H1423.87ZM1421.87 54.6484H1391.12V58.6484H1421.87V54.6484ZM1393.12 56.6484V46.6484H1389.12V56.6484H1393.12ZM1391.12 48.6484H1417.8V44.6484H1391.12V48.6484ZM1419.8 46.6484V37.1953H1415.8V46.6484H1419.8ZM1417.8 35.1953H1391.12V39.1953H1417.8V35.1953ZM1393.12 37.1953V28.1719H1389.12V37.1953H1393.12ZM1391.12 30.1719H1421.28V26.1719H1391.12V30.1719ZM1423.28 28.1719V17.4297H1419.28V28.1719H1423.28ZM1421.28 15.4297H1378.08V19.4297H1421.28V15.4297ZM1376.08 17.4297V67H1380.08V17.4297H1376.08ZM1441.79 56.4922L1440.77 58.2108L1440.77 58.2153L1440.78 58.2197L1441.79 56.4922ZM1438.39 49.8516L1440.39 49.8016L1440.39 49.7933L1440.39 49.7849L1438.39 49.8516ZM1438.35 48.6797L1440.35 48.6131L1440.29 46.6797H1438.35V48.6797ZM1425.23 48.6797V46.6797H1423.17L1423.23 48.7385L1425.23 48.6797ZM1425.27 50.0078L1427.27 49.9574L1427.26 49.949L1425.27 50.0078ZM1432.38 63.6016L1431.31 65.2976L1431.32 65.3019L1432.38 63.6016ZM1470.19 63.2109L1471.31 64.8678L1471.31 64.8664L1470.19 63.2109ZM1474.25 44.1484L1472.83 45.5529L1472.84 45.5627L1472.85 45.5724L1474.25 44.1484ZM1466.75 40.4766H1464.75V42.157L1466.41 42.4466L1466.75 40.4766ZM1466.75 40.3594L1466.19 38.4384L1464.75 38.8566V40.3594H1466.75ZM1475.5 29.9297L1477.5 29.9489L1477.5 29.9393V29.9297H1475.5ZM1469.48 20.3203L1468.42 22.0144L1468.43 22.0185L1468.43 22.0225L1469.48 20.3203ZM1432.84 21.0234L1433.95 22.689L1433.95 22.6875L1432.84 21.0234ZM1425.89 33.6797L1423.89 33.6039L1423.89 33.6115L1423.89 33.6191L1425.89 33.6797ZM1425.85 34.9688L1423.85 34.9082L1423.79 36.9688H1425.85V34.9688ZM1438.78 34.9688V36.9688H1440.66L1440.78 35.0975L1438.78 34.9688ZM1438.86 33.7578L1440.86 33.8866L1440.86 33.8622L1440.86 33.8377L1438.86 33.7578ZM1442.1 27.9766L1443.14 29.6858L1443.15 29.6821L1442.1 27.9766ZM1459.45 27.4297L1460.43 25.688L1459.45 27.4297ZM1461.87 31.2578L1463.87 31.2822L1463.87 31.27V31.2578H1461.87ZM1459.84 35.6719L1458.8 33.9628L1458.79 33.9674L1458.78 33.9721L1459.84 35.6719ZM1443.74 36.8828V34.8828H1441.74V36.8828H1443.74ZM1443.74 46.4922H1441.74V48.4922H1443.74V46.4922ZM1461.05 47.7422L1460.05 49.4787L1460.07 49.4854L1460.08 49.492L1461.05 47.7422ZM1460.38 56.5703L1459.3 54.8887L1459.29 54.8956L1460.38 56.5703ZM1451.63 56.4062C1447.39 56.4062 1444.53 55.7755 1442.8 54.7646L1440.78 58.2197C1443.42 59.761 1447.13 60.4062 1451.63 60.4062V56.4062ZM1442.81 54.7736C1441.36 53.9064 1440.46 52.4201 1440.39 49.8016L1436.39 49.9015C1436.48 53.5331 1437.85 56.4738 1440.77 58.2108L1442.81 54.7736ZM1440.39 49.7849L1440.35 48.6131L1436.35 48.7463L1436.39 49.9182L1440.39 49.7849ZM1438.35 46.6797H1425.23V50.6797H1438.35V46.6797ZM1423.23 48.7385L1423.27 50.0666L1427.26 49.949L1427.23 48.6209L1423.23 48.7385ZM1423.27 50.0582C1423.44 56.8123 1426.07 62.0199 1431.32 65.2976L1433.43 61.9056C1429.51 59.454 1427.41 55.5991 1427.26 49.9574L1423.27 50.0582ZM1431.32 65.3019C1436.35 68.4147 1443.2 69.8594 1451.67 69.8594V65.8594C1443.58 65.8594 1437.57 64.4655 1433.43 61.9012L1431.32 65.3019ZM1451.67 69.8594C1459.68 69.8594 1466.29 68.2638 1471.31 64.8678L1469.07 61.5541C1464.92 64.356 1459.19 65.8594 1451.67 65.8594V69.8594ZM1471.31 64.8664C1476.29 61.4921 1479.1 57.2308 1479.1 52.0781H1475.1C1475.1 55.5192 1473.31 58.6797 1469.07 61.5555L1471.31 64.8664ZM1479.1 52.0781C1479.1 48.2876 1478.03 45.0724 1475.65 42.7245L1472.85 45.5724C1474.27 46.9745 1475.1 49.0457 1475.1 52.0781H1479.1ZM1475.67 42.744C1473.46 40.4943 1470.55 39.1113 1467.09 38.5065L1466.41 42.4466C1469.2 42.9356 1471.29 44.0005 1472.83 45.5529L1475.67 42.744ZM1468.75 40.4766V40.3594H1464.75V40.4766H1468.75ZM1467.31 42.2804C1470.36 41.3952 1472.88 39.9632 1474.7 37.8905L1471.69 35.2501C1470.49 36.6149 1468.71 37.7089 1466.19 38.4384L1467.31 42.2804ZM1474.7 37.8905C1476.58 35.7478 1477.47 33.0439 1477.5 29.9489L1473.5 29.9105C1473.48 32.2321 1472.83 33.9553 1471.69 35.2501L1474.7 37.8905ZM1477.5 29.9297C1477.5 25.157 1475 21.3721 1470.53 18.6181L1468.43 22.0225C1471.99 24.2165 1473.5 26.8378 1473.5 29.9297H1477.5ZM1470.55 18.6262C1466.1 15.8328 1459.71 14.5703 1451.67 14.5703V18.5703C1459.41 18.5703 1464.9 19.8079 1468.42 22.0144L1470.55 18.6262ZM1451.67 14.5703C1443.37 14.5703 1436.64 16.0859 1431.73 19.3593L1433.95 22.6875C1437.95 20.0235 1443.78 18.5703 1451.67 18.5703V14.5703ZM1431.74 19.3578C1426.75 22.6706 1424.12 27.4928 1423.89 33.6039L1427.89 33.7555C1428.07 28.877 1430.08 25.2616 1433.95 22.689L1431.74 19.3578ZM1423.89 33.6191L1423.85 34.9082L1427.85 35.0293L1427.89 33.7403L1423.89 33.6191ZM1425.85 36.9688H1438.78V32.9688H1425.85V36.9688ZM1440.78 35.0975L1440.86 33.8866L1436.86 33.629L1436.79 34.84L1440.78 35.0975ZM1440.86 33.8377C1440.94 31.8376 1441.71 30.555 1443.14 29.6858L1441.06 26.2673C1438.38 27.8981 1436.99 30.4697 1436.86 33.6779L1440.86 33.8377ZM1443.15 29.6821C1444.76 28.6909 1447.45 28.0625 1451.48 28.0625V24.0625C1447.17 24.0625 1443.61 24.7102 1441.06 26.2711L1443.15 29.6821ZM1451.48 28.0625C1455.11 28.0625 1457.32 28.5275 1458.46 29.1713L1460.43 25.688C1458.34 24.5089 1455.24 24.0625 1451.48 24.0625V28.0625ZM1458.46 29.1713C1459.55 29.7839 1459.87 30.4453 1459.87 31.2578H1463.87C1463.87 28.7891 1462.57 26.8984 1460.43 25.688L1458.46 29.1713ZM1459.87 31.2334C1459.85 32.9653 1459.33 33.6408 1458.8 33.9628L1460.87 37.3809C1463 36.0884 1463.84 33.8212 1463.87 31.2822L1459.87 31.2334ZM1458.78 33.9721C1457.98 34.4676 1456.28 34.8828 1453.27 34.8828V38.8828C1456.41 38.8828 1459.08 38.4907 1460.89 37.3717L1458.78 33.9721ZM1453.27 34.8828H1443.74V38.8828H1453.27V34.8828ZM1441.74 36.8828V46.4922H1445.74V36.8828H1441.74ZM1443.74 48.4922H1453.51V44.4922H1443.74V48.4922ZM1453.51 48.4922C1457.04 48.4922 1459.09 48.9249 1460.05 49.4787L1462.04 46.0057C1460.09 44.8928 1457.11 44.4922 1453.51 44.4922V48.4922ZM1460.08 49.492C1460.81 49.8966 1461.23 50.5077 1461.23 51.7656H1465.23C1465.23 49.2735 1464.2 47.2024 1462.02 45.9924L1460.08 49.492ZM1461.23 51.7656C1461.23 52.9584 1460.73 53.9713 1459.3 54.8887L1461.47 58.2519C1463.84 56.7214 1465.23 54.5312 1465.23 51.7656H1461.23ZM1459.29 54.8956C1457.9 55.7995 1455.46 56.4062 1451.63 56.4062V60.4062C1455.72 60.4062 1459.11 59.789 1461.48 58.2451L1459.29 54.8956ZM1483.86 67H1481.86V69H1483.86V67ZM1527.65 67V69H1529.65V67H1527.65ZM1527.65 56.6484H1529.65V54.6484H1527.65V56.6484ZM1496.91 56.6484H1494.91V58.6484H1496.91V56.6484ZM1496.91 46.6484V44.6484H1494.91V46.6484H1496.91ZM1523.59 46.6484V48.6484H1525.59V46.6484H1523.59ZM1523.59 37.1953H1525.59V35.1953H1523.59V37.1953ZM1496.91 37.1953H1494.91V39.1953H1496.91V37.1953ZM1496.91 28.1719V26.1719H1494.91V28.1719H1496.91ZM1527.06 28.1719V30.1719H1529.06V28.1719H1527.06ZM1527.06 17.4297H1529.06V15.4297H1527.06V17.4297ZM1483.86 17.4297V15.4297H1481.86V17.4297H1483.86ZM1483.86 69H1527.65V65H1483.86V69ZM1529.65 67V56.6484H1525.65V67H1529.65ZM1527.65 54.6484H1496.91V58.6484H1527.65V54.6484ZM1498.91 56.6484V46.6484H1494.91V56.6484H1498.91ZM1496.91 48.6484H1523.59V44.6484H1496.91V48.6484ZM1525.59 46.6484V37.1953H1521.59V46.6484H1525.59ZM1523.59 35.1953H1496.91V39.1953H1523.59V35.1953ZM1498.91 37.1953V28.1719H1494.91V37.1953H1498.91ZM1496.91 30.1719H1527.06V26.1719H1496.91V30.1719ZM1529.06 28.1719V17.4297H1525.06V28.1719H1529.06ZM1527.06 15.4297H1483.86V19.4297H1527.06V15.4297ZM1481.86 17.4297V67H1485.86V17.4297H1481.86ZM1535.03 67H1533.03V69H1535.03V67ZM1548.74 67V69H1550.74V67H1548.74ZM1548.74 47.0781V45.0781H1546.74V47.0781H1548.74ZM1572.06 47.0781H1574.06V45.0781H1572.06V47.0781ZM1572.06 67H1570.06V69H1572.06V67ZM1585.77 67V69H1587.77V67H1585.77ZM1585.77 17.4297H1587.77V15.4297H1585.77V17.4297ZM1572.06 17.4297V15.4297H1570.06V17.4297H1572.06ZM1572.06 35.6719V37.6719H1574.06V35.6719H1572.06ZM1548.74 35.6719H1546.74V37.6719H1548.74V35.6719ZM1548.74 17.4297H1550.74V15.4297H1548.74V17.4297ZM1535.03 17.4297V15.4297H1533.03V17.4297H1535.03ZM1535.03 69H1548.74V65H1535.03V69ZM1550.74 67V47.0781H1546.74V67H1550.74ZM1548.74 49.0781H1572.06V45.0781H1548.74V49.0781ZM1570.06 47.0781V67H1574.06V47.0781H1570.06ZM1572.06 69H1585.77V65H1572.06V69ZM1587.77 67V17.4297H1583.77V67H1587.77ZM1585.77 15.4297H1572.06V19.4297H1585.77V15.4297ZM1570.06 17.4297V35.6719H1574.06V17.4297H1570.06ZM1572.06 33.6719H1548.74V37.6719H1572.06V33.6719ZM1550.74 35.6719V17.4297H1546.74V35.6719H1550.74ZM1548.74 15.4297H1535.03V19.4297H1548.74V15.4297ZM1533.03 17.4297V67H1537.03V17.4297H1533.03ZM1591.71 28.2891H1589.71V30.2891H1591.71V28.2891ZM1610.7 28.2891H1612.7V26.2891H1610.7V28.2891ZM1610.7 67H1608.7V69H1610.7V67ZM1624.6 67V69H1626.6V67H1624.6ZM1624.6 28.2891V26.2891H1622.6V28.2891H1624.6ZM1643.55 28.2891V30.2891H1645.55V28.2891H1643.55ZM1643.55 17.4297H1645.55V15.4297H1643.55V17.4297ZM1591.71 17.4297V15.4297H1589.71V17.4297H1591.71ZM1591.71 30.2891H1610.7V26.2891H1591.71V30.2891ZM1608.7 28.2891V67H1612.7V28.2891H1608.7ZM1610.7 69H1624.6V65H1610.7V69ZM1626.6 67V28.2891H1622.6V67H1626.6ZM1624.6 30.2891H1643.55V26.2891H1624.6V30.2891ZM1645.55 28.2891V17.4297H1641.55V28.2891H1645.55ZM1643.55 15.4297H1591.71V19.4297H1643.55V15.4297ZM1589.71 17.4297V28.2891H1593.71V17.4297H1589.71ZM1643.2 67L1641.38 66.1538L1640.05 69H1643.2V67ZM1657.1 67V69H1658.42L1658.94 67.7891L1657.1 67ZM1671.59 33.25L1673.43 34.0391L1673.44 34.021L1673.45 34.0028L1671.59 33.25ZM1672.41 31.2188L1670.58 30.4309L1670.57 30.4533L1670.56 30.476L1672.41 31.2188ZM1673.12 29.7344V27.7344H1671.91L1671.35 28.7986L1673.12 29.7344ZM1673.23 29.7344L1675 28.7986L1674.44 27.7344H1673.23V29.7344ZM1673.9 31.2188L1672.03 31.9307L1672.05 31.9858L1672.07 32.0395L1673.9 31.2188ZM1674.76 33.25L1672.9 34.0028L1672.91 34.0264L1672.92 34.0499L1674.76 33.25ZM1689.48 67L1687.65 67.7999L1688.17 69H1689.48V67ZM1703.9 67V69H1707.03L1705.71 66.1597L1703.9 67ZM1680.93 17.3906L1682.74 16.5503L1682.21 15.3906H1680.93V17.3906ZM1666.36 17.3906V15.3906H1665.09L1664.55 16.5445L1666.36 17.3906ZM1654.8 57.4297L1652.92 56.7301L1651.92 59.4297H1654.8V57.4297ZM1691.98 57.4297V59.4297H1694.87L1693.86 56.7301L1691.98 57.4297ZM1688.59 48.3281L1690.46 47.6285L1689.97 46.3281H1688.59V48.3281ZM1658.2 48.3281V46.3281H1656.81L1656.32 47.6285L1658.2 48.3281ZM1643.2 69H1657.1V65H1643.2V69ZM1658.94 67.7891L1673.43 34.0391L1669.76 32.4609L1655.26 66.2109L1658.94 67.7891ZM1673.45 34.0028C1673.79 33.1678 1674.06 32.4871 1674.27 31.9615L1670.56 30.476C1670.35 30.9921 1670.08 31.6655 1669.74 32.4972L1673.45 34.0028ZM1674.25 32.0066C1674.47 31.501 1674.68 31.0566 1674.88 30.6702L1671.35 28.7986C1671.09 29.2976 1670.83 29.8428 1670.58 30.4309L1674.25 32.0066ZM1673.12 31.7344H1673.23V27.7344H1673.12V31.7344ZM1671.47 30.6702C1671.66 31.0296 1671.85 31.4481 1672.03 31.9307L1675.77 30.5068C1675.53 29.8957 1675.28 29.3246 1675 28.7986L1671.47 30.6702ZM1672.07 32.0395C1672.29 32.5289 1672.57 33.1809 1672.9 34.0028L1676.61 32.4972C1676.27 31.6524 1675.97 30.9503 1675.72 30.398L1672.07 32.0395ZM1672.92 34.0499L1687.65 67.7999L1691.32 66.2001L1676.59 32.4501L1672.92 34.0499ZM1689.48 69H1703.9V65H1689.48V69ZM1705.71 66.1597L1682.74 16.5503L1679.11 18.2309L1702.08 67.8403L1705.71 66.1597ZM1680.93 15.3906H1666.36V19.3906H1680.93V15.3906ZM1664.55 16.5445L1641.38 66.1538L1645.01 67.8462L1668.17 18.2368L1664.55 16.5445ZM1654.8 59.4297H1691.98V55.4297H1654.8V59.4297ZM1693.86 56.7301L1690.46 47.6285L1686.71 49.0277L1690.11 58.1293L1693.86 56.7301ZM1688.59 46.3281H1658.2V50.3281H1688.59V46.3281ZM1656.32 47.6285L1652.92 56.7301L1656.67 58.1293L1660.07 49.0277L1656.32 47.6285ZM1752.77 78.1328H1750.77V80.1328H1752.77V78.1328ZM1765.5 78.1328V80.1328H1767.5V78.1328H1765.5ZM1765.5 56.0625H1767.5V54.0625H1765.5V56.0625ZM1758.66 56.0625H1756.66V58.0625H1758.66V56.0625ZM1758.66 17.4297H1760.66V15.4297H1758.66V17.4297ZM1744.95 17.4297V15.4297H1742.95V17.4297H1744.95ZM1744.95 56.0625V58.0625H1746.95V56.0625H1744.95ZM1722.02 56.0625H1720.02V58.0625H1722.02V56.0625ZM1722.02 17.4297H1724.02V15.4297H1722.02V17.4297ZM1708.31 17.4297V15.4297H1706.31V17.4297H1708.31ZM1708.31 67H1706.31V69H1708.31V67ZM1752.77 67H1754.77V65H1752.77V67ZM1752.77 80.1328H1765.5V76.1328H1752.77V80.1328ZM1767.5 78.1328V56.0625H1763.5V78.1328H1767.5ZM1765.5 54.0625H1758.66V58.0625H1765.5V54.0625ZM1760.66 56.0625V17.4297H1756.66V56.0625H1760.66ZM1758.66 15.4297H1744.95V19.4297H1758.66V15.4297ZM1742.95 17.4297V56.0625H1746.95V17.4297H1742.95ZM1744.95 54.0625H1722.02V58.0625H1744.95V54.0625ZM1724.02 56.0625V17.4297H1720.02V56.0625H1724.02ZM1722.02 15.4297H1708.31V19.4297H1722.02V15.4297ZM1706.31 17.4297V67H1710.31V17.4297H1706.31ZM1708.31 69H1752.77V65H1708.31V69ZM1750.77 67V78.1328H1754.77V67H1750.77ZM1822.96 67V69H1824.96V67H1822.96ZM1822.96 17.4297H1824.96V15.4297H1822.96V17.4297ZM1807.41 17.4297V15.4297H1806.41L1805.81 16.2353L1807.41 17.4297ZM1787.49 44.1875L1785.89 42.9931L1785.85 43.0397L1785.82 43.0883L1787.49 44.1875ZM1786.09 46.5703L1784.28 45.7074L1784.27 45.725L1784.27 45.7427L1786.09 46.5703ZM1785.34 48.6406V50.6406H1786.85L1787.26 49.1982L1785.34 48.6406ZM1785.11 48.6406L1783.11 48.5717L1783.04 50.6406H1785.11V48.6406ZM1785.15 46.375L1783.15 46.3061L1783.15 46.3405V46.375H1785.15ZM1785.19 17.4297H1787.19V15.4297H1785.19V17.4297ZM1771.59 17.4297V15.4297H1769.59V17.4297H1771.59ZM1771.59 67H1769.59V69H1771.59V67ZM1787.14 67V69H1788.15L1788.75 68.1847L1787.14 67ZM1807.1 39.8516L1805.5 38.6589L1805.49 38.6668L1807.1 39.8516ZM1808.51 37.4688L1806.66 36.7142L1806.65 36.7324L1806.64 36.7508L1808.51 37.4688ZM1809.25 35.4375V33.4375H1807.79L1807.35 34.8279L1809.25 35.4375ZM1809.48 35.4375H1811.48V33.4375H1809.48V35.4375ZM1809.33 40.2031H1807.33V40.206L1809.33 40.2031ZM1809.37 67L1807.37 67.0029L1807.37 69H1809.37V67ZM1824.96 67V17.4297H1820.96V67H1824.96ZM1822.96 15.4297H1807.41V19.4297H1822.96V15.4297ZM1805.81 16.2353L1785.89 42.9931L1789.1 45.3819L1809.02 18.6241L1805.81 16.2353ZM1785.82 43.0883C1785.15 44.1047 1784.63 44.9871 1784.28 45.7074L1787.89 47.4332C1788.12 46.9556 1788.53 46.2494 1789.16 45.2867L1785.82 43.0883ZM1784.27 45.7427C1783.95 46.4265 1783.68 47.212 1783.42 48.083L1787.26 49.1982C1787.48 48.4547 1787.7 47.8599 1787.91 47.3979L1784.27 45.7427ZM1785.34 46.6406H1785.11V50.6406H1785.34V46.6406ZM1787.11 48.7095C1787.14 47.9314 1787.15 47.1532 1787.15 46.375H1783.15C1783.15 47.1072 1783.14 47.8394 1783.11 48.5717L1787.11 48.7095ZM1787.15 46.4439C1787.17 45.66 1787.19 44.7638 1787.19 43.7578H1783.19C1783.19 44.731 1783.17 45.5796 1783.15 46.3061L1787.15 46.4439ZM1787.19 43.7578V17.4297H1783.19V43.7578H1787.19ZM1785.19 15.4297H1771.59V19.4297H1785.19V15.4297ZM1769.59 17.4297V67H1773.59V17.4297H1769.59ZM1771.59 69H1787.14V65H1771.59V69ZM1788.75 68.1847L1808.71 41.0363L1805.49 38.6668L1785.53 65.8153L1788.75 68.1847ZM1808.71 41.0442C1809.44 40.0593 1810.02 39.1004 1810.37 38.1867L1806.64 36.7508C1806.47 37.1912 1806.12 37.8209 1805.5 38.6589L1808.71 41.0442ZM1810.36 38.2233C1810.66 37.4777 1810.93 36.7521 1811.15 36.0471L1807.35 34.8279C1807.15 35.425 1806.92 36.0535 1806.66 36.7142L1810.36 38.2233ZM1809.25 37.4375H1809.48V33.4375H1809.25V37.4375ZM1807.48 35.4375C1807.48 36.0635 1807.46 36.7189 1807.41 37.4044L1811.4 37.6894C1811.46 36.9165 1811.48 36.1657 1811.48 35.4375H1807.48ZM1807.41 37.4044C1807.35 38.1961 1807.33 39.1321 1807.33 40.2031H1811.33C1811.33 39.1909 1811.35 38.3559 1811.4 37.6894L1807.41 37.4044ZM1807.33 40.206L1807.37 67.0029L1811.37 66.9971L1811.33 40.2002L1807.33 40.206ZM1809.37 69H1822.96V65H1809.37V69ZM1880.27 67V69H1882.27V67H1880.27ZM1866.55 67H1864.55V69H1866.55V67ZM1866.55 52.0391H1868.55V50.0391H1866.55V52.0391ZM1850.62 52.0391L1849.87 53.893L1850.23 54.0391H1850.62V52.0391ZM1848.98 51.375L1849.73 49.5211L1849.42 49.3987L1849.1 49.3787L1848.98 51.375ZM1836.32 46.3359L1834.88 47.719L1834.88 47.7251L1836.32 46.3359ZM1837.06 22.0391L1835.73 20.548L1835.72 20.553L1837.06 22.0391ZM1880.27 17.4297H1882.27V15.4297H1880.27V17.4297ZM1866.55 43.0547V45.0547H1868.55V43.0547H1866.55ZM1866.55 27.1562H1868.55V25.1562H1866.55V27.1562ZM1854.13 27.1562V25.1562H1854.12L1854.12 25.1563L1854.13 27.1562ZM1847.73 29.3828L1846.23 28.0508L1846.23 28.0524L1847.73 29.3828ZM1847.73 40.9062L1846.22 42.2233L1846.23 42.2375L1846.25 42.2516L1847.73 40.9062ZM1844.17 67V69H1845.23L1845.82 68.1309L1844.17 67ZM1829.56 67L1827.93 65.8496L1825.71 69H1829.56V67ZM1843.62 47V45H1842.59L1841.99 45.8496L1843.62 47ZM1857.88 47L1859.53 48.1309L1861.68 45H1857.88V47ZM1880.27 65H1866.55V69H1880.27V65ZM1868.55 67V52.0391H1864.55V67H1868.55ZM1866.55 50.0391H1850.62V54.0391H1866.55V50.0391ZM1851.37 50.1852L1849.73 49.5211L1848.23 53.2289L1849.87 53.893L1851.37 50.1852ZM1849.1 49.3787C1843.92 49.0609 1840.23 47.5058 1837.76 44.9467L1834.88 47.7251C1838.24 51.2077 1843 53.012 1848.85 53.3713L1849.1 49.3787ZM1837.77 44.9529C1835.27 42.342 1833.95 38.8718 1833.95 34.3438H1829.95C1829.95 39.7115 1831.54 44.2361 1834.88 47.7189L1837.77 44.9529ZM1833.95 34.3438C1833.95 29.7062 1835.46 26.1719 1838.4 23.5251L1835.72 20.553C1831.84 24.0521 1829.95 28.7208 1829.95 34.3438H1833.95ZM1838.4 23.5301C1841.36 20.8772 1845.59 19.4297 1851.32 19.4297V15.4297C1844.92 15.4297 1839.64 17.0551 1835.73 20.548L1838.4 23.5301ZM1851.32 19.4297H1880.27V15.4297H1851.32V19.4297ZM1878.27 17.4297V67H1882.27V17.4297H1878.27ZM1868.55 43.0547V27.1562H1864.55V43.0547H1868.55ZM1866.55 25.1562H1854.13V29.1562H1866.55V25.1562ZM1854.12 25.1563C1850.87 25.1848 1848.07 25.9949 1846.23 28.0508L1849.22 30.7148C1849.99 29.854 1851.45 29.1798 1854.15 29.1562L1854.12 25.1563ZM1846.23 28.0524C1844.56 29.9358 1843.81 32.3654 1843.81 35.125H1847.81C1847.81 33.0929 1848.35 31.6944 1849.22 30.7132L1846.23 28.0524ZM1843.81 35.125C1843.81 37.8863 1844.56 40.3198 1846.22 42.2233L1849.23 39.5892C1848.35 38.5761 1847.81 37.1554 1847.81 35.125H1843.81ZM1846.25 42.2516C1848.09 44.28 1850.9 45.0547 1854.13 45.0547V41.0547C1851.43 41.0547 1849.97 40.3971 1849.21 39.5609L1846.25 42.2516ZM1854.13 45.0547H1866.55V41.0547H1854.13V45.0547ZM1844.17 65H1829.56V69H1844.17V65ZM1831.2 68.1504L1845.26 48.1504L1841.99 45.8496L1827.93 65.8496L1831.2 68.1504ZM1843.62 49H1857.88V45H1843.62V49ZM1856.23 45.8691L1842.52 65.8691L1845.82 68.1309L1859.53 48.1309L1856.23 45.8691ZM1913.16 67H1911.16V69H1913.16V67ZM1926.87 67V69H1928.87V67H1926.87ZM1926.87 28.3672V26.3672H1924.87V28.3672H1926.87ZM1949.76 28.3672H1951.76V26.3672H1949.76V28.3672ZM1949.76 67H1947.76V69H1949.76V67ZM1963.51 67V69H1965.51V67H1963.51ZM1963.51 17.4297H1965.51V15.4297H1963.51V17.4297ZM1913.16 17.4297V15.4297H1911.16V17.4297H1913.16ZM1913.16 69H1926.87V65H1913.16V69ZM1928.87 67V28.3672H1924.87V67H1928.87ZM1926.87 30.3672H1949.76V26.3672H1926.87V30.3672ZM1947.76 28.3672V67H1951.76V28.3672H1947.76ZM1949.76 69H1963.51V65H1949.76V69ZM1965.51 67V17.4297H1961.51V67H1965.51ZM1963.51 15.4297H1913.16V19.4297H1963.51V15.4297ZM1911.16 17.4297V67H1915.16V17.4297H1911.16ZM1974.09 67H1972.09V69H1974.09V67ZM1987.8 67V69H1989.8V67H1987.8ZM1987.8 53.0938V51.0938H1985.8V53.0938H1987.8ZM2018.31 48.1719L2016.88 46.7747L2016.88 46.7748L2018.31 48.1719ZM2018.23 22.1562L2016.84 23.5933L2016.85 23.5988L2018.23 22.1562ZM1974.09 17.4297V15.4297H1972.09V17.4297H1974.09ZM1987.8 43.7578H1985.8V45.7578H1987.8V43.7578ZM1987.8 27.4297V25.4297H1985.8V27.4297H1987.8ZM2007.38 29.5781L2005.93 30.9659L2005.94 30.9725L2005.95 30.9791L2007.38 29.5781ZM1974.09 69H1987.8V65H1974.09V69ZM1989.8 67V53.0938H1985.8V67H1989.8ZM1987.8 55.0938H2003.35V51.0938H1987.8V55.0938ZM2003.35 55.0938C2010.4 55.0938 2016.02 53.387 2019.74 49.5689L2016.88 46.7748C2014.2 49.5193 2009.84 51.0938 2003.35 51.0938V55.0938ZM2019.74 49.5691C2023.4 45.8245 2025.16 40.9284 2025.16 35.0859H2021.16C2021.16 40.0769 2019.68 43.9047 2016.88 46.7747L2019.74 49.5691ZM2025.16 35.0859C2025.16 29.1912 2023.37 24.3167 2019.62 20.7137L2016.85 23.5988C2019.66 26.2978 2021.16 30.0432 2021.16 35.0859H2025.16ZM2019.63 20.7192C2015.86 17.0752 2010.39 15.4297 2003.59 15.4297V19.4297C2009.8 19.4297 2014.1 20.9352 2016.84 23.5933L2019.63 20.7192ZM2003.59 15.4297H1974.09V19.4297H2003.59V15.4297ZM1972.09 17.4297V67H1976.09V17.4297H1972.09ZM1989.8 43.7578V27.4297H1985.8V43.7578H1989.8ZM1987.8 29.4297H2000.15V25.4297H1987.8V29.4297ZM2000.15 29.4297C2003.41 29.4297 2005.13 30.1288 2005.93 30.9659L2008.82 28.1903C2006.86 26.1629 2003.76 25.4297 2000.15 25.4297V29.4297ZM2005.95 30.9791C2006.88 31.9255 2007.45 33.3014 2007.45 35.3594H2011.45C2011.45 32.5215 2010.63 30.0432 2008.8 28.1772L2005.95 30.9791ZM2007.45 35.3594C2007.45 37.5072 2006.87 39.0247 2005.89 40.1166L2008.86 42.7897C2010.64 40.8086 2011.45 38.2636 2011.45 35.3594H2007.45ZM2005.89 40.1166C2005.08 41.0206 2003.38 41.7578 2000.15 41.7578V45.7578C2003.79 45.7578 2006.91 44.9586 2008.86 42.7897L2005.89 40.1166ZM2000.15 41.7578H1987.8V45.7578H2000.15V41.7578ZM2035.38 61.8828L2034.21 63.5058L2034.22 63.5118L2035.38 61.8828ZM2078.27 61.8828L2079.43 63.5118L2079.44 63.5083L2078.27 61.8828ZM2078.27 22.5469L2077.11 24.1759L2077.12 24.1794L2078.27 22.5469ZM2035.38 22.5469L2036.54 24.1769L2036.54 24.1758L2035.38 22.5469ZM2045.46 29.2656L2046.65 30.8761L2046.66 30.8691L2045.46 29.2656ZM2056.87 26.1016L2056.89 24.1017L2056.88 24.1016L2056.87 26.1016ZM2068.2 55.3203L2066.99 53.7255L2066.98 53.7308L2068.2 55.3203ZM2056.87 58.5625L2056.88 56.5625H2056.88L2056.87 58.5625ZM2045.46 55.2812L2044.26 56.8778L2044.26 56.883L2045.46 55.2812ZM2024.87 42.7422C2024.87 51.8846 2027.89 58.9507 2034.21 63.5057L2036.55 60.2599C2031.52 56.6379 2028.87 50.9435 2028.87 42.7422H2024.87ZM2034.22 63.5118C2040.33 67.8659 2047.91 69.9766 2056.83 69.9766V65.9766C2048.55 65.9766 2041.84 64.0247 2036.54 60.2538L2034.22 63.5118ZM2056.83 69.9766C2065.74 69.9766 2073.32 67.8659 2079.43 63.5118L2077.11 60.2538C2071.82 64.0247 2065.1 65.9766 2056.83 65.9766V69.9766ZM2079.44 63.5083C2085.79 58.9546 2088.83 51.8881 2088.83 42.7422H2084.83C2084.83 50.94 2082.16 56.6339 2077.11 60.2574L2079.44 63.5083ZM2088.83 42.7422V41.3359H2084.83V42.7422H2088.83ZM2088.83 41.3359C2088.83 32.3553 2085.78 25.4085 2079.43 20.9144L2077.12 24.1794C2082.17 27.7581 2084.83 33.3374 2084.83 41.3359H2088.83ZM2079.43 20.9179C2073.32 16.5638 2065.74 14.4531 2056.83 14.4531V18.4531C2065.1 18.4531 2071.82 20.405 2077.11 24.1758L2079.43 20.9179ZM2056.83 14.4531C2047.91 14.4531 2040.33 16.5638 2034.22 20.9179L2036.54 24.1758C2041.84 20.405 2048.55 18.4531 2056.83 18.4531V14.4531ZM2034.22 20.9169C2027.9 25.4125 2024.87 32.3589 2024.87 41.3359H2028.87C2028.87 33.3338 2031.51 27.7542 2036.54 24.1769L2034.22 20.9169ZM2024.87 41.3359V42.7422H2028.87V41.3359H2024.87ZM2043.16 44.8516V39.3828H2039.16V44.8516H2043.16ZM2043.16 39.3828C2043.16 35.1718 2044.44 32.4987 2046.65 30.8761L2044.28 27.6551C2040.75 30.2513 2039.16 34.323 2039.16 39.3828H2043.16ZM2046.66 30.8691C2049.07 29.0667 2052.41 28.0771 2056.86 28.1015L2056.88 24.1016C2051.85 24.0739 2047.58 25.1937 2044.27 27.6621L2046.66 30.8691ZM2056.85 28.1014C2061.28 28.1504 2064.62 29.1522 2067.06 30.9222L2069.41 27.6872C2066.12 25.2905 2061.88 24.1569 2056.89 24.1017L2056.85 28.1014ZM2067.06 30.9222C2069.25 32.5176 2070.53 35.1704 2070.53 39.3828H2074.53C2074.53 34.3244 2072.95 30.2585 2069.41 27.6872L2067.06 30.9222ZM2070.53 39.3828V44.8906H2074.53V39.3828H2070.53ZM2070.53 44.8906C2070.53 49.2443 2069.23 52.029 2066.99 53.7255L2069.4 56.9151C2072.94 54.2366 2074.53 50.0682 2074.53 44.8906H2070.53ZM2066.98 53.7308C2064.56 55.5785 2061.26 56.5869 2056.88 56.5625L2056.86 60.5625C2061.85 60.5902 2066.1 59.4371 2069.41 56.9098L2066.98 53.7308ZM2056.88 56.5625C2052.46 56.5381 2049.11 55.5161 2046.66 53.6795L2044.26 56.883C2047.59 59.3693 2051.85 60.5348 2056.86 60.5625L2056.88 56.5625ZM2046.67 53.6847C2044.46 52.0201 2043.16 49.2435 2043.16 44.8516H2039.16C2039.16 50.0429 2040.73 54.2195 2044.26 56.8778L2046.67 53.6847ZM2094.48 67H2092.48V69H2094.48V67ZM2138.27 67V69H2140.27V67H2138.27ZM2138.27 56.6484H2140.27V54.6484H2138.27V56.6484ZM2107.53 56.6484H2105.53V58.6484H2107.53V56.6484ZM2107.53 46.6484V44.6484H2105.53V46.6484H2107.53ZM2134.21 46.6484V48.6484H2136.21V46.6484H2134.21ZM2134.21 37.1953H2136.21V35.1953H2134.21V37.1953ZM2107.53 37.1953H2105.53V39.1953H2107.53V37.1953ZM2107.53 28.1719V26.1719H2105.53V28.1719H2107.53ZM2137.69 28.1719V30.1719H2139.69V28.1719H2137.69ZM2137.69 17.4297H2139.69V15.4297H2137.69V17.4297ZM2094.48 17.4297V15.4297H2092.48V17.4297H2094.48ZM2094.48 69H2138.27V65H2094.48V69ZM2140.27 67V56.6484H2136.27V67H2140.27ZM2138.27 54.6484H2107.53V58.6484H2138.27V54.6484ZM2109.53 56.6484V46.6484H2105.53V56.6484H2109.53ZM2107.53 48.6484H2134.21V44.6484H2107.53V48.6484ZM2136.21 46.6484V37.1953H2132.21V46.6484H2136.21ZM2134.21 35.1953H2107.53V39.1953H2134.21V35.1953ZM2109.53 37.1953V28.1719H2105.53V37.1953H2109.53ZM2107.53 30.1719H2137.69V26.1719H2107.53V30.1719ZM2139.69 28.1719V17.4297H2135.69V28.1719H2139.69ZM2137.69 15.4297H2094.48V19.4297H2137.69V15.4297ZM2092.48 17.4297V67H2096.48V17.4297H2092.48ZM2182.84 67L2181.38 68.3578L2181.97 69H2182.84V67ZM2199.99 67V69H2204.57L2201.46 65.6423L2199.99 67ZM2173.2 38.0156L2174.66 36.6579L2173.55 35.4566L2172.16 36.3071L2173.2 38.0156ZM2162.22 44.6953L2161.18 42.9868L2159.09 44.2579L2160.75 46.0532L2162.22 44.6953ZM2152.53 36.6094V34.6094H2150.53V36.6094H2152.53ZM2152.53 47.625H2150.53V49.625H2152.53V47.625ZM2169.56 47.625V49.625H2170.43L2171.02 48.9952L2169.56 47.625ZM2197.96 17.4297L2199.42 18.7999L2202.59 15.4297H2197.96V17.4297ZM2181.91 17.4297V15.4297H2181.03L2180.43 16.08L2181.91 17.4297ZM2164.37 36.6094V38.6094H2165.25L2165.84 37.9591L2164.37 36.6094ZM2145.66 67H2143.66V69H2145.66V67ZM2159.37 67V69H2161.37V67H2159.37ZM2159.37 17.4297H2161.37V15.4297H2159.37V17.4297ZM2145.66 17.4297V15.4297H2143.66V17.4297H2145.66ZM2182.84 69H2199.99V65H2182.84V69ZM2201.46 65.6423L2174.66 36.6579L2171.73 39.3733L2198.52 68.3577L2201.46 65.6423ZM2172.16 36.3071L2161.18 42.9868L2163.26 46.4038L2174.23 39.7241L2172.16 36.3071ZM2160.75 46.0532L2181.38 68.3578L2184.31 65.6422L2163.69 43.3375L2160.75 46.0532ZM2150.53 36.6094V47.625H2154.53V36.6094H2150.53ZM2152.53 49.625H2169.56V45.625H2152.53V49.625ZM2171.02 48.9952L2199.42 18.7999L2196.5 16.0595L2168.11 46.2548L2171.02 48.9952ZM2197.96 15.4297H2181.91V19.4297H2197.96V15.4297ZM2180.43 16.08L2162.89 35.2597L2165.84 37.9591L2183.38 18.7794L2180.43 16.08ZM2164.37 34.6094H2152.53V38.6094H2164.37V34.6094ZM2145.66 69H2159.37V65H2145.66V69ZM2161.37 67V17.4297H2157.37V67H2161.37ZM2159.37 15.4297H2145.66V19.4297H2159.37V15.4297ZM2143.66 17.4297V67H2147.66V17.4297H2143.66ZM2198.66 28.2891H2196.66V30.2891H2198.66V28.2891ZM2217.65 28.2891H2219.65V26.2891H2217.65V28.2891ZM2217.65 67H2215.65V69H2217.65V67ZM2231.55 67V69H2233.55V67H2231.55ZM2231.55 28.2891V26.2891H2229.55V28.2891H2231.55ZM2250.5 28.2891V30.2891H2252.5V28.2891H2250.5ZM2250.5 17.4297H2252.5V15.4297H2250.5V17.4297ZM2198.66 17.4297V15.4297H2196.66V17.4297H2198.66ZM2198.66 30.2891H2217.65V26.2891H2198.66V30.2891ZM2215.65 28.2891V67H2219.65V28.2891H2215.65ZM2217.65 69H2231.55V65H2217.65V69ZM2233.55 67V28.2891H2229.55V67H2233.55ZM2231.55 30.2891H2250.5V26.2891H2231.55V30.2891ZM2252.5 28.2891V17.4297H2248.5V28.2891H2252.5ZM2250.5 15.4297H2198.66V19.4297H2250.5V15.4297ZM2196.66 17.4297V28.2891H2200.66V17.4297H2196.66ZM2250.15 67L2248.34 66.1538L2247.01 69H2250.15V67ZM2264.05 67V69H2265.37L2265.89 67.7891L2264.05 67ZM2278.55 33.25L2280.38 34.0391L2280.39 34.021L2280.4 34.0028L2278.55 33.25ZM2279.37 31.2188L2277.53 30.4309L2277.52 30.4533L2277.51 30.476L2279.37 31.2188ZM2280.07 29.7344V27.7344H2278.87L2278.3 28.7986L2280.07 29.7344ZM2280.19 29.7344L2281.96 28.7986L2281.39 27.7344H2280.19V29.7344ZM2280.85 31.2188L2278.98 31.9307L2279 31.9858L2279.03 32.0395L2280.85 31.2188ZM2281.71 33.25L2279.86 34.0028L2279.87 34.0264L2279.88 34.0499L2281.71 33.25ZM2296.44 67L2294.6 67.7999L2295.13 69H2296.44V67ZM2310.85 67V69H2313.98L2312.67 66.1597L2310.85 67ZM2287.88 17.3906L2289.7 16.5503L2289.16 15.3906H2287.88V17.3906ZM2273.31 17.3906V15.3906H2272.04L2271.5 16.5445L2273.31 17.3906ZM2261.75 57.4297L2259.88 56.7301L2258.87 59.4297H2261.75V57.4297ZM2298.94 57.4297V59.4297H2301.82L2300.81 56.7301L2298.94 57.4297ZM2295.54 48.3281L2297.41 47.6285L2296.93 46.3281H2295.54V48.3281ZM2265.15 48.3281V46.3281H2263.76L2263.27 47.6285L2265.15 48.3281ZM2250.15 69H2264.05V65H2250.15V69ZM2265.89 67.7891L2280.38 34.0391L2276.71 32.4609L2262.22 66.2109L2265.89 67.7891ZM2280.4 34.0028C2280.74 33.1678 2281.01 32.4871 2281.22 31.9615L2277.51 30.476C2277.3 30.9921 2277.03 31.6655 2276.69 32.4972L2280.4 34.0028ZM2281.21 32.0066C2281.42 31.501 2281.63 31.0566 2281.84 30.6702L2278.3 28.7986C2278.04 29.2976 2277.78 29.8428 2277.53 30.4309L2281.21 32.0066ZM2280.07 31.7344H2280.19V27.7344H2280.07V31.7344ZM2278.42 30.6702C2278.61 31.0296 2278.8 31.4481 2278.98 31.9307L2282.72 30.5068C2282.49 29.8957 2282.23 29.3246 2281.96 28.7986L2278.42 30.6702ZM2279.03 32.0395C2279.25 32.5289 2279.52 33.1809 2279.86 34.0028L2283.56 32.4972C2283.22 31.6524 2282.92 30.9503 2282.68 30.398L2279.03 32.0395ZM2279.88 34.0499L2294.6 67.7999L2298.27 66.2001L2283.54 32.4501L2279.88 34.0499ZM2296.44 69H2310.85V65H2296.44V69ZM2312.67 66.1597L2289.7 16.5503L2286.07 18.2309L2309.04 67.8403L2312.67 66.1597ZM2287.88 15.3906H2273.31V19.3906H2287.88V15.3906ZM2271.5 16.5445L2248.34 66.1538L2251.96 67.8462L2275.12 18.2368L2271.5 16.5445ZM2261.75 59.4297H2298.94V55.4297H2261.75V59.4297ZM2300.81 56.7301L2297.41 47.6285L2293.67 49.0277L2297.06 58.1293L2300.81 56.7301ZM2295.54 46.3281H2265.15V50.3281H2295.54V46.3281ZM2263.27 47.6285L2259.88 56.7301L2263.62 58.1293L2267.02 49.0277L2263.27 47.6285Z" fill="url(#paint2_linear_15_4846)"/>
<defs>
<linearGradient id="paint0_linear_15_4846" x1="717.22" y1="66.9999" x2="-268.162" y2="-65.8873" gradientUnits="userSpaceOnUse">
<stop stop-color="#28AAB9"/>
<stop offset="1" stop-color="#30BCCC"/>
</linearGradient>
<linearGradient id="paint1_linear_15_4846" x1="1147.72" y1="66.9999" x2="865.412" y2="56.272" gradientUnits="userSpaceOnUse">
<stop stop-color="#28AAB9"/>
<stop offset="1" stop-color="#30BCCC"/>
</linearGradient>
<linearGradient id="paint2_linear_15_4846" x1="2252.22" y1="66.9999" x2="1266.84" y2="-65.8873" gradientUnits="userSpaceOnUse">
<stop stop-color="#28AAB9"/>
<stop offset="1" stop-color="#30BCCC"/>
</linearGradient>
</defs>
</svg>
