<svg width="14" height="14" viewBox="0 0 14 14" fill="none" xmlns="http://www.w3.org/2000/svg">
<g clip-path="url(#clip0_368_6221)">
<path fill-rule="evenodd" clip-rule="evenodd" d="M6.9983 0C8.0658 0 8.89604 0.928361 8.77727 1.98924L8.1036 8.00703C8.04031 8.57245 7.56222 9 6.99327 9C6.42362 9 5.94518 8.57142 5.88274 8.0052L5.219 1.9863C5.10212 0.926404 5.93198 0 6.9983 0ZM5.49998 12.5C5.49998 13.3285 6.17155 14 6.99998 14C7.8284 14 8.49998 13.3285 8.49998 12.5C8.49998 11.6716 7.8284 11 6.99998 11C6.17155 11 5.49998 11.6716 5.49998 12.5Z" fill="white"/>
</g>
<defs>
<clipPath id="clip0_368_6221">
<rect width="14" height="14" fill="white"/>
</clipPath>
</defs>
</svg>
