<svg width="21" height="21" viewBox="0 0 21 21" fill="none" xmlns="http://www.w3.org/2000/svg">
<path d="M4.25122 4.02914C2.87704 4.02914 1.75 5.15139 1.75 6.52558V10.2768C1.75 11.651 2.87703 12.778 4.25122 12.778V14.6555C4.25223 14.7785 4.28952 14.8984 4.35842 15.0003C4.42732 15.1023 4.52476 15.1816 4.63855 15.2284C4.75233 15.2752 4.87739 15.2873 4.99806 15.2633C5.11872 15.2393 5.22964 15.1803 5.31689 15.0936L7.63257 12.778H11.7524C13.1266 12.778 14.2488 11.651 14.2488 10.2768V6.52558C14.2488 5.15139 13.1266 4.02914 11.7524 4.02914H4.25122ZM4.25122 5.28046H11.7524C12.4558 5.28046 13.0037 5.82223 13.0037 6.52558V10.2768C13.0037 10.9801 12.4557 11.5268 11.7524 11.5268H7.375C7.20993 11.5278 7.05196 11.594 6.93555 11.7111L5.50122 13.1465V12.1541C5.50185 11.9884 5.43661 11.8292 5.31987 11.7115C5.20312 11.5938 5.04441 11.5273 4.87866 11.5267H4.25122C3.54791 11.5267 3.00122 10.9799 3.00122 10.2766V6.52543C3.00122 5.82209 3.5479 5.28032 4.25122 5.28032V5.28046ZM14.8762 6.52558V7.77545H16.75C17.4533 7.77545 18 8.32345 18 9.02677V12.778C18 13.4813 17.4533 14.028 16.75 14.028H16.1262C16.0437 14.0277 15.962 14.0437 15.8857 14.0751C15.8095 14.1066 15.7402 14.1528 15.6818 14.2111C15.6235 14.2694 15.5773 14.3387 15.5459 14.415C15.5145 14.4912 15.4985 14.573 15.4988 14.6555V15.6429L14.0693 14.2123C14.0113 14.1539 13.9422 14.1076 13.8662 14.076C13.7901 14.0444 13.7086 14.028 13.6262 14.028H9.25244C8.78097 14.028 8.38419 13.7794 8.1709 13.4054H7.89136L7.16138 14.1354C7.60897 14.8202 8.37881 15.278 9.25244 15.278H13.3674L15.6843 17.5937C15.7718 17.6806 15.8831 17.7398 16.0041 17.7636C16.1251 17.7875 16.2504 17.775 16.3644 17.7277C16.4783 17.6805 16.5757 17.6005 16.6443 17.4981C16.7129 17.3956 16.7497 17.2751 16.75 17.1517V15.278C18.1242 15.278 19.25 14.1522 19.25 12.778V9.02677C19.25 7.65258 18.1242 6.52558 16.75 6.52558H14.8762Z" fill="white"/>
</svg>
