<svg width="20" height="21" viewBox="0 0 20 21" fill="none" xmlns="http://www.w3.org/2000/svg">
<path fill-rule="evenodd" clip-rule="evenodd" d="M14.4442 5.97005C14.4442 8.34114 12.4464 10.2699 9.98868 10.2699C7.53153 10.2699 5.53318 8.34114 5.53318 5.97005C5.53318 3.59819 7.53153 1.66895 9.98868 1.66895C12.4464 1.66895 14.4442 3.59819 14.4442 5.97005ZM11.8335 5.97005C11.8335 4.98806 11.006 4.18955 9.98869 4.18955C8.97218 4.18955 8.14389 4.98806 8.14389 5.97005C8.14389 6.95127 8.97218 7.7503 9.98869 7.7503C11.006 7.7503 11.8335 6.95127 11.8335 5.97005Z" fill="#B9DCE1"/>
<path d="M14.39 12.746C13.5844 13.2345 12.7097 13.5808 11.8028 13.7803L14.2935 16.1848C14.8037 16.6763 14.8037 17.4746 14.2935 17.9666C13.7838 18.4586 12.9576 18.4586 12.4484 17.9666L9.99954 15.6037L7.55279 17.9666C7.29766 18.2124 6.96336 18.3354 6.62906 18.3354C6.29529 18.3354 5.96152 18.2124 5.70639 17.9666C5.19668 17.4746 5.19668 16.6768 5.70586 16.1848L8.19687 13.7803C7.28993 13.5808 6.41525 13.2339 5.60962 12.746C4.99993 12.3749 4.81679 11.5975 5.20094 11.0085C5.58403 10.4187 6.38966 10.2411 7.00042 10.6122C8.82442 11.7198 11.1741 11.72 12.9992 10.6122C13.61 10.2411 14.4153 10.4187 14.7992 11.0085C15.1834 11.597 14.9997 12.3749 14.39 12.746Z" fill="#B9DCE1"/>
</svg>
