<svg width="20" height="21" viewBox="0 0 20 21" fill="none" xmlns="http://www.w3.org/2000/svg">
<path fill-rule="evenodd" clip-rule="evenodd" d="M2.25247 9.56473C6.72548 7.5327 9.70322 6.18247 11.1985 5.52741C15.4542 3.66918 16.3488 3.34833 16.9239 3.33496C17.0517 3.33496 17.3329 3.3617 17.5246 3.52212C17.6779 3.65581 17.7163 3.8296 17.7418 3.96329C17.7674 4.09697 17.793 4.37771 17.7674 4.59161C17.5374 7.13164 16.5405 13.2946 16.0293 16.1287C15.8121 17.3319 15.3903 17.7329 14.9814 17.7731C14.0868 17.8533 13.4094 17.1581 12.5532 16.5699C11.1985 15.6474 10.4445 15.0726 9.12812 14.1635C7.6073 13.1208 8.59136 12.5459 9.4604 11.6101C9.69044 11.3695 13.6139 7.62628 13.6906 7.29207C13.7034 7.25196 13.7034 7.09154 13.6139 7.01133C13.5244 6.93112 13.3966 6.95785 13.2944 6.98459C13.1538 7.01133 11.0068 8.50861 6.82772 11.4631C6.21428 11.9042 5.66474 12.1181 5.16632 12.1048C4.61677 12.0914 3.56881 11.7839 2.77645 11.5165C1.81795 11.1957 1.05115 11.0219 1.11505 10.4604C1.15339 10.1663 1.53679 9.87221 2.25247 9.56473Z" fill="#B9DCE1"/>
</svg>
