<svg width="20" height="21" viewBox="0 0 20 21" fill="none" xmlns="http://www.w3.org/2000/svg">
<path d="M10.8002 15.5463C4.72244 15.5463 1.25577 11.3796 1.11133 4.44629H4.15577C4.25577 9.53518 6.50022 11.6907 8.278 12.1352V4.44629H11.1447V8.83518C12.9002 8.64629 14.7447 6.64629 15.3669 4.44629H18.2335C17.9991 5.58727 17.5317 6.6676 16.8606 7.6197C16.1896 8.5718 15.3293 9.37519 14.3336 9.97962C15.445 10.5319 16.4267 11.3136 17.2139 12.2732C18.0011 13.2327 18.5758 14.3483 18.9002 15.5463H15.7447C15.4535 14.5058 14.8616 13.5743 14.0434 12.8687C13.2251 12.163 12.2167 11.7146 11.1447 11.5796V15.5463H10.8002Z" fill="#B9DCE1"/>
</svg>
