<svg width="14" height="10" viewBox="0 0 14 10" fill="none" xmlns="http://www.w3.org/2000/svg">
<path d="M1.89756 0V3.8595C2.50846 3.15889 3.24075 2.80622 4.09001 2.80622C4.52742 2.80622 4.91912 2.88659 5.27052 3.0459C5.6229 3.20427 5.88633 3.40755 6.06424 3.65433C6.24314 3.90347 6.36404 4.17624 6.4294 4.47691C6.49428 4.77615 6.52671 5.24181 6.52671 5.8734V10H4.62866V6.28327C4.62866 5.54579 4.59426 5.07871 4.52201 4.88016C4.45432 4.68566 4.32004 4.51899 4.14112 4.40741C3.9583 4.28875 3.73074 4.23013 3.45601 4.23013C3.14147 4.23013 2.85937 4.30577 2.61413 4.45611C2.36348 4.60738 2.1836 4.83336 2.06958 5.13544C1.95359 5.438 1.8956 5.88474 1.89756 6.47615L1.8956 10H0V0H1.89806H1.89756ZM9.37134 0V3.8595C9.98273 3.15889 10.7145 2.80622 11.5633 2.80622C11.9992 2.80622 12.3939 2.88659 12.7458 3.0459C13.0967 3.20427 13.3601 3.40755 13.537 3.65433C13.7156 3.90181 13.8398 4.1817 13.9022 4.47691C13.9676 4.77615 14 5.24181 14 5.8734V10H12.1039V6.28327C12.1039 5.54579 12.068 5.07871 11.9958 4.88016C11.9281 4.68539 11.7934 4.51864 11.6139 4.40741C11.4331 4.28875 11.2035 4.23013 10.9288 4.23013C10.6148 4.23013 10.3327 4.30577 10.0869 4.45611C9.83971 4.60738 9.65885 4.83336 9.54335 5.13544C9.42933 5.438 9.37134 5.88474 9.37134 6.47615V10H7.47574V0H9.37134Z" fill="#FEFEFE"/>
</svg>
