<svg width="20" height="21" viewBox="0 0 20 21" fill="none" xmlns="http://www.w3.org/2000/svg">
<path fill-rule="evenodd" clip-rule="evenodd" d="M10.0001 1.66895C7.73691 1.66895 7.45288 1.67884 6.56398 1.71929C5.67682 1.75992 5.07126 1.90037 4.54139 2.10645C3.9933 2.31929 3.52836 2.60401 3.06516 3.06738C2.60162 3.53058 2.31689 3.99551 2.10335 4.54343C1.89675 5.07346 1.75612 5.67919 1.71619 6.56599C1.67643 7.45488 1.66602 7.73908 1.66602 10.0023C1.66602 12.2655 1.67609 12.5486 1.71636 13.4375C1.75716 14.3247 1.89762 14.9302 2.10352 15.4601C2.31654 16.0082 2.60127 16.4731 3.06464 16.9363C3.52767 17.3998 3.9926 17.6853 4.54035 17.8981C5.07057 18.1042 5.6763 18.2446 6.56329 18.2853C7.45219 18.3257 7.73604 18.3356 9.99909 18.3356C12.2625 18.3356 12.5456 18.3257 13.4345 18.2853C14.3217 18.2446 14.928 18.1042 15.4582 17.8981C16.0061 17.6853 16.4703 17.3998 16.9334 16.9363C17.3969 16.4731 17.6816 16.0082 17.8952 15.4603C18.1 14.9302 18.2407 14.3245 18.2823 13.4377C18.3223 12.5488 18.3327 12.2655 18.3327 10.0023C18.3327 7.73908 18.3223 7.45506 18.2823 6.56617C18.2407 5.67902 18.1 5.07346 17.8952 4.5436C17.6816 3.99551 17.3969 3.53058 16.9334 3.06738C16.4698 2.60384 16.0063 2.31912 15.4577 2.10645C14.9264 1.90037 14.3205 1.75992 13.4333 1.71929C12.5444 1.67884 12.2614 1.66895 9.99753 1.66895H10.0001ZM9.25256 3.17066C9.47443 3.17032 9.722 3.17066 10.0001 3.17066C12.2252 3.17066 12.4889 3.17865 13.3675 3.21858C14.18 3.25573 14.621 3.3915 14.9148 3.50556C15.3037 3.6566 15.5809 3.83716 15.8724 4.12882C16.1641 4.42049 16.3446 4.69827 16.496 5.08716C16.6101 5.38056 16.746 5.82153 16.783 6.63403C16.8229 7.5125 16.8316 7.77639 16.8316 10.0004C16.8316 12.2243 16.8229 12.4882 16.783 13.3667C16.7459 14.1792 16.6101 14.6201 16.496 14.9135C16.345 15.3024 16.1641 15.5793 15.8724 15.8708C15.5807 16.1625 15.3038 16.3431 14.9148 16.4941C14.6214 16.6087 14.18 16.7441 13.3675 16.7813C12.489 16.8212 12.2252 16.8299 10.0001 16.8299C7.77494 16.8299 7.51122 16.8212 6.63274 16.7813C5.82023 16.7438 5.37925 16.608 5.08532 16.4939C4.69643 16.3429 4.41865 16.1623 4.12698 15.8707C3.83531 15.579 3.65475 15.3019 3.50336 14.9129C3.3893 14.6194 3.25336 14.1785 3.21638 13.366C3.17645 12.4875 3.16846 12.2236 3.16846 9.99827C3.16846 7.77292 3.17645 7.51042 3.21638 6.63195C3.25353 5.81945 3.3893 5.37848 3.50336 5.08473C3.65441 4.69584 3.83531 4.41806 4.12698 4.12639C4.41865 3.83473 4.69643 3.65417 5.08532 3.50278C5.37908 3.3882 5.82023 3.25278 6.63274 3.21545C7.40149 3.18073 7.69941 3.17032 9.25256 3.16858V3.17066ZM14.4485 4.55436C13.8964 4.55436 13.4484 5.00175 13.4484 5.55401C13.4484 6.10609 13.8964 6.55401 14.4485 6.55401C15.0005 6.55401 15.4485 6.10609 15.4485 5.55401C15.4485 5.00193 15.0005 4.55436 14.4485 4.55436ZM10.0001 5.72276C7.63675 5.72276 5.72058 7.63891 5.72058 10.0023C5.72058 12.3656 7.63675 14.2809 10.0001 14.2809C12.3635 14.2809 14.279 12.3656 14.279 10.0023C14.279 7.63891 12.3635 5.72276 10.0001 5.72276ZM10.0001 7.2245C11.5342 7.2245 12.7779 8.46808 12.7779 10.0023C12.7779 11.5363 11.5342 12.7801 10.0001 12.7801C8.46591 12.7801 7.22232 11.5363 7.22232 10.0023C7.22232 8.46808 8.46591 7.2245 10.0001 7.2245Z" fill="#B9DCE1"/>
</svg>
