<svg width="20" height="20" viewBox="0 0 20 20" fill="none" xmlns="http://www.w3.org/2000/svg">
<path fill-rule="evenodd" clip-rule="evenodd" d="M10 2.75C5.99594 2.75 2.75 5.99594 2.75 10H4L2 12L0 10H1.25C1.25 5.16751 5.16751 1.25 10 1.25C12.3897 1.25 14.5569 2.20897 16.1353 3.76136L15.0835 4.83079C13.7743 3.54313 11.9805 2.75 10 2.75ZM10 17.25C14.0041 17.25 17.25 14.0041 17.25 10H16L18 8L20 10H18.75C18.75 14.8325 14.8325 18.75 10 18.75C7.60128 18.75 5.42677 17.7838 3.84689 16.2211L4.90174 15.1546C6.21223 16.4509 8.01206 17.25 10 17.25Z" fill="#28AAB9"/>
</svg>
