<svg width="3027" height="66" viewBox="0 0 3027 66" fill="none" xmlns="http://www.w3.org/2000/svg">
<path fill-rule="evenodd" clip-rule="evenodd" d="M0.359375 54.5469V0.976562H54.7109V54.5469H36.9609V15.9141H18.0703V54.5469H0.359375ZM16.0703 52.5469H2.35938V2.97656H52.7109V52.5469H38.9609V13.9141H16.0703V52.5469ZM61.2969 54.5469V0.976562H92.7891C99.5904 0.976562 105.062 2.62147 108.826 6.26398C112.576 9.86669 114.359 14.7399 114.359 20.6328C114.359 26.4752 112.603 31.3713 108.947 35.116C105.22 38.9339 99.6079 40.6406 92.5547 40.6406H79.0078V54.5469H61.2969ZM107.516 33.7188C110.745 30.4115 112.359 26.0495 112.359 20.6328C112.359 15.1641 110.719 10.8542 107.438 7.70312C104.182 4.55208 99.2995 2.97656 92.7891 2.97656H63.2969V52.5469H77.0078V38.6406H92.5547C99.3255 38.6406 104.312 37 107.516 33.7188ZM96.5781 15.125C95.1979 13.6927 92.7891 12.9766 89.3516 12.9766H77.0078V29.3047H89.3516C92.7891 29.3047 95.1979 28.5365 96.5781 27C97.9583 25.4635 98.6484 23.4323 98.6484 20.9062C98.6484 18.4583 97.9583 16.5312 96.5781 15.125ZM79.0078 27.3047H89.3516C92.5842 27.3047 94.2782 26.5674 95.0903 25.6635C96.0711 24.5716 96.6484 23.0541 96.6484 20.9062C96.6484 18.8483 96.0797 17.4724 95.1508 16.5259L95.1443 16.5194L95.138 16.5128C94.3313 15.6756 92.6159 14.9766 89.3516 14.9766H79.0078V27.3047ZM117.078 54.5469V0.976562H164.281V15.7188H134.125V20.7422H160.805V34.1953H134.125V40.1953H164.817C164.49 38.7591 164.307 37.2288 164.266 35.6095C164.266 35.608 164.266 35.6066 164.266 35.6051L164.167 32.2266H181.286L181.39 35.3401L181.39 35.3485C181.455 37.9625 182.352 39.4482 183.805 40.3161C185.538 41.3242 188.393 41.9531 192.633 41.9531C196.463 41.9531 198.905 41.3464 200.29 40.4424L200.3 40.4355C201.725 39.5182 202.234 38.5052 202.234 37.3125C202.234 36.0546 201.809 35.4435 201.078 35.0388L201.066 35.0323L201.055 35.0255C200.085 34.4717 198.037 34.0391 194.508 34.0391H182.742V20.4297H194.273C197.281 20.4297 198.983 20.0145 199.782 19.5189L199.79 19.5143L199.797 19.5097C200.326 19.1885 200.844 18.5156 200.867 16.7936C200.864 15.9862 200.542 15.328 199.462 14.7182C198.322 14.0744 196.109 13.6094 192.477 13.6094C188.449 13.6094 185.764 14.2378 184.146 15.2289L184.14 15.2327C182.709 16.1019 181.938 17.3844 181.858 19.3846L181.857 19.4091L181.656 22.5156H164.79L164.892 19.1584L164.892 19.1508C165.124 13.0406 167.752 8.21898 172.734 4.90621C177.644 1.63279 184.368 0.117188 192.672 0.117188C200.708 0.117188 207.089 1.37843 211.541 4.16906C216.001 6.92266 218.5 10.7062 218.5 15.4766V15.4862L218.5 15.4958C218.47 18.5908 217.581 21.2947 215.698 23.4374C214.946 24.2924 214.077 25.0383 213.101 25.6818C214.43 26.3636 215.622 27.227 216.664 28.2809C219.038 30.628 220.102 33.8396 220.102 37.625C220.102 42.7777 217.287 47.039 212.31 50.4132L212.308 50.4146C207.285 53.8106 200.677 55.4062 192.672 55.4062C184.203 55.4062 177.348 53.9616 172.322 50.8488L172.315 50.8444C168.393 48.3931 165.931 44.8622 164.867 40.4123V54.5469H117.078ZM215.25 29.6953C214.054 28.4826 212.603 27.5454 210.899 26.8838C209.941 26.5122 208.904 26.2275 207.786 26.0297C207.774 26.0276 207.762 26.0255 207.75 26.0234V25.9062C207.757 25.9042 207.764 25.9021 207.772 25.9C208.877 25.5785 209.881 25.1851 210.785 24.7199C212.152 24.0166 213.289 23.149 214.195 22.1172C215.706 20.3984 216.474 18.1849 216.5 15.4766C216.5 11.5443 214.495 8.34115 210.484 5.86719C206.5 3.36719 200.562 2.11719 192.672 2.11719C184.573 2.11719 178.297 3.60156 173.844 6.57031C169.61 9.38481 167.305 13.3666 166.93 18.5156C166.913 18.7502 166.9 18.9872 166.891 19.2266L166.852 20.5156H179.781L179.859 19.3047C179.964 16.7005 181.044 14.7734 183.102 13.5234C185.185 12.2474 188.31 11.6094 192.477 11.6094C196.174 11.6094 198.831 12.0651 200.445 12.9766C202.06 13.888 202.867 15.1641 202.867 16.8047C202.841 18.9401 202.164 20.4115 200.836 21.2188C199.534 22.026 197.346 22.4297 194.273 22.4297H184.742V32.0391H194.508C198.076 32.0391 200.589 32.4557 202.047 33.2891C203.505 34.0964 204.234 35.4375 204.234 37.3125C204.234 39.2917 203.284 40.8932 201.383 42.1172C199.508 43.3411 196.591 43.9531 192.633 43.9531C188.258 43.9531 184.977 43.3151 182.789 42.0391C180.602 40.737 179.469 38.5234 179.391 35.3984L179.352 34.2266H166.227L166.266 35.5547C166.271 35.7809 166.28 36.0048 166.292 36.2266C166.598 42.0811 168.959 46.3884 173.375 49.1484C177.958 51.987 184.391 53.4062 192.672 53.4062C200.432 53.4062 206.604 51.8568 211.188 48.7578C215.797 45.6328 218.102 41.9219 218.102 37.625C218.102 34.2135 217.151 31.5703 215.25 29.6953ZM162.867 42.1953V52.5469H119.078V2.97656H162.281V13.7188H132.125V22.7422H158.805V32.1953H132.125V42.1953H162.867ZM222.859 54.5469V0.976562H270.062V15.7188H239.906V20.7422H266.586V34.1953H239.906V40.1953H270.648V54.5469H222.859ZM268.648 42.1953V52.5469H224.859V2.97656H268.062V13.7188H237.906V22.7422H264.586V32.1953H237.906V42.1953H268.648ZM274.031 54.5469V0.976562H291.742V19.2188H311.062V0.976562H328.773V54.5469H311.062V34.625H291.742V54.5469H274.031ZM289.742 2.97656V21.2188H313.062V2.97656H326.773V52.5469H313.062V32.625H289.742V52.5469H276.031V2.97656H289.742ZM330.711 15.8359V0.976562H386.547V15.8359H367.602V54.5469H349.695V15.8359H330.711ZM332.711 13.8359V2.97656H384.547V13.8359H365.602V52.5469H351.695V13.8359H332.711ZM381.054 54.5469L406.086 0.9375H423.208L447.312 53.0007V0.976562H465.023V39.6094H483.953V0.976562H501.664V39.6094H508.5V65.6797H491.766V54.5469H429.175L424.999 44.9766H403.529L399.419 54.5469H381.054ZM402.211 42.9766H426.308L430.484 52.5469H444.898L421.93 2.9375H407.359L384.195 52.5469H398.102L402.211 42.9766ZM415.758 18.7969C415.572 18.3398 415.402 17.9297 415.248 17.5666C415.245 17.5604 415.242 17.5543 415.24 17.5481C415.231 17.527 415.222 17.506 415.213 17.4852C415.099 17.2191 414.995 16.9792 414.898 16.7656C414.703 16.2538 414.497 15.7876 414.279 15.3671C414.264 15.3383 414.249 15.3096 414.234 15.2812H414.117C414.102 15.3097 414.087 15.3383 414.072 15.3672C413.853 15.7877 413.633 16.2539 413.414 16.7656C413.334 16.9652 413.245 17.1878 413.146 17.4333C413.126 17.4817 413.106 17.5309 413.086 17.5811C413.084 17.5866 413.082 17.592 413.08 17.5975C412.936 17.9529 412.774 18.3527 412.594 18.7969L406.119 33.875H422.337L415.758 18.7969ZM419.282 31.875L414.178 20.1768L409.155 31.875H419.282ZM506.5 41.6094V63.6797H493.766V52.5469H449.312V2.97656H463.023V41.6094H485.953V2.97656H499.664V41.6094H506.5ZM565.961 54.5469H548.37L548.332 28.4612L529.153 54.5469H510.594V0.976562H528.188V26.7946L547.41 0.976562H565.961V54.5469ZM528.184 30.2101C527.753 30.8845 527.419 31.4551 527.182 31.9219C527.176 31.9336 527.17 31.9453 527.165 31.9569C527.137 32.0118 527.111 32.0652 527.086 32.1172C526.826 32.6901 526.578 33.3802 526.344 34.1875H526.109C526.11 34.165 526.111 34.1426 526.112 34.1201C526.133 33.4759 526.145 32.8317 526.148 32.1875C526.148 32.099 526.148 32.0104 526.148 31.9219C526.151 31.8472 526.153 31.7714 526.156 31.6944C526.156 31.6872 526.156 31.6799 526.156 31.6726C526.175 31.063 526.185 30.382 526.187 29.6294C526.187 29.5226 526.188 29.4144 526.188 29.3047V2.97656H512.594V52.5469H528.141L548.102 25.3984C548.181 25.2912 548.258 25.1857 548.332 25.0817C548.882 24.3077 549.272 23.6235 549.503 23.0292C549.504 23.0247 549.506 23.0201 549.508 23.0156C549.794 22.3125 550.042 21.6354 550.25 20.9844H550.484M550.484 21.0594C550.483 21.6793 550.459 22.321 550.414 22.9844C550.411 23.0208 550.409 23.0572 550.406 23.0938C550.4 23.1786 550.395 23.2655 550.389 23.3546C550.389 23.3611 550.388 23.3677 550.388 23.3742C550.349 24.0354 550.329 24.8123 550.328 25.705C550.328 25.72 550.328 25.735 550.328 25.75L550.367 52.5469H563.961V2.97656H548.414L528.492 29.7344C528.384 29.8983 528.281 30.0569 528.184 30.2101M623.266 54.5469H605.555V39.5859H596.482L586.226 54.5469H566.711L579.634 36.1683C578.24 35.3784 576.986 34.4157 575.882 33.272L575.876 33.2658C572.542 29.783 570.945 25.2584 570.945 19.8906C570.945 14.2677 572.839 9.59894 576.724 6.09991L576.73 6.09485C580.637 2.60198 585.919 0.976562 592.32 0.976562H623.266V54.5469ZM580.791 34.5231C581.372 34.8432 581.984 35.1321 582.626 35.3899L570.562 52.5469H585.172L595.428 37.5859H607.555V52.5469H621.266V2.97656H592.32C586.253 2.97656 581.5 4.51302 578.062 7.58594C574.651 10.6589 572.945 14.7604 572.945 19.8906C572.945 24.8385 574.404 28.8359 577.32 31.8828C578.323 32.9214 579.48 33.8015 580.791 34.5231ZM652.156 54.5469V0.976562H706.508V54.5469H688.758V15.9141H669.867V54.5469H652.156ZM667.867 52.5469H654.156V2.97656H704.508V52.5469H690.758V13.9141H667.867V52.5469ZM713.094 54.5469V0.976562H744.586C751.387 0.976562 756.859 2.62147 760.623 6.26399C764.373 9.86669 766.156 14.7399 766.156 20.6328C766.156 26.4752 764.4 31.3713 760.744 35.1158C757.017 38.9339 751.405 40.6406 744.352 40.6406H730.805V54.5469H713.094ZM759.234 7.70312C755.979 4.55208 751.096 2.97656 744.586 2.97656H715.094V52.5469H728.805V38.6406H744.352C751.122 38.6406 756.109 37 759.312 33.7188C762.542 30.4115 764.156 26.0495 764.156 20.6328C764.156 15.1641 762.516 10.8542 759.234 7.70312ZM748.375 15.125C746.995 13.6927 744.586 12.9766 741.148 12.9766H728.805V29.3047H741.148C744.586 29.3047 746.995 28.5365 748.375 27C749.755 25.4635 750.445 23.4323 750.445 20.9062C750.445 18.4583 749.755 16.5312 748.375 15.125ZM730.805 27.3047H741.148C744.381 27.3047 746.075 26.5674 746.887 25.6635C747.868 24.5716 748.445 23.0541 748.445 20.9062C748.445 18.8483 747.877 17.4724 746.948 16.5259L746.941 16.5194L746.935 16.5128C746.128 15.6756 744.413 14.9766 741.148 14.9766H730.805V27.3047ZM775.222 49.0587L775.214 49.0526C768.889 44.4976 765.867 37.4315 765.867 28.2891V26.8828C765.867 17.9058 768.901 10.9594 775.224 6.46376C781.336 2.11033 788.915 0 797.828 0C806.741 0 814.319 2.1101 820.431 6.46301C826.779 10.9572 829.828 17.9034 829.828 26.8828V28.2891C829.828 37.435 826.791 44.5015 820.439 49.0551L820.434 49.0587C814.321 53.4128 806.742 55.5234 797.828 55.5234C788.914 55.5234 781.335 53.4128 775.222 49.0587ZM819.273 8.09375C813.57 4.03125 806.422 2 797.828 2C789.234 2 782.086 4.03125 776.383 8.09375C770.706 12.1302 767.867 18.3932 767.867 26.8828V28.2891C767.867 36.9609 770.706 43.3411 776.383 47.4297C782.086 51.4922 789.234 53.5234 797.828 53.5234C806.422 53.5234 813.57 51.4922 819.273 47.4297C824.977 43.3411 827.828 36.9609 827.828 28.2891V26.8828C827.828 18.3932 824.977 12.1302 819.273 8.09375ZM787.656 16.416L787.647 16.423C785.443 18.0456 784.164 20.7186 784.164 24.9297V30.3984C784.164 34.7888 785.458 37.5649 787.663 39.2298C790.119 41.0643 793.465 42.085 797.878 42.1094C802.257 42.1337 805.562 41.1254 807.982 39.2777L807.988 39.2724C810.23 37.5759 811.531 34.7912 811.531 30.4375V24.9297C811.531 20.7173 810.252 18.0644 808.058 16.469C805.625 14.6998 802.282 13.6981 797.851 13.6484C793.407 13.6248 790.073 14.6144 787.656 16.416ZM797.867 11.6484C793.128 11.6224 789.326 12.6771 786.461 14.8125C783.596 16.9219 782.164 20.2943 782.164 24.9297V30.3984C782.164 35.1901 783.596 38.6667 786.461 40.8281C789.352 42.9896 793.154 44.0833 797.867 44.1094C802.555 44.1354 806.331 43.0547 809.195 40.8672C812.086 38.6797 813.531 35.2031 813.531 30.4375V24.9297C813.531 20.2943 812.099 16.9349 809.234 14.8516C806.37 12.7682 802.581 11.7005 797.867 11.6484ZM833.484 54.5469V0.976562H880.688V15.7188H850.531V20.7422H877.211V34.1953H850.531V40.1953H881.273V54.5469H833.484ZM879.273 42.1953V52.5469H835.484V2.97656H878.688V13.7188H848.531V22.7422H875.211V32.1953H848.531V42.1953H879.273ZM922.969 54.5469L905.053 35.1719H902.367V54.5469H884.656V0.976562H902.367V20.1562H904.486L922.025 0.976562H993.5V15.8359H974.555V54.5469H956.648V15.8359H937.664V7.27479L919.609 26.4721L945.565 54.5469H922.969ZM916.875 26.4604L938.961 2.97656H922.906L905.367 22.1562H900.367V2.97656H886.656V52.5469H900.367V33.1719H905.928L923.844 52.5469H940.992L916.875 26.4604ZM939.664 13.8359H958.648V52.5469H972.555V13.8359H991.5V2.97656H939.664V13.8359ZM988.007 54.5469L1013.04 0.9375H1030.16L1054.98 54.5469H1036.13L1031.95 44.9766H1010.48L1006.37 54.5469H988.007ZM1009.16 42.9766H1033.26L1037.44 52.5469H1051.85L1028.88 2.9375H1014.31L991.148 52.5469H1005.05L1009.16 42.9766ZM1022.71 18.7969C1022.53 18.3398 1022.36 17.9297 1022.2 17.5666C1022.2 17.5604 1022.2 17.5542 1022.19 17.5481C1022.18 17.527 1022.18 17.506 1022.17 17.4852C1022.05 17.2191 1021.95 16.9792 1021.85 16.7656C1021.66 16.2538 1021.45 15.7876 1021.23 15.3671C1021.22 15.3383 1021.2 15.3096 1021.19 15.2812H1021.07C1021.06 15.3097 1021.04 15.3383 1021.03 15.3672C1020.81 15.7877 1020.59 16.2539 1020.37 16.7656C1020.29 16.9652 1020.2 17.1878 1020.1 17.4333C1020.08 17.4817 1020.06 17.5309 1020.04 17.5811C1020.04 17.5866 1020.03 17.592 1020.03 17.5975C1019.89 17.9529 1019.73 18.3527 1019.55 18.7969L1013.07 33.875H1029.29L1022.71 18.7969ZM1026.24 31.875L1021.13 20.1768L1016.11 31.875H1026.24ZM607.555 12.7031V28.6016H595.133C592.164 28.6016 590.029 27.8854 588.727 26.4531C587.451 24.9948 586.812 23.0677 586.812 20.6719C586.812 18.276 587.451 16.362 588.727 14.9297C590.029 13.4714 592.164 12.7292 595.133 12.7031H607.555ZM590.22 16.2601C589.346 17.2413 588.812 18.6398 588.812 20.6719C588.812 22.6922 589.34 24.1089 590.219 25.121C590.982 25.9509 592.443 26.6016 595.133 26.6016H605.555V14.7031H595.142C592.452 14.7281 590.988 15.401 590.22 16.2601Z" fill="url(#paint0_linear_302_2311)"/>
<circle cx="1097" cy="25.5469" r="6" fill="#28AAB9"/>
<path fill-rule="evenodd" clip-rule="evenodd" d="M1146.69 54.5469V0.976562H1177.16C1183.15 0.976562 1187.98 2.09115 1191.25 4.68766C1194.58 7.29933 1196.2 10.97 1196.2 15.4375C1196.2 18.6687 1195.34 21.5132 1193.5 23.8287C1192.81 24.6897 1192.05 25.4461 1191.22 26.0971C1192.66 26.8143 1193.96 27.7488 1195.1 28.9064C1197.56 31.3331 1198.66 34.6629 1198.66 38.6016C1198.66 43.6409 1196.71 47.7067 1192.79 50.5364C1188.98 53.281 1183.99 54.5469 1178.02 54.5469H1146.69ZM1193.69 30.3203C1192.42 29.0364 1190.92 28.0594 1189.2 27.3892C1188.27 27.0304 1187.28 26.7596 1186.22 26.5767C1186.21 26.5746 1186.2 26.5724 1186.19 26.5703V26.4531C1186.19 26.451 1186.2 26.4489 1186.21 26.4468C1187.22 26.1411 1188.15 25.7259 1189.01 25.2011C1190.12 24.5161 1191.09 23.6444 1191.93 22.5859C1193.44 20.6849 1194.2 18.3021 1194.2 15.4375C1194.2 11.5052 1192.8 8.44531 1190.02 6.25781C1187.26 4.07031 1182.97 2.97656 1177.16 2.97656H1148.69V52.5469H1178.02C1183.73 52.5469 1188.26 51.3359 1191.62 48.9141C1194.98 46.4922 1196.66 43.0547 1196.66 38.6016C1196.66 35.0339 1195.67 32.2734 1193.69 30.3203ZM1180.72 32.7422C1179.34 31.6484 1177.33 31.1016 1174.7 31.1016H1162.01V43.4453H1174.7C1177.33 43.4453 1179.34 42.9375 1180.72 41.9219C1182.1 40.8802 1182.79 39.3438 1182.79 37.3125C1182.79 35.3333 1182.1 33.8099 1180.72 32.7422ZM1164.01 41.4453H1174.7C1177.11 41.4453 1178.63 40.9744 1179.52 40.3182C1180.31 39.7234 1180.79 38.834 1180.79 37.3125C1180.79 35.8579 1180.32 34.9588 1179.5 34.3241L1179.49 34.3169L1179.48 34.3097C1178.59 33.6047 1177.1 33.1016 1174.7 33.1016H1164.01V41.4453ZM1257.37 54.5469H1239.78L1239.74 28.4612L1220.56 54.5469H1202V0.976562H1219.59V26.7946L1238.82 0.976562H1257.37V54.5469ZM1219.59 30.2101C1219.16 30.8845 1218.83 31.4551 1218.59 31.9219C1218.58 31.9336 1218.58 31.9453 1218.57 31.9569C1218.54 32.0118 1218.52 32.0652 1218.49 32.1172C1218.23 32.6901 1217.98 33.3802 1217.75 34.1875H1217.52C1217.52 34.165 1217.52 34.1426 1217.52 34.1201C1217.54 33.4759 1217.55 32.8317 1217.55 32.1875C1217.55 32.099 1217.55 32.0104 1217.55 31.9219C1217.56 31.8472 1217.56 31.7714 1217.56 31.6944C1217.56 31.6872 1217.56 31.6799 1217.56 31.6726C1217.58 31.063 1217.59 30.382 1217.59 29.6294C1217.59 29.5226 1217.59 29.4144 1217.59 29.3047V2.97656H1204V52.5469H1219.55L1239.51 25.3984C1239.59 25.2912 1239.66 25.1857 1239.74 25.0817C1240.29 24.3077 1240.68 23.6235 1240.91 23.0292C1240.91 23.0247 1240.91 23.0201 1240.91 23.0156C1241.2 22.3125 1241.45 21.6354 1241.66 20.9844H1241.89C1241.89 21.0093 1241.89 21.0343 1241.89 21.0593C1241.89 21.6793 1241.87 22.321 1241.82 22.9844C1241.82 23.0208 1241.82 23.0572 1241.81 23.0938C1241.81 23.1786 1241.8 23.2655 1241.8 23.3546C1241.79 23.3611 1241.79 23.3677 1241.79 23.3742C1241.75 24.0354 1241.74 24.8124 1241.73 25.7051C1241.73 25.72 1241.73 25.735 1241.73 25.75L1241.77 52.5469H1255.37V2.97656H1239.82L1219.9 29.7344C1219.79 29.8983 1219.69 30.0569 1219.59 30.2101ZM1308.33 65.6797V54.5469H1275.84V65.6797H1259.11V39.6094H1265.47C1266.06 38.1697 1266.54 36.7609 1266.91 35.3828L1266.92 35.3752L1266.92 35.3676C1267.72 32.4952 1268.28 28.5051 1268.57 23.336L1268.57 23.3278L1269.97 0.976562H1318.23V39.6094H1325.06V65.6797H1308.33ZM1316.23 41.6094V2.97656H1271.85L1270.56 23.4453C1270.28 28.6797 1269.7 32.8333 1268.84 35.9062C1268.51 37.1243 1268.11 38.3586 1267.62 39.6094C1267.36 40.2715 1267.08 40.9381 1266.78 41.6094H1261.11V63.6797H1273.84V52.5469H1310.33V63.6797H1323.06V41.6094H1316.23ZM1280.37 39.6094C1280.16 40.2878 1279.94 40.9545 1279.69 41.6094H1302.52V13.9141H1283.73L1282.87 24.2266C1282.35 29.8516 1281.73 34.1615 1281.03 37.1562C1280.83 37.9904 1280.61 38.8081 1280.37 39.6094ZM1285.57 15.9141L1284.86 24.4018L1284.86 24.411C1284.34 30.0654 1283.71 34.4835 1282.98 37.6134L1282.98 37.6172C1282.82 38.2907 1282.64 38.9548 1282.45 39.6094H1300.52V15.9141H1285.57ZM1327.16 54.5469V0.976562H1374.36V15.7188H1344.2V20.7422H1370.88V34.1953H1344.2V40.1953H1374.95V54.5469H1327.16ZM1372.95 42.1953V52.5469H1329.16V2.97656H1372.36V13.7188H1342.2V22.7422H1368.88V32.1953H1342.2V42.1953H1372.95ZM1384.68 49.0587L1384.67 49.0526C1378.34 44.4976 1375.32 37.4315 1375.32 28.2891V26.8828C1375.32 17.9064 1378.35 10.9604 1384.68 6.46478C1390.79 2.11067 1398.37 0 1407.28 0C1416.19 0 1423.77 2.1101 1429.88 6.46301C1436.23 10.9572 1439.28 17.9034 1439.28 26.8828V28.2891C1439.28 37.435 1436.24 44.5015 1429.89 49.0551L1429.89 49.0587C1423.77 53.4128 1416.19 55.5234 1407.28 55.5234C1398.37 55.5234 1390.79 53.4128 1384.68 49.0587ZM1428.73 8.09375C1423.02 4.03125 1415.88 2 1407.28 2C1398.69 2 1391.54 4.03125 1385.84 8.09375C1380.16 12.1302 1377.32 18.3932 1377.32 26.8828V28.2891C1377.32 36.9609 1380.16 43.3411 1385.84 47.4297C1391.54 51.4922 1398.69 53.5234 1407.28 53.5234C1415.88 53.5234 1423.02 51.4922 1428.73 47.4297C1434.43 43.3411 1437.28 36.9609 1437.28 28.2891V26.8828C1437.28 18.3932 1434.43 12.1302 1428.73 8.09375ZM1397.11 16.416L1397.1 16.423C1394.9 18.0456 1393.62 20.7186 1393.62 24.9297V30.3984C1393.62 34.7879 1394.91 37.5637 1397.11 39.2287C1399.57 41.0639 1402.92 42.085 1407.33 42.1094C1411.71 42.1337 1415.01 41.1254 1417.43 39.2777L1417.44 39.2724C1419.68 37.5759 1420.98 34.7912 1420.98 30.4375V24.9297C1420.98 20.7173 1419.7 18.0644 1417.51 16.469C1415.08 14.6998 1411.74 13.6981 1407.3 13.6484C1402.86 13.6248 1399.53 14.6144 1397.11 16.416ZM1407.32 11.6484C1402.58 11.6224 1398.78 12.6771 1395.91 14.8125C1393.05 16.9219 1391.62 20.2943 1391.62 24.9297V30.3984C1391.62 35.1901 1393.05 38.6667 1395.91 40.8281C1398.8 42.9896 1402.61 44.0833 1407.32 44.1094C1412.01 44.1354 1415.78 43.0547 1418.65 40.8672C1421.54 38.6797 1422.98 35.2031 1422.98 30.4375V24.9297C1422.98 20.2943 1421.55 16.9349 1418.69 14.8516C1415.82 12.7682 1412.03 11.7005 1407.32 11.6484ZM1164.01 14.5078V21.8359H1173.96C1176.29 21.8359 1177.52 21.3442 1178.12 20.7936C1178.76 20.215 1179.19 19.3353 1179.19 17.8594C1179.19 16.5169 1178.78 15.8346 1178.25 15.4185C1177.63 14.9411 1176.34 14.5078 1173.96 14.5078H1164.01ZM1162.01 12.5078H1173.96C1176.49 12.5078 1178.32 12.9505 1179.47 13.8359C1180.61 14.7214 1181.19 16.0625 1181.19 17.8594C1181.19 19.7604 1180.61 21.2318 1179.47 22.2734C1178.32 23.3151 1176.49 23.8359 1173.96 23.8359H1162.01V12.5078Z" fill="url(#paint1_linear_302_2311)"/>
<circle cx="1486" cy="25.5469" r="6" fill="#28AAB9"/>
<path fill-rule="evenodd" clip-rule="evenodd" d="M1535.36 54.5469V0.976562H1589.71V54.5469H1571.96V15.9141H1553.07V54.5469H1535.36ZM1551.07 52.5469H1537.36V2.97656H1587.71V52.5469H1573.96V13.9141H1551.07V52.5469ZM1596.3 54.5469V0.976562H1627.79C1634.59 0.976562 1640.06 2.62147 1643.83 6.26398C1647.58 9.86669 1649.36 14.7399 1649.36 20.6328C1649.36 26.4752 1647.6 31.3713 1643.95 35.116C1640.22 38.9339 1634.61 40.6406 1627.55 40.6406H1614.01V54.5469H1596.3ZM1642.52 33.7188C1645.74 30.4115 1647.36 26.0495 1647.36 20.6328C1647.36 15.1641 1645.72 10.8542 1642.44 7.70312C1639.18 4.55208 1634.3 2.97656 1627.79 2.97656H1598.3V52.5469H1612.01V38.6406H1627.55C1634.33 38.6406 1639.31 37 1642.52 33.7188ZM1631.58 15.125C1630.2 13.6927 1627.79 12.9766 1624.35 12.9766H1612.01V29.3047H1624.35C1627.79 29.3047 1630.2 28.5365 1631.58 27C1632.96 25.4635 1633.65 23.4323 1633.65 20.9062C1633.65 18.4583 1632.96 16.5312 1631.58 15.125ZM1614.01 27.3047H1624.35C1627.58 27.3047 1629.28 26.5674 1630.09 25.6635C1631.07 24.5716 1631.65 23.0541 1631.65 20.9062C1631.65 18.8483 1631.08 17.4724 1630.15 16.5259L1630.14 16.5194L1630.14 16.5128C1629.33 15.6756 1627.62 14.9766 1624.35 14.9766H1614.01V27.3047ZM1652.08 54.5469V0.976562H1699.28V15.7188H1669.12V20.7422H1695.8V34.1953H1669.12V40.1953H1699.82C1699.49 38.7591 1699.31 37.2288 1699.27 35.6095C1699.27 35.608 1699.27 35.6066 1699.27 35.6051L1699.17 32.2266H1716.29L1716.39 35.3401L1716.39 35.3485C1716.46 37.9625 1717.35 39.4482 1718.8 40.3161C1720.54 41.3242 1723.39 41.9531 1727.63 41.9531C1731.46 41.9531 1733.9 41.3464 1735.29 40.4424L1735.3 40.4355C1736.73 39.5182 1737.23 38.5052 1737.23 37.3125C1737.23 36.0546 1736.81 35.4435 1736.08 35.0388L1736.07 35.0323L1736.05 35.0255C1735.09 34.4717 1733.04 34.0391 1729.51 34.0391H1717.74V20.4297H1729.27C1732.28 20.4297 1733.98 20.0145 1734.78 19.5189L1734.79 19.5143L1734.8 19.5097C1735.33 19.1885 1735.84 18.5156 1735.87 16.7936C1735.86 15.9862 1735.54 15.328 1734.46 14.7182C1733.32 14.0744 1731.11 13.6094 1727.48 13.6094C1723.45 13.6094 1720.76 14.2378 1719.15 15.2289L1719.14 15.2327C1717.71 16.1019 1716.94 17.3844 1716.86 19.3846L1716.86 19.4091L1716.66 22.5156H1699.79L1699.89 19.1584L1699.89 19.1508C1700.12 13.0406 1702.75 8.21898 1707.73 4.90621C1712.64 1.63279 1719.37 0.117188 1727.67 0.117188C1735.71 0.117188 1742.09 1.37843 1746.54 4.16906C1751 6.92266 1753.5 10.7062 1753.5 15.4766V15.4862L1753.5 15.4958C1753.47 18.5908 1752.58 21.2947 1750.7 23.4374C1749.95 24.2924 1749.08 25.0383 1748.1 25.6818C1749.43 26.3636 1750.62 27.227 1751.66 28.2809C1754.04 30.628 1755.1 33.8396 1755.1 37.625C1755.1 42.7777 1752.29 47.039 1747.31 50.4132L1747.31 50.4146C1742.29 53.8106 1735.68 55.4062 1727.67 55.4062C1719.2 55.4062 1712.35 53.9616 1707.32 50.8488L1707.31 50.8444C1703.39 48.3931 1700.93 44.8622 1699.87 40.4123V54.5469H1652.08ZM1750.25 29.6953C1749.05 28.4826 1747.6 27.5454 1745.9 26.8838C1744.94 26.5122 1743.9 26.2275 1742.79 26.0297C1742.77 26.0276 1742.76 26.0255 1742.75 26.0234V25.9062C1742.76 25.9042 1742.76 25.9021 1742.77 25.9C1743.88 25.5785 1744.88 25.1851 1745.79 24.7199C1747.15 24.0166 1748.29 23.149 1749.2 22.1172C1750.71 20.3984 1751.47 18.1849 1751.5 15.4766C1751.5 11.5443 1749.49 8.34115 1745.48 5.86719C1741.5 3.36719 1735.56 2.11719 1727.67 2.11719C1719.57 2.11719 1713.3 3.60156 1708.84 6.57031C1704.61 9.38481 1702.3 13.3666 1701.93 18.5156C1701.91 18.7502 1701.9 18.9872 1701.89 19.2266L1701.85 20.5156H1714.78L1714.86 19.3047C1714.96 16.7005 1716.04 14.7734 1718.1 13.5234C1720.18 12.2474 1723.31 11.6094 1727.48 11.6094C1731.17 11.6094 1733.83 12.0651 1735.45 12.9766C1737.06 13.888 1737.87 15.1641 1737.87 16.8047C1737.84 18.9401 1737.16 20.4115 1735.84 21.2188C1734.53 22.026 1732.35 22.4297 1729.27 22.4297H1719.74V32.0391H1729.51C1733.08 32.0391 1735.59 32.4557 1737.05 33.2891C1738.51 34.0964 1739.23 35.4375 1739.23 37.3125C1739.23 39.2917 1738.28 40.8932 1736.38 42.1172C1734.51 43.3411 1731.59 43.9531 1727.63 43.9531C1723.26 43.9531 1719.98 43.3151 1717.79 42.0391C1715.6 40.737 1714.47 38.5234 1714.39 35.3984L1714.35 34.2266H1701.23L1701.27 35.5547C1701.27 35.7809 1701.28 36.0048 1701.29 36.2266C1701.6 42.0811 1703.96 46.3884 1708.38 49.1484C1712.96 51.987 1719.39 53.4062 1727.67 53.4062C1735.43 53.4062 1741.6 51.8568 1746.19 48.7578C1750.8 45.6328 1753.1 41.9219 1753.1 37.625C1753.1 34.2135 1752.15 31.5703 1750.25 29.6953ZM1697.87 42.1953V52.5469H1654.08V2.97656H1697.28V13.7188H1667.12V22.7422H1693.8V32.1953H1667.12V42.1953H1697.87ZM1757.86 54.5469V0.976562H1805.06V15.7188H1774.91V20.7422H1801.59V34.1953H1774.91V40.1953H1805.65V54.5469H1757.86ZM1803.65 42.1953V52.5469H1759.86V2.97656H1803.06V13.7188H1772.91V22.7422H1799.59V32.1953H1772.91V42.1953H1803.65ZM1809.03 54.5469V0.976562H1826.74V19.2188H1846.06V0.976562H1863.77V54.5469H1846.06V34.625H1826.74V54.5469H1809.03ZM1824.74 2.97656V21.2188H1848.06V2.97656H1861.77V52.5469H1848.06V32.625H1824.74V52.5469H1811.03V2.97656H1824.74ZM1865.71 15.8359V0.976562H1921.55V15.8359H1902.6V54.5469H1884.7V15.8359H1865.71ZM1867.71 13.8359V2.97656H1919.55V13.8359H1900.6V52.5469H1886.7V13.8359H1867.71ZM1916.05 54.5469L1941.09 0.9375H1958.21L1982.31 53.0007V0.976562H2000.02V39.6094H2018.95V0.976562H2036.66V39.6094H2043.5V65.6797H2026.77V54.5469H1964.17L1960 44.9766H1938.53L1934.42 54.5469H1916.05ZM1937.21 42.9766H1961.31L1965.48 52.5469H1979.9L1956.93 2.9375H1942.36L1919.2 52.5469H1933.1L1937.21 42.9766ZM1950.76 18.7969C1950.57 18.3398 1950.4 17.9297 1950.25 17.5666C1950.25 17.5604 1950.24 17.5543 1950.24 17.5481C1950.23 17.527 1950.22 17.506 1950.21 17.4852C1950.1 17.2191 1949.99 16.9792 1949.9 16.7656C1949.7 16.2538 1949.5 15.7876 1949.28 15.3671C1949.26 15.3383 1949.25 15.3096 1949.23 15.2812H1949.12C1949.1 15.3097 1949.09 15.3383 1949.07 15.3672C1948.85 15.7877 1948.63 16.2539 1948.41 16.7656C1948.33 16.9652 1948.24 17.1878 1948.15 17.4333C1948.13 17.4817 1948.11 17.5309 1948.09 17.5811C1948.08 17.5866 1948.08 17.592 1948.08 17.5975C1947.94 17.9529 1947.77 18.3527 1947.59 18.7969L1941.12 33.875H1957.34L1950.76 18.7969ZM1954.28 31.875L1949.18 20.1768L1944.15 31.875H1954.28ZM2041.5 41.6094V63.6797H2028.77V52.5469H1984.31V2.97656H1998.02V41.6094H2020.95V2.97656H2034.66V41.6094H2041.5ZM2100.96 54.5469H2083.37L2083.33 28.4612L2064.15 54.5469H2045.59V0.976562H2063.19V26.7946L2082.41 0.976562H2100.96V54.5469ZM2063.18 30.2101C2062.75 30.8845 2062.42 31.4551 2062.18 31.9219C2062.18 31.9336 2062.17 31.9453 2062.16 31.9569C2062.14 32.0118 2062.11 32.0652 2062.09 32.1172C2061.83 32.6901 2061.58 33.3802 2061.34 34.1875H2061.11C2061.11 34.165 2061.11 34.1426 2061.11 34.1201C2061.13 33.4759 2061.15 32.8317 2061.15 32.1875C2061.15 32.099 2061.15 32.0104 2061.15 31.9219C2061.15 31.8472 2061.15 31.7714 2061.16 31.6944C2061.16 31.6872 2061.16 31.6799 2061.16 31.6726C2061.17 31.063 2061.18 30.382 2061.19 29.6294C2061.19 29.5226 2061.19 29.4144 2061.19 29.3047V2.97656H2047.59V52.5469H2063.14L2083.1 25.3984C2083.18 25.2912 2083.26 25.1857 2083.33 25.0817C2083.88 24.3077 2084.27 23.6235 2084.5 23.0292C2084.5 23.0247 2084.51 23.0201 2084.51 23.0156C2084.79 22.3125 2085.04 21.6354 2085.25 20.9844H2085.48M2085.48 21.0594C2085.48 21.6793 2085.46 22.321 2085.41 22.9844C2085.41 23.0208 2085.41 23.0572 2085.41 23.0938C2085.4 23.1786 2085.39 23.2655 2085.39 23.3546C2085.39 23.3611 2085.39 23.3677 2085.39 23.3742C2085.35 24.0354 2085.33 24.8123 2085.33 25.705C2085.33 25.72 2085.33 25.735 2085.33 25.75L2085.37 52.5469H2098.96V2.97656H2083.41L2063.49 29.7344C2063.38 29.8983 2063.28 30.0569 2063.18 30.2101M2158.27 54.5469H2140.55V39.5859H2131.48L2121.23 54.5469H2101.71L2114.63 36.1683C2113.24 35.3784 2111.99 34.4157 2110.88 33.272L2110.88 33.2658C2107.54 29.783 2105.95 25.2584 2105.95 19.8906C2105.95 14.2677 2107.84 9.59894 2111.72 6.09991L2111.73 6.09485C2115.64 2.60198 2120.92 0.976562 2127.32 0.976562H2158.27V54.5469ZM2115.79 34.5231C2116.37 34.8432 2116.98 35.1321 2117.63 35.3899L2105.56 52.5469H2120.17L2130.43 37.5859H2142.55V52.5469H2156.27V2.97656H2127.32C2121.25 2.97656 2116.5 4.51302 2113.06 7.58594C2109.65 10.6589 2107.95 14.7604 2107.95 19.8906C2107.95 24.8385 2109.4 28.8359 2112.32 31.8828C2113.32 32.9214 2114.48 33.8015 2115.79 34.5231ZM2187.16 54.5469V0.976562H2241.51V54.5469H2223.76V15.9141H2204.87V54.5469H2187.16ZM2202.87 52.5469H2189.16V2.97656H2239.51V52.5469H2225.76V13.9141H2202.87V52.5469ZM2248.09 54.5469V0.976562H2279.59C2286.39 0.976562 2291.86 2.62147 2295.62 6.26399C2299.37 9.86669 2301.16 14.7399 2301.16 20.6328C2301.16 26.4752 2299.4 31.3713 2295.74 35.1158C2292.02 38.9339 2286.4 40.6406 2279.35 40.6406H2265.8V54.5469H2248.09ZM2294.23 7.70312C2290.98 4.55208 2286.1 2.97656 2279.59 2.97656H2250.09V52.5469H2263.8V38.6406H2279.35C2286.12 38.6406 2291.11 37 2294.31 33.7188C2297.54 30.4115 2299.16 26.0495 2299.16 20.6328C2299.16 15.1641 2297.52 10.8542 2294.23 7.70312ZM2283.38 15.125C2281.99 13.6927 2279.59 12.9766 2276.15 12.9766H2263.8V29.3047H2276.15C2279.59 29.3047 2281.99 28.5365 2283.38 27C2284.76 25.4635 2285.45 23.4323 2285.45 20.9062C2285.45 18.4583 2284.76 16.5312 2283.38 15.125ZM2265.8 27.3047H2276.15C2279.38 27.3047 2281.08 26.5674 2281.89 25.6635C2282.87 24.5716 2283.45 23.0541 2283.45 20.9062C2283.45 18.8483 2282.88 17.4724 2281.95 16.5259L2281.94 16.5194L2281.93 16.5128C2281.13 15.6756 2279.41 14.9766 2276.15 14.9766H2265.8V27.3047ZM2310.22 49.0587L2310.21 49.0526C2303.89 44.4976 2300.87 37.4315 2300.87 28.2891V26.8828C2300.87 17.9058 2303.9 10.9594 2310.22 6.46376C2316.34 2.11033 2323.92 0 2332.83 0C2341.74 0 2349.32 2.1101 2355.43 6.46301C2361.78 10.9572 2364.83 17.9034 2364.83 26.8828V28.2891C2364.83 37.435 2361.79 44.5015 2355.44 49.0551L2355.43 49.0587C2349.32 53.4128 2341.74 55.5234 2332.83 55.5234C2323.91 55.5234 2316.33 53.4128 2310.22 49.0587ZM2354.27 8.09375C2348.57 4.03125 2341.42 2 2332.83 2C2324.23 2 2317.09 4.03125 2311.38 8.09375C2305.71 12.1302 2302.87 18.3932 2302.87 26.8828V28.2891C2302.87 36.9609 2305.71 43.3411 2311.38 47.4297C2317.09 51.4922 2324.23 53.5234 2332.83 53.5234C2341.42 53.5234 2348.57 51.4922 2354.27 47.4297C2359.98 43.3411 2362.83 36.9609 2362.83 28.2891V26.8828C2362.83 18.3932 2359.98 12.1302 2354.27 8.09375ZM2322.66 16.416L2322.65 16.423C2320.44 18.0456 2319.16 20.7186 2319.16 24.9297V30.3984C2319.16 34.7888 2320.46 37.5649 2322.66 39.2298C2325.12 41.0643 2328.46 42.085 2332.88 42.1094C2337.26 42.1337 2340.56 41.1254 2342.98 39.2777L2342.99 39.2724C2345.23 37.5759 2346.53 34.7912 2346.53 30.4375V24.9297C2346.53 20.7173 2345.25 18.0644 2343.06 16.469C2340.63 14.6998 2337.28 13.6981 2332.85 13.6484C2328.41 13.6248 2325.07 14.6144 2322.66 16.416ZM2332.87 11.6484C2328.13 11.6224 2324.33 12.6771 2321.46 14.8125C2318.6 16.9219 2317.16 20.2943 2317.16 24.9297V30.3984C2317.16 35.1901 2318.6 38.6667 2321.46 40.8281C2324.35 42.9896 2328.15 44.0833 2332.87 44.1094C2337.55 44.1354 2341.33 43.0547 2344.2 40.8672C2347.09 38.6797 2348.53 35.2031 2348.53 30.4375V24.9297C2348.53 20.2943 2347.1 16.9349 2344.23 14.8516C2341.37 12.7682 2337.58 11.7005 2332.87 11.6484ZM2368.48 54.5469V0.976562H2415.69V15.7188H2385.53V20.7422H2412.21V34.1953H2385.53V40.1953H2416.27V54.5469H2368.48ZM2414.27 42.1953V52.5469H2370.48V2.97656H2413.69V13.7188H2383.53V22.7422H2410.21V32.1953H2383.53V42.1953H2414.27ZM2457.97 54.5469L2440.05 35.1719H2437.37V54.5469H2419.66V0.976562H2437.37V20.1562H2439.49L2457.03 0.976562H2528.5V15.8359H2509.55V54.5469H2491.65V15.8359H2472.66V7.27479L2454.61 26.4721L2480.57 54.5469H2457.97ZM2451.87 26.4604L2473.96 2.97656H2457.91L2440.37 22.1562H2435.37V2.97656H2421.66V52.5469H2435.37V33.1719H2440.93L2458.84 52.5469H2475.99L2451.87 26.4604ZM2474.66 13.8359H2493.65V52.5469H2507.55V13.8359H2526.5V2.97656H2474.66V13.8359ZM2523.01 54.5469L2548.04 0.9375H2565.16L2589.98 54.5469H2571.13L2566.95 44.9766H2545.48L2541.37 54.5469H2523.01ZM2544.16 42.9766H2568.26L2572.44 52.5469H2586.85L2563.88 2.9375H2549.31L2526.15 52.5469H2540.05L2544.16 42.9766ZM2557.71 18.7969C2557.53 18.3398 2557.36 17.9297 2557.2 17.5666C2557.2 17.5604 2557.2 17.5542 2557.19 17.5481C2557.18 17.527 2557.18 17.506 2557.17 17.4852C2557.05 17.2191 2556.95 16.9792 2556.85 16.7656C2556.66 16.2538 2556.45 15.7876 2556.23 15.3671C2556.22 15.3383 2556.2 15.3096 2556.19 15.2812H2556.07C2556.06 15.3097 2556.04 15.3383 2556.03 15.3672C2555.81 15.7877 2555.59 16.2539 2555.37 16.7656C2555.29 16.9652 2555.2 17.1878 2555.1 17.4333C2555.08 17.4817 2555.06 17.5309 2555.04 17.5811C2555.04 17.5866 2555.03 17.592 2555.03 17.5975C2554.89 17.9529 2554.73 18.3527 2554.55 18.7969L2548.07 33.875H2564.29L2557.71 18.7969ZM2561.24 31.875L2556.13 20.1768L2551.11 31.875H2561.24ZM2142.55 12.7031V28.6016H2130.13C2127.16 28.6016 2125.03 27.8854 2123.73 26.4531C2122.45 24.9948 2121.81 23.0677 2121.81 20.6719C2121.81 18.276 2122.45 16.362 2123.73 14.9297C2125.03 13.4714 2127.16 12.7292 2130.13 12.7031H2142.55ZM2125.22 16.2601C2124.35 17.2413 2123.81 18.6398 2123.81 20.6719C2123.81 22.6922 2124.34 24.1089 2125.22 25.121C2125.98 25.9509 2127.44 26.6016 2130.13 26.6016H2140.55V14.7031H2130.14C2127.45 14.7281 2125.99 15.401 2125.22 16.2601Z" fill="url(#paint2_linear_302_2311)"/>
<circle cx="2632" cy="25.5469" r="6" fill="#28AAB9"/>
<path fill-rule="evenodd" clip-rule="evenodd" d="M2681.69 54.5469V0.976562H2712.16C2718.15 0.976562 2722.98 2.09115 2726.25 4.68766C2729.58 7.29933 2731.2 10.97 2731.2 15.4375C2731.2 18.6687 2730.34 21.5132 2728.5 23.8287C2727.81 24.6897 2727.05 25.4461 2726.22 26.0971C2727.66 26.8143 2728.96 27.7488 2730.1 28.9064C2732.56 31.3331 2733.66 34.6629 2733.66 38.6016C2733.66 43.6409 2731.71 47.7067 2727.79 50.5364C2723.98 53.281 2718.99 54.5469 2713.02 54.5469H2681.69ZM2728.69 30.3203C2727.42 29.0364 2725.92 28.0594 2724.2 27.3892C2723.27 27.0304 2722.28 26.7596 2721.22 26.5767C2721.21 26.5746 2721.2 26.5724 2721.19 26.5703V26.4531C2721.19 26.451 2721.2 26.4489 2721.21 26.4468C2722.22 26.1411 2723.15 25.7259 2724.01 25.2011C2725.12 24.5161 2726.09 23.6444 2726.93 22.5859C2728.44 20.6849 2729.2 18.3021 2729.2 15.4375C2729.2 11.5052 2727.8 8.44531 2725.02 6.25781C2722.26 4.07031 2717.97 2.97656 2712.16 2.97656H2683.69V52.5469H2713.02C2718.73 52.5469 2723.26 51.3359 2726.62 48.9141C2729.98 46.4922 2731.66 43.0547 2731.66 38.6016C2731.66 35.0339 2730.67 32.2734 2728.69 30.3203ZM2715.72 32.7422C2714.34 31.6484 2712.33 31.1016 2709.7 31.1016H2697.01V43.4453H2709.7C2712.33 43.4453 2714.34 42.9375 2715.72 41.9219C2717.1 40.8802 2717.79 39.3438 2717.79 37.3125C2717.79 35.3333 2717.1 33.8099 2715.72 32.7422ZM2699.01 41.4453H2709.7C2712.11 41.4453 2713.63 40.9744 2714.52 40.3182C2715.31 39.7234 2715.79 38.834 2715.79 37.3125C2715.79 35.8579 2715.32 34.9588 2714.5 34.3241L2714.49 34.3169L2714.48 34.3097C2713.59 33.6047 2712.1 33.1016 2709.7 33.1016H2699.01V41.4453ZM2792.37 54.5469H2774.78L2774.74 28.4612L2755.56 54.5469H2737V0.976562H2754.59V26.7946L2773.82 0.976562H2792.37V54.5469ZM2754.59 30.2101C2754.16 30.8845 2753.83 31.4551 2753.59 31.9219C2753.58 31.9336 2753.58 31.9453 2753.57 31.9569C2753.54 32.0118 2753.52 32.0652 2753.49 32.1172C2753.23 32.6901 2752.98 33.3802 2752.75 34.1875H2752.52C2752.52 34.165 2752.52 34.1426 2752.52 34.1201C2752.54 33.4759 2752.55 32.8317 2752.55 32.1875C2752.55 32.099 2752.55 32.0104 2752.55 31.9219C2752.56 31.8472 2752.56 31.7714 2752.56 31.6944C2752.56 31.6872 2752.56 31.6799 2752.56 31.6726C2752.58 31.063 2752.59 30.382 2752.59 29.6294C2752.59 29.5226 2752.59 29.4144 2752.59 29.3047V2.97656H2739V52.5469H2754.55L2774.51 25.3984C2774.59 25.2912 2774.66 25.1857 2774.74 25.0817C2775.29 24.3077 2775.68 23.6235 2775.91 23.0292C2775.91 23.0247 2775.91 23.0201 2775.91 23.0156C2776.2 22.3125 2776.45 21.6354 2776.66 20.9844H2776.89C2776.89 21.0093 2776.89 21.0343 2776.89 21.0593C2776.89 21.6793 2776.87 22.321 2776.82 22.9844C2776.82 23.0208 2776.82 23.0572 2776.81 23.0938C2776.81 23.1786 2776.8 23.2655 2776.8 23.3546C2776.79 23.3611 2776.79 23.3677 2776.79 23.3742C2776.75 24.0354 2776.74 24.8124 2776.73 25.7051C2776.73 25.72 2776.73 25.735 2776.73 25.75L2776.77 52.5469H2790.37V2.97656H2774.82L2754.9 29.7344C2754.79 29.8983 2754.69 30.0569 2754.59 30.2101ZM2843.33 65.6797V54.5469H2810.84V65.6797H2794.11V39.6094H2800.47C2801.06 38.1697 2801.54 36.7609 2801.91 35.3828L2801.92 35.3752L2801.92 35.3676C2802.72 32.4952 2803.28 28.5051 2803.57 23.336L2803.57 23.3278L2804.97 0.976562H2853.23V39.6094H2860.06V65.6797H2843.33ZM2851.23 41.6094V2.97656H2806.85L2805.56 23.4453C2805.28 28.6797 2804.7 32.8333 2803.84 35.9062C2803.51 37.1243 2803.11 38.3586 2802.62 39.6094C2802.36 40.2715 2802.08 40.9381 2801.78 41.6094H2796.11V63.6797H2808.84V52.5469H2845.33V63.6797H2858.06V41.6094H2851.23ZM2815.37 39.6094C2815.16 40.2878 2814.94 40.9545 2814.69 41.6094H2837.52V13.9141H2818.73L2817.87 24.2266C2817.35 29.8516 2816.73 34.1615 2816.03 37.1562C2815.83 37.9904 2815.61 38.8081 2815.37 39.6094ZM2820.57 15.9141L2819.86 24.4018L2819.86 24.411C2819.34 30.0654 2818.71 34.4835 2817.98 37.6134L2817.98 37.6172C2817.82 38.2907 2817.64 38.9548 2817.45 39.6094H2835.52V15.9141H2820.57ZM2862.16 54.5469V0.976562H2909.36V15.7188H2879.2V20.7422H2905.88V34.1953H2879.2V40.1953H2909.95V54.5469H2862.16ZM2907.95 42.1953V52.5469H2864.16V2.97656H2907.36V13.7188H2877.2V22.7422H2903.88V32.1953H2877.2V42.1953H2907.95ZM2919.68 49.0587L2919.67 49.0526C2913.34 44.4976 2910.32 37.4315 2910.32 28.2891V26.8828C2910.32 17.9064 2913.35 10.9604 2919.68 6.46478C2925.79 2.11067 2933.37 0 2942.28 0C2951.19 0 2958.77 2.1101 2964.88 6.46301C2971.23 10.9572 2974.28 17.9034 2974.28 26.8828V28.2891C2974.28 37.435 2971.24 44.5015 2964.89 49.0551L2964.89 49.0587C2958.77 53.4128 2951.19 55.5234 2942.28 55.5234C2933.37 55.5234 2925.79 53.4128 2919.68 49.0587ZM2963.73 8.09375C2958.02 4.03125 2950.88 2 2942.28 2C2933.69 2 2926.54 4.03125 2920.84 8.09375C2915.16 12.1302 2912.32 18.3932 2912.32 26.8828V28.2891C2912.32 36.9609 2915.16 43.3411 2920.84 47.4297C2926.54 51.4922 2933.69 53.5234 2942.28 53.5234C2950.88 53.5234 2958.02 51.4922 2963.73 47.4297C2969.43 43.3411 2972.28 36.9609 2972.28 28.2891V26.8828C2972.28 18.3932 2969.43 12.1302 2963.73 8.09375ZM2932.11 16.416L2932.1 16.423C2929.9 18.0456 2928.62 20.7186 2928.62 24.9297V30.3984C2928.62 34.7879 2929.91 37.5637 2932.11 39.2287C2934.57 41.0639 2937.92 42.085 2942.33 42.1094C2946.71 42.1337 2950.01 41.1254 2952.43 39.2777L2952.44 39.2724C2954.68 37.5759 2955.98 34.7912 2955.98 30.4375V24.9297C2955.98 20.7173 2954.7 18.0644 2952.51 16.469C2950.08 14.6998 2946.74 13.6981 2942.3 13.6484C2937.86 13.6248 2934.53 14.6144 2932.11 16.416ZM2942.32 11.6484C2937.58 11.6224 2933.78 12.6771 2930.91 14.8125C2928.05 16.9219 2926.62 20.2943 2926.62 24.9297V30.3984C2926.62 35.1901 2928.05 38.6667 2930.91 40.8281C2933.8 42.9896 2937.61 44.0833 2942.32 44.1094C2947.01 44.1354 2950.78 43.0547 2953.65 40.8672C2956.54 38.6797 2957.98 35.2031 2957.98 30.4375V24.9297C2957.98 20.2943 2956.55 16.9349 2953.69 14.8516C2950.82 12.7682 2947.03 11.7005 2942.32 11.6484ZM2699.01 14.5078V21.8359H2708.96C2711.29 21.8359 2712.52 21.3442 2713.12 20.7936C2713.76 20.215 2714.19 19.3353 2714.19 17.8594C2714.19 16.5169 2713.78 15.8346 2713.25 15.4185C2712.63 14.9411 2711.34 14.5078 2708.96 14.5078H2699.01ZM2697.01 12.5078H2708.96C2711.49 12.5078 2713.32 12.9505 2714.47 13.8359C2715.61 14.7214 2716.19 16.0625 2716.19 17.8594C2716.19 19.7604 2715.61 21.2318 2714.47 22.2734C2713.32 23.3151 2711.49 23.8359 2708.96 23.8359H2697.01V12.5078Z" fill="url(#paint3_linear_302_2311)"/>
<circle cx="3021" cy="25.5469" r="6" fill="#28AAB9"/>
<defs>
<linearGradient id="paint0_linear_302_2311" x1="995.141" y1="53.4109" x2="25.7261" y2="-117.54" gradientUnits="userSpaceOnUse">
<stop stop-color="#28AAB9"/>
<stop offset="1" stop-color="#30BCCC"/>
</linearGradient>
<linearGradient id="paint1_linear_302_2311" x1="1422.68" y1="53.4109" x2="1146.02" y2="39.8756" gradientUnits="userSpaceOnUse">
<stop stop-color="#28AAB9"/>
<stop offset="1" stop-color="#30BCCC"/>
</linearGradient>
<linearGradient id="paint2_linear_302_2311" x1="2530.14" y1="53.4109" x2="1560.73" y2="-117.54" gradientUnits="userSpaceOnUse">
<stop stop-color="#28AAB9"/>
<stop offset="1" stop-color="#30BCCC"/>
</linearGradient>
<linearGradient id="paint3_linear_302_2311" x1="2957.68" y1="53.4109" x2="2681.02" y2="39.8756" gradientUnits="userSpaceOnUse">
<stop stop-color="#28AAB9"/>
<stop offset="1" stop-color="#30BCCC"/>
</linearGradient>
</defs>
</svg>
