<svg width="2373" height="54" viewBox="0 0 2373 54" fill="none" xmlns="http://www.w3.org/2000/svg">
<path fill-rule="evenodd" clip-rule="evenodd" d="M0 53.6094V0.0390625H17.7109V18.2812H37.0312V0.0390625H54.7422V51.9686L79.0078 0H96.1295L120.234 52.0632V0.0390625H174.586V53.6094H156.836V14.9766H137.945V53.6094H102.097L97.9209 44.0391H76.4507L72.3412 53.6094H37.0312V33.6875H17.7109V53.6094H0ZM75.1329 42.0391H99.2303L103.406 51.6094H117.82L94.8516 2H80.2812L57.1172 51.6094H71.0234L75.1329 42.0391ZM88.6797 17.8594C88.494 17.4023 88.324 16.9922 88.1696 16.6291C88.167 16.6229 88.1644 16.6168 88.1617 16.6106C88.1528 16.5895 88.1438 16.5685 88.1349 16.5477C88.0213 16.2816 87.9164 16.0417 87.8203 15.8281C87.6253 15.3163 87.419 14.8501 87.2012 14.4296C87.1863 14.4008 87.1713 14.3721 87.1562 14.3438H87.0391C87.024 14.3722 87.009 14.4008 86.9939 14.4297C86.7746 14.8502 86.5553 15.3164 86.3359 15.8281C86.2561 16.0277 86.1667 16.2503 86.0677 16.4958C86.0482 16.5442 86.0283 16.5935 86.0081 16.6436C86.0059 16.6491 86.0037 16.6545 86.0015 16.66C85.858 17.0154 85.6961 17.4152 85.5156 17.8594L79.0411 32.9375H95.2589L88.6797 17.8594ZM92.2041 30.9375L87.0997 19.2393L82.0765 30.9375H92.2041ZM15.7109 2.03906V20.2812H39.0312V2.03906H52.7422V51.6094H39.0312V31.6875H15.7109V51.6094H2V2.03906H15.7109ZM135.945 51.6094H122.234V2.03906H172.586V51.6094H158.836V12.9766H135.945V51.6094ZM236.539 53.6094H218.948L218.91 27.5237L199.731 53.6094H181.172V0.0390625H198.766V25.8571L217.988 0.0390625H236.539V53.6094ZM198.762 29.2726C198.331 29.947 197.997 30.5176 197.76 30.9844C197.754 30.9961 197.749 31.0078 197.743 31.0194C197.715 31.0743 197.689 31.1277 197.664 31.1797C197.404 31.7526 197.156 32.4427 196.922 33.25H196.688C196.688 33.2275 196.689 33.2051 196.69 33.1826C196.711 32.5384 196.723 31.8942 196.726 31.25C196.726 31.1615 196.727 31.0729 196.727 30.9844C196.729 30.9097 196.732 30.8339 196.734 30.7569C196.734 30.7496 196.734 30.7424 196.735 30.7351C196.753 30.1255 196.763 29.4445 196.765 28.6919C196.765 28.5851 196.766 28.4769 196.766 28.3672V2.03906H183.172V51.6094H198.719L218.68 24.4609C218.759 24.3537 218.836 24.2482 218.91 24.1442C219.46 23.3702 219.85 22.686 220.081 22.0917C220.082 22.0872 220.084 22.0826 220.086 22.0781C220.372 21.375 220.62 20.6979 220.828 20.0469H221.062C221.062 20.0718 221.063 20.0969 221.062 20.1219C221.061 20.7418 221.037 21.3835 220.992 22.0469C220.99 22.0833 220.987 22.1197 220.984 22.1562C220.978 22.2411 220.973 22.328 220.967 22.4171C220.967 22.4236 220.966 22.4302 220.966 22.4367C220.927 23.0979 220.907 23.8749 220.906 24.7676C220.906 24.7825 220.906 24.7975 220.906 24.8125L220.945 51.6094H234.539V2.03906H218.992L199.07 28.7969C198.962 28.9608 198.86 29.1194 198.762 29.2726ZM243.203 0.0390625H260.836V38.6719H273.359V0.0390625H290.992V38.6719H303.555V0.0390625H321.188V53.6094H243.203V0.0390625ZM305.555 2.03906H319.188V51.6094H245.203V2.03906H258.836V40.6719H275.359V2.03906H288.992V40.6719H305.555V2.03906ZM383.18 53.6094H365.589L365.551 27.5237L346.371 53.6094H327.812V0.0390625H345.406V25.8571L364.628 0.0390625H383.18V53.6094ZM345.402 29.2726C344.972 29.947 344.638 30.5176 344.401 30.9844C344.395 30.9961 344.389 31.0078 344.383 31.0194C344.356 31.0743 344.33 31.1277 344.305 31.1797C344.044 31.7526 343.797 32.4427 343.562 33.25H343.328C343.329 33.2275 343.33 33.2051 343.33 33.1826C343.352 32.5384 343.364 31.8942 343.367 31.25C343.367 31.1615 343.367 31.0729 343.367 30.9844C343.37 30.9097 343.372 30.8339 343.375 30.7569C343.375 30.7496 343.375 30.7424 343.375 30.7351C343.393 30.1255 343.404 29.4445 343.406 28.6919C343.406 28.5851 343.406 28.4769 343.406 28.3672V2.03906H329.812V51.6094H345.359L365.32 24.4609C365.4 24.3537 365.477 24.2482 365.551 24.1442C366.101 23.3702 366.491 22.686 366.721 22.0917C366.723 22.0872 366.725 22.0826 366.727 22.0781C367.013 21.375 367.26 20.6979 367.469 20.0469H367.703C367.703 20.0718 367.703 20.0969 367.703 20.1219C367.701 20.7418 367.678 21.3835 367.633 22.0469C367.63 22.0833 367.628 22.1197 367.625 22.1562C367.619 22.2411 367.613 22.328 367.608 22.4171C367.607 22.4236 367.607 22.4302 367.607 22.4367C367.567 23.0979 367.548 23.8749 367.547 24.7676C367.547 24.7825 367.547 24.7975 367.547 24.8125L367.586 51.6094H381.18V2.03906H365.633L345.711 28.7969C345.603 28.9608 345.5 29.1194 345.402 29.2726ZM385.117 14.8984V0.0390625H440.953V14.8984H422.008V53.6094H404.102V14.8984H385.117ZM387.117 12.8984V2.03906H438.953V12.8984H420.008V51.6094H406.102V12.8984H387.117ZM442.891 53.6094V0.0390625H490.094V14.7812H459.938V19.8047H486.617V33.2578H459.938V39.2578H490.68V53.6094H442.891ZM488.68 41.2578V51.6094H444.891V2.03906H488.094V12.7812H457.938V21.8047H484.617V31.2578H457.938V41.2578H488.68ZM516.25 53.6094V0.0390625H533.961V18.2812H553.281V0.0390625H570.992V51.9686L595.258 0H612.38L636.484 52.0631V0.0390625H657.074L674.187 30.3353L691.261 0.0390625H712.008V53.6094H694.57V27.8556L680.409 53.6094H667.579L653.382 27.9579L653.417 53.6094H618.347L614.171 44.0391H592.701L588.591 53.6094H553.281V33.6875H533.961V53.6094H516.25ZM591.383 42.0391H615.48L619.656 51.6094H634.07L611.102 2H596.531L573.367 51.6094H587.273L591.383 42.0391ZM604.93 17.8594C604.744 17.4023 604.574 16.9922 604.42 16.6291C604.417 16.6229 604.414 16.6167 604.412 16.6106C604.403 16.5895 604.394 16.5685 604.385 16.5477C604.271 16.2816 604.166 16.0417 604.07 15.8281C603.875 15.3163 603.669 14.8501 603.451 14.4296C603.436 14.4008 603.421 14.3721 603.406 14.3438H603.289C603.274 14.3722 603.259 14.4008 603.244 14.4297C603.025 14.8502 602.805 15.3164 602.586 15.8281C602.506 16.0277 602.417 16.2503 602.318 16.4958C602.298 16.5442 602.278 16.5934 602.258 16.6436C602.256 16.6491 602.254 16.6545 602.251 16.66C602.108 17.0154 601.946 17.4152 601.766 17.8594L595.291 32.9375H611.509L604.93 17.8594ZM608.454 30.9375L603.35 19.2393L598.327 30.9375H608.454ZM651.375 22.7812C651.375 22.2599 651.355 21.7286 651.316 21.1875C651.315 21.1779 651.314 21.1682 651.314 21.1586C651.313 21.1551 651.313 21.1517 651.313 21.1483C651.308 21.0808 651.303 21.0131 651.297 20.9453C651.248 20.3332 651.21 19.7786 651.185 19.2815C651.183 19.2499 651.181 19.2186 651.18 19.1875H651.453C651.633 19.7022 651.826 20.2677 652.032 20.8841C652.032 20.8849 652.032 20.8857 652.032 20.8865C652.035 20.8931 652.037 20.8997 652.039 20.9062C652.247 21.5052 652.495 22.1172 652.781 22.7422L652.802 22.7793L652.803 22.7812L668.758 51.6094H679.227L695.164 22.625C695.424 22.0521 695.659 21.4792 695.867 20.9062C695.875 20.8843 695.883 20.8624 695.891 20.8404C695.891 20.8394 695.892 20.8385 695.892 20.8375C696.092 20.2865 696.292 19.7235 696.492 19.1484H696.766C696.764 19.1796 696.763 19.2108 696.761 19.242C696.735 19.7851 696.698 20.3399 696.648 20.9062C696.641 20.9867 696.634 21.0675 696.628 21.1484C696.627 21.1596 696.626 21.1708 696.625 21.182C696.589 21.6668 696.57 22.1608 696.57 22.6641V51.6094H710.008V2.03906H692.43L675.633 31.8438C675.509 32.1129 675.393 32.3655 675.285 32.6017C675.25 32.6778 675.216 32.7521 675.183 32.8248C675.061 33.0941 674.95 33.34 674.852 33.5625C674.65 34.0166 674.46 34.5074 674.283 35.0348C674.277 35.0518 674.271 35.0688 674.266 35.0859H674.148C674.143 35.071 674.137 35.0561 674.131 35.0412C673.929 34.5113 673.726 34.0184 673.523 33.5625C673.425 33.34 673.314 33.0941 673.192 32.8248C673.159 32.7521 673.125 32.6778 673.09 32.6017C672.982 32.3655 672.866 32.1129 672.742 31.8438L655.906 2.03906H638.484V51.6094H651.414L651.375 22.7812ZM531.961 2.03906V20.2812H555.281V2.03906H568.992V51.6094H555.281V31.6875H531.961V51.6094H518.25V2.03906H531.961Z" fill="url(#paint0_linear_517_4042)"/>
<circle cx="758.008" cy="26.8047" r="6" fill="#28AAB9"/>
<path fill-rule="evenodd" clip-rule="evenodd" d="M804.008 53.6094V0.0390625H821.719V18.2812H841.039V0.0390625H858.75V51.9686L883.016 0H900.137L924.242 52.0632V0.0390625H978.594V53.6094H960.844V14.9766H941.953V53.6094H906.105L901.929 44.0391H880.459L876.349 53.6094H841.039V33.6875H821.719V53.6094H804.008ZM879.141 42.0391H903.238L907.414 51.6094H921.828L898.859 2H884.289L861.125 51.6094H875.031L879.141 42.0391ZM892.688 17.8594C892.502 17.4023 892.332 16.9922 892.177 16.6291C892.175 16.6229 892.172 16.6168 892.17 16.6106C892.161 16.5895 892.152 16.5685 892.143 16.5477C892.029 16.2816 891.924 16.0417 891.828 15.8281C891.633 15.3163 891.427 14.8501 891.209 14.4296C891.194 14.4008 891.179 14.3721 891.164 14.3438H891.047C891.032 14.3722 891.017 14.4008 891.002 14.4297C890.782 14.8502 890.563 15.3164 890.344 15.8281C890.264 16.0277 890.175 16.2503 890.076 16.4958C890.056 16.5442 890.036 16.5935 890.016 16.6436C890.014 16.6491 890.011 16.6545 890.009 16.66C889.866 17.0154 889.704 17.4152 889.523 17.8594L883.049 32.9375H899.267L892.688 17.8594ZM896.212 30.9375L891.107 19.2393L886.084 30.9375H896.212ZM819.719 2.03906V20.2812H843.039V2.03906H856.75V51.6094H843.039V31.6875H819.719V51.6094H806.008V2.03906H819.719ZM939.953 51.6094H926.242V2.03906H976.594V51.6094H962.844V12.9766H939.953V51.6094ZM1040.55 53.6094H1022.96L1022.92 27.5237L1003.74 53.6094H985.18V0.0390625H1002.77V25.8571L1022 0.0390625H1040.55V53.6094ZM1002.77 29.2726C1002.34 29.947 1002.01 30.5176 1001.77 30.9844C1001.76 30.9961 1001.76 31.0078 1001.75 31.0194C1001.72 31.0743 1001.7 31.1277 1001.67 31.1797C1001.41 31.7526 1001.16 32.4427 1000.93 33.25H1000.7C1000.7 33.2275 1000.7 33.2051 1000.7 33.1826C1000.72 32.5384 1000.73 31.8942 1000.73 31.25C1000.73 31.1615 1000.73 31.0729 1000.73 30.9844C1000.74 30.9097 1000.74 30.8339 1000.74 30.7569C1000.74 30.7496 1000.74 30.7424 1000.74 30.7351C1000.76 30.1255 1000.77 29.4445 1000.77 28.6919C1000.77 28.5851 1000.77 28.4769 1000.77 28.3672V2.03906H987.18V51.6094H1002.73L1022.69 24.4609C1022.77 24.3537 1022.84 24.2482 1022.92 24.1442C1023.47 23.3702 1023.86 22.686 1024.09 22.0917C1024.09 22.0872 1024.09 22.0826 1024.09 22.0781C1024.38 21.375 1024.63 20.6979 1024.84 20.0469H1025.07C1025.07 20.0718 1025.07 20.0969 1025.07 20.1219C1025.07 20.7418 1025.04 21.3835 1025 22.0469C1025 22.0833 1024.99 22.1197 1024.99 22.1562C1024.99 22.2411 1024.98 22.328 1024.98 22.4171C1024.97 22.4236 1024.97 22.4302 1024.97 22.4367C1024.93 23.0979 1024.91 23.8749 1024.91 24.7676C1024.91 24.7825 1024.91 24.7975 1024.91 24.8125L1024.95 51.6094H1038.55V2.03906H1023L1003.08 28.7969C1002.97 28.9608 1002.87 29.1194 1002.77 29.2726ZM1047.21 0.0390625H1064.84V38.6719H1077.37V0.0390625H1095V38.6719H1107.56V0.0390625H1125.2V53.6094H1047.21V0.0390625ZM1109.56 2.03906H1123.2V51.6094H1049.21V2.03906H1062.84V40.6719H1079.37V2.03906H1093V40.6719H1109.56V2.03906ZM1187.19 53.6094H1169.6L1169.56 27.5237L1150.38 53.6094H1131.82V0.0390625H1149.41V25.8571L1168.64 0.0390625H1187.19V53.6094ZM1149.41 29.2726C1148.98 29.947 1148.65 30.5176 1148.41 30.9844C1148.4 30.9961 1148.4 31.0078 1148.39 31.0194C1148.36 31.0743 1148.34 31.1277 1148.31 31.1797C1148.05 31.7526 1147.8 32.4427 1147.57 33.25H1147.34C1147.34 33.2275 1147.34 33.2051 1147.34 33.1826C1147.36 32.5384 1147.37 31.8942 1147.37 31.25C1147.37 31.1615 1147.38 31.0729 1147.38 30.9844C1147.38 30.9097 1147.38 30.8339 1147.38 30.7569C1147.38 30.7496 1147.38 30.7424 1147.38 30.7351C1147.4 30.1255 1147.41 29.4445 1147.41 28.6919C1147.41 28.5851 1147.41 28.4769 1147.41 28.3672V2.03906H1133.82V51.6094H1149.37L1169.33 24.4609C1169.41 24.3537 1169.48 24.2482 1169.56 24.1442C1170.11 23.3702 1170.5 22.686 1170.73 22.0917C1170.73 22.0872 1170.73 22.0826 1170.73 22.0781C1171.02 21.375 1171.27 20.6979 1171.48 20.0469H1171.71C1171.71 20.0718 1171.71 20.0969 1171.71 20.1219C1171.71 20.7418 1171.69 21.3835 1171.64 22.0469C1171.64 22.0833 1171.64 22.1197 1171.63 22.1562C1171.63 22.2411 1171.62 22.328 1171.62 22.4171C1171.62 22.4236 1171.61 22.4302 1171.61 22.4367C1171.58 23.0979 1171.56 23.8749 1171.55 24.7676C1171.55 24.7825 1171.55 24.7975 1171.55 24.8125L1171.59 51.6094H1185.19V2.03906H1169.64L1149.72 28.7969C1149.61 28.9608 1149.51 29.1194 1149.41 29.2726ZM1189.12 14.8984V0.0390625H1244.96V14.8984H1226.02V53.6094H1208.11V14.8984H1189.12ZM1191.12 12.8984V2.03906H1242.96V12.8984H1224.02V51.6094H1210.11V12.8984H1191.12ZM1246.9 53.6094V0.0390625H1294.1V14.7812H1263.95V19.8047H1290.62V33.2578H1263.95V39.2578H1294.69V53.6094H1246.9ZM1292.69 41.2578V51.6094H1248.9V2.03906H1292.1V12.7812H1261.95V21.8047H1288.62V31.2578H1261.95V41.2578H1292.69ZM1320.26 53.6094V0.0390625H1337.97V18.2812H1357.29V0.0390625H1375V51.9686L1399.27 0H1416.39L1440.49 52.0631V0.0390625H1461.08L1478.19 30.3353L1495.27 0.0390625H1516.02V53.6094H1498.58V27.8556L1484.42 53.6094H1471.59L1457.39 27.9579L1457.42 53.6094H1422.35L1418.18 44.0391H1396.71L1392.6 53.6094H1357.29V33.6875H1337.97V53.6094H1320.26ZM1395.39 42.0391H1419.49L1423.66 51.6094H1438.08L1415.11 2H1400.54L1377.38 51.6094H1391.28L1395.39 42.0391ZM1408.94 17.8594C1408.75 17.4023 1408.58 16.9922 1408.43 16.6291C1408.42 16.6229 1408.42 16.6167 1408.42 16.6106C1408.41 16.5895 1408.4 16.5685 1408.39 16.5477C1408.28 16.2816 1408.17 16.0417 1408.08 15.8281C1407.88 15.3163 1407.68 14.8501 1407.46 14.4296C1407.44 14.4008 1407.43 14.3721 1407.41 14.3438H1407.3C1407.28 14.3722 1407.27 14.4008 1407.25 14.4297C1407.03 14.8502 1406.81 15.3164 1406.59 15.8281C1406.51 16.0277 1406.42 16.2503 1406.33 16.4958C1406.31 16.5442 1406.29 16.5934 1406.27 16.6436C1406.26 16.6491 1406.26 16.6545 1406.26 16.66C1406.12 17.0154 1405.95 17.4152 1405.77 17.8594L1399.3 32.9375H1415.52L1408.94 17.8594ZM1412.46 30.9375L1407.36 19.2393L1402.33 30.9375H1412.46ZM1455.38 22.7812C1455.38 22.2599 1455.36 21.7286 1455.32 21.1875C1455.32 21.1779 1455.32 21.1682 1455.32 21.1586C1455.32 21.1551 1455.32 21.1517 1455.32 21.1483C1455.32 21.0808 1455.31 21.0131 1455.3 20.9453C1455.26 20.3332 1455.22 19.7786 1455.19 19.2815C1455.19 19.2499 1455.19 19.2186 1455.19 19.1875H1455.46C1455.64 19.7022 1455.83 20.2677 1456.04 20.8841C1456.04 20.8849 1456.04 20.8857 1456.04 20.8865C1456.04 20.8931 1456.04 20.8997 1456.05 20.9062C1456.26 21.5052 1456.5 22.1172 1456.79 22.7422L1456.81 22.7793L1456.81 22.7812L1472.77 51.6094H1483.23L1499.17 22.625C1499.43 22.0521 1499.67 21.4792 1499.88 20.9062C1499.88 20.8843 1499.89 20.8624 1499.9 20.8404C1499.9 20.8394 1499.9 20.8385 1499.9 20.8375C1500.1 20.2865 1500.3 19.7235 1500.5 19.1484H1500.77C1500.77 19.1796 1500.77 19.2108 1500.77 19.242C1500.74 19.7851 1500.71 20.3399 1500.66 20.9062C1500.65 20.9867 1500.64 21.0675 1500.64 21.1484C1500.64 21.1596 1500.63 21.1708 1500.63 21.182C1500.6 21.6668 1500.58 22.1608 1500.58 22.6641V51.6094H1514.02V2.03906H1496.44L1479.64 31.8438C1479.52 32.1129 1479.4 32.3655 1479.29 32.6017C1479.26 32.6778 1479.22 32.7521 1479.19 32.8248C1479.07 33.0941 1478.96 33.34 1478.86 33.5625C1478.66 34.0166 1478.47 34.5074 1478.29 35.0348C1478.28 35.0518 1478.28 35.0688 1478.27 35.0859H1478.16C1478.15 35.071 1478.14 35.0561 1478.14 35.0412C1477.94 34.5113 1477.73 34.0184 1477.53 33.5625C1477.43 33.34 1477.32 33.0941 1477.2 32.8248C1477.17 32.7521 1477.13 32.6778 1477.1 32.6017C1476.99 32.3655 1476.87 32.1129 1476.75 31.8438L1459.91 2.03906H1442.49V51.6094H1455.42L1455.38 22.7812ZM1335.97 2.03906V20.2812H1359.29V2.03906H1373V51.6094H1359.29V31.6875H1335.97V51.6094H1322.26V2.03906H1335.97Z" fill="url(#paint1_linear_517_4042)"/>
<circle cx="1562.02" cy="26.8047" r="6" fill="#28AAB9"/>
<path fill-rule="evenodd" clip-rule="evenodd" d="M1608.02 53.6094V0.0390625H1625.73V18.2812H1645.05V0.0390625H1662.76V51.9686L1687.02 0H1704.15L1728.25 52.0632V0.0390625H1782.6V53.6094H1764.85V14.9766H1745.96V53.6094H1710.11L1705.94 44.0391H1684.47L1680.36 53.6094H1645.05V33.6875H1625.73V53.6094H1608.02ZM1683.15 42.0391H1707.25L1711.42 51.6094H1725.84L1702.87 2H1688.3L1665.13 51.6094H1679.04L1683.15 42.0391ZM1696.7 17.8594C1696.51 17.4023 1696.34 16.9922 1696.19 16.6291C1696.18 16.6229 1696.18 16.6168 1696.18 16.6106C1696.17 16.5895 1696.16 16.5685 1696.15 16.5477C1696.04 16.2816 1695.93 16.0417 1695.84 15.8281C1695.64 15.3163 1695.43 14.8501 1695.22 14.4296C1695.2 14.4008 1695.19 14.3721 1695.17 14.3438H1695.05C1695.04 14.3722 1695.02 14.4008 1695.01 14.4297C1694.79 14.8502 1694.57 15.3164 1694.35 15.8281C1694.27 16.0277 1694.18 16.2503 1694.08 16.4958C1694.06 16.5442 1694.04 16.5935 1694.02 16.6436C1694.02 16.6491 1694.02 16.6545 1694.02 16.66C1693.87 17.0154 1693.71 17.4152 1693.53 17.8594L1687.06 32.9375H1703.27L1696.7 17.8594ZM1700.22 30.9375L1695.12 19.2393L1690.09 30.9375H1700.22ZM1623.73 2.03906V20.2812H1647.05V2.03906H1660.76V51.6094H1647.05V31.6875H1623.73V51.6094H1610.02V2.03906H1623.73ZM1743.96 51.6094H1730.25V2.03906H1780.6V51.6094H1766.85V12.9766H1743.96V51.6094ZM1844.55 53.6094H1826.96L1826.93 27.5237L1807.75 53.6094H1789.19V0.0390625H1806.78V25.8571L1826 0.0390625H1844.55V53.6094ZM1806.78 29.2726C1806.35 29.947 1806.01 30.5176 1805.78 30.9844C1805.77 30.9961 1805.76 31.0078 1805.76 31.0194C1805.73 31.0743 1805.7 31.1277 1805.68 31.1797C1805.42 31.7526 1805.17 32.4427 1804.94 33.25H1804.7C1804.7 33.2275 1804.7 33.2051 1804.71 33.1826C1804.73 32.5384 1804.74 31.8942 1804.74 31.25C1804.74 31.1615 1804.74 31.0729 1804.74 30.9844C1804.74 30.9097 1804.75 30.8339 1804.75 30.7569C1804.75 30.7496 1804.75 30.7424 1804.75 30.7351C1804.77 30.1255 1804.78 29.4445 1804.78 28.6919C1804.78 28.5851 1804.78 28.4769 1804.78 28.3672V2.03906H1791.19V51.6094H1806.73L1826.7 24.4609C1826.77 24.3537 1826.85 24.2482 1826.93 24.1442C1827.48 23.3702 1827.87 22.686 1828.1 22.0917C1828.1 22.0872 1828.1 22.0826 1828.1 22.0781C1828.39 21.375 1828.64 20.6979 1828.84 20.0469H1829.08C1829.08 20.0718 1829.08 20.0969 1829.08 20.1219C1829.08 20.7418 1829.05 21.3835 1829.01 22.0469C1829.01 22.0833 1829 22.1197 1829 22.1562C1828.99 22.2411 1828.99 22.328 1828.98 22.4171C1828.98 22.4236 1828.98 22.4302 1828.98 22.4367C1828.94 23.0979 1828.92 23.8749 1828.92 24.7676C1828.92 24.7825 1828.92 24.7975 1828.92 24.8125L1828.96 51.6094H1842.55V2.03906H1827.01L1807.09 28.7969C1806.98 28.9608 1806.88 29.1194 1806.78 29.2726ZM1851.22 0.0390625H1868.85V38.6719H1881.38V0.0390625H1899.01V38.6719H1911.57V0.0390625H1929.2V53.6094H1851.22V0.0390625ZM1913.57 2.03906H1927.2V51.6094H1853.22V2.03906H1866.85V40.6719H1883.38V2.03906H1897.01V40.6719H1913.57V2.03906ZM1991.2 53.6094H1973.6L1973.57 27.5237L1954.39 53.6094H1935.83V0.0390625H1953.42V25.8571L1972.64 0.0390625H1991.2V53.6094ZM1953.42 29.2726C1952.99 29.947 1952.65 30.5176 1952.42 30.9844C1952.41 30.9961 1952.4 31.0078 1952.4 31.0194C1952.37 31.0743 1952.35 31.1277 1952.32 31.1797C1952.06 31.7526 1951.81 32.4427 1951.58 33.25H1951.34C1951.34 33.2275 1951.35 33.2051 1951.35 33.1826C1951.37 32.5384 1951.38 31.8942 1951.38 31.25C1951.38 31.1615 1951.38 31.0729 1951.38 30.9844C1951.39 30.9097 1951.39 30.8339 1951.39 30.7569C1951.39 30.7496 1951.39 30.7424 1951.39 30.7351C1951.41 30.1255 1951.42 29.4445 1951.42 28.6919C1951.42 28.5851 1951.42 28.4769 1951.42 28.3672V2.03906H1937.83V51.6094H1953.38L1973.34 24.4609C1973.42 24.3537 1973.49 24.2482 1973.57 24.1442C1974.12 23.3702 1974.51 22.686 1974.74 22.0917C1974.74 22.0872 1974.74 22.0826 1974.74 22.0781C1975.03 21.375 1975.28 20.6979 1975.48 20.0469H1975.72C1975.72 20.0718 1975.72 20.0969 1975.72 20.1219C1975.72 20.7418 1975.69 21.3835 1975.65 22.0469C1975.65 22.0833 1975.64 22.1197 1975.64 22.1562C1975.63 22.2411 1975.63 22.328 1975.62 22.4171C1975.62 22.4236 1975.62 22.4302 1975.62 22.4367C1975.58 23.0979 1975.56 23.8749 1975.56 24.7676C1975.56 24.7825 1975.56 24.7975 1975.56 24.8125L1975.6 51.6094H1989.2V2.03906H1973.65L1953.73 28.7969C1953.62 28.9608 1953.52 29.1194 1953.42 29.2726ZM1993.13 14.8984V0.0390625H2048.97V14.8984H2030.02V53.6094H2012.12V14.8984H1993.13ZM1995.13 12.8984V2.03906H2046.97V12.8984H2028.02V51.6094H2014.12V12.8984H1995.13ZM2050.91 53.6094V0.0390625H2098.11V14.7812H2067.95V19.8047H2094.63V33.2578H2067.95V39.2578H2098.7V53.6094H2050.91ZM2096.7 41.2578V51.6094H2052.91V2.03906H2096.11V12.7812H2065.95V21.8047H2092.63V31.2578H2065.95V41.2578H2096.7ZM2124.27 53.6094V0.0390625H2141.98V18.2812H2161.3V0.0390625H2179.01V51.9686L2203.27 0H2220.4L2244.5 52.0631V0.0390625H2265.09L2282.2 30.3353L2299.28 0.0390625H2320.02V53.6094H2302.59V27.8556L2288.42 53.6094H2275.59L2261.4 27.9579L2261.43 53.6094H2226.36L2222.19 44.0391H2200.72L2196.61 53.6094H2161.3V33.6875H2141.98V53.6094H2124.27ZM2199.4 42.0391H2223.5L2227.67 51.6094H2242.09L2219.12 2H2204.55L2181.38 51.6094H2195.29L2199.4 42.0391ZM2212.95 17.8594C2212.76 17.4023 2212.59 16.9922 2212.44 16.6291C2212.43 16.6229 2212.43 16.6167 2212.43 16.6106C2212.42 16.5895 2212.41 16.5685 2212.4 16.5477C2212.29 16.2816 2212.18 16.0417 2212.09 15.8281C2211.89 15.3163 2211.68 14.8501 2211.47 14.4296C2211.45 14.4008 2211.44 14.3721 2211.42 14.3438H2211.3C2211.29 14.3722 2211.27 14.4008 2211.26 14.4297C2211.04 14.8502 2210.82 15.3164 2210.6 15.8281C2210.52 16.0277 2210.43 16.2503 2210.33 16.4958C2210.31 16.5442 2210.29 16.5934 2210.27 16.6436C2210.27 16.6491 2210.27 16.6545 2210.27 16.66C2210.12 17.0154 2209.96 17.4152 2209.78 17.8594L2203.31 32.9375H2219.52L2212.95 17.8594ZM2216.47 30.9375L2211.37 19.2393L2206.34 30.9375H2216.47ZM2259.39 22.7812C2259.39 22.2599 2259.37 21.7286 2259.33 21.1875C2259.33 21.1779 2259.33 21.1682 2259.33 21.1586C2259.33 21.1551 2259.33 21.1517 2259.33 21.1483C2259.32 21.0808 2259.32 21.0131 2259.31 20.9453C2259.26 20.3332 2259.23 19.7786 2259.2 19.2815C2259.2 19.2499 2259.2 19.2186 2259.2 19.1875H2259.47C2259.65 19.7022 2259.84 20.2677 2260.05 20.8841C2260.05 20.8849 2260.05 20.8857 2260.05 20.8865C2260.05 20.8931 2260.05 20.8997 2260.05 20.9062C2260.26 21.5052 2260.51 22.1172 2260.8 22.7422L2260.82 22.7793L2260.82 22.7812L2276.77 51.6094H2287.24L2303.18 22.625C2303.44 22.0521 2303.67 21.4792 2303.88 20.9062C2303.89 20.8843 2303.9 20.8624 2303.91 20.8404C2303.91 20.8394 2303.91 20.8385 2303.91 20.8375C2304.11 20.2865 2304.31 19.7235 2304.51 19.1484H2304.78C2304.78 19.1796 2304.78 19.2108 2304.78 19.242C2304.75 19.7851 2304.71 20.3399 2304.66 20.9062C2304.66 20.9867 2304.65 21.0675 2304.64 21.1484C2304.64 21.1596 2304.64 21.1708 2304.64 21.182C2304.6 21.6668 2304.59 22.1608 2304.59 22.6641V51.6094H2318.02V2.03906H2300.45L2283.65 31.8438C2283.52 32.1129 2283.41 32.3655 2283.3 32.6017C2283.27 32.6778 2283.23 32.7521 2283.2 32.8248C2283.08 33.0941 2282.97 33.34 2282.87 33.5625C2282.67 34.0166 2282.48 34.5074 2282.3 35.0348C2282.29 35.0518 2282.29 35.0688 2282.28 35.0859H2282.16C2282.16 35.071 2282.15 35.0561 2282.15 35.0412C2281.94 34.5113 2281.74 34.0184 2281.54 33.5625C2281.44 33.34 2281.33 33.0941 2281.21 32.8248C2281.17 32.7521 2281.14 32.6778 2281.11 32.6017C2281 32.3655 2280.88 32.1129 2280.76 31.8438L2263.92 2.03906H2246.5V51.6094H2259.43L2259.39 22.7812ZM2139.98 2.03906V20.2812H2163.3V2.03906H2177.01V51.6094H2163.3V31.6875H2139.98V51.6094H2126.27V2.03906H2139.98Z" fill="url(#paint2_linear_517_4042)"/>
<circle cx="2366.02" cy="26.8047" r="6" fill="#28AAB9"/>
<defs>
<linearGradient id="paint0_linear_517_4042" x1="676.108" y1="51.6093" x2="-2.56443" y2="-10.8256" gradientUnits="userSpaceOnUse">
<stop stop-color="#28AAB9"/>
<stop offset="1" stop-color="#30BCCC"/>
</linearGradient>
<linearGradient id="paint1_linear_517_4042" x1="1480.12" y1="51.6093" x2="801.443" y2="-10.8256" gradientUnits="userSpaceOnUse">
<stop stop-color="#28AAB9"/>
<stop offset="1" stop-color="#30BCCC"/>
</linearGradient>
<linearGradient id="paint2_linear_517_4042" x1="2284.12" y1="51.6093" x2="1605.45" y2="-10.8256" gradientUnits="userSpaceOnUse">
<stop stop-color="#28AAB9"/>
<stop offset="1" stop-color="#30BCCC"/>
</linearGradient>
</defs>
</svg>
