<svg width="20" height="21" viewBox="0 0 20 21" fill="none" xmlns="http://www.w3.org/2000/svg">
<path fill-rule="evenodd" clip-rule="evenodd" d="M9.75863 6.9135L9.79476 7.5314L9.19263 7.45574C7.00088 7.16571 5.08611 6.18212 3.46036 4.53019L2.66555 3.71053L2.46083 4.31581C2.02729 5.6651 2.30427 7.09005 3.20747 8.04842C3.68917 8.57804 3.58079 8.65371 2.74985 8.33845C2.46083 8.23757 2.20793 8.16191 2.18385 8.19974C2.09955 8.28801 2.38857 9.43553 2.61738 9.8895C2.93049 10.52 3.56874 11.1379 4.26721 11.5036L4.8573 11.7936L4.15883 11.8062C3.48445 11.8062 3.46036 11.8189 3.53262 12.0837C3.77347 12.9033 4.72483 13.7734 5.78458 14.1517L6.53122 14.4165L5.88092 14.8201C4.91751 15.4001 3.78551 15.728 2.65351 15.7532C2.11159 15.7658 1.66602 15.8163 1.66602 15.8541C1.66602 15.9802 3.13521 16.6864 3.99023 16.9638C6.55531 17.7835 9.60208 17.4304 11.8902 16.0306C13.5159 15.0344 15.1417 13.0546 15.9004 11.1379C16.3098 10.1165 16.7192 8.25018 16.7192 7.35486C16.7192 6.77479 16.7554 6.69913 17.4298 6.00557C17.8272 5.60205 18.2005 5.16069 18.2727 5.03459C18.3932 4.795 18.3811 4.795 17.767 5.00937C16.7433 5.38768 16.5988 5.33724 17.1046 4.76978C17.4779 4.36625 17.9235 3.63487 17.9235 3.42049C17.9235 3.38266 17.7429 3.44571 17.5381 3.5592C17.3214 3.68531 16.8397 3.87446 16.4784 3.98795L15.8281 4.20232L15.238 3.78619C14.9129 3.5592 14.4552 3.307 14.2144 3.23134C13.6002 3.0548 12.6609 3.08002 12.1069 3.28178C10.6016 3.84924 9.65025 5.31202 9.75863 6.9135Z" fill="#B9DCE1"/>
</svg>
